<?xml version="1.0" encoding="utf-8"?>
<!-- Generator: Adobe Illustrator 26.5.0, SVG Export Plug-In . SVG Version: 6.00 Build 0)  -->
<svg version="1.1" id="Layer_1" xmlns="http://www.w3.org/2000/svg" xmlns:xlink="http://www.w3.org/1999/xlink" x="0px" y="0px"
	 viewBox="0 0 210 80" style="enable-background:new 0 0 210 80;" xml:space="preserve">
<style type="text/css">
	.st0{fill:#FFFFFF;}
</style>
<g>
	<g>
		<path class="st0" d="M29.2,23H4c-0.9,0-1.5-0.1-2-0.4c-0.5-0.3-0.7-0.6-0.7-1c0-0.3,0.1-0.6,0.3-0.9c0.6-1,1.6-2.4,3-4.2
			c1.4-1.8,2.5-3.1,3.2-3.8c0.3-0.3,0.6-0.5,0.7-0.5c0.4,0,0.7,0.3,0.8,0.9c0,0.2,0.1,0.4,0.1,0.8c0,0.3,0.1,0.7,0.2,0.9
			c0.1,0.3,0.2,0.5,0.4,0.6c0.2,0.2,0.5,0.3,0.8,0.4c0.3,0.1,0.7,0.1,1.2,0.1h18.2c1.1,0,2.2,0.1,3.1,0.3c0.9,0.2,1.9,0.8,2.9,1.6
			c1.2,0.9,2,2,2.6,3.3c0.6,1.3,0.9,2.8,1.1,4.6c0.6,5.5,0.9,13.8,0.9,25.1c0,0.4,0,0.7,0,0.9c0,0.2-0.1,0.5-0.2,0.8
			c-0.2,0.6-0.7,1.6-1.5,3c-0.8,1.4-1.3,2.3-1.7,2.6c-0.2,0.2-0.4,0.3-0.6,0.3c-0.2,0-0.4-0.1-0.5-0.2c-0.1-0.2-0.2-0.4-0.2-0.6
			l-0.2-6.9c-0.2-5.7-0.3-10.2-0.5-13.5c-0.2-3.4-0.4-6.1-0.7-8.3C34.3,25,32.4,23,29.2,23z M6.3,35.7c0.4-0.8,0.9-1.7,1.5-2.7
			c0.6-1,1.3-2,2.1-2.8c0.1-0.1,0.3-0.2,0.4-0.2c0.4,0,0.6,0.3,0.7,0.9c0.3,1.6,0.5,5,0.7,10.1c0.2,5.1,0.3,8.7,0.3,10.7
			c0,0.5-0.1,1-0.4,1.6c-0.9,1.9-1.9,3.5-2.8,4.8c-0.1,0.2-0.3,0.3-0.4,0.4c-0.1,0.1-0.3,0.1-0.5,0.1c-0.2,0-0.3-0.1-0.4-0.2
			c-0.1-0.2-0.2-0.4-0.2-0.6C6.5,45.6,6.1,39,6.1,37.8C6.1,36.8,6.2,36.1,6.3,35.7z"/>
		<path class="st0" d="M68.7,25.6C67,23.9,64.9,23,62.4,23H48.5c-0.5,0-1-0.1-1.3-0.3c-0.4-0.2-0.5-0.5-0.5-0.9
			c0-0.2,0.1-0.5,0.2-0.7c0.3-0.5,1.1-1.9,2.6-4c1.4-2.2,2.4-3.6,3-4.2c0.1-0.1,0.3-0.3,0.4-0.4c0.2-0.1,0.4-0.2,0.5-0.2
			c0.5,0,0.8,0.3,1,1c0.1,0.2,0.1,0.6,0.3,1.3c0.1,0.6,0.4,1,0.7,1.2c0.3,0.2,0.9,0.2,1.6,0.2H65c1.3,0,2.7,0.3,4.1,0.9
			c1.4,0.6,2.8,1.6,4.1,3.1c1.3,1.5,2.4,3.5,3.2,5.9c0.8,2.4,1.4,5.8,1.6,10.1c0.2,4.3,0.4,9.1,0.4,14.4c0,0.4,0,0.7,0,0.9
			c0,0.3-0.1,0.5-0.2,0.8c-0.9,2.4-1.9,4.4-2.8,5.8c-0.3,0.3-0.6,0.5-0.9,0.5c-0.2,0-0.3-0.1-0.5-0.3c-0.1-0.2-0.2-0.4-0.3-0.7
			c-0.1-0.6-0.2-3.1-0.4-7.3c-0.2-4-0.3-7.4-0.5-10.1c-0.2-2.8-0.5-5.3-0.9-7.6C71.4,29.6,70.3,27.3,68.7,25.6z"/>
		<path class="st0" d="M95.2,56.3c-1-1.1-1.8-2.5-2.3-4.3c-0.5-1.7-1-4.1-1.6-7c-0.8-4.1-1.5-7.6-2.1-10.3c-0.6-2.7-1.3-5.4-2.2-8.2
			c-0.9-2.7-2-5.2-3.3-7.5c-0.1-0.3-0.2-0.5-0.2-0.6c0-0.1,0.1-0.3,0.2-0.7c0.4-0.6,0.9-1.5,1.7-2.6c0.8-1.1,1.4-1.9,1.9-2.5
			c0.2-0.2,0.3-0.3,0.4-0.4c0.1-0.1,0.3-0.1,0.4-0.1c0.2,0,0.4,0.1,0.5,0.2c0.1,0.2,0.3,0.3,0.4,0.6c0.8,1.7,1.6,4.2,2.5,7.3
			c0.9,3.1,1.6,5.7,2,7.7l1.8,9.2c0.1,0.1,0.1,0.3,0.3,0.4c0.1,0.1,0.3,0.2,0.4,0.2c0.5,0,1.3-0.4,2.4-1.1c1.1-0.7,2.1-1.8,3-3
			c0.9-1.3,1.3-2.7,1.3-4.4c0-2.1-0.1-3.6-0.3-4.6c-0.2-1-0.6-2.3-1.2-3.9c-0.1-0.2-0.1-0.4-0.2-0.6c-0.1-0.2-0.1-0.4-0.1-0.5
			c0-0.3,0.1-0.6,0.4-1c0.8-1.2,1.7-2.5,2.8-3.8c1.1-1.3,1.7-2,1.8-2.2c0.3-0.3,0.5-0.5,0.7-0.5c0.2,0,0.3,0.1,0.4,0.3
			c0.1,0.2,0.2,0.4,0.3,0.7c0.3,1,0.7,2.5,1,4.3c0.3,1.8,0.4,3.5,0.4,5c0,5.4-1.4,9.8-4.3,13.3c-1.1,1.3-2.2,2.5-3.4,3.5
			c-1.2,1-2.5,2-4.1,2.9c-0.4,0.2-0.6,0.6-0.6,1c0,0.2,0.1,0.5,0.2,0.9c0.3,1.3,0.5,2.5,0.8,3.3c0.2,0.9,0.5,1.5,0.7,1.8
			c0.8,1.2,1.8,1.8,3.2,1.8c1.8,0,3.9-0.5,6.5-1.6c2.6-1,4.6-2.2,6.1-3.6c1.8-1.7,3.2-3.5,4.1-5.3c0.9-1.8,1.3-4.2,1.3-7
			c0-2.3-0.2-4.6-0.5-6.8c-0.3-2.2-0.8-4.1-1.4-5.8c0-0.1-0.1-0.4-0.2-0.8c-0.1-0.4-0.2-0.7-0.2-1c0-0.3,0.1-0.5,0.2-0.7
			c0.1-0.2,0.3-0.5,0.5-0.9c0.8-1.2,2.2-2.8,4.1-4.9c0.3-0.3,0.6-0.5,0.8-0.5c0.1,0,0.3,0.1,0.4,0.2c0.1,0.1,0.2,0.3,0.2,0.5
			c1.4,4.4,2.1,8.9,2.1,13.6c0,3.2-0.6,6.6-1.8,10.1c-1.2,3.5-2.6,6.5-4.2,9c-2.4,3.7-5.4,6.7-9,9c-3.6,2.3-7.3,3.4-11.2,3.4
			C97.6,58,96.2,57.5,95.2,56.3z"/>
	</g>
	<g>
		<path class="st0" d="M2,76.8c-0.1,0-0.2,0-0.3,0c-0.1,0-0.2-0.1-0.4-0.1v-1c0.2,0,0.4,0,0.6,0c0.3,0,0.5-0.1,0.7-0.3
			c0.1-0.2,0.2-0.5,0.2-0.9v-5.2c-0.2,0-0.3,0-0.5,0c-0.2,0-0.3,0-0.5,0v-1.1c0.4,0,0.9-0.1,1.3-0.1s0.8,0,1.1-0.1
			c0.3,0,0.6,0,0.9,0c0.4,0,0.8,0,1,0c0.3,0,0.5,0.1,0.7,0.1c0.2,0.1,0.4,0.1,0.6,0.2C7.8,68.7,8,68.8,8.1,69
			c0.2,0.2,0.3,0.4,0.4,0.6c0.1,0.2,0.1,0.3,0.1,0.5c0,0.2,0,0.4,0,0.6v6H7.3v-5.9c0-0.5-0.1-0.9-0.3-1.1c-0.2-0.2-0.5-0.4-1-0.5
			c-0.2,0-0.5-0.1-0.8-0.1c-0.2,0-0.3,0-0.5,0c-0.2,0-0.4,0-0.6,0v5.3c0,0.3,0,0.5-0.1,0.7c0,0.2-0.1,0.4-0.2,0.6
			c-0.1,0.2-0.3,0.5-0.5,0.6c-0.2,0.1-0.4,0.2-0.6,0.3C2.6,76.8,2.3,76.8,2,76.8z"/>
		<path class="st0" d="M10.8,73.7v-5.5h1.3v4.4l-0.9,1.1H10.8z"/>
		<path class="st0" d="M17.6,76.9c-0.3,0-0.6,0-0.9-0.1c-0.3-0.1-0.5-0.2-0.8-0.3c-0.2-0.1-0.4-0.3-0.6-0.5
			c-0.2-0.2-0.4-0.4-0.5-0.7c-0.2-0.4-0.3-0.8-0.4-1.2c-0.1-0.5-0.1-1-0.1-1.6v-4.2h1.3v4.2c0,0.6,0.1,1.2,0.2,1.6
			c0.1,0.4,0.3,0.8,0.5,1.1c0.1,0.2,0.3,0.3,0.6,0.5c0.2,0.1,0.5,0.2,0.8,0.2c0.3,0,0.6-0.1,0.8-0.2c0.2-0.1,0.4-0.3,0.6-0.5
			c0.2-0.3,0.4-0.7,0.5-1.2c0.1-0.5,0.1-1,0.1-1.5c0-0.5,0-1-0.1-1.5c-0.1-0.4-0.2-0.8-0.4-1.1c-0.2-0.2-0.4-0.4-0.6-0.5
			c-0.3-0.1-0.5-0.2-0.8-0.2c-0.1,0-0.2,0-0.2,0c-0.1,0-0.2,0-0.3,0v-1.1c0.1,0,0.3,0,0.4,0c0.1,0,0.3,0,0.4,0c0.3,0,0.6,0,0.9,0.1
			c0.3,0.1,0.5,0.2,0.8,0.3c0.2,0.1,0.4,0.3,0.6,0.5c0.2,0.2,0.3,0.4,0.4,0.7c0.1,0.3,0.2,0.7,0.3,1.2c0.1,0.4,0.1,1,0.1,1.5
			c0,0.4,0,0.9-0.1,1.2c-0.1,0.4-0.1,0.7-0.2,1c-0.1,0.4-0.3,0.7-0.5,1c-0.2,0.3-0.5,0.5-0.8,0.7c-0.2,0.1-0.5,0.3-0.8,0.3
			C18.3,76.9,18,76.9,17.6,76.9z"/>
		<path class="st0" d="M22.4,76.8l0.6-6.2c0-0.1,0-0.2,0-0.3c0-0.1,0-0.1,0-0.2c0-0.1,0-0.3,0-0.4c0-0.1,0-0.3-0.1-0.4
			c0-0.1,0-0.1-0.1-0.2c0-0.1-0.1-0.2-0.1-0.3c0-0.1-0.1-0.2-0.1-0.2c0-0.1,0-0.1-0.1-0.2c0-0.1,0-0.1-0.1-0.2h1.2
			c0.1,0.2,0.1,0.3,0.2,0.5c0.1,0.2,0.1,0.3,0.1,0.4h0.1c0.1-0.1,0.2-0.2,0.3-0.3c0.2-0.1,0.3-0.2,0.5-0.3c0.2-0.1,0.4-0.2,0.7-0.2
			c0.3-0.1,0.6-0.1,0.9-0.1c0.3,0,0.6,0,0.8,0.1c0.3,0.1,0.5,0.2,0.7,0.3c0.1,0.1,0.2,0.2,0.4,0.3c0.1,0.1,0.2,0.3,0.3,0.4
			c0.1,0.2,0.2,0.5,0.3,0.9c0.1,0.3,0.1,0.7,0.1,1.1v5.5h-3.1v-1.1h1.7v-4.4c0-0.3,0-0.6-0.1-0.9c-0.1-0.2-0.2-0.5-0.3-0.6
			c-0.1-0.1-0.2-0.2-0.3-0.3c-0.1-0.1-0.2-0.2-0.4-0.2c-0.1-0.1-0.3-0.1-0.5-0.1c-0.3,0-0.5,0-0.7,0.1c-0.2,0.1-0.4,0.2-0.6,0.3
			c-0.1,0.1-0.3,0.2-0.4,0.3c-0.1,0.1-0.2,0.3-0.3,0.4l-0.6,6.4H22.4z"/>
		<path class="st0" d="M31.4,76.8v-8.5h1.3v8.5H31.4z"/>
		<path class="st0" d="M38.3,76.9c-0.3,0-0.6,0-0.9-0.1c-0.3-0.1-0.5-0.2-0.8-0.3c-0.2-0.1-0.4-0.3-0.6-0.5
			c-0.2-0.2-0.4-0.4-0.5-0.7c-0.2-0.4-0.3-0.8-0.4-1.2c-0.1-0.5-0.1-1-0.1-1.6v-4.2h1.3v4.2c0,0.6,0.1,1.2,0.2,1.6
			c0.1,0.4,0.3,0.8,0.5,1.1c0.1,0.2,0.3,0.3,0.6,0.5c0.2,0.1,0.5,0.2,0.8,0.2c0.3,0,0.6-0.1,0.8-0.2c0.2-0.1,0.4-0.3,0.6-0.5
			c0.2-0.3,0.4-0.7,0.5-1.2c0.1-0.5,0.1-1,0.1-1.5c0-0.5,0-1-0.1-1.5c-0.1-0.4-0.2-0.8-0.4-1.1c-0.2-0.2-0.4-0.4-0.6-0.5
			c-0.3-0.1-0.5-0.2-0.8-0.2c-0.1,0-0.2,0-0.2,0c-0.1,0-0.2,0-0.3,0v-1.1c0.1,0,0.3,0,0.4,0c0.1,0,0.3,0,0.4,0c0.3,0,0.6,0,0.9,0.1
			c0.3,0.1,0.5,0.2,0.8,0.3c0.2,0.1,0.4,0.3,0.6,0.5c0.2,0.2,0.3,0.4,0.4,0.7c0.1,0.3,0.2,0.7,0.3,1.2c0.1,0.4,0.1,1,0.1,1.5
			c0,0.4,0,0.9-0.1,1.2c-0.1,0.4-0.1,0.7-0.2,1c-0.1,0.4-0.3,0.7-0.5,1c-0.2,0.3-0.5,0.5-0.8,0.7c-0.2,0.1-0.5,0.3-0.8,0.3
			C39,76.9,38.7,76.9,38.3,76.9z"/>
		<path class="st0" d="M43.5,76.8v-8.5h1.3v8.5H43.5z"/>
		<path class="st0" d="M46.8,76.8v-3c0-0.3,0-0.5,0-0.7c0-0.2,0.1-0.4,0.1-0.6c0.1-0.2,0.2-0.4,0.3-0.6c0.1-0.2,0.3-0.4,0.5-0.5
			c0.2-0.1,0.5-0.2,0.7-0.3l-1.7-2.8h1.5l2.9,4.7c0.1,0,0.1-0.1,0.1-0.1c0,0,0.1-0.1,0.1-0.1c0.2-0.1,0.4-0.3,0.4-0.5
			c0.1-0.2,0.1-0.5,0.1-0.9v-3.1h1.3v3.1c0,0.4,0,0.7-0.1,0.9c-0.1,0.3-0.1,0.5-0.3,0.7c-0.1,0.2-0.3,0.4-0.5,0.5
			c-0.2,0.2-0.5,0.3-0.8,0.4l1.7,2.8h-1.5L49.1,72c-0.1,0-0.3,0.1-0.5,0.2c-0.2,0.1-0.3,0.3-0.4,0.5c-0.1,0.3-0.2,0.6-0.2,1.1v3
			H46.8z"/>
		<path class="st0" d="M62.1,76.8v-5.9c0-0.5-0.1-0.8-0.3-1.1c-0.2-0.2-0.5-0.4-1-0.5c-0.1,0-0.2,0-0.3,0c-0.1,0-0.3,0-0.4,0
			c-0.2,0-0.4,0-0.6,0c-0.3,0-0.5,0-0.8,0c-0.3,0-0.5,0-0.7,0v-1.1c0.4,0,0.8-0.1,1.1-0.1c0.3,0,0.6,0,0.9,0c0.6,0,1,0,1.3,0.1
			c0.3,0,0.6,0.1,0.9,0.2c0.3,0.1,0.5,0.3,0.7,0.4c0.2,0.2,0.3,0.4,0.4,0.7c0.1,0.2,0.1,0.4,0.1,0.6c0,0.2,0,0.4,0,0.7v5.9H62.1z"/>
		<path class="st0" d="M68.9,76.8c0,0,0-0.1,0-0.1c0,0,0-0.1,0-0.1c0-0.2,0-0.5,0.1-0.9c0.1-0.4,0.1-0.7,0.2-1.1
			c0-0.1,0.1-0.2,0.1-0.4c0-0.2,0.1-0.4,0.2-0.6c0.1-0.2,0.1-0.4,0.2-0.6l1.2-3.7h-5.3v-1.1h6.7v0.9L71.1,73c0,0.1-0.1,0.2-0.1,0.4
			c-0.1,0.2-0.1,0.4-0.2,0.6c-0.1,0.2-0.1,0.3-0.1,0.5c0,0.1-0.1,0.3-0.1,0.5c0,0.2-0.1,0.4-0.1,0.6c0,0.2-0.1,0.4-0.1,0.6
			c0,0.2,0,0.3,0,0.4v0.2H68.9z M65.6,80v-8.3h1.3V80H65.6z"/>
		<path class="st0" d="M73.8,76.8v-8.5c0.1,0,0.2,0,0.3,0c0.1,0,0.3,0,0.5,0c0.4,0,0.8-0.1,1.1-0.1c0.4,0,0.7,0,1,0
			c0.5,0,0.9,0,1.2,0.1c0.3,0,0.6,0.1,0.9,0.2c0.3,0.1,0.5,0.3,0.7,0.4c0.2,0.2,0.3,0.4,0.4,0.7c0.1,0.2,0.1,0.4,0.1,0.6
			c0,0.2,0,0.4,0,0.7v5.9h-1.3v-5.9c0-0.5-0.1-0.9-0.3-1.1c-0.2-0.2-0.6-0.4-1-0.5c-0.1,0-0.2,0-0.4,0c-0.1,0-0.3,0-0.5,0
			c-0.2,0-0.4,0-0.7,0c-0.3,0-0.5,0-0.9,0v7.5H73.8z"/>
		<path class="st0" d="M81.9,76.8l0.6-6.2c0-0.1,0-0.2,0-0.3c0-0.1,0-0.1,0-0.2c0-0.1,0-0.3,0-0.4c0-0.1,0-0.3-0.1-0.4
			c0-0.1,0-0.1-0.1-0.2c0-0.1-0.1-0.2-0.1-0.3c0-0.1-0.1-0.2-0.1-0.2c0-0.1,0-0.1-0.1-0.2c0-0.1,0-0.1-0.1-0.2h1.2
			c0.1,0.2,0.1,0.3,0.2,0.5c0.1,0.2,0.1,0.3,0.1,0.4h0.1c0.1-0.1,0.2-0.2,0.3-0.3c0.2-0.1,0.3-0.2,0.5-0.3c0.2-0.1,0.4-0.2,0.7-0.2
			c0.3-0.1,0.6-0.1,0.9-0.1c0.3,0,0.6,0,0.8,0.1c0.3,0.1,0.5,0.2,0.7,0.3c0.1,0.1,0.2,0.2,0.4,0.3c0.1,0.1,0.2,0.3,0.3,0.4
			c0.1,0.2,0.2,0.5,0.3,0.9c0.1,0.3,0.1,0.7,0.1,1.1v5.5h-3.1v-1.1h1.7v-4.4c0-0.3,0-0.6-0.1-0.9c-0.1-0.2-0.2-0.5-0.3-0.6
			c-0.1-0.1-0.2-0.2-0.3-0.3c-0.1-0.1-0.2-0.2-0.4-0.2c-0.1-0.1-0.3-0.1-0.5-0.1c-0.3,0-0.5,0-0.7,0.1c-0.2,0.1-0.4,0.2-0.6,0.3
			c-0.1,0.1-0.3,0.2-0.4,0.3c-0.1,0.1-0.2,0.3-0.3,0.4l-0.6,6.4H81.9z"/>
		<path class="st0" d="M94.3,76.8c-0.1,0-0.2,0-0.3,0c-0.1,0-0.2-0.1-0.4-0.1v-1c0.2,0,0.4,0,0.6,0c0.3,0,0.5-0.1,0.7-0.3
			c0.1-0.2,0.2-0.5,0.2-0.9v-5.2c-0.2,0-0.3,0-0.5,0c-0.2,0-0.3,0-0.5,0v-1.1c0.4,0,0.9-0.1,1.3-0.1c0.4,0,0.8,0,1.1-0.1
			c0.3,0,0.6,0,0.9,0c0.4,0,0.8,0,1,0c0.3,0,0.5,0.1,0.7,0.1c0.2,0.1,0.4,0.1,0.6,0.2c0.2,0.1,0.4,0.3,0.6,0.4
			c0.2,0.2,0.3,0.4,0.4,0.6c0.1,0.2,0.1,0.3,0.1,0.5c0,0.2,0,0.4,0,0.6v6h-1.3v-5.9c0-0.5-0.1-0.9-0.3-1.1c-0.2-0.2-0.5-0.4-1-0.5
			c-0.2,0-0.5-0.1-0.8-0.1c-0.2,0-0.3,0-0.5,0c-0.2,0-0.4,0-0.6,0v5.3c0,0.3,0,0.5-0.1,0.7c0,0.2-0.1,0.4-0.2,0.6
			c-0.1,0.2-0.3,0.5-0.5,0.6c-0.2,0.1-0.4,0.2-0.6,0.3C94.9,76.8,94.6,76.8,94.3,76.8z"/>
		<path class="st0" d="M106.5,76.8v-5.9c0-0.5-0.1-0.8-0.3-1.1c-0.2-0.2-0.5-0.4-1-0.5c-0.1,0-0.2,0-0.3,0c-0.1,0-0.3,0-0.4,0
			c-0.2,0-0.4,0-0.6,0c-0.3,0-0.5,0-0.8,0c-0.3,0-0.5,0-0.7,0v-1.1c0.4,0,0.8-0.1,1.1-0.1c0.3,0,0.6,0,0.9,0c0.6,0,1,0,1.3,0.1
			c0.3,0,0.6,0.1,0.9,0.2c0.3,0.1,0.5,0.3,0.7,0.4c0.2,0.2,0.3,0.4,0.4,0.7c0.1,0.2,0.1,0.4,0.1,0.6c0,0.2,0,0.4,0,0.7v5.9H106.5z"
			/>
		<path class="st0" d="M110.1,76.8v-4.5c0-0.4,0-0.8,0.1-1.1c0.1-0.3,0.2-0.6,0.3-0.9c0.1-0.2,0.2-0.4,0.3-0.5
			c0.1-0.2,0.2-0.3,0.4-0.4h-1.8v-1.1h3.1v1c-0.1,0.1-0.2,0.2-0.3,0.3c-0.1,0.1-0.2,0.2-0.2,0.4c-0.1,0.1-0.1,0.3-0.2,0.4
			c-0.1,0.2-0.1,0.4-0.2,0.6c0,0.2-0.1,0.4-0.1,0.6c0,0.1,0,0.2,0,0.4c0,0.1,0,0.3,0,0.4v4.5H110.1z"/>
		<path class="st0" d="M113.9,76.8v-8.5h1.3v8.5H113.9z"/>
		<path class="st0" d="M116.7,77.1v-1.1l1.7-0.3c0.1,0,0.2,0,0.4-0.1c0.1,0,0.2-0.1,0.4-0.1l-2-7.4h1.3l1,3.8l0.7,3.2
			c0.4-0.2,0.7-0.4,1-0.8c0.3-0.3,0.5-0.7,0.7-1.1c0.2-0.4,0.3-0.9,0.3-1.4l0.4-3.7h1.3l-0.3,3.7c0,0.4-0.1,0.7-0.2,1
			c-0.1,0.3-0.2,0.6-0.3,0.9c-0.1,0.3-0.3,0.6-0.5,0.8c-0.4,0.6-0.8,1-1.4,1.4c-0.6,0.4-1.3,0.6-2.2,0.7c-0.4,0.1-0.8,0.1-1.2,0.2
			C117.4,77,117.1,77.1,116.7,77.1z"/>
	</g>
	<g>
		<path class="st0" d="M155.4,22.5c-1-0.2-2.2,2.3-0.9,2.5c1.2,0.2,2.4,0.9,3.2,1.8c1.9,2,1.7,4.4,0.7,6.8c-0.8,2-2.1,4.2-2,6.4
			c0.1,1.5,1.1,3,2.2,4c0.9,0.9,2.4-1.3,1.7-2.1c-0.4-0.4-0.8-0.9-1.2-1.4c-0.9-1.3-0.8-2.3-0.3-3.7c0.8-2.2,2.1-4.4,2.3-6.8
			C161.5,26.5,158.9,23.1,155.4,22.5z"/>
		<path class="st0" d="M153.6,32.5c1,0.4,1.9,0.4,2.9-0.1c0.5-0.2,1-1.1,1-1.7c-0.2-2-2.4-2.7-4.1-2.9c-1.1-0.1-2.1,2.4-0.9,2.5
			c0.5,0.1,0.9,0.2,1.4,0.3C153.3,31.3,153,32.2,153.6,32.5z"/>
		<path class="st0" d="M166.7,32.8c1-0.3,2-0.5,3.1-0.8c0.6-0.2,1.9-2.1,0.9-2.4c-1.8-0.6-3.7-1.2-5.6-1.4c-1-0.1-2.2,2.4-0.9,2.5
			c0.7,0.1,1.4,0.2,2.2,0.4C165.9,31.9,165.8,33,166.7,32.8z"/>
		<path class="st0" d="M163.5,47.6c-0.6,0-1.2-0.1-1.7-0.2c-0.5-0.1-1.1-0.3-1.6-0.6c-1-0.5-2.3,1.8-1.4,2.4
			c0.4,0.2,0.8,0.4,1.2,0.5c-0.1,0.4-0.2,1.3,0.4,1.2c1.4-0.1,4.1-0.3,4.6-1.9c0.1-0.3,0.3-1.1-0.2-1.3
			C164.5,47.5,163.9,47.6,163.5,47.6z"/>
		<path class="st0" d="M153.7,17.8c-1.2,1.4-2,3.3-2.6,4.9c-1.7,4.7-2.7,10.3-2.3,15.4c0.4,5.3,2.5,10.5,5.8,14.6
			c1.4,1.7,3,3.4,4.9,4.5c1.9,1.1,3.9,1.3,6.1,1.1c3.9-0.3,8-2.1,10.8-4.7c0.4-0.4,0.9-1.2,0.7-1.8c-0.2-0.5-0.8-0.5-1.2-0.1
			c-2.1,1.9-4.9,3.2-7.6,3.8c-2.1,0.5-4.6,0.7-6.6-0.2c-1.7-0.8-3.2-2.1-4.5-3.5c-3.2-3.6-5.4-8.2-6.2-13
			c-0.8-4.8,0.1-10.2,1.5-14.7c0.4-1.3,0.9-2.6,1.6-3.8c0.1-0.2,0.2-0.4,0.4-0.6c0,0,0-0.1,0.1-0.1c0,0,0,0,0-0.1
			c0.1-0.1,0.1-0.2,0.2-0.3C155.6,18.2,154.9,16.5,153.7,17.8z"/>
		<path class="st0" d="M149.6,22c-1.1-1.8-1.5-4.3-1.3-6.4c0.6-5.1,5.2-8.7,9.5-10.6c7.7-3.5,17.2-3.2,24.7,0.5
			c6.1,3,10.7,8.1,14,14c0.6,1,2.2-1.1,1.7-2.1c-3-5.4-7.1-10.2-12.4-13.3c4-0.4,8.3,0.9,11.1,3.7c3.5,3.5,4.6,9,4.5,13.8
			c-0.1,4.8-1.9,9.4-4.8,13.2c-2.4,3.1-5.7,5.8-9.3,7.4c-1,0.4-1.5,2.9,0,2.3c8.2-3.4,14.5-12,15.8-20.6c1.4-9.1-2-20.2-12.1-21.9
			c-2.1-0.4-4.4-0.4-6.5,0.1c-0.4,0.1-0.7,0.5-0.9,0.9c-4.2-2-8.9-3-13.5-2.9c-9.3,0.2-20.9,4.7-23.4,14.7c-0.7,3-0.4,6.6,1.3,9.3
			C148.5,25,150.1,22.9,149.6,22z"/>
		<path class="st0" d="M182.3,42.1c4-0.5,6-5,6.4-8.5c0-0.4,0-0.6-0.1-0.8c4-1.7,7-5.4,7.6-9.9c0.2-1.8-1.8-0.7-1.9,0.5
			c-0.4,3.1-2,5.4-4.8,6.8c-0.9,0.4-1.8,0.7-2.8,0.9c-0.3,0.1-0.6,0.1-0.9,0.2c-0.2,0-0.4,0-0.2,0c-1.1,0.1-2.1,2.6-0.9,2.5
			c0.9-0.1,1.7-0.2,2.5-0.4c-0.2,0.2-0.3,0.5-0.3,0.8c-0.3,2.4-1.3,5.2-4,5.5C181.8,39.8,180.9,42.3,182.3,42.1z"/>
		<path class="st0" d="M193.4,22.1c0.7-1.7-1.2-1.5-1.7-0.2c-1.6,3.9-5.9,5.1-9.7,4c-1-0.3-2.2,2.1-0.9,2.5
			C186.3,30,191.4,27.2,193.4,22.1z"/>
		<path class="st0" d="M208.5,72.7c-5.2-6-13.1-10.3-21.1-11.1c-1-3.1-0.6-6.6,0.3-9.6c0.1-0.3,0.3-1.1-0.2-1.3
			c-1.5-0.5-3.1-0.1-4.3,1c-0.4,0.3-0.7,0.7-0.9,1.2c-0.2,0.3-0.4,1.1-0.6,1.2c0-0.1-0.7,0-0.8,0c-0.3,0.1-0.6,0.3-0.9,0.5
			c-0.6,0.5-0.9,1.3-1.4,1.8c-0.5,0.5-0.9,0.2-1.6,0.4c-0.6,0.2-1.2,0.6-1.6,1.1c-0.4,0.4-0.7,1.3-1.1,1.5c-0.4,0.3-0.9-0.1-1.4,0
			c-0.6,0.1-0.9,0.5-1.3,0.9c-0.4,0.4-0.2,0.4-0.9,0.4c-1,0-1.7-0.7-2.7-0.5c-0.7,0.1-1.2,0.5-1.8,0.8c-1.1,0.5-1.4-0.2-2.3-0.8
			c-1.1-0.7-2.5-1.2-3.7-0.9c-0.8,0.2-1.6,1.5-1.1,2.3c2,3,2.2,7.1,1.1,10.4c-0.5,1.7,1.3,1.5,1.7,0.2c1-3.1,1.2-6.6,0.2-9.8
			c0.6,0.4,1.2,0.9,1.8,1.2c1.3,0.6,2.2-0.5,3.3-0.8c1.6-0.4,2.8,1.1,4.4,0c0.2-0.2,0.7-0.5,0.8-0.8c0.2,0.1,0.8,0.1,1,0
			c1.4-0.3,1.7-1.5,2.6-2.4c0.5-0.5,0.9-0.2,1.6-0.4c0.7-0.2,1.2-0.7,1.7-1.2c0.3-0.4,0.6-1.2,1.1-1.5c0.6-0.4,1.2-0.1,1.8-0.7
			c0.6-0.5,0.7-1.2,1.1-1.9c0.5-0.7,1.3-1,2.1-1c-0.9,3.4-1.2,7.3,0,10.6c0.1,0.2,0.2,0.4,0.5,0.4c7.8,0.6,15.6,4.8,20.6,10.7
			C207.6,75.7,209.2,73.5,208.5,72.7z"/>
		<path class="st0" d="M158.1,62.8c-4.5,0.4-9,2.3-12.5,5.1c-2.3-0.3-4.6,0.7-6,2.5c-0.3,0.4-0.8,1.3-0.3,1.7c0.4,0.5,1,0.1,1.3-0.3
			c1.1-1.5,2.6-1.3,4.2-1.4c0.6,0,0.8-0.2,1.3-0.6c1-0.8,2.1-1.5,3.2-2.1c1.7-0.9,3.6-1.5,5.5-2c0.6-0.1,1.1-0.3,1.7-0.3
			c0.1,0,1.1-0.1,0.7-0.1C158.2,65.2,159.2,62.7,158.1,62.8z"/>
		<path class="st0" d="M184.6,67.3c-5.1,6.1-14.2,11.8-21.9,7.2c-1-0.6-2.3,1.8-1.4,2.4c8.6,5.1,18.7-1.4,24.3-8.1
			C186.5,67.6,185.7,65.9,184.6,67.3z"/>
		<path class="st0" d="M166.1,75.2c0.4,0.4,1.1,0.4,1.5,0c0.2-0.2,0.4-0.6,0.3-0.9c0,0,0-0.1-0.1-0.1c0,0,0.1,0,0.1-0.1
			c0.2-0.2,0.4-0.6,0.3-0.9c-0.2-0.5-0.5-0.8-1.1-0.9c-0.7,0-1.3,0.5-1.5,1.1C165.6,74.1,165.6,74.8,166.1,75.2z M167.1,73.7
			c0.2,0,0.3,0.2,0.4,0.4c0,0,0,0.1,0.1,0.1c0,0,0,0-0.1,0c0,0-0.1,0-0.2,0c-0.1,0-0.3,0-0.4-0.1c-0.1-0.1-0.2-0.1-0.2-0.3
			c0,0,0-0.1,0-0.1c0,0,0.1,0,0.1,0C166.9,73.6,167,73.6,167.1,73.7z M166.6,73.6C166.7,73.6,166.7,73.6,166.6,73.6L166.6,73.6z"/>
		<path class="st0" d="M166.1,70.6c0.4,0.4,1.1,0.4,1.5,0c0.2-0.2,0.4-0.6,0.3-0.9c0,0,0-0.1-0.1-0.1c0,0,0.1,0,0.1-0.1
			c0.2-0.2,0.4-0.6,0.3-0.9c-0.2-0.5-0.5-0.8-1.1-0.9c-0.7,0-1.3,0.5-1.5,1.1C165.6,69.5,165.6,70.2,166.1,70.6z M167.1,69.1
			c0.2,0,0.3,0.2,0.4,0.4c0,0,0,0.1,0.1,0.1c0,0,0,0-0.1,0c0,0-0.1,0-0.2,0c-0.1,0-0.3,0-0.4-0.1c-0.1-0.1-0.2-0.1-0.2-0.3
			c0,0,0-0.1,0-0.1c0,0,0.1,0,0.1,0C166.9,69.1,167,69.1,167.1,69.1z M166.6,69.1C166.7,69.1,166.7,69,166.6,69.1L166.6,69.1z"/>
		<path class="st0" d="M168.4,64.7c-0.2-0.5-0.5-0.8-1.1-0.9c-0.7,0-1.3,0.5-1.5,1.1c-0.2,0.6-0.2,1.3,0.3,1.7
			c0.4,0.4,1.1,0.4,1.5,0c0.2-0.2,0.4-0.6,0.3-0.9c0,0,0-0.1-0.1-0.1c0,0,0.1,0,0.1-0.1C168.3,65.4,168.5,65.1,168.4,64.7z
			 M166.6,65.1C166.7,65.1,166.7,65.1,166.6,65.1L166.6,65.1z M166.9,65.6c-0.1-0.1-0.2-0.1-0.2-0.3c0,0,0-0.1,0-0.1
			c0,0,0.1,0,0.1,0c0.1,0,0.2,0,0.3,0c0.2,0,0.3,0.2,0.4,0.4c0,0,0,0.1,0.1,0.1c0,0,0,0-0.1,0c0,0-0.1,0-0.2,0
			C167.1,65.7,167,65.7,166.9,65.6z"/>
	</g>
</g>
</svg>
