<?xml version="1.0" encoding="utf-8"?>
<!-- Generator: Adobe Illustrator 26.5.0, SVG Export Plug-In . SVG Version: 6.00 Build 0)  -->
<svg version="1.1" id="Layer_1" xmlns="http://www.w3.org/2000/svg" xmlns:xlink="http://www.w3.org/1999/xlink" x="0px" y="0px"
	 viewBox="0 0 72.3 80" style="enable-background:new 0 0 72.3 80;" xml:space="preserve">
<g>
	<path d="M17.7,22.5c-1-0.2-2.2,2.3-0.9,2.5c1.2,0.2,2.4,0.9,3.2,1.8c1.9,2,1.7,4.4,0.7,6.8c-0.8,2-2.1,4.2-2,6.4
		c0.1,1.5,1.1,3,2.2,4c0.9,0.9,2.4-1.3,1.7-2.1c-0.4-0.4-0.8-0.9-1.2-1.4c-0.9-1.3-0.8-2.3-0.3-3.7c0.8-2.2,2.1-4.4,2.3-6.8
		C23.8,26.5,21.2,23.1,17.7,22.5z"/>
	<path d="M15.9,32.5c1,0.4,1.9,0.4,2.9-0.1c0.5-0.2,1-1.1,1-1.7c-0.2-2-2.4-2.7-4.1-2.9c-1.1-0.1-2.1,2.4-0.9,2.5
		c0.5,0.1,0.9,0.2,1.4,0.3C15.6,31.3,15.3,32.2,15.9,32.5z"/>
	<path d="M29,32.8c1-0.3,2-0.5,3.1-0.8c0.6-0.2,1.9-2.1,0.9-2.4c-1.8-0.6-3.7-1.2-5.6-1.4c-1-0.1-2.2,2.4-0.9,2.5
		c0.7,0.1,1.4,0.2,2.2,0.4C28.2,31.9,28.1,33,29,32.8z"/>
	<path d="M25.8,47.6c-0.6,0-1.2-0.1-1.7-0.2c-0.5-0.1-1.1-0.3-1.6-0.6c-1-0.5-2.3,1.8-1.4,2.4c0.4,0.2,0.8,0.4,1.2,0.5
		c-0.1,0.4-0.2,1.3,0.4,1.2c1.4-0.1,4.1-0.3,4.6-1.9c0.1-0.3,0.3-1.1-0.2-1.3C26.8,47.5,26.2,47.6,25.8,47.6z"/>
	<path d="M16,17.8c-1.2,1.4-2,3.3-2.6,4.9c-1.7,4.7-2.7,10.3-2.3,15.4c0.4,5.3,2.5,10.5,5.8,14.6c1.4,1.7,3,3.4,4.9,4.5
		s3.9,1.3,6.1,1.1c3.9-0.3,8-2.1,10.8-4.7c0.4-0.4,0.9-1.2,0.7-1.8c-0.2-0.5-0.8-0.5-1.2-0.1c-2.1,1.9-4.9,3.2-7.6,3.8
		C28.5,56,26,56.2,24,55.3c-1.7-0.8-3.2-2.1-4.5-3.5c-3.2-3.6-5.4-8.2-6.2-13s0.1-10.2,1.5-14.7c0.4-1.3,0.9-2.6,1.6-3.8
		c0.1-0.2,0.2-0.4,0.4-0.6c0,0,0-0.1,0.1-0.1c0,0,0,0,0-0.1c0.1-0.1,0.1-0.2,0.2-0.3C17.9,18.2,17.2,16.5,16,17.8z"/>
	<path d="M11.9,22c-1.1-1.8-1.5-4.3-1.3-6.4c0.6-5.1,5.2-8.7,9.5-10.6c7.7-3.5,17.2-3.2,24.7,0.5c6.1,3,10.7,8.1,14,14
		c0.6,1,2.2-1.1,1.7-2.1c-3-5.4-7.1-10.2-12.4-13.3c4-0.4,8.3,0.9,11.1,3.7c3.5,3.5,4.6,9,4.5,13.8s-1.9,9.4-4.8,13.2
		c-2.4,3.1-5.7,5.8-9.3,7.4c-1,0.4-1.5,2.9,0,2.3c8.2-3.4,14.5-12,15.8-20.6c1.4-9.1-2-20.2-12.1-21.9c-2.1-0.4-4.4-0.4-6.5,0.1
		c-0.4,0.1-0.7,0.5-0.9,0.9C41.7,1,37,0,32.4,0.1C23.1,0.3,11.5,4.8,9,14.8c-0.7,3-0.4,6.6,1.3,9.3C10.8,25,12.4,22.9,11.9,22z"/>
	<path d="M44.6,42.1c4-0.5,6-5,6.4-8.5c0-0.4,0-0.6-0.1-0.8c4-1.7,7-5.4,7.6-9.9c0.2-1.8-1.8-0.7-1.9,0.5c-0.4,3.1-2,5.4-4.8,6.8
		c-0.9,0.4-1.8,0.7-2.8,0.9c-0.3,0.1-0.6,0.1-0.9,0.2c-0.2,0-0.4,0-0.2,0c-1.1,0.1-2.1,2.6-0.9,2.5c0.9-0.1,1.7-0.2,2.5-0.4
		c-0.2,0.2-0.3,0.5-0.3,0.8c-0.3,2.4-1.3,5.2-4,5.5C44.1,39.8,43.2,42.3,44.6,42.1z"/>
	<path d="M55.7,22.1c0.7-1.7-1.2-1.5-1.7-0.2c-1.6,3.9-5.9,5.1-9.7,4c-1-0.3-2.2,2.1-0.9,2.5C48.6,30,53.7,27.2,55.7,22.1z"/>
	<path d="M70.8,72.7c-5.2-6-13.1-10.3-21.1-11.1c-1-3.1-0.6-6.6,0.3-9.6c0.1-0.3,0.3-1.1-0.2-1.3c-1.5-0.5-3.1-0.1-4.3,1
		c-0.4,0.3-0.7,0.7-0.9,1.2c-0.2,0.3-0.4,1.1-0.6,1.2c0-0.1-0.7,0-0.8,0c-0.3,0.1-0.6,0.3-0.9,0.5c-0.6,0.5-0.9,1.3-1.4,1.8
		s-0.9,0.2-1.6,0.4c-0.6,0.2-1.2,0.6-1.6,1.1c-0.4,0.4-0.7,1.3-1.1,1.5c-0.4,0.3-0.9-0.1-1.4,0c-0.6,0.1-0.9,0.5-1.3,0.9
		c-0.4,0.4-0.2,0.4-0.9,0.4c-1,0-1.7-0.7-2.7-0.5c-0.7,0.1-1.2,0.5-1.8,0.8c-1.1,0.5-1.4-0.2-2.3-0.8c-1.1-0.7-2.5-1.2-3.7-0.9
		c-0.8,0.2-1.6,1.5-1.1,2.3c2,3,2.2,7.1,1.1,10.4c-0.5,1.7,1.3,1.5,1.7,0.2c1-3.1,1.2-6.6,0.2-9.8c0.6,0.4,1.2,0.9,1.8,1.2
		c1.3,0.6,2.2-0.5,3.3-0.8c1.6-0.4,2.8,1.1,4.4,0c0.2-0.2,0.7-0.5,0.8-0.8c0.2,0.1,0.8,0.1,1,0c1.4-0.3,1.7-1.5,2.6-2.4
		c0.5-0.5,0.9-0.2,1.6-0.4c0.7-0.2,1.2-0.7,1.7-1.2c0.3-0.4,0.6-1.2,1.1-1.5c0.6-0.4,1.2-0.1,1.8-0.7c0.6-0.5,0.7-1.2,1.1-1.9
		c0.5-0.7,1.3-1,2.1-1c-0.9,3.4-1.2,7.3,0,10.6c0.1,0.2,0.2,0.4,0.5,0.4c7.8,0.6,15.6,4.8,20.6,10.7C69.9,75.7,71.5,73.5,70.8,72.7z
		"/>
	<path d="M20.4,62.8c-4.5,0.4-9,2.3-12.5,5.1c-2.3-0.3-4.6,0.7-6,2.5c-0.3,0.4-0.8,1.3-0.3,1.7c0.4,0.5,1,0.1,1.3-0.3
		c1.1-1.5,2.6-1.3,4.2-1.4c0.6,0,0.8-0.2,1.3-0.6c1-0.8,2.1-1.5,3.2-2.1c1.7-0.9,3.6-1.5,5.5-2c0.6-0.1,1.1-0.3,1.7-0.3
		c0.1,0,1.1-0.1,0.7-0.1C20.5,65.2,21.5,62.7,20.4,62.8z"/>
	<path d="M46.9,67.3c-5.1,6.1-14.2,11.8-21.9,7.2c-1-0.6-2.3,1.8-1.4,2.4c8.6,5.1,18.7-1.4,24.3-8.1C48.8,67.6,48,65.9,46.9,67.3z"
		/>
	<path d="M28.4,75.2c0.4,0.4,1.1,0.4,1.5,0c0.2-0.2,0.4-0.6,0.3-0.9c0,0,0-0.1-0.1-0.1c0,0,0.1,0,0.1-0.1c0.2-0.2,0.4-0.6,0.3-0.9
		c-0.2-0.5-0.5-0.8-1.1-0.9c-0.7,0-1.3,0.5-1.5,1.1C27.9,74.1,27.9,74.8,28.4,75.2z M29.4,73.7c0.2,0,0.3,0.2,0.4,0.4
		c0,0,0,0.1,0.1,0.1c0,0,0,0-0.1,0c0,0-0.1,0-0.2,0c-0.1,0-0.3,0-0.4-0.1C29.1,74,29,74,29,73.8v-0.1h0.1
		C29.2,73.6,29.3,73.6,29.4,73.7z M28.9,73.6C29,73.6,29,73.6,28.9,73.6L28.9,73.6z"/>
	<path d="M28.4,70.6c0.4,0.4,1.1,0.4,1.5,0c0.2-0.2,0.4-0.6,0.3-0.9c0,0,0-0.1-0.1-0.1c0,0,0.1,0,0.1-0.1c0.2-0.2,0.4-0.6,0.3-0.9
		c-0.2-0.5-0.5-0.8-1.1-0.9c-0.7,0-1.3,0.5-1.5,1.1C27.9,69.5,27.9,70.2,28.4,70.6z M29.4,69.1c0.2,0,0.3,0.2,0.4,0.4
		c0,0,0,0.1,0.1,0.1c0,0,0,0-0.1,0c0,0-0.1,0-0.2,0c-0.1,0-0.3,0-0.4-0.1c-0.1-0.1-0.2-0.1-0.2-0.3v-0.1h0.1
		C29.2,69.1,29.3,69.1,29.4,69.1z M28.9,69.1C29,69.1,29,69,28.9,69.1L28.9,69.1z"/>
	<path d="M30.7,64.7c-0.2-0.5-0.5-0.8-1.1-0.9c-0.7,0-1.3,0.5-1.5,1.1s-0.2,1.3,0.3,1.7c0.4,0.4,1.1,0.4,1.5,0
		c0.2-0.2,0.4-0.6,0.3-0.9c0,0,0-0.1-0.1-0.1c0,0,0.1,0,0.1-0.1C30.6,65.4,30.8,65.1,30.7,64.7z M28.9,65.1
		C29,65.1,29,65.1,28.9,65.1L28.9,65.1z M29.2,65.6c-0.1-0.1-0.2-0.1-0.2-0.3v-0.1h0.1c0.1,0,0.2,0,0.3,0c0.2,0,0.3,0.2,0.4,0.4
		c0,0,0,0.1,0.1,0.1c0,0,0,0-0.1,0c0,0-0.1,0-0.2,0C29.4,65.7,29.3,65.7,29.2,65.6z"/>
</g>
</svg>
