<?xml version="1.0" encoding="utf-8"?>
<!-- Generator: Adobe Illustrator 26.5.0, SVG Export Plug-In . SVG Version: 6.00 Build 0)  -->
<svg version="1.1" id="Layer_2" xmlns="http://www.w3.org/2000/svg" xmlns:xlink="http://www.w3.org/1999/xlink" x="0px" y="0px"
	 viewBox="0 0 1000 600" style="enable-background:new 0 0 1000 600;" xml:space="preserve">
<style type="text/css">
	.st0{fill:#90C7D3;}
	.st1{fill:#00435B;}
	.st2{fill:#FFFFFF;}
	.st3{fill:none;stroke:#FFFFFF;stroke-width:0.64;stroke-miterlimit:10;}
</style>
<circle class="st1" cx="501.9" cy="328.3" r="227.4"/>
<g>
	<path class="st2" d="M470.5,131.4l0.6-2.8l0.9-3.2h-3.7v-2.8h1.7v1.5h3.7v1.1l-1,3.4l-0.6,2.8H470.5z"/>
	<path class="st2" d="M474.8,131.4v-2.6c0-0.2,0-0.4,0-0.5c0-0.2,0-0.3,0.1-0.4s0.1-0.3,0.2-0.4c0.1-0.2,0.2-0.4,0.4-0.5
		c0.2-0.1,0.4-0.3,0.7-0.3l-1.5-2.5h1.9l2.2,3.6c0,0,0.1-0.1,0.1-0.1c0,0,0-0.1,0.1-0.1c0.1-0.1,0.1-0.2,0.2-0.3s0.1-0.3,0.1-0.5
		v-2.7h1.7v2.6c0,0.3,0,0.5-0.1,0.7c0,0.2-0.1,0.4-0.2,0.6c-0.1,0.2-0.2,0.4-0.4,0.5c-0.2,0.2-0.4,0.3-0.7,0.4l1.5,2.5h-1.9
		l-2.2-3.7c-0.1,0-0.1,0.1-0.2,0.1c-0.1,0.1-0.1,0.1-0.2,0.3c-0.1,0.2-0.1,0.4-0.1,0.6v2.6H474.8z"/>
	<path class="st2" d="M485.2,131.4v-4.8c0-0.3-0.1-0.6-0.2-0.8c-0.1-0.2-0.3-0.3-0.6-0.4c-0.1,0-0.2-0.1-0.3-0.1c-0.1,0-0.2,0-0.3,0
		c-0.2,0-0.4,0-0.6,0s-0.4,0-0.7,0c-0.2,0-0.5,0-0.7,0.1v-1.3c0.4,0,0.7-0.1,1-0.1c0.3,0,0.6,0,0.9,0c0.5,0,1,0,1.3,0.1
		s0.6,0.1,0.8,0.2c0.2,0.1,0.4,0.2,0.6,0.4c0.1,0.1,0.3,0.3,0.3,0.6c0.1,0.2,0.1,0.4,0.1,0.6c0,0.2,0,0.4,0,0.7v4.8H485.2z"/>
	<path class="st2" d="M488.9,131.4l-0.6-7.3h1.6l0.3,3.7c0.1,0,0.2-0.1,0.4-0.1c0.1-0.1,0.2-0.1,0.3-0.2c0.1-0.1,0.2-0.3,0.2-0.4
		c0.1-0.2,0.1-0.4,0.1-0.6l0.2-2.3h1.6l-0.2,2.2c0,0.4-0.1,0.8-0.2,1.1c-0.1,0.3-0.3,0.6-0.6,0.9c-0.2,0.2-0.5,0.4-0.7,0.5
		c-0.3,0.1-0.6,0.2-1,0.2c0,0,0,0,0,0s0,0,0,0l0.1,1h1.5c0.4,0,0.7-0.1,1.1-0.3c0.3-0.2,0.6-0.5,0.8-0.9c0.2-0.4,0.3-0.9,0.4-1.5
		l0.3-3.2h1.6l-0.3,3.3c0,0.4-0.1,0.8-0.2,1.2c-0.1,0.4-0.2,0.7-0.4,1c-0.1,0.3-0.3,0.5-0.5,0.7s-0.4,0.4-0.7,0.6
		c-0.3,0.2-0.7,0.3-1,0.4c-0.4,0.1-0.8,0.1-1.2,0.1H488.9z"/>
	<path class="st2" d="M497.6,128.9v-4.8h1.7v3.5l-1,1.3H497.6z"/>
	<path class="st2" d="M504.7,134.2v-6l-1.6-4.1h1.8l1.3,3.6c0,0,0.1,0,0.1,0c0,0,0.1,0,0.1,0c0.2,0,0.4-0.1,0.5-0.3s0.2-0.4,0.2-0.8
		v-2.4h1.7v2.5c0,0.4-0.1,0.7-0.2,1c-0.1,0.3-0.3,0.5-0.5,0.7c-0.2,0.1-0.4,0.3-0.6,0.4c-0.3,0.1-0.6,0.2-0.9,0.2l-0.4,0.1v5.2
		H504.7z"/>
	<path class="st2" d="M513.2,131.4v-4.8c0-0.3-0.1-0.6-0.2-0.8c-0.1-0.2-0.3-0.3-0.6-0.4c-0.1,0-0.2-0.1-0.3-0.1c-0.1,0-0.2,0-0.3,0
		c-0.2,0-0.4,0-0.6,0s-0.4,0-0.7,0c-0.2,0-0.5,0-0.7,0.1v-1.3c0.4,0,0.7-0.1,1-0.1c0.3,0,0.6,0,0.9,0c0.5,0,1,0,1.3,0.1
		s0.6,0.1,0.8,0.2s0.4,0.2,0.6,0.4c0.1,0.1,0.3,0.3,0.3,0.6c0.1,0.2,0.1,0.4,0.1,0.6c0,0.2,0,0.4,0,0.7v4.8H513.2z"/>
	<path class="st2" d="M516.4,131.4v-2.6c0-0.2,0-0.4,0-0.5c0-0.2,0-0.3,0.1-0.4s0.1-0.3,0.2-0.4c0.1-0.2,0.2-0.4,0.4-0.5
		c0.2-0.1,0.4-0.3,0.7-0.3l-1.5-2.5h1.9l2.2,3.6c0,0,0.1-0.1,0.1-0.1c0,0,0-0.1,0.1-0.1c0.1-0.1,0.1-0.2,0.2-0.3
		c0-0.1,0.1-0.3,0.1-0.5v-2.7h1.7v2.6c0,0.3,0,0.5-0.1,0.7c0,0.2-0.1,0.4-0.2,0.6c-0.1,0.2-0.2,0.4-0.4,0.5
		c-0.2,0.2-0.4,0.3-0.7,0.4l1.5,2.5h-1.9l-2.2-3.7c-0.1,0-0.1,0.1-0.2,0.1c-0.1,0.1-0.1,0.1-0.2,0.3c-0.1,0.2-0.1,0.4-0.1,0.6v2.6
		H516.4z"/>
</g>
<g>
	<path class="st2" d="M469.9,171.7c-0.1,0-0.3,0-0.4,0c-0.1,0-0.3-0.1-0.4-0.1v-1.2c0.2,0,0.4,0.1,0.6,0.1c0.2,0,0.4-0.1,0.5-0.2
		s0.1-0.3,0.1-0.6v-3.9c-0.1,0-0.3,0-0.4,0c-0.1,0-0.3,0-0.4,0v-1.3c0.4,0,0.8-0.1,1.2-0.1s0.7,0,1.1-0.1c0.3,0,0.7,0,1,0
		c0.4,0,0.7,0,0.9,0c0.3,0,0.5,0.1,0.7,0.1c0.2,0.1,0.4,0.1,0.5,0.2c0.2,0.1,0.3,0.2,0.4,0.4c0.1,0.1,0.2,0.3,0.3,0.5
		c0.1,0.1,0.1,0.3,0.1,0.5s0,0.4,0,0.6v4.9h-1.7v-4.8c0-0.3-0.1-0.6-0.2-0.8s-0.3-0.3-0.6-0.4c-0.2,0-0.4-0.1-0.6-0.1
		c-0.1,0-0.2,0-0.3,0s-0.2,0-0.3,0v4c0,0.3,0,0.5-0.1,0.7c0,0.2-0.1,0.4-0.2,0.6c-0.1,0.2-0.2,0.4-0.4,0.5c-0.2,0.1-0.4,0.2-0.6,0.3
		C470.5,171.7,470.3,171.7,469.9,171.7z"/>
	<path class="st2" d="M477.7,171.7v-7.3h1.7v7.3H477.7z"/>
	<path class="st2" d="M480.9,171.7v-1.3h3.3v-3.5c0-0.3-0.1-0.6-0.2-0.7c-0.1-0.2-0.3-0.3-0.6-0.4c-0.1,0-0.2-0.1-0.3-0.1
		c-0.1,0-0.2,0-0.4,0c-0.2,0-0.5,0-0.8,0c-0.3,0-0.7,0-1.1,0.1v-1.3c0.2,0,0.5-0.1,0.9-0.1c0.3,0,0.7,0,1.1,0c0.4,0,0.7,0,0.9,0
		c0.3,0,0.5,0.1,0.7,0.2c0.2,0.1,0.4,0.2,0.6,0.3c0.1,0.1,0.3,0.2,0.4,0.4c0.1,0.1,0.2,0.3,0.3,0.5c0.1,0.2,0.1,0.3,0.1,0.5
		c0,0.2,0,0.4,0,0.6v3.6h0.8v1.3H480.9z"/>
	<path class="st2" d="M490.5,171.7v-4.8c0-0.3-0.1-0.6-0.2-0.8c-0.1-0.2-0.3-0.3-0.6-0.4c-0.1,0-0.2-0.1-0.3-0.1c-0.1,0-0.2,0-0.3,0
		c-0.2,0-0.4,0-0.6,0s-0.4,0-0.7,0c-0.2,0-0.5,0-0.7,0.1v-1.3c0.4,0,0.7-0.1,1-0.1c0.3,0,0.6,0,0.9,0c0.5,0,1,0,1.3,0.1
		s0.6,0.1,0.8,0.2c0.2,0.1,0.4,0.2,0.6,0.4c0.1,0.1,0.3,0.3,0.3,0.6c0.1,0.2,0.1,0.4,0.1,0.6c0,0.2,0,0.4,0,0.7v4.8H490.5z"/>
	<path class="st2" d="M494.3,171.7c-0.1,0-0.3,0-0.4,0c-0.1,0-0.3-0.1-0.4-0.1v-1.2c0.2,0,0.4,0.1,0.6,0.1c0.2,0,0.4-0.1,0.5-0.2
		s0.1-0.3,0.1-0.6v-3.9c-0.1,0-0.3,0-0.4,0c-0.1,0-0.3,0-0.4,0v-1.3c0.4,0,0.8-0.1,1.2-0.1s0.7,0,1.1-0.1c0.3,0,0.7,0,1,0
		c0.4,0,0.7,0,0.9,0c0.3,0,0.5,0.1,0.7,0.1c0.2,0.1,0.4,0.1,0.5,0.2c0.2,0.1,0.3,0.2,0.4,0.4c0.1,0.1,0.2,0.3,0.3,0.5
		c0.1,0.1,0.1,0.3,0.1,0.5s0,0.4,0,0.6v4.9h-1.7v-4.8c0-0.3-0.1-0.6-0.2-0.8s-0.3-0.3-0.6-0.4c-0.2,0-0.4-0.1-0.6-0.1
		c-0.1,0-0.2,0-0.3,0s-0.2,0-0.3,0v4c0,0.3,0,0.5-0.1,0.7c0,0.2-0.1,0.4-0.2,0.6c-0.1,0.2-0.2,0.4-0.4,0.5c-0.2,0.1-0.4,0.2-0.6,0.3
		C494.9,171.7,494.6,171.7,494.3,171.7z"/>
	<path class="st2" d="M502,171.7v-7.3h1.7v7.3H502z"/>
	<path class="st2" d="M511.2,174.4v-6.9c0-0.3,0-0.5,0-0.7c0-0.2-0.1-0.4-0.2-0.6c0-0.1-0.1-0.2-0.1-0.2c-0.1-0.1-0.1-0.1-0.2-0.2
		c-0.2-0.2-0.6-0.3-1.1-0.3c-0.2,0-0.3,0-0.5,0c-0.1,0-0.3,0-0.4,0c-0.1,0-0.2,0-0.4,0.1c-0.1,0-0.3,0-0.4,0.1v-1.4
		c0.1,0,0.3,0,0.4-0.1c0.2,0,0.3,0,0.5,0c0.2,0,0.4,0,0.6,0c0.2,0,0.4,0,0.6,0c0.4,0,0.8,0.1,1.2,0.2s0.6,0.3,0.9,0.5
		c0.1,0.1,0.2,0.2,0.3,0.3s0.2,0.3,0.2,0.4c0.1,0.3,0.2,0.5,0.3,0.9c0.1,0.3,0.1,0.6,0.1,1v6.8H511.2z"/>
	<path class="st2" d="M514.7,171.7v-7.3h1.7v7.3H514.7z"/>
	<path class="st2" d="M517.8,171.7v-1.3h2c0-0.1,0.1-0.3,0.1-0.4s0-0.3,0-0.4v-3c0-0.1,0-0.3,0-0.4c0-0.1-0.1-0.2-0.2-0.3
		c-0.1-0.1-0.1-0.1-0.2-0.1c-0.1,0-0.2,0-0.3,0c-0.1,0-0.3,0-0.4,0c-0.1,0-0.3,0-0.5,0.1v-1.4c0.1,0,0.3-0.1,0.5-0.1
		c0.2,0,0.4,0,0.6,0c0.4,0,0.7,0,0.9,0.1s0.4,0.2,0.6,0.3c0.1,0.1,0.3,0.3,0.4,0.4c0.1,0.2,0.2,0.3,0.2,0.5c0,0.1,0.1,0.3,0.1,0.4
		s0,0.3,0,0.5v3c0,0.2,0,0.4,0,0.7s0,0.5-0.1,0.7s-0.1,0.4-0.1,0.5l-0.1,0.3H517.8z"/>
	<path class="st2" d="M523.1,169.2v-4.8h1.7v3.5l-1,1.3H523.1z"/>
	<path class="st2" d="M526.5,171.7v-7.2c0.1,0,0.3,0,0.4,0c0.1,0,0.3,0,0.5,0c0.3,0,0.7-0.1,1-0.1c0.3,0,0.6,0,1,0
		c0.4,0,0.8,0,1.1,0.1s0.6,0.1,0.8,0.2c0.2,0.1,0.4,0.2,0.6,0.4c0.1,0.1,0.3,0.3,0.3,0.6c0.1,0.2,0.1,0.4,0.1,0.6s0,0.4,0,0.7v4.8
		h-1.7v-4.8c0-0.3-0.1-0.6-0.2-0.8s-0.4-0.3-0.6-0.4c-0.1,0-0.2,0-0.3,0c-0.1,0-0.2,0-0.3,0c-0.1,0-0.3,0-0.4,0s-0.3,0-0.5,0v6
		H526.5z"/>
</g>
<g>
	<path class="st2" d="M413.9,267.2c-0.1,0-0.3,0-0.4,0c-0.1,0-0.3-0.1-0.4-0.1v-1.2c0.2,0,0.4,0.1,0.6,0.1c0.2,0,0.4-0.1,0.5-0.2
		s0.1-0.3,0.1-0.6v-3.9c-0.1,0-0.3,0-0.4,0c-0.1,0-0.3,0-0.4,0v-1.3c0.4,0,0.8-0.1,1.2-0.1s0.7,0,1.1-0.1c0.3,0,0.7,0,1,0
		c0.4,0,0.7,0,0.9,0c0.3,0,0.5,0.1,0.7,0.1c0.2,0.1,0.4,0.1,0.5,0.2c0.2,0.1,0.3,0.2,0.4,0.4c0.1,0.1,0.2,0.3,0.3,0.5
		c0.1,0.1,0.1,0.3,0.1,0.5s0,0.4,0,0.6v4.9h-1.7v-4.8c0-0.3-0.1-0.6-0.2-0.8s-0.3-0.3-0.6-0.4c-0.2,0-0.4-0.1-0.6-0.1
		c-0.1,0-0.2,0-0.3,0s-0.2,0-0.3,0v4c0,0.3,0,0.5-0.1,0.7c0,0.2-0.1,0.4-0.2,0.6c-0.1,0.2-0.2,0.4-0.4,0.5c-0.2,0.1-0.4,0.2-0.6,0.3
		C414.5,267.1,414.2,267.2,413.9,267.2z"/>
	<path class="st2" d="M421.6,267.1v-7.3h1.7v7.3H421.6z"/>
	<path class="st2" d="M429,258.9l-3.1,8.2h-1.6l3.1-8.2H429z"/>
	<path class="st2" d="M429.9,267.1v-7.2c0.1,0,0.2,0,0.4,0c0.1,0,0.3,0,0.5,0c0.3,0,0.7-0.1,1-0.1c0.3,0,0.6,0,1,0
		c0.5,0,0.9,0,1.2,0.1c0.3,0.1,0.6,0.1,0.8,0.3c0.2,0.1,0.3,0.2,0.5,0.3c0.1,0.1,0.2,0.3,0.3,0.5c0.1,0.2,0.1,0.3,0.2,0.5
		s0.1,0.4,0.1,0.6v5.1H429.9z M431.6,265.8h2.4V262c0-0.2,0-0.3-0.1-0.4c0-0.1-0.1-0.2-0.2-0.3c-0.1-0.1-0.1-0.1-0.2-0.1
		c-0.1,0-0.2-0.1-0.3-0.1c-0.1,0-0.2,0-0.3,0c-0.1,0-0.2,0-0.4,0c-0.1,0-0.3,0-0.4,0c-0.2,0-0.3,0-0.5,0V265.8z"/>
	<path class="st2" d="M437.4,264.6v-4.8h1.7v3.5l-1,1.3H437.4z"/>
	<path class="st2" d="M443.5,267.1v-4.8c0-0.3-0.1-0.6-0.2-0.8c-0.1-0.2-0.3-0.3-0.6-0.4c-0.1,0-0.2-0.1-0.3-0.1c-0.1,0-0.2,0-0.3,0
		c-0.2,0-0.4,0-0.6,0s-0.4,0-0.7,0c-0.2,0-0.5,0-0.7,0.1v-1.3c0.4,0,0.7-0.1,1-0.1c0.3,0,0.6,0,0.9,0c0.5,0,1,0,1.3,0.1
		s0.6,0.1,0.8,0.2c0.2,0.1,0.4,0.2,0.6,0.4c0.1,0.1,0.3,0.3,0.3,0.6c0.1,0.2,0.1,0.4,0.1,0.6c0,0.2,0,0.4,0,0.7v4.8H443.5z"/>
	<path class="st2" d="M446.9,267.1v-7.3h1.7v7.3H446.9z"/>
	<path class="st2" d="M453.1,267.2c-0.5,0-1-0.1-1.4-0.3c-0.3-0.1-0.6-0.3-0.8-0.6c-0.2-0.2-0.4-0.5-0.6-0.9
		c-0.1-0.3-0.2-0.6-0.2-0.9c-0.1-0.3-0.1-0.7-0.1-1.1c0-0.3,0-0.6,0.1-0.9s0.1-0.5,0.3-0.8c0.1-0.2,0.3-0.4,0.4-0.6l0,0l-0.7,0v-1.4
		c0.4,0,0.7,0,1-0.1c0.3,0,0.7,0,1,0c0.3,0,0.6,0,0.9,0c0.3,0,0.6,0,0.8,0.1c0.3,0.1,0.5,0.2,0.7,0.3c0.3,0.1,0.5,0.3,0.7,0.6
		s0.4,0.5,0.5,0.8c0.1,0.3,0.2,0.6,0.2,0.9s0.1,0.7,0.1,1.1c0,0.3,0,0.6-0.1,0.9c0,0.3-0.1,0.6-0.2,0.8c-0.1,0.4-0.3,0.7-0.5,1
		c-0.2,0.3-0.5,0.5-0.8,0.7C454.2,267.1,453.7,267.2,453.1,267.2z M453.1,265.8c0.2,0,0.4,0,0.6-0.1s0.3-0.2,0.4-0.4
		c0.1-0.1,0.2-0.3,0.2-0.5c0-0.2,0.1-0.4,0.1-0.6c0-0.2,0-0.5,0-0.7c0-0.5,0-0.9-0.1-1.3s-0.2-0.6-0.4-0.8c-0.1-0.1-0.2-0.2-0.4-0.3
		c-0.1-0.1-0.3-0.1-0.5-0.1c-0.1,0-0.2,0-0.3,0c-0.1,0-0.2,0-0.3,0c-0.2,0.3-0.4,0.6-0.5,1c-0.1,0.4-0.2,0.8-0.2,1.4
		c0,0.4,0,0.8,0.1,1.1s0.1,0.6,0.3,0.7c0.1,0.2,0.2,0.3,0.4,0.4S452.9,265.8,453.1,265.8z"/>
	<path class="st2" d="M460.1,267.2c-0.3,0-0.5,0-0.8,0c-0.3,0-0.5,0-0.7,0c-0.2,0-0.4,0-0.5-0.1l-0.3,0v-1.3c0.4,0,0.8,0.1,1.2,0.1
		c0.4,0,0.8,0,1.2,0c0.2,0,0.4,0,0.5-0.1s0.3-0.1,0.4-0.2c0.1-0.1,0.2-0.3,0.3-0.5c0.1-0.2,0.1-0.4,0.1-0.6c0-0.2,0-0.4,0-0.5
		c0-0.1,0-0.3,0-0.5c0-0.2,0-0.4,0-0.6c0-0.2,0-0.4-0.1-0.6c0-0.2-0.1-0.4-0.2-0.6c-0.1-0.2-0.2-0.3-0.3-0.4
		c-0.1-0.1-0.2-0.1-0.3-0.2c-0.1,0-0.2-0.1-0.3-0.1c-0.2,0-0.4,0-0.6,0.1c-0.2,0.1-0.3,0.1-0.4,0.2c-0.1,0.1-0.2,0.2-0.3,0.4
		c-0.1,0.2-0.1,0.3-0.1,0.5c0,0.2,0,0.4,0.1,0.5c0.1,0.2,0.2,0.3,0.3,0.4c0.1,0.1,0.2,0.1,0.3,0.2c0.1,0,0.2,0.1,0.3,0.1l0.3,0.1
		l-0.3,1.2l-0.4,0c-0.2,0-0.4,0-0.6-0.1c-0.2,0-0.4-0.1-0.5-0.2c-0.2-0.1-0.3-0.2-0.5-0.3c-0.1-0.1-0.3-0.2-0.3-0.4
		c-0.1-0.2-0.2-0.4-0.3-0.7c-0.1-0.2-0.1-0.5-0.1-0.8c0-0.4,0.1-0.8,0.2-1.1c0.1-0.3,0.3-0.6,0.5-0.8c0.3-0.3,0.6-0.5,1-0.6
		c0.4-0.1,0.8-0.2,1.2-0.2c0.3,0,0.7,0,1,0.1c0.3,0.1,0.6,0.2,0.8,0.3c0.2,0.1,0.3,0.3,0.5,0.4c0.2,0.2,0.3,0.4,0.4,0.6
		c0.1,0.3,0.2,0.6,0.3,1c0.1,0.4,0.1,0.8,0.1,1.2c0,0.6-0.1,1.1-0.2,1.5c-0.1,0.4-0.2,0.8-0.4,1.1c-0.2,0.3-0.4,0.5-0.6,0.6
		c-0.2,0.2-0.5,0.3-0.7,0.4c-0.2,0.1-0.3,0.1-0.5,0.1C460.6,267.2,460.4,267.2,460.1,267.2z"/>
	<path class="st2" d="M464.7,267.1v-7.3h1.7v7.3H464.7z"/>
	<path class="st2" d="M470.9,267.1v-4.8c0-0.3-0.1-0.6-0.2-0.8c-0.1-0.2-0.3-0.3-0.6-0.4c-0.1,0-0.2-0.1-0.3-0.1c-0.1,0-0.2,0-0.3,0
		c-0.2,0-0.4,0-0.6,0s-0.4,0-0.7,0c-0.2,0-0.5,0-0.7,0.1v-1.3c0.4,0,0.7-0.1,1-0.1c0.3,0,0.6,0,0.9,0c0.5,0,1,0,1.3,0.1
		s0.6,0.1,0.8,0.2c0.2,0.1,0.4,0.2,0.6,0.4c0.1,0.1,0.3,0.3,0.3,0.6c0.1,0.2,0.1,0.4,0.1,0.6c0,0.2,0,0.4,0,0.7v4.8H470.9z"/>
	<path class="st2" d="M476.9,267.2c-0.3,0-0.5,0-0.8,0c-0.3,0-0.5,0-0.7,0c-0.2,0-0.4,0-0.5-0.1l-0.3,0v-1.3c0.4,0,0.8,0.1,1.2,0.1
		c0.4,0,0.8,0,1.2,0c0.2,0,0.4,0,0.5-0.1s0.3-0.1,0.4-0.2c0.1-0.1,0.2-0.3,0.3-0.5c0.1-0.2,0.1-0.4,0.1-0.6c0-0.2,0-0.4,0-0.5
		c0-0.1,0-0.3,0-0.5c0-0.2,0-0.4,0-0.6c0-0.2,0-0.4-0.1-0.6c0-0.2-0.1-0.4-0.2-0.6c-0.1-0.2-0.2-0.3-0.3-0.4
		c-0.1-0.1-0.2-0.1-0.3-0.2c-0.1,0-0.2-0.1-0.3-0.1c-0.2,0-0.4,0-0.6,0.1c-0.2,0.1-0.3,0.1-0.4,0.2c-0.1,0.1-0.2,0.2-0.3,0.4
		c-0.1,0.2-0.1,0.3-0.1,0.5c0,0.2,0,0.4,0.1,0.5c0.1,0.2,0.2,0.3,0.3,0.4c0.1,0.1,0.2,0.1,0.3,0.2c0.1,0,0.2,0.1,0.3,0.1l0.3,0.1
		l-0.3,1.2l-0.4,0c-0.2,0-0.4,0-0.6-0.1c-0.2,0-0.4-0.1-0.5-0.2c-0.2-0.1-0.3-0.2-0.5-0.3c-0.1-0.1-0.3-0.2-0.3-0.4
		c-0.1-0.2-0.2-0.4-0.3-0.7c-0.1-0.2-0.1-0.5-0.1-0.8c0-0.4,0.1-0.8,0.2-1.1c0.1-0.3,0.3-0.6,0.5-0.8c0.3-0.3,0.6-0.5,1-0.6
		c0.4-0.1,0.8-0.2,1.2-0.2c0.3,0,0.7,0,1,0.1c0.3,0.1,0.6,0.2,0.8,0.3c0.2,0.1,0.3,0.3,0.5,0.4c0.2,0.2,0.3,0.4,0.4,0.6
		c0.1,0.3,0.2,0.6,0.3,1c0.1,0.4,0.1,0.8,0.1,1.2c0,0.6-0.1,1.1-0.2,1.5c-0.1,0.4-0.2,0.8-0.4,1.1c-0.2,0.3-0.4,0.5-0.6,0.6
		c-0.2,0.2-0.5,0.3-0.7,0.4c-0.2,0.1-0.3,0.1-0.5,0.1C477.3,267.2,477.1,267.2,476.9,267.2z"/>
</g>
<g>
	<path class="st2" d="M487.9,205.5v-4.8c0-0.3-0.1-0.5-0.2-0.7c-0.1-0.2-0.3-0.3-0.5-0.4c-0.1,0-0.2-0.1-0.3-0.1c-0.1,0-0.3,0-0.4,0
		c-0.3,0-0.7,0-1.1,0c-0.4,0-0.9,0.1-1.5,0.1v-1.3c0.2,0,0.4-0.1,0.6-0.1c0.2,0,0.4,0,0.6-0.1c0.3,0,0.6,0,0.8,0c0.3,0,0.5,0,0.8,0
		c0.4,0,0.8,0,1.1,0.1s0.6,0.1,0.8,0.2c0.2,0.1,0.4,0.2,0.6,0.4c0.1,0.2,0.3,0.3,0.3,0.6c0.1,0.2,0.1,0.4,0.1,0.6c0,0.2,0,0.4,0,0.7
		v4.8H487.9z M483.8,205.5v-4.3h1.7v4.3H483.8z"/>
	<path class="st2" d="M491.3,203v-4.8h1.7v3.5l-1,1.3H491.3z"/>
	<path class="st2" d="M494.4,205.5l0.5-4.9c0-0.1,0-0.2,0-0.3s0-0.2,0-0.3c0-0.1,0-0.3,0-0.4s0-0.3-0.1-0.4c0-0.1,0-0.1-0.1-0.2
		c0-0.1,0-0.2-0.1-0.2c0-0.1,0-0.2-0.1-0.2c0,0,0-0.1,0-0.1c0,0,0-0.1-0.1-0.1h1.5c0.1,0.1,0.1,0.2,0.2,0.4c0,0.1,0.1,0.3,0.1,0.4
		h0.1c0.1-0.1,0.2-0.2,0.3-0.3c0.2-0.1,0.3-0.2,0.4-0.3c0.1-0.1,0.3-0.1,0.6-0.2c0.2-0.1,0.5-0.1,0.8-0.1c0.3,0,0.6,0,0.8,0.1
		c0.2,0.1,0.5,0.2,0.6,0.4c0.1,0.1,0.2,0.2,0.3,0.3c0.1,0.1,0.1,0.2,0.2,0.4c0.1,0.2,0.2,0.5,0.2,0.8c0.1,0.3,0.1,0.6,0.1,1v4.4
		h-3.1v-1.3h1.4v-3c0-0.2,0-0.4,0-0.6c0-0.2-0.1-0.3-0.1-0.4c0-0.1-0.1-0.2-0.2-0.3c-0.1-0.1-0.2-0.2-0.3-0.2
		c-0.1-0.1-0.3-0.1-0.4-0.1c-0.2,0-0.4,0-0.5,0.1c-0.2,0.1-0.3,0.1-0.4,0.2c-0.1,0.1-0.2,0.2-0.3,0.3s-0.1,0.2-0.2,0.3l-0.5,5.2
		H494.4z"/>
	<path class="st2" d="M505.1,205.5v-4.7c0-0.2,0-0.3,0.1-0.4c0-0.1,0.1-0.3,0.1-0.4c0.1-0.1,0.1-0.2,0.2-0.3
		c0.1-0.1,0.1-0.1,0.2-0.2H502v-1.3h5.8v1.2c-0.2,0.1-0.3,0.1-0.5,0.2c-0.1,0.1-0.2,0.2-0.3,0.3c-0.2,0.2-0.2,0.5-0.2,0.9v4.6H505.1
		z"/>
	<path class="st2" d="M511.9,205.5c0,0,0-0.1,0-0.1s0-0.1,0-0.1c0-0.2,0-0.4,0.1-0.7s0.1-0.6,0.2-0.9c0-0.1,0.1-0.3,0.1-0.4
		c0-0.1,0.1-0.3,0.1-0.4c0-0.2,0.1-0.3,0.1-0.4l1-2.9H509v-1.3h6.3v1l-1.1,3.2c0,0.1-0.1,0.3-0.1,0.4c0,0.2-0.1,0.3-0.1,0.5
		c0,0.2-0.1,0.3-0.1,0.4c0,0.1-0.1,0.2-0.1,0.4c0,0.1-0.1,0.3-0.1,0.4s0,0.3-0.1,0.4s0,0.2,0,0.3v0.3H511.9z M509,208.2v-7.1h1.7
		v7.1H509z"/>
	<path class="st2" d="M516.1,205.5v-2.6c0-0.2,0-0.4,0-0.5c0-0.2,0-0.3,0.1-0.4s0.1-0.3,0.2-0.4c0.1-0.2,0.2-0.4,0.4-0.5
		c0.2-0.1,0.4-0.3,0.7-0.3l-1.5-2.5h1.9l2.2,3.6c0,0,0.1-0.1,0.1-0.1c0,0,0-0.1,0.1-0.1c0.1-0.1,0.1-0.2,0.2-0.3
		c0-0.1,0.1-0.3,0.1-0.5v-2.7h1.7v2.6c0,0.3,0,0.5-0.1,0.7c0,0.2-0.1,0.4-0.2,0.6c-0.1,0.2-0.2,0.4-0.4,0.5
		c-0.2,0.2-0.4,0.3-0.7,0.4l1.5,2.5h-1.9l-2.2-3.7c-0.1,0-0.1,0.1-0.2,0.1c-0.1,0.1-0.1,0.1-0.2,0.3c-0.1,0.2-0.1,0.4-0.1,0.6v2.6
		H516.1z"/>
</g>
<g>
	<path class="st2" d="M521.7,259v-6.4c0-0.5,0-0.8-0.1-1.1s-0.1-0.5-0.2-0.7c-0.1-0.2-0.3-0.4-0.5-0.4c-0.2-0.1-0.4-0.1-0.6-0.1
		c-0.2,0-0.4,0-0.6,0.1c-0.2,0.1-0.3,0.2-0.4,0.3c-0.1,0.1-0.2,0.2-0.2,0.4c-0.1,0.1-0.1,0.3-0.1,0.5c0,0.2,0,0.4,0.1,0.5
		c0.1,0.2,0.2,0.3,0.3,0.4c0.1,0.1,0.2,0.1,0.3,0.2s0.2,0.1,0.3,0.1l0.3,0.1l-0.3,1.2l-0.4,0c-0.4,0-0.7-0.1-1-0.2
		c-0.3-0.1-0.5-0.3-0.8-0.5c-0.2-0.2-0.3-0.5-0.4-0.8c-0.1-0.3-0.2-0.6-0.2-1c0-0.3,0.1-0.7,0.2-1c0.1-0.3,0.3-0.6,0.5-0.8
		c0.1-0.1,0.2-0.2,0.3-0.3c0.1-0.1,0.3-0.2,0.4-0.2c0.2-0.1,0.5-0.2,0.8-0.2s0.5-0.1,0.8-0.1c0.3,0,0.7,0,0.9,0.1
		c0.3,0.1,0.5,0.2,0.8,0.3c0.2,0.1,0.4,0.3,0.5,0.5s0.3,0.4,0.4,0.6c0.1,0.3,0.2,0.6,0.3,1c0.1,0.4,0.1,0.8,0.1,1.2v6.4H521.7z"/>
	<path class="st2" d="M527.9,256.3c-0.5,0-1-0.1-1.4-0.3c-0.3-0.1-0.6-0.3-0.8-0.6c-0.2-0.2-0.4-0.5-0.6-0.9
		c-0.1-0.3-0.2-0.6-0.2-0.9s-0.1-0.7-0.1-1.1c0-0.3,0-0.6,0.1-0.9c0.1-0.3,0.1-0.5,0.3-0.8s0.3-0.4,0.4-0.6l0,0l-0.7,0v-1.4
		c0.4,0,0.7,0,1-0.1s0.7,0,1,0c0.3,0,0.6,0,0.9,0c0.3,0,0.6,0,0.8,0.1c0.3,0.1,0.5,0.2,0.7,0.3c0.3,0.1,0.5,0.3,0.7,0.6
		c0.2,0.2,0.4,0.5,0.5,0.8c0.1,0.3,0.2,0.6,0.2,0.9c0.1,0.3,0.1,0.7,0.1,1.1c0,0.3,0,0.6-0.1,0.9c0,0.3-0.1,0.6-0.2,0.8
		c-0.1,0.4-0.3,0.7-0.5,1c-0.2,0.3-0.5,0.5-0.8,0.7C529,256.2,528.5,256.3,527.9,256.3z M527.9,254.9c0.2,0,0.4,0,0.6-0.1
		s0.3-0.2,0.4-0.4c0.1-0.1,0.2-0.3,0.2-0.5c0-0.2,0.1-0.4,0.1-0.6c0-0.2,0-0.5,0-0.7c0-0.5,0-0.9-0.1-1.3c-0.1-0.3-0.2-0.6-0.4-0.8
		c-0.1-0.1-0.2-0.2-0.4-0.3c-0.1-0.1-0.3-0.1-0.5-0.1c-0.1,0-0.2,0-0.3,0s-0.2,0-0.3,0c-0.2,0.3-0.4,0.6-0.5,1
		c-0.1,0.4-0.2,0.8-0.2,1.4c0,0.4,0,0.8,0.1,1.1c0.1,0.3,0.1,0.6,0.3,0.7c0.1,0.2,0.2,0.3,0.4,0.4S527.7,254.9,527.9,254.9z"/>
	<path class="st2" d="M532.3,256.2v-7.3h1.7v7.3H532.3z"/>
	<path class="st2" d="M535.5,256.2v-1.3h2c0-0.1,0.1-0.3,0.1-0.4s0-0.3,0-0.4v-3c0-0.1,0-0.3,0-0.4c0-0.1-0.1-0.2-0.2-0.3
		c-0.1-0.1-0.1-0.1-0.2-0.1c-0.1,0-0.2,0-0.3,0c-0.1,0-0.3,0-0.4,0c-0.1,0-0.3,0-0.5,0.1v-1.4c0.1,0,0.3-0.1,0.5-0.1
		c0.2,0,0.4,0,0.6,0c0.4,0,0.7,0,0.9,0.1s0.4,0.2,0.6,0.3c0.1,0.1,0.3,0.3,0.4,0.4c0.1,0.2,0.2,0.3,0.2,0.5c0,0.1,0.1,0.3,0.1,0.4
		s0,0.3,0,0.5v3c0,0.2,0,0.4,0,0.7s0,0.5-0.1,0.7s-0.1,0.4-0.1,0.5l-0.1,0.3H535.5z"/>
	<path class="st2" d="M543.6,256.2v-2.6c0-0.2,0-0.4,0-0.5s0-0.3,0.1-0.4s0.1-0.3,0.2-0.4c0.1-0.2,0.2-0.4,0.4-0.5s0.4-0.3,0.7-0.3
		l-1.5-2.5h1.9l2.2,3.6c0,0,0.1-0.1,0.1-0.1c0,0,0-0.1,0.1-0.1c0.1-0.1,0.1-0.2,0.2-0.3c0-0.1,0.1-0.3,0.1-0.5v-2.7h1.7v2.6
		c0,0.3,0,0.5-0.1,0.7c0,0.2-0.1,0.4-0.2,0.6c-0.1,0.2-0.2,0.4-0.4,0.5c-0.2,0.2-0.4,0.3-0.7,0.4l1.5,2.5h-1.9l-2.2-3.7
		c-0.1,0-0.1,0.1-0.2,0.1c-0.1,0.1-0.1,0.1-0.2,0.3c-0.1,0.2-0.1,0.4-0.1,0.6v2.6H543.6z"/>
	<path class="st2" d="M551.6,256.2l-0.6-7.3h1.6l0.3,3.7c0.1,0,0.2-0.1,0.4-0.1c0.1-0.1,0.2-0.1,0.3-0.2c0.1-0.1,0.2-0.3,0.2-0.4
		c0.1-0.2,0.1-0.4,0.1-0.6l0.2-2.3h1.6l-0.2,2.2c0,0.4-0.1,0.8-0.2,1.1c-0.1,0.3-0.3,0.6-0.6,0.9c-0.2,0.2-0.5,0.4-0.7,0.5
		c-0.3,0.1-0.6,0.2-1,0.2c0,0,0,0,0,0c0,0,0,0,0,0l0.1,1h1.5c0.4,0,0.7-0.1,1.1-0.3c0.3-0.2,0.6-0.5,0.8-0.9
		c0.2-0.4,0.3-0.9,0.4-1.5l0.3-3.2h1.6l-0.3,3.3c0,0.4-0.1,0.8-0.2,1.2c-0.1,0.4-0.2,0.7-0.4,1c-0.2,0.3-0.3,0.5-0.5,0.7
		c-0.2,0.2-0.4,0.4-0.7,0.6c-0.3,0.2-0.7,0.3-1,0.4c-0.4,0.1-0.8,0.1-1.2,0.1H551.6z"/>
	<path class="st2" d="M560.3,256.2v-7.3h1.7v7.3H560.3z"/>
	<path class="st2" d="M563.4,256.2v-1.3h2c0-0.1,0.1-0.3,0.1-0.4c0-0.1,0-0.3,0-0.4v-3c0-0.1,0-0.3,0-0.4c0-0.1-0.1-0.2-0.2-0.3
		c-0.1-0.1-0.1-0.1-0.2-0.1c-0.1,0-0.2,0-0.3,0c-0.1,0-0.3,0-0.4,0c-0.1,0-0.3,0-0.5,0.1v-1.4c0.1,0,0.3-0.1,0.5-0.1
		c0.2,0,0.4,0,0.6,0c0.4,0,0.7,0,0.9,0.1s0.4,0.2,0.6,0.3s0.3,0.3,0.4,0.4c0.1,0.2,0.2,0.3,0.2,0.5c0,0.1,0.1,0.3,0.1,0.4
		s0,0.3,0,0.5v3c0,0.2,0,0.4,0,0.7s0,0.5-0.1,0.7s-0.1,0.4-0.1,0.5l-0.1,0.3H563.4z"/>
</g>
<g>
	<path class="st2" d="M549.3,355.1v-6.4c0-0.5,0-0.8-0.1-1.1s-0.1-0.5-0.2-0.7c-0.1-0.2-0.3-0.4-0.5-0.4c-0.2-0.1-0.4-0.1-0.6-0.1
		c-0.2,0-0.4,0-0.6,0.1c-0.2,0.1-0.3,0.2-0.4,0.3c-0.1,0.1-0.2,0.2-0.2,0.4c-0.1,0.1-0.1,0.3-0.1,0.5c0,0.2,0,0.4,0.1,0.5
		c0.1,0.2,0.2,0.3,0.3,0.4c0.1,0.1,0.2,0.1,0.3,0.2s0.2,0.1,0.3,0.1l0.3,0.1l-0.3,1.2l-0.4,0c-0.4,0-0.7-0.1-1-0.2
		c-0.3-0.1-0.5-0.3-0.8-0.5c-0.2-0.2-0.3-0.5-0.4-0.8c-0.1-0.3-0.2-0.6-0.2-1c0-0.3,0.1-0.7,0.2-1c0.1-0.3,0.3-0.6,0.5-0.8
		c0.1-0.1,0.2-0.2,0.3-0.3c0.1-0.1,0.3-0.2,0.4-0.2c0.2-0.1,0.5-0.2,0.8-0.2s0.5-0.1,0.8-0.1c0.3,0,0.7,0,0.9,0.1
		c0.3,0.1,0.5,0.2,0.8,0.3c0.2,0.1,0.4,0.3,0.5,0.5c0.2,0.2,0.3,0.4,0.4,0.6c0.1,0.3,0.2,0.6,0.3,1c0.1,0.4,0.1,0.8,0.1,1.2v6.4
		H549.3z"/>
	<path class="st2" d="M555.5,352.4c-0.5,0-1-0.1-1.4-0.3c-0.3-0.1-0.6-0.3-0.8-0.6c-0.2-0.2-0.4-0.5-0.6-0.9
		c-0.1-0.3-0.2-0.6-0.2-0.9c-0.1-0.3-0.1-0.7-0.1-1.1c0-0.3,0-0.6,0.1-0.9c0.1-0.3,0.1-0.5,0.3-0.8s0.3-0.4,0.4-0.6l0,0l-0.7,0V345
		c0.4,0,0.7,0,1-0.1c0.3,0,0.7,0,1,0c0.3,0,0.6,0,0.9,0c0.3,0,0.6,0,0.8,0.1c0.3,0.1,0.5,0.2,0.7,0.3c0.3,0.1,0.5,0.3,0.7,0.6
		c0.2,0.2,0.4,0.5,0.5,0.8c0.1,0.3,0.2,0.6,0.2,0.9c0.1,0.3,0.1,0.7,0.1,1.1c0,0.3,0,0.6-0.1,0.9c0,0.3-0.1,0.6-0.2,0.8
		c-0.1,0.4-0.3,0.7-0.5,1c-0.2,0.3-0.5,0.5-0.8,0.7C556.6,352.3,556.1,352.4,555.5,352.4z M555.5,351c0.2,0,0.4,0,0.6-0.1
		s0.3-0.2,0.4-0.4c0.1-0.1,0.2-0.3,0.2-0.5c0-0.2,0.1-0.4,0.1-0.6c0-0.2,0-0.5,0-0.7c0-0.5,0-0.9-0.1-1.3c-0.1-0.3-0.2-0.6-0.4-0.8
		c-0.1-0.1-0.2-0.2-0.4-0.3c-0.1-0.1-0.3-0.1-0.5-0.1c-0.1,0-0.2,0-0.3,0c-0.1,0-0.2,0-0.3,0c-0.2,0.3-0.4,0.6-0.5,1
		c-0.1,0.4-0.2,0.8-0.2,1.4c0,0.4,0,0.8,0.1,1.1c0.1,0.3,0.1,0.6,0.3,0.7c0.1,0.2,0.2,0.3,0.4,0.4S555.3,351,555.5,351z"/>
	<path class="st2" d="M560,352.3V345h1.7v7.3H560z"/>
	<path class="st2" d="M563.1,352.3V351h2c0-0.1,0.1-0.3,0.1-0.4c0-0.1,0-0.3,0-0.4v-3c0-0.1,0-0.3,0-0.4c0-0.1-0.1-0.2-0.2-0.3
		c-0.1-0.1-0.1-0.1-0.2-0.1c-0.1,0-0.2,0-0.3,0c-0.1,0-0.3,0-0.4,0c-0.1,0-0.3,0-0.5,0.1V345c0.1,0,0.3-0.1,0.5-0.1
		c0.2,0,0.4,0,0.6,0c0.4,0,0.7,0,0.9,0.1s0.4,0.2,0.6,0.3s0.3,0.3,0.4,0.4c0.1,0.2,0.2,0.3,0.2,0.5c0,0.1,0.1,0.3,0.1,0.4
		s0,0.3,0,0.5v3c0,0.2,0,0.4,0,0.7s0,0.5-0.1,0.7s-0.1,0.4-0.1,0.5l-0.1,0.3H563.1z"/>
	<path class="st2" d="M571.2,352.3v-2.6c0-0.2,0-0.4,0-0.5s0-0.3,0.1-0.4s0.1-0.3,0.2-0.4c0.1-0.2,0.2-0.4,0.4-0.5s0.4-0.3,0.7-0.3
		L571,345h1.9l2.2,3.6c0,0,0.1-0.1,0.1-0.1c0,0,0-0.1,0.1-0.1c0.1-0.1,0.1-0.2,0.2-0.3s0.1-0.3,0.1-0.5V345h1.7v2.6
		c0,0.3,0,0.5-0.1,0.7c0,0.2-0.1,0.4-0.2,0.6c-0.1,0.2-0.2,0.4-0.4,0.5c-0.2,0.2-0.4,0.3-0.7,0.4l1.5,2.5h-1.9l-2.2-3.7
		c-0.1,0-0.1,0.1-0.2,0.1c-0.1,0.1-0.1,0.1-0.2,0.3c-0.1,0.2-0.1,0.4-0.1,0.6v2.6H571.2z"/>
	<path class="st2" d="M579.2,352.3l-0.6-7.3h1.6l0.3,3.7c0.1,0,0.2-0.1,0.4-0.1c0.1-0.1,0.2-0.1,0.3-0.2c0.1-0.1,0.2-0.3,0.2-0.4
		c0.1-0.2,0.1-0.4,0.1-0.6l0.2-2.3h1.6l-0.2,2.2c0,0.4-0.1,0.8-0.2,1.1c-0.1,0.3-0.3,0.6-0.6,0.9c-0.2,0.2-0.5,0.4-0.7,0.5
		c-0.3,0.1-0.6,0.2-1,0.2c0,0,0,0,0,0c0,0,0,0,0,0l0.1,1h1.5c0.4,0,0.7-0.1,1.1-0.3c0.3-0.2,0.6-0.5,0.8-0.9
		c0.2-0.4,0.3-0.9,0.4-1.5l0.3-3.2h1.6l-0.3,3.3c0,0.4-0.1,0.8-0.2,1.2c-0.1,0.4-0.2,0.7-0.4,1c-0.2,0.3-0.3,0.5-0.5,0.7
		c-0.2,0.2-0.4,0.4-0.7,0.6c-0.3,0.2-0.7,0.3-1,0.4c-0.4,0.1-0.8,0.1-1.2,0.1H579.2z"/>
	<path class="st2" d="M587.9,352.3V345h1.7v7.3H587.9z"/>
	<path class="st2" d="M591.1,352.3V351h2c0-0.1,0.1-0.3,0.1-0.4c0-0.1,0-0.3,0-0.4v-3c0-0.1,0-0.3,0-0.4c0-0.1-0.1-0.2-0.2-0.3
		c-0.1-0.1-0.1-0.1-0.2-0.1c-0.1,0-0.2,0-0.3,0c-0.1,0-0.3,0-0.4,0c-0.1,0-0.3,0-0.5,0.1V345c0.1,0,0.3-0.1,0.5-0.1
		c0.2,0,0.4,0,0.6,0c0.4,0,0.7,0,0.9,0.1s0.4,0.2,0.6,0.3s0.3,0.3,0.4,0.4c0.1,0.2,0.2,0.3,0.2,0.5c0,0.1,0.1,0.3,0.1,0.4
		s0,0.3,0,0.5v3c0,0.2,0,0.4,0,0.7s0,0.5-0.1,0.7s-0.1,0.4-0.1,0.5l-0.1,0.3H591.1z"/>
</g>
<g>
	<path class="st2" d="M397.5,359.8c-0.1,0-0.3,0-0.4,0c-0.1,0-0.3-0.1-0.4-0.1v-1.2c0.2,0,0.4,0.1,0.6,0.1c0.2,0,0.4-0.1,0.5-0.2
		s0.1-0.3,0.1-0.6v-3.9c-0.1,0-0.3,0-0.4,0c-0.1,0-0.3,0-0.4,0v-1.3c0.4,0,0.8-0.1,1.2-0.1s0.7,0,1.1-0.1c0.3,0,0.7,0,1,0
		c0.4,0,0.7,0,0.9,0c0.3,0,0.5,0.1,0.7,0.1c0.2,0.1,0.4,0.1,0.5,0.2c0.2,0.1,0.3,0.2,0.4,0.4c0.1,0.1,0.2,0.3,0.3,0.5
		c0.1,0.1,0.1,0.3,0.1,0.5s0,0.4,0,0.6v4.9h-1.7v-4.8c0-0.3-0.1-0.6-0.2-0.8s-0.3-0.3-0.6-0.4c-0.2,0-0.4-0.1-0.6-0.1
		c-0.1,0-0.2,0-0.3,0s-0.2,0-0.3,0v4c0,0.3,0,0.5-0.1,0.7c0,0.2-0.1,0.4-0.2,0.6c-0.1,0.2-0.2,0.4-0.4,0.5c-0.2,0.1-0.4,0.2-0.6,0.3
		C398.1,359.8,397.8,359.8,397.5,359.8z"/>
	<path class="st2" d="M405.2,359.7v-7.3h1.7v7.3H405.2z"/>
	<path class="st2" d="M411.1,359.7v-4.7c0-0.2,0-0.3,0.1-0.4s0.1-0.3,0.1-0.4c0.1-0.1,0.1-0.2,0.2-0.3c0.1-0.1,0.1-0.1,0.2-0.2h-3.7
		v-1.3h5.8v1.2c-0.2,0.1-0.3,0.1-0.5,0.2c-0.1,0.1-0.2,0.2-0.3,0.3c-0.2,0.2-0.2,0.5-0.2,0.9v4.6H411.1z"/>
	<path class="st2" d="M417.7,359.8c-0.5,0-1-0.1-1.4-0.3c-0.3-0.1-0.6-0.3-0.8-0.6c-0.2-0.2-0.4-0.5-0.6-0.9
		c-0.1-0.3-0.2-0.6-0.2-0.9c-0.1-0.3-0.1-0.7-0.1-1.1c0-0.3,0-0.6,0.1-0.9s0.1-0.5,0.3-0.8c0.1-0.2,0.3-0.4,0.4-0.6l0,0l-0.7,0v-1.4
		c0.4,0,0.7,0,1-0.1c0.3,0,0.7,0,1,0c0.3,0,0.6,0,0.9,0c0.3,0,0.6,0,0.8,0.1c0.3,0.1,0.5,0.2,0.7,0.3c0.3,0.1,0.5,0.3,0.7,0.6
		s0.4,0.5,0.5,0.8c0.1,0.3,0.2,0.6,0.2,0.9s0.1,0.7,0.1,1.1c0,0.3,0,0.6-0.1,0.9c0,0.3-0.1,0.6-0.2,0.8c-0.1,0.4-0.3,0.7-0.5,1
		c-0.2,0.3-0.5,0.5-0.8,0.7C418.8,359.7,418.3,359.8,417.7,359.8z M417.7,358.5c0.2,0,0.4,0,0.6-0.1s0.3-0.2,0.4-0.4
		c0.1-0.1,0.2-0.3,0.2-0.5c0-0.2,0.1-0.4,0.1-0.6c0-0.2,0-0.5,0-0.7c0-0.5,0-0.9-0.1-1.3s-0.2-0.6-0.4-0.8c-0.1-0.1-0.2-0.2-0.4-0.3
		c-0.1-0.1-0.3-0.1-0.5-0.1c-0.1,0-0.2,0-0.3,0c-0.1,0-0.2,0-0.3,0c-0.2,0.3-0.4,0.6-0.5,1c-0.1,0.4-0.2,0.8-0.2,1.4
		c0,0.4,0,0.8,0.1,1.1s0.1,0.6,0.3,0.7c0.1,0.2,0.2,0.3,0.4,0.4S417.5,358.5,417.7,358.5z"/>
	<path class="st2" d="M422.2,359.7v-7.3h1.7v7.3H422.2z"/>
	<path class="st2" d="M425.4,359.7l0.5-4.9c0-0.1,0-0.2,0-0.3s0-0.2,0-0.3c0-0.1,0-0.3,0-0.4s0-0.3-0.1-0.4c0-0.1,0-0.1-0.1-0.2
		c0-0.1,0-0.2-0.1-0.2c0-0.1,0-0.2-0.1-0.2c0,0,0-0.1,0-0.1c0,0,0-0.1-0.1-0.1h1.5c0.1,0.1,0.1,0.2,0.2,0.4c0,0.1,0.1,0.3,0.1,0.4
		h0.1c0.1-0.1,0.2-0.2,0.3-0.3c0.2-0.1,0.3-0.2,0.4-0.3c0.1-0.1,0.3-0.1,0.6-0.2c0.2-0.1,0.5-0.1,0.8-0.1c0.3,0,0.6,0,0.8,0.1
		c0.2,0.1,0.5,0.2,0.6,0.4c0.1,0.1,0.2,0.2,0.3,0.3c0.1,0.1,0.1,0.2,0.2,0.4c0.1,0.2,0.2,0.5,0.2,0.8c0.1,0.3,0.1,0.6,0.1,1v4.4
		h-3.1v-1.3h1.4v-3c0-0.2,0-0.4,0-0.6c0-0.2-0.1-0.3-0.1-0.4c0-0.1-0.1-0.2-0.2-0.3c-0.1-0.1-0.2-0.2-0.3-0.2
		c-0.1-0.1-0.3-0.1-0.4-0.1c-0.2,0-0.4,0-0.5,0.1c-0.2,0.1-0.3,0.1-0.4,0.2c-0.1,0.1-0.2,0.2-0.3,0.3s-0.1,0.2-0.2,0.3l-0.5,5.2
		H425.4z"/>
	<path class="st2" d="M381.3,373.6v-4.8c0-0.3-0.1-0.5-0.2-0.7c-0.1-0.2-0.3-0.3-0.5-0.4c-0.1,0-0.2-0.1-0.3-0.1c-0.1,0-0.3,0-0.4,0
		c-0.3,0-0.7,0-1.1,0c-0.4,0-0.9,0.1-1.5,0.1v-1.3c0.2,0,0.4-0.1,0.6-0.1c0.2,0,0.4,0,0.6-0.1c0.3,0,0.6,0,0.8,0c0.3,0,0.5,0,0.8,0
		c0.4,0,0.8,0,1.1,0.1s0.6,0.1,0.8,0.2c0.2,0.1,0.4,0.2,0.6,0.4c0.1,0.2,0.3,0.3,0.3,0.6c0.1,0.2,0.1,0.4,0.1,0.6c0,0.2,0,0.4,0,0.7
		v4.8H381.3z M377.3,373.6v-4.3h1.7v4.3H377.3z"/>
	<path class="st2" d="M388.9,373.6v-4.8c0-0.3-0.1-0.5-0.2-0.7c-0.1-0.2-0.3-0.3-0.5-0.4c-0.1,0-0.2-0.1-0.3-0.1c-0.1,0-0.3,0-0.4,0
		c-0.3,0-0.7,0-1.1,0c-0.4,0-0.9,0.1-1.5,0.1v-1.3c0.2,0,0.4-0.1,0.6-0.1c0.2,0,0.4,0,0.6-0.1c0.3,0,0.6,0,0.8,0c0.3,0,0.5,0,0.8,0
		c0.4,0,0.8,0,1.1,0.1s0.6,0.1,0.8,0.2c0.2,0.1,0.4,0.2,0.6,0.4c0.1,0.2,0.3,0.3,0.3,0.6c0.1,0.2,0.1,0.4,0.1,0.6c0,0.2,0,0.4,0,0.7
		v4.8H388.9z M384.8,373.6v-4.3h1.7v4.3H384.8z"/>
	<path class="st2" d="M392.4,373.6v-7.3h1.7v7.3H392.4z"/>
	<path class="st2" d="M395.6,373.6v-1.3h3.3v-3.5c0-0.3-0.1-0.6-0.2-0.7c-0.1-0.2-0.3-0.3-0.6-0.4c-0.1,0-0.2-0.1-0.3-0.1
		c-0.1,0-0.2,0-0.4,0c-0.2,0-0.5,0-0.8,0c-0.3,0-0.7,0-1.1,0.1v-1.3c0.2,0,0.5-0.1,0.9-0.1c0.3,0,0.7,0,1.1,0c0.4,0,0.7,0,0.9,0
		c0.3,0,0.5,0.1,0.7,0.2c0.2,0.1,0.4,0.2,0.6,0.3c0.1,0.1,0.3,0.2,0.4,0.4c0.1,0.1,0.2,0.3,0.3,0.5c0.1,0.2,0.1,0.3,0.1,0.5
		c0,0.2,0,0.4,0,0.6v3.6h0.8v1.3H395.6z"/>
	<path class="st2" d="M402.8,373.6c-0.1,0-0.2,0-0.3,0c-0.1,0-0.2,0-0.4-0.1l0.2-1.5c0.1,0,0.2,0,0.4,0.1c0.1,0,0.2,0,0.4,0
		c0.3,0,0.5,0,0.7-0.1c0.2-0.1,0.4-0.2,0.5-0.4c0.1-0.1,0.2-0.3,0.2-0.5s0.1-0.4,0.1-0.6v-2.2c0-0.3,0-0.5-0.1-0.6s-0.2-0.2-0.5-0.2
		c-0.2,0-0.3,0-0.5,0c-0.2,0-0.3,0.1-0.5,0.1v-1.3c0.4-0.1,0.8-0.1,1.2-0.1c0.4,0,0.7,0,0.9,0.1s0.4,0.2,0.6,0.3
		c0.2,0.2,0.4,0.4,0.5,0.7c0.1,0.3,0.1,0.6,0.1,1v5.3h-1.3l-0.3-1.1h-0.1c-0.1,0.1-0.1,0.2-0.3,0.4c-0.1,0.1-0.2,0.3-0.3,0.3
		c-0.1,0.1-0.3,0.2-0.5,0.3C403.2,373.6,403,373.6,402.8,373.6z"/>
	<path class="st2" d="M415,373.6v-4.8c0-0.3-0.1-0.5-0.2-0.7c-0.1-0.2-0.3-0.3-0.5-0.4c-0.1,0-0.2-0.1-0.3-0.1c-0.1,0-0.3,0-0.4,0
		c-0.3,0-0.7,0-1.1,0c-0.4,0-0.9,0.1-1.5,0.1v-1.3c0.2,0,0.4-0.1,0.6-0.1c0.2,0,0.4,0,0.6-0.1c0.3,0,0.6,0,0.8,0c0.3,0,0.5,0,0.8,0
		c0.4,0,0.8,0,1.1,0.1s0.6,0.1,0.8,0.2c0.2,0.1,0.4,0.2,0.6,0.4c0.1,0.2,0.3,0.3,0.3,0.6c0.1,0.2,0.1,0.4,0.1,0.6c0,0.2,0,0.4,0,0.7
		v4.8H415z M410.9,373.6v-4.3h1.7v4.3H410.9z"/>
	<path class="st2" d="M420.2,373.6l0.6-2.8l0.9-3.2H418v-2.8h1.7v1.5h3.7v1.1l-1,3.4l-0.6,2.8H420.2z"/>
	<path class="st2" d="M426.3,373.7c-0.4,0-0.8,0-1.2,0c-0.3,0-0.7-0.1-0.9-0.1v-1.4c0.2,0,0.4,0.1,0.6,0.1c0.2,0,0.4,0,0.7,0.1
		s0.5,0,0.7,0c0.2,0,0.4,0,0.5-0.1c0.1-0.1,0.3-0.1,0.4-0.2c0.1-0.1,0.2-0.2,0.2-0.3c0.1-0.1,0.1-0.2,0.2-0.3c0-0.1,0.1-0.3,0.1-0.4
		s0-0.3,0-0.5v-1c0-0.3,0-0.6-0.1-0.8c-0.1-0.3-0.1-0.5-0.3-0.6c-0.1-0.2-0.3-0.3-0.5-0.4c-0.2-0.1-0.5-0.1-0.7-0.1
		c-0.2,0-0.5,0-0.7,0s-0.5,0-0.8,0.1c0,0-0.1,0-0.1,0s-0.1,0-0.1,0v-1.4c0.1,0,0.2,0,0.4-0.1c0.1,0,0.3,0,0.4,0c0.2,0,0.4,0,0.6,0
		s0.5,0,0.7,0c0.4,0,0.8,0.1,1.2,0.2s0.6,0.3,0.9,0.5c0.1,0.1,0.2,0.2,0.3,0.3s0.2,0.3,0.2,0.4c0.1,0.2,0.2,0.4,0.2,0.6
		s0.1,0.4,0.1,0.6c0,0.2,0,0.4,0,0.7v1c0,0.3,0,0.7-0.1,0.9s-0.1,0.6-0.3,0.8c-0.1,0.3-0.3,0.5-0.4,0.7c-0.2,0.2-0.4,0.3-0.7,0.5
		c-0.2,0.1-0.4,0.2-0.7,0.3S426.6,373.7,426.3,373.7z"/>
	<path class="st2" d="M431,373.6l-0.6-7.3h1.6l0.3,3.7c0.1,0,0.2-0.1,0.4-0.1c0.1-0.1,0.2-0.1,0.3-0.2c0.1-0.1,0.2-0.3,0.2-0.4
		c0.1-0.2,0.1-0.4,0.1-0.6l0.2-2.3h1.6l-0.2,2.2c0,0.4-0.1,0.8-0.2,1.1c-0.1,0.3-0.3,0.6-0.6,0.9c-0.2,0.2-0.5,0.4-0.7,0.5
		c-0.3,0.1-0.6,0.2-1,0.2c0,0,0,0,0,0s0,0,0,0l0.1,1h1.5c0.4,0,0.7-0.1,1.1-0.3c0.3-0.2,0.6-0.5,0.8-0.9c0.2-0.4,0.3-0.9,0.4-1.5
		l0.3-3.2h1.6l-0.3,3.3c0,0.4-0.1,0.8-0.2,1.2c-0.1,0.4-0.2,0.7-0.4,1c-0.1,0.3-0.3,0.5-0.5,0.7s-0.4,0.4-0.7,0.6
		c-0.3,0.2-0.7,0.3-1,0.4c-0.4,0.1-0.8,0.1-1.2,0.1H431z"/>
	<path class="st2" d="M443.8,373.6v-4.8c0-0.3-0.1-0.5-0.2-0.7c-0.1-0.2-0.3-0.3-0.5-0.4c-0.1,0-0.2-0.1-0.3-0.1c-0.1,0-0.3,0-0.4,0
		c-0.3,0-0.7,0-1.1,0c-0.4,0-0.9,0.1-1.5,0.1v-1.3c0.2,0,0.4-0.1,0.6-0.1c0.2,0,0.4,0,0.6-0.1c0.3,0,0.6,0,0.8,0c0.3,0,0.5,0,0.8,0
		c0.4,0,0.8,0,1.1,0.1s0.6,0.1,0.8,0.2c0.2,0.1,0.4,0.2,0.6,0.4c0.1,0.2,0.3,0.3,0.3,0.6c0.1,0.2,0.1,0.4,0.1,0.6c0,0.2,0,0.4,0,0.7
		v4.8H443.8z M439.7,373.6v-4.3h1.7v4.3H439.7z"/>
	<path class="st2" d="M449,373.6l0.6-2.8l0.9-3.2h-3.7v-2.8h1.7v1.5h3.7v1.1l-1,3.4l-0.6,2.8H449z"/>
</g>
<g>
	<path class="st2" d="M468.2,421.3v-6.4c0-0.5,0-0.8-0.1-1.1s-0.1-0.5-0.2-0.7c-0.1-0.2-0.3-0.4-0.5-0.4c-0.2-0.1-0.4-0.1-0.6-0.1
		c-0.2,0-0.4,0-0.6,0.1c-0.2,0.1-0.3,0.2-0.4,0.3c-0.1,0.1-0.2,0.2-0.2,0.4s-0.1,0.3-0.1,0.5c0,0.2,0,0.4,0.1,0.5
		c0.1,0.2,0.2,0.3,0.3,0.4c0.1,0.1,0.2,0.1,0.3,0.2s0.2,0.1,0.3,0.1l0.3,0.1l-0.3,1.2l-0.4,0c-0.4,0-0.7-0.1-1-0.2s-0.5-0.3-0.8-0.5
		c-0.2-0.2-0.3-0.5-0.4-0.8s-0.2-0.6-0.2-1c0-0.3,0.1-0.7,0.2-1c0.1-0.3,0.3-0.6,0.5-0.8c0.1-0.1,0.2-0.2,0.3-0.3s0.3-0.2,0.4-0.2
		c0.2-0.1,0.5-0.2,0.8-0.2c0.3-0.1,0.5-0.1,0.8-0.1c0.3,0,0.7,0,0.9,0.1c0.3,0.1,0.5,0.2,0.8,0.3c0.2,0.1,0.4,0.3,0.5,0.5
		s0.3,0.4,0.4,0.6c0.1,0.3,0.2,0.6,0.3,1c0.1,0.4,0.1,0.8,0.1,1.2v6.4H468.2z"/>
	<path class="st2" d="M474.4,418.6c-0.5,0-1-0.1-1.4-0.3c-0.3-0.1-0.6-0.3-0.8-0.6c-0.2-0.2-0.4-0.5-0.6-0.9
		c-0.1-0.3-0.2-0.6-0.2-0.9c-0.1-0.3-0.1-0.7-0.1-1.1c0-0.3,0-0.6,0.1-0.9s0.1-0.5,0.3-0.8c0.1-0.2,0.3-0.4,0.4-0.6l0,0l-0.7,0v-1.4
		c0.4,0,0.7,0,1-0.1c0.3,0,0.7,0,1,0c0.3,0,0.6,0,0.9,0c0.3,0,0.6,0,0.8,0.1c0.3,0.1,0.5,0.2,0.7,0.3c0.3,0.1,0.5,0.3,0.7,0.6
		s0.4,0.5,0.5,0.8c0.1,0.3,0.2,0.6,0.2,0.9s0.1,0.7,0.1,1.1c0,0.3,0,0.6-0.1,0.9c0,0.3-0.1,0.6-0.2,0.8c-0.1,0.4-0.3,0.7-0.5,1
		c-0.2,0.3-0.5,0.5-0.8,0.7C475.5,418.5,475,418.6,474.4,418.6z M474.4,417.3c0.2,0,0.4,0,0.6-0.1s0.3-0.2,0.4-0.4
		c0.1-0.1,0.2-0.3,0.2-0.5c0-0.2,0.1-0.4,0.1-0.6c0-0.2,0-0.5,0-0.7c0-0.5,0-0.9-0.1-1.3s-0.2-0.6-0.4-0.8c-0.1-0.1-0.2-0.2-0.4-0.3
		c-0.1-0.1-0.3-0.1-0.5-0.1c-0.1,0-0.2,0-0.3,0c-0.1,0-0.2,0-0.3,0c-0.2,0.3-0.4,0.6-0.5,1c-0.1,0.4-0.2,0.8-0.2,1.4
		c0,0.4,0,0.8,0.1,1.1s0.1,0.6,0.3,0.7c0.1,0.2,0.2,0.3,0.4,0.4S474.2,417.3,474.4,417.3z"/>
	<path class="st2" d="M478.9,418.5v-7.3h1.7v7.3H478.9z"/>
	<path class="st2" d="M482,418.5v-1.3h2c0-0.1,0.1-0.3,0.1-0.4c0-0.1,0-0.3,0-0.4v-3c0-0.1,0-0.3,0-0.4c0-0.1-0.1-0.2-0.2-0.3
		c-0.1-0.1-0.1-0.1-0.2-0.1c-0.1,0-0.2,0-0.3,0c-0.1,0-0.3,0-0.4,0c-0.1,0-0.3,0-0.5,0.1v-1.4c0.1,0,0.3-0.1,0.5-0.1
		c0.2,0,0.4,0,0.6,0c0.4,0,0.7,0,0.9,0.1s0.4,0.2,0.6,0.3s0.3,0.3,0.4,0.4c0.1,0.2,0.2,0.3,0.2,0.5c0,0.1,0.1,0.3,0.1,0.4
		s0,0.3,0,0.5v3c0,0.2,0,0.4,0,0.7s0,0.5-0.1,0.7s-0.1,0.4-0.1,0.5l-0.1,0.3H482z"/>
	<path class="st2" d="M490.1,418.5v-2.6c0-0.2,0-0.4,0-0.5c0-0.2,0-0.3,0.1-0.4s0.1-0.3,0.2-0.4c0.1-0.2,0.2-0.4,0.4-0.5
		c0.2-0.1,0.4-0.3,0.7-0.3l-1.5-2.5h1.9l2.2,3.6c0,0,0.1-0.1,0.1-0.1c0,0,0-0.1,0.1-0.1c0.1-0.1,0.1-0.2,0.2-0.3s0.1-0.3,0.1-0.5
		v-2.7h1.7v2.6c0,0.3,0,0.5-0.1,0.7c0,0.2-0.1,0.4-0.2,0.6c-0.1,0.2-0.2,0.4-0.4,0.5c-0.2,0.2-0.4,0.3-0.7,0.4l1.5,2.5h-1.9
		l-2.2-3.7c-0.1,0-0.1,0.1-0.2,0.1c-0.1,0.1-0.1,0.1-0.2,0.3c-0.1,0.2-0.1,0.4-0.1,0.6v2.6H490.1z"/>
	<path class="st2" d="M498.1,418.5l-0.6-7.3h1.6l0.3,3.7c0.1,0,0.2-0.1,0.4-0.1c0.1-0.1,0.2-0.1,0.3-0.2c0.1-0.1,0.2-0.3,0.2-0.4
		c0.1-0.2,0.1-0.4,0.1-0.6l0.2-2.3h1.6l-0.2,2.2c0,0.4-0.1,0.8-0.2,1.1c-0.1,0.3-0.3,0.6-0.6,0.9c-0.2,0.2-0.5,0.4-0.7,0.5
		c-0.3,0.1-0.6,0.2-1,0.2c0,0,0,0,0,0s0,0,0,0l0.1,1h1.5c0.4,0,0.7-0.1,1.1-0.3c0.3-0.2,0.6-0.5,0.8-0.9c0.2-0.4,0.3-0.9,0.4-1.5
		l0.3-3.2h1.6l-0.3,3.3c0,0.4-0.1,0.8-0.2,1.2c-0.1,0.4-0.2,0.7-0.4,1c-0.1,0.3-0.3,0.5-0.5,0.7c-0.2,0.2-0.4,0.4-0.7,0.6
		c-0.3,0.2-0.7,0.3-1,0.4c-0.4,0.1-0.8,0.1-1.2,0.1H498.1z"/>
	<path class="st2" d="M506.8,418.5v-7.3h1.7v7.3H506.8z"/>
	<path class="st2" d="M509.9,418.5v-1.3h2c0-0.1,0.1-0.3,0.1-0.4c0-0.1,0-0.3,0-0.4v-3c0-0.1,0-0.3,0-0.4c0-0.1-0.1-0.2-0.2-0.3
		c-0.1-0.1-0.1-0.1-0.2-0.1c-0.1,0-0.2,0-0.3,0c-0.1,0-0.3,0-0.4,0c-0.1,0-0.3,0-0.5,0.1v-1.4c0.1,0,0.3-0.1,0.5-0.1
		c0.2,0,0.4,0,0.6,0c0.4,0,0.7,0,0.9,0.1s0.4,0.2,0.6,0.3c0.2,0.1,0.3,0.3,0.4,0.4c0.1,0.2,0.2,0.3,0.2,0.5c0,0.1,0.1,0.3,0.1,0.4
		s0,0.3,0,0.5v3c0,0.2,0,0.4,0,0.7s0,0.5-0.1,0.7s-0.1,0.4-0.1,0.5l-0.1,0.3H509.9z"/>
</g>
<circle class="st0" cx="224.9" cy="178.7" r="79.6"/>
<g>
	<path class="st2" d="M177.8,179.6v-4.8h1.7v3.5l-1,1.3H177.8z"/>
	<path class="st2" d="M183.6,182.1v-4.7c0-0.2,0-0.3,0.1-0.4s0.1-0.3,0.1-0.4c0.1-0.1,0.1-0.2,0.2-0.3c0.1-0.1,0.1-0.1,0.2-0.2h-3.7
		v-1.3h5.8v1.2c-0.2,0.1-0.3,0.1-0.5,0.2c-0.1,0.1-0.2,0.2-0.3,0.3c-0.2,0.2-0.2,0.5-0.2,0.9v4.6H183.6z"/>
	<path class="st2" d="M187.5,182.1v-7.3h1.7v7.3H187.5z"/>
	<path class="st2" d="M195.1,182.1v-4.8c0-0.3-0.1-0.5-0.2-0.7c-0.1-0.2-0.3-0.3-0.5-0.4c-0.1,0-0.2-0.1-0.3-0.1c-0.1,0-0.3,0-0.4,0
		c-0.3,0-0.7,0-1.1,0c-0.4,0-0.9,0.1-1.5,0.1v-1.3c0.2,0,0.4-0.1,0.6-0.1c0.2,0,0.4,0,0.6-0.1c0.3,0,0.6,0,0.8,0c0.3,0,0.5,0,0.8,0
		c0.4,0,0.8,0,1.1,0.1s0.6,0.1,0.8,0.2c0.2,0.1,0.4,0.2,0.6,0.4c0.1,0.2,0.3,0.3,0.3,0.6c0.1,0.2,0.1,0.4,0.1,0.6c0,0.2,0,0.4,0,0.7
		v4.8H195.1z M191.1,182.1v-4.3h1.7v4.3H191.1z"/>
	<path class="st2" d="M198.5,179.6v-4.8h1.7v3.5l-1,1.3H198.5z"/>
	<path class="st2" d="M206,182.1v-4.8c0-0.3-0.1-0.5-0.2-0.7c-0.1-0.2-0.3-0.3-0.5-0.4c-0.1,0-0.2-0.1-0.3-0.1c-0.1,0-0.3,0-0.4,0
		c-0.3,0-0.7,0-1.1,0c-0.4,0-0.9,0.1-1.5,0.1v-1.3c0.2,0,0.4-0.1,0.6-0.1c0.2,0,0.4,0,0.6-0.1c0.3,0,0.6,0,0.8,0c0.3,0,0.5,0,0.8,0
		c0.4,0,0.8,0,1.1,0.1s0.6,0.1,0.8,0.2c0.2,0.1,0.4,0.2,0.6,0.4c0.1,0.2,0.3,0.3,0.3,0.6c0.1,0.2,0.1,0.4,0.1,0.6c0,0.2,0,0.4,0,0.7
		v4.8H206z M202,182.1v-4.3h1.7v4.3H202z"/>
	<path class="st2" d="M212.5,182.1v-7.2c0.1,0,0.2,0,0.4,0c0.1,0,0.3,0,0.5,0c0.3,0,0.7-0.1,1-0.1c0.3,0,0.6,0,1,0
		c0.5,0,0.9,0,1.2,0.1c0.3,0.1,0.6,0.1,0.8,0.3c0.2,0.1,0.3,0.2,0.5,0.3c0.1,0.1,0.2,0.3,0.3,0.5c0.1,0.2,0.1,0.3,0.2,0.5
		s0.1,0.4,0.1,0.6v5.1H212.5z M214.2,180.8h2.4V177c0-0.2,0-0.3-0.1-0.4c0-0.1-0.1-0.2-0.2-0.3c-0.1-0.1-0.1-0.1-0.2-0.1
		c-0.1,0-0.2-0.1-0.3-0.1c-0.1,0-0.2,0-0.3,0c-0.1,0-0.2,0-0.4,0c-0.1,0-0.3,0-0.4,0c-0.2,0-0.3,0-0.5,0V180.8z"/>
	<path class="st2" d="M219.6,182.5v-1.4l1.3-0.2c0.1,0,0.2,0,0.3-0.1c0.1,0,0.2,0,0.3-0.1l-1.6-6h1.7l0.9,3.2l0.5,2.2
		c0.2-0.1,0.4-0.3,0.5-0.5c0.1-0.2,0.3-0.5,0.4-0.7c0.1-0.3,0.2-0.6,0.2-0.9l0.3-3.3h1.7l-0.3,3.2c0,0.3-0.1,0.5-0.1,0.7
		s-0.1,0.4-0.2,0.6c-0.1,0.2-0.2,0.4-0.3,0.6c-0.3,0.6-0.7,1.1-1.3,1.4c-0.6,0.4-1.2,0.6-2.1,0.7c-0.4,0.1-0.8,0.1-1.1,0.2
		C220.3,182.4,219.9,182.4,219.6,182.5z"/>
	<path class="st2" d="M231.5,182.1v-4.8c0-0.3-0.1-0.5-0.2-0.7c-0.1-0.2-0.3-0.3-0.5-0.4c-0.1,0-0.2-0.1-0.3-0.1c-0.1,0-0.3,0-0.4,0
		c-0.3,0-0.7,0-1.1,0c-0.4,0-0.9,0.1-1.5,0.1v-1.3c0.2,0,0.4-0.1,0.6-0.1c0.2,0,0.4,0,0.6-0.1c0.3,0,0.6,0,0.8,0c0.3,0,0.5,0,0.8,0
		c0.4,0,0.8,0,1.1,0.1s0.6,0.1,0.8,0.2c0.2,0.1,0.4,0.2,0.6,0.4c0.1,0.2,0.3,0.3,0.3,0.6c0.1,0.2,0.1,0.4,0.1,0.6c0,0.2,0,0.4,0,0.7
		v4.8H231.5z M227.4,182.1v-4.3h1.7v4.3H227.4z"/>
	<path class="st2" d="M238.3,182.2c-0.1,0-0.3,0-0.4,0c-0.1,0-0.3-0.1-0.4-0.1v-1.2c0.2,0,0.4,0.1,0.6,0.1c0.2,0,0.4-0.1,0.5-0.2
		s0.1-0.3,0.1-0.6v-3.9c-0.1,0-0.3,0-0.4,0c-0.1,0-0.3,0-0.4,0v-1.3c0.4,0,0.8-0.1,1.2-0.1s0.7,0,1.1-0.1c0.3,0,0.7,0,1,0
		c0.4,0,0.7,0,0.9,0c0.3,0,0.5,0.1,0.7,0.1c0.2,0.1,0.4,0.1,0.5,0.2c0.2,0.1,0.3,0.2,0.4,0.4c0.1,0.1,0.2,0.3,0.3,0.5
		c0.1,0.1,0.1,0.3,0.1,0.5s0,0.4,0,0.6v4.9h-1.7v-4.8c0-0.3-0.1-0.6-0.2-0.8s-0.3-0.3-0.6-0.4c-0.2,0-0.4-0.1-0.6-0.1
		c-0.1,0-0.2,0-0.3,0s-0.2,0-0.3,0v4c0,0.3,0,0.5-0.1,0.7c0,0.2-0.1,0.4-0.2,0.6c-0.1,0.2-0.2,0.4-0.4,0.5c-0.2,0.1-0.4,0.2-0.6,0.3
		C238.8,182.1,238.6,182.2,238.3,182.2z"/>
	<path class="st2" d="M246,182.1v-7.3h1.7v7.3H246z"/>
	<path class="st2" d="M251.9,182.1v-4.7c0-0.2,0-0.3,0.1-0.4s0.1-0.3,0.1-0.4c0.1-0.1,0.1-0.2,0.2-0.3c0.1-0.1,0.1-0.1,0.2-0.2h-3.7
		v-1.3h5.8v1.2c-0.2,0.1-0.3,0.1-0.5,0.2c-0.1,0.1-0.2,0.2-0.3,0.3c-0.2,0.2-0.2,0.5-0.2,0.9v4.6H251.9z"/>
	<path class="st2" d="M257.5,182.1l0.6-2.8l0.9-3.2h-3.7v-2.8h1.7v1.5h3.7v1.1l-1,3.4l-0.6,2.8H257.5z"/>
	<path class="st2" d="M262.1,182.1v-7.3h1.7v7.3H262.1z"/>
	<path class="st2" d="M265.9,182.2c-0.1,0-0.3,0-0.4,0c-0.1,0-0.3-0.1-0.4-0.1v-1.2c0.2,0,0.4,0.1,0.6,0.1c0.2,0,0.4-0.1,0.5-0.2
		s0.1-0.3,0.1-0.6v-3.9c-0.1,0-0.3,0-0.4,0c-0.1,0-0.3,0-0.4,0v-1.3c0.4,0,0.8-0.1,1.2-0.1s0.7,0,1.1-0.1c0.3,0,0.7,0,1,0
		c0.4,0,0.7,0,0.9,0c0.3,0,0.5,0.1,0.7,0.1c0.2,0.1,0.4,0.1,0.5,0.2c0.2,0.1,0.3,0.2,0.4,0.4c0.1,0.1,0.2,0.3,0.3,0.5
		c0.1,0.1,0.1,0.3,0.1,0.5s0,0.4,0,0.6v4.9h-1.7v-4.8c0-0.3-0.1-0.6-0.2-0.8s-0.3-0.3-0.6-0.4c-0.2,0-0.4-0.1-0.6-0.1
		c-0.1,0-0.2,0-0.3,0s-0.2,0-0.3,0v4c0,0.3,0,0.5-0.1,0.7c0,0.2-0.1,0.4-0.2,0.6c-0.1,0.2-0.2,0.4-0.4,0.5c-0.2,0.1-0.4,0.2-0.6,0.3
		C266.5,182.1,266.3,182.2,265.9,182.2z"/>
</g>
<circle class="st0" cx="226.2" cy="483.4" r="79.6"/>
<g>
	<path class="st2" d="M213.1,486.8c-0.1,0-0.3,0-0.4,0c-0.1,0-0.3-0.1-0.4-0.1v-1.2c0.2,0,0.4,0.1,0.6,0.1c0.2,0,0.4-0.1,0.5-0.2
		s0.1-0.3,0.1-0.6v-3.9c-0.1,0-0.3,0-0.4,0c-0.1,0-0.3,0-0.4,0v-1.3c0.4,0,0.8-0.1,1.2-0.1s0.7,0,1.1-0.1c0.3,0,0.7,0,1,0
		c0.4,0,0.7,0,0.9,0c0.3,0,0.5,0.1,0.7,0.1c0.2,0.1,0.4,0.1,0.5,0.2c0.2,0.1,0.3,0.2,0.4,0.4c0.1,0.1,0.2,0.3,0.3,0.5
		c0.1,0.1,0.1,0.3,0.1,0.5s0,0.4,0,0.6v4.9h-1.7v-4.8c0-0.3-0.1-0.6-0.2-0.8s-0.3-0.3-0.6-0.4c-0.2,0-0.4-0.1-0.6-0.1
		c-0.1,0-0.2,0-0.3,0s-0.2,0-0.3,0v4c0,0.3,0,0.5-0.1,0.7c0,0.2-0.1,0.4-0.2,0.6c-0.1,0.2-0.2,0.4-0.4,0.5c-0.2,0.1-0.4,0.2-0.6,0.3
		C213.7,486.8,213.4,486.8,213.1,486.8z"/>
	<path class="st2" d="M220.8,486.8v-7.3h1.7v7.3H220.8z"/>
	<path class="st2" d="M226.7,486.8v-4.7c0-0.2,0-0.3,0.1-0.4s0.1-0.3,0.1-0.4c0.1-0.1,0.1-0.2,0.2-0.3c0.1-0.1,0.1-0.1,0.2-0.2h-3.7
		v-1.3h5.8v1.2c-0.2,0.1-0.3,0.1-0.5,0.2c-0.1,0.1-0.2,0.2-0.3,0.3c-0.2,0.2-0.2,0.5-0.2,0.9v4.6H226.7z"/>
	<path class="st2" d="M234.7,486.8v-4.8c0-0.3-0.1-0.5-0.2-0.7c-0.1-0.2-0.3-0.3-0.5-0.4c-0.1,0-0.2-0.1-0.3-0.1c-0.1,0-0.3,0-0.4,0
		c-0.3,0-0.7,0-1.1,0c-0.4,0-0.9,0.1-1.5,0.1v-1.3c0.2,0,0.4-0.1,0.6-0.1c0.2,0,0.4,0,0.6-0.1c0.3,0,0.6,0,0.8,0c0.3,0,0.5,0,0.8,0
		c0.4,0,0.8,0,1.1,0.1s0.6,0.1,0.8,0.2c0.2,0.1,0.4,0.2,0.6,0.4c0.1,0.2,0.3,0.3,0.3,0.6c0.1,0.2,0.1,0.4,0.1,0.6c0,0.2,0,0.4,0,0.7
		v4.8H234.7z M230.6,486.8v-4.3h1.7v4.3H230.6z"/>
	<path class="st2" d="M238.1,484.3v-4.8h1.7v3.5l-1,1.3H238.1z"/>
</g>
<circle class="st0" cx="732.7" cy="516.6" r="44.3"/>
<g>
	<path class="st2" d="M706.3,519.6v-7.2c0.1,0,0.2,0,0.4,0c0.1,0,0.3,0,0.5,0c0.3,0,0.7-0.1,1-0.1c0.3,0,0.6,0,1,0
		c0.5,0,0.9,0,1.2,0.1c0.3,0.1,0.6,0.1,0.8,0.3c0.2,0.1,0.3,0.2,0.5,0.3c0.1,0.1,0.2,0.3,0.3,0.5c0.1,0.2,0.1,0.3,0.2,0.5
		c0,0.2,0,0.4,0,0.6v5.1H706.3z M708,518.2h2.4v-3.8c0-0.2,0-0.3-0.1-0.4c0-0.1-0.1-0.2-0.2-0.3c-0.1-0.1-0.1-0.1-0.2-0.1
		c-0.1,0-0.2-0.1-0.3-0.1c-0.1,0-0.2,0-0.3,0c-0.1,0-0.2,0-0.4,0c-0.1,0-0.3,0-0.4,0c-0.2,0-0.3,0-0.5,0V518.2z"/>
	<path class="st2" d="M713.8,517.1v-4.8h1.7v3.5l-1,1.3H713.8z"/>
	<path class="st2" d="M720.2,519.7c-0.3,0-0.5,0-0.8-0.1c-0.3,0-0.5-0.1-0.7-0.2c-0.2-0.1-0.3-0.2-0.5-0.4c-0.2-0.1-0.3-0.3-0.5-0.6
		c-0.2-0.3-0.3-0.7-0.4-1.1c-0.1-0.4-0.1-0.9-0.1-1.5v-3.6h1.7v3.6c0,0.5,0,0.9,0.1,1.2s0.2,0.6,0.3,0.8c0.1,0.1,0.2,0.3,0.4,0.3
		c0.2,0.1,0.3,0.1,0.5,0.1c0.2,0,0.4,0,0.6-0.1s0.3-0.2,0.4-0.4c0.1-0.2,0.2-0.5,0.3-0.8c0.1-0.3,0.1-0.7,0.1-1.1
		c0-0.4,0-0.8-0.1-1.1c-0.1-0.3-0.1-0.6-0.3-0.8c-0.1-0.2-0.2-0.3-0.4-0.4c-0.2-0.1-0.4-0.1-0.6-0.1c-0.1,0-0.1,0-0.2,0
		c-0.1,0-0.1,0-0.2,0v-1.3c0.1,0,0.3,0,0.4,0c0.1,0,0.3,0,0.4,0c0.3,0,0.5,0,0.8,0.1c0.3,0.1,0.5,0.2,0.7,0.3
		c0.1,0.1,0.3,0.2,0.4,0.4c0.1,0.1,0.2,0.3,0.3,0.5c0.1,0.3,0.2,0.6,0.3,1c0.1,0.4,0.1,0.9,0.1,1.4c0,0.4,0,0.7-0.1,1
		s-0.1,0.6-0.2,0.9c-0.1,0.3-0.3,0.7-0.5,0.9c-0.2,0.3-0.4,0.5-0.7,0.6c-0.2,0.1-0.5,0.2-0.7,0.3
		C720.8,519.6,720.5,519.7,720.2,519.7z"/>
	<path class="st2" d="M727.6,519.6c0,0,0-0.1,0-0.1s0-0.1,0-0.1c0-0.2,0-0.4,0.1-0.7s0.1-0.6,0.2-0.9c0-0.1,0.1-0.3,0.1-0.4
		c0-0.1,0.1-0.3,0.1-0.4c0-0.2,0.1-0.3,0.1-0.4l1-2.9h-4.5v-1.3h6.3v1l-1.1,3.2c0,0.1-0.1,0.3-0.1,0.4c0,0.2-0.1,0.3-0.1,0.5
		c0,0.2-0.1,0.3-0.1,0.4c0,0.1-0.1,0.2-0.1,0.4c0,0.1-0.1,0.3-0.1,0.4s0,0.3-0.1,0.4c0,0.1,0,0.2,0,0.3v0.3H727.6z M724.7,522.3
		v-7.1h1.7v7.1H724.7z"/>
	<path class="st2" d="M732,517.1v-4.8h1.7v3.5l-1,1.3H732z"/>
	<path class="st2" d="M737.1,519.6l0.6-2.8l0.9-3.2h-3.7v-2.8h1.7v1.5h3.7v1.1l-1,3.4l-0.6,2.8H737.1z"/>
	<path class="st2" d="M744.3,519.7c-0.3,0-0.5,0-0.8,0c-0.3,0-0.5,0-0.7,0c-0.2,0-0.4,0-0.5-0.1l-0.3,0v-1.3c0.4,0,0.8,0.1,1.2,0.1
		c0.4,0,0.8,0,1.2,0c0.2,0,0.4,0,0.5-0.1s0.3-0.1,0.4-0.2c0.1-0.1,0.2-0.3,0.3-0.5s0.1-0.4,0.1-0.6c0-0.2,0-0.4,0-0.5
		c0-0.1,0-0.3,0-0.5c0-0.2,0-0.4,0-0.6c0-0.2,0-0.4-0.1-0.6c0-0.2-0.1-0.4-0.2-0.6c-0.1-0.2-0.2-0.3-0.3-0.4
		c-0.1-0.1-0.2-0.1-0.3-0.2c-0.1,0-0.2-0.1-0.3-0.1c-0.2,0-0.4,0-0.6,0.1c-0.2,0.1-0.3,0.1-0.4,0.2c-0.1,0.1-0.2,0.2-0.3,0.4
		s-0.1,0.3-0.1,0.5c0,0.2,0,0.4,0.1,0.5c0.1,0.2,0.2,0.3,0.3,0.4c0.1,0.1,0.2,0.1,0.3,0.2s0.2,0.1,0.3,0.1l0.3,0.1l-0.3,1.2l-0.4,0
		c-0.2,0-0.4,0-0.6-0.1s-0.4-0.1-0.5-0.2c-0.2-0.1-0.3-0.2-0.5-0.3s-0.3-0.2-0.3-0.4c-0.1-0.2-0.2-0.4-0.3-0.7
		c-0.1-0.2-0.1-0.5-0.1-0.8c0-0.4,0.1-0.8,0.2-1.1c0.1-0.3,0.3-0.6,0.5-0.8c0.3-0.3,0.6-0.5,1-0.6c0.4-0.1,0.8-0.2,1.2-0.2
		c0.3,0,0.7,0,1,0.1c0.3,0.1,0.6,0.2,0.8,0.3c0.2,0.1,0.3,0.3,0.5,0.4c0.2,0.2,0.3,0.4,0.4,0.6c0.1,0.3,0.2,0.6,0.3,1
		c0.1,0.4,0.1,0.8,0.1,1.2c0,0.6-0.1,1.1-0.2,1.5c-0.1,0.4-0.2,0.8-0.4,1.1c-0.2,0.3-0.4,0.5-0.6,0.6c-0.2,0.2-0.5,0.3-0.7,0.4
		c-0.2,0.1-0.3,0.1-0.5,0.1C744.7,519.7,744.5,519.7,744.3,519.7z"/>
	<path class="st2" d="M748.5,519.6v-1.3h2c0-0.1,0.1-0.3,0.1-0.4c0-0.1,0-0.3,0-0.4v-3c0-0.1,0-0.3,0-0.4c0-0.1-0.1-0.2-0.2-0.3
		c-0.1-0.1-0.1-0.1-0.2-0.1c-0.1,0-0.2,0-0.3,0c-0.1,0-0.3,0-0.4,0c-0.1,0-0.3,0-0.5,0.1v-1.4c0.1,0,0.3-0.1,0.5-0.1
		c0.2,0,0.4,0,0.6,0c0.4,0,0.7,0,0.9,0.1s0.4,0.2,0.6,0.3s0.3,0.3,0.4,0.4c0.1,0.2,0.2,0.3,0.2,0.5c0,0.1,0.1,0.3,0.1,0.4
		s0,0.3,0,0.5v3c0,0.2,0,0.4,0,0.7s0,0.5-0.1,0.7s-0.1,0.4-0.1,0.5l-0.1,0.3H748.5z"/>
	<path class="st2" d="M753.8,519.6v-7.3h1.7v7.3H753.8z"/>
	<path class="st2" d="M760.2,519.6c0,0,0-0.1,0-0.1s0-0.1,0-0.1c0-0.2,0-0.4,0.1-0.7s0.1-0.6,0.2-0.9c0-0.1,0.1-0.3,0.1-0.4
		c0-0.1,0.1-0.3,0.1-0.4c0-0.2,0.1-0.3,0.1-0.4l1-2.9h-4.5v-1.3h6.3v1l-1.1,3.2c0,0.1-0.1,0.3-0.1,0.4c0,0.2-0.1,0.3-0.1,0.5
		c0,0.2-0.1,0.3-0.1,0.4c0,0.1-0.1,0.2-0.1,0.4c0,0.1-0.1,0.3-0.1,0.4s0,0.3-0.1,0.4c0,0.1,0,0.2,0,0.3v0.3H760.2z M757.3,522.3
		v-7.1h1.7v7.1H757.3z"/>
	<path class="st2" d="M711.9,533.5c-0.1,0-0.3,0-0.4,0c-0.1,0-0.3-0.1-0.4-0.1V532c0.2,0,0.4,0.1,0.6,0.1c0.2,0,0.4-0.1,0.5-0.2
		c0.1-0.1,0.1-0.3,0.1-0.6v-3.9c-0.1,0-0.3,0-0.4,0c-0.1,0-0.3,0-0.4,0v-1.3c0.4,0,0.8-0.1,1.2-0.1c0.4,0,0.7,0,1.1-0.1
		c0.3,0,0.7,0,1,0c0.4,0,0.7,0,0.9,0c0.3,0,0.5,0.1,0.7,0.1c0.2,0.1,0.4,0.1,0.5,0.2c0.2,0.1,0.3,0.2,0.4,0.4s0.2,0.3,0.3,0.5
		c0.1,0.1,0.1,0.3,0.1,0.5s0,0.4,0,0.6v4.9h-1.7v-4.8c0-0.3-0.1-0.6-0.2-0.8c-0.1-0.2-0.3-0.3-0.6-0.4c-0.2,0-0.4-0.1-0.6-0.1
		c-0.1,0-0.2,0-0.3,0c-0.1,0-0.2,0-0.3,0v4c0,0.3,0,0.5-0.1,0.7c0,0.2-0.1,0.4-0.2,0.6c-0.1,0.2-0.2,0.4-0.4,0.5
		c-0.2,0.1-0.4,0.2-0.6,0.3S712.2,533.5,711.9,533.5z"/>
	<path class="st2" d="M719.7,533.4v-7.3h1.7v7.3H719.7z"/>
	<path class="st2" d="M722.9,533.4l0.5-4.9c0-0.1,0-0.2,0-0.3s0-0.2,0-0.3c0-0.1,0-0.3,0-0.4c0-0.1,0-0.3-0.1-0.4
		c0-0.1,0-0.1-0.1-0.2c0-0.1,0-0.2-0.1-0.2c0-0.1,0-0.2-0.1-0.2c0,0,0-0.1,0-0.1s0-0.1-0.1-0.1h1.5c0.1,0.1,0.1,0.2,0.2,0.4
		s0.1,0.3,0.1,0.4h0.1c0.1-0.1,0.2-0.2,0.3-0.3c0.2-0.1,0.3-0.2,0.4-0.3c0.1-0.1,0.3-0.1,0.6-0.2c0.2-0.1,0.5-0.1,0.8-0.1
		c0.3,0,0.6,0,0.8,0.1c0.2,0.1,0.5,0.2,0.6,0.4c0.1,0.1,0.2,0.2,0.3,0.3s0.1,0.2,0.2,0.4c0.1,0.2,0.2,0.5,0.2,0.8
		c0.1,0.3,0.1,0.6,0.1,1v4.4h-3.1v-1.3h1.4v-3c0-0.2,0-0.4,0-0.6c0-0.2-0.1-0.3-0.1-0.4c0-0.1-0.1-0.2-0.2-0.3s-0.2-0.2-0.3-0.2
		c-0.1-0.1-0.3-0.1-0.4-0.1c-0.2,0-0.4,0-0.5,0.1c-0.2,0.1-0.3,0.1-0.4,0.2c-0.1,0.1-0.2,0.2-0.3,0.3s-0.1,0.2-0.2,0.3l-0.5,5.2
		H722.9z"/>
	<path class="st2" d="M731.1,533.4v-7.2c0.1,0,0.3,0,0.4,0c0.1,0,0.3,0,0.5,0c0.3,0,0.6-0.1,1-0.1c0.3,0,0.6,0,1,0
		c0.4,0,0.8,0,1.1,0.1s0.6,0.1,0.8,0.2c0.2,0.1,0.4,0.2,0.6,0.4c0.1,0.1,0.3,0.3,0.3,0.6c0.1,0.2,0.1,0.4,0.1,0.6s0,0.4,0,0.7v4.8
		h-1.7v-4.8c0-0.3-0.1-0.6-0.2-0.8s-0.4-0.3-0.6-0.4c-0.1,0-0.2,0-0.3,0c-0.1,0-0.2,0-0.3,0c-0.1,0-0.3,0-0.4,0c-0.2,0-0.3,0-0.5,0
		v6H731.1z"/>
	<path class="st2" d="M740.4,533.4l0.6-2.8l0.9-3.2h-3.7v-2.8h1.7v1.5h3.7v1.1l-1,3.4l-0.6,2.8H740.4z"/>
	<path class="st2" d="M744.6,533.4l0.5-4.9c0-0.1,0-0.2,0-0.3s0-0.2,0-0.3c0-0.1,0-0.3,0-0.4c0-0.1,0-0.3-0.1-0.4
		c0-0.1,0-0.1-0.1-0.2c0-0.1,0-0.2-0.1-0.2c0-0.1,0-0.2-0.1-0.2c0,0,0-0.1,0-0.1s0-0.1-0.1-0.1h1.5c0.1,0.1,0.1,0.2,0.2,0.4
		s0.1,0.3,0.1,0.4h0.1c0.1-0.1,0.2-0.2,0.3-0.3c0.2-0.1,0.3-0.2,0.4-0.3c0.1-0.1,0.3-0.1,0.6-0.2c0.2-0.1,0.5-0.1,0.8-0.1
		c0.3,0,0.6,0,0.8,0.1c0.2,0.1,0.5,0.2,0.6,0.4c0.1,0.1,0.2,0.2,0.3,0.3s0.1,0.2,0.2,0.4c0.1,0.2,0.2,0.5,0.2,0.8
		c0.1,0.3,0.1,0.6,0.1,1v4.4h-3.1v-1.3h1.4v-3c0-0.2,0-0.4,0-0.6c0-0.2-0.1-0.3-0.1-0.4c0-0.1-0.1-0.2-0.2-0.3s-0.2-0.2-0.3-0.2
		c-0.1-0.1-0.3-0.1-0.4-0.1c-0.2,0-0.4,0-0.5,0.1c-0.2,0.1-0.3,0.1-0.4,0.2c-0.1,0.1-0.2,0.2-0.3,0.3s-0.1,0.2-0.2,0.3l-0.5,5.2
		H744.6z"/>
	<path class="st2" d="M752.9,533.4v-7.3h1.7v7.3H752.9z"/>
</g>
<circle class="st0" cx="760.8" cy="202" r="55.2"/>
<g>
	<path class="st2" d="M723.6,204.9v-7.2c0.1,0,0.2,0,0.4,0c0.1,0,0.3,0,0.5,0c0.3,0,0.7-0.1,1-0.1c0.3,0,0.6,0,1,0
		c0.5,0,0.9,0,1.2,0.1c0.3,0.1,0.6,0.1,0.8,0.3c0.2,0.1,0.3,0.2,0.5,0.3c0.1,0.1,0.2,0.3,0.3,0.5c0.1,0.2,0.1,0.3,0.2,0.5
		c0,0.2,0,0.4,0,0.6v5.1H723.6z M725.3,203.6h2.4v-3.8c0-0.2,0-0.3-0.1-0.4c0-0.1-0.1-0.2-0.2-0.3c-0.1-0.1-0.1-0.1-0.2-0.1
		c-0.1,0-0.2-0.1-0.3-0.1c-0.1,0-0.2,0-0.3,0c-0.1,0-0.2,0-0.4,0c-0.1,0-0.3,0-0.4,0c-0.2,0-0.3,0-0.5,0V203.6z"/>
	<path class="st2" d="M731.1,202.5v-4.8h1.7v3.5l-1,1.3H731.1z"/>
	<path class="st2" d="M734.7,205c-0.1,0-0.2,0-0.3,0c-0.1,0-0.2,0-0.4-0.1l0.2-1.5c0.1,0,0.2,0,0.4,0.1c0.1,0,0.2,0,0.4,0
		c0.3,0,0.5,0,0.7-0.1c0.2-0.1,0.4-0.2,0.5-0.4c0.1-0.1,0.2-0.3,0.2-0.5c0.1-0.2,0.1-0.4,0.1-0.6v-2.2c0-0.3,0-0.5-0.1-0.6
		c-0.1-0.1-0.2-0.2-0.4-0.2c-0.2,0-0.3,0-0.5,0s-0.3,0.1-0.5,0.1v-1.3c0.4-0.1,0.8-0.1,1.2-0.1c0.4,0,0.7,0,0.9,0.1
		c0.2,0.1,0.4,0.2,0.6,0.3c0.2,0.2,0.4,0.4,0.5,0.7c0.1,0.3,0.1,0.6,0.1,1v5.3h-1.3l-0.3-1.1h-0.1c-0.1,0.1-0.1,0.2-0.3,0.4
		s-0.2,0.3-0.3,0.3c-0.1,0.1-0.3,0.2-0.5,0.3C735.1,205,734.9,205,734.7,205z"/>
	<path class="st2" d="M739.7,202.5v-4.8h1.7v3.5l-1,1.3H739.7z"/>
	<path class="st2" d="M747.2,204.9v-4.8c0-0.3-0.1-0.5-0.2-0.7c-0.1-0.2-0.3-0.3-0.5-0.4c-0.1,0-0.2-0.1-0.3-0.1s-0.3,0-0.4,0
		c-0.3,0-0.7,0-1.1,0c-0.4,0-0.9,0.1-1.5,0.1v-1.3c0.2,0,0.4-0.1,0.6-0.1c0.2,0,0.4,0,0.6-0.1c0.3,0,0.6,0,0.8,0c0.3,0,0.5,0,0.8,0
		c0.4,0,0.8,0,1.1,0.1s0.6,0.1,0.8,0.2c0.2,0.1,0.4,0.2,0.6,0.4c0.2,0.2,0.3,0.3,0.3,0.6c0.1,0.2,0.1,0.4,0.1,0.6c0,0.2,0,0.4,0,0.7
		v4.8H747.2z M743.1,204.9v-4.3h1.7v4.3H743.1z"/>
	<path class="st2" d="M750.3,204.9v-1.3h2c0-0.1,0.1-0.3,0.1-0.4c0-0.1,0-0.3,0-0.4v-3c0-0.1,0-0.3,0-0.4c0-0.1-0.1-0.2-0.2-0.3
		c-0.1-0.1-0.1-0.1-0.2-0.1c-0.1,0-0.2,0-0.3,0c-0.1,0-0.3,0-0.4,0c-0.1,0-0.3,0-0.5,0.1v-1.4c0.1,0,0.3-0.1,0.5-0.1
		c0.2,0,0.4,0,0.6,0c0.4,0,0.7,0,0.9,0.1s0.4,0.2,0.6,0.3s0.3,0.3,0.4,0.4c0.1,0.2,0.2,0.3,0.2,0.5c0,0.1,0.1,0.3,0.1,0.4
		s0,0.3,0,0.5v3c0,0.2,0,0.4,0,0.7s0,0.5-0.1,0.7s-0.1,0.4-0.1,0.5l-0.1,0.3H750.3z"/>
	<path class="st2" d="M755.3,204.9l0.5-4.9c0-0.1,0-0.2,0-0.3s0-0.2,0-0.3c0-0.1,0-0.3,0-0.4c0-0.1,0-0.3-0.1-0.4
		c0-0.1,0-0.1-0.1-0.2c0-0.1,0-0.2-0.1-0.2c0-0.1,0-0.2-0.1-0.2c0,0,0-0.1,0-0.1s0-0.1-0.1-0.1h1.5c0.1,0.1,0.1,0.2,0.2,0.4
		s0.1,0.3,0.1,0.4h0.1c0.1-0.1,0.2-0.2,0.3-0.3c0.2-0.1,0.3-0.2,0.4-0.3c0.1-0.1,0.3-0.1,0.6-0.2c0.2-0.1,0.5-0.1,0.8-0.1
		c0.3,0,0.6,0,0.8,0.1c0.2,0.1,0.5,0.2,0.6,0.4c0.1,0.1,0.2,0.2,0.3,0.3s0.1,0.2,0.2,0.4c0.1,0.2,0.2,0.5,0.2,0.8
		c0.1,0.3,0.1,0.6,0.1,1v4.4h-3.1v-1.3h1.4v-3c0-0.2,0-0.4,0-0.6c0-0.2-0.1-0.3-0.1-0.4c0-0.1-0.1-0.2-0.2-0.3s-0.2-0.2-0.3-0.2
		c-0.1-0.1-0.3-0.1-0.4-0.1c-0.2,0-0.4,0-0.5,0.1c-0.2,0.1-0.3,0.1-0.4,0.2c-0.1,0.1-0.2,0.2-0.3,0.3s-0.1,0.2-0.2,0.3l-0.5,5.2
		H755.3z"/>
	<path class="st2" d="M763.6,204.9v-7.3h1.7v7.3H763.6z"/>
	<path class="st2" d="M770.1,204.9v-7.2c0.1,0,0.2,0,0.4,0c0.1,0,0.3,0,0.5,0c0.3,0,0.7-0.1,1-0.1c0.3,0,0.6,0,1,0
		c0.5,0,0.9,0,1.2,0.1c0.3,0.1,0.6,0.1,0.8,0.3c0.2,0.1,0.3,0.2,0.5,0.3c0.1,0.1,0.2,0.3,0.3,0.5c0.1,0.2,0.1,0.3,0.2,0.5
		c0,0.2,0,0.4,0,0.6v5.1H770.1z M771.8,203.6h2.4v-3.8c0-0.2,0-0.3-0.1-0.4c0-0.1-0.1-0.2-0.2-0.3c-0.1-0.1-0.1-0.1-0.2-0.1
		c-0.1,0-0.2-0.1-0.3-0.1c-0.1,0-0.2,0-0.3,0c-0.1,0-0.2,0-0.4,0c-0.1,0-0.3,0-0.4,0c-0.2,0-0.3,0-0.5,0V203.6z"/>
	<path class="st2" d="M777.6,202.5v-4.8h1.7v3.5l-1,1.3H777.6z"/>
	<path class="st2" d="M781.3,204.9l-0.6-7.3h1.6l0.3,3.7c0.1,0,0.2-0.1,0.4-0.1c0.1-0.1,0.2-0.1,0.3-0.2c0.1-0.1,0.2-0.3,0.2-0.4
		c0.1-0.2,0.1-0.4,0.1-0.6l0.2-2.3h1.6l-0.2,2.2c0,0.4-0.1,0.8-0.2,1.1c-0.1,0.3-0.3,0.6-0.6,0.9c-0.2,0.2-0.5,0.4-0.7,0.5
		c-0.3,0.1-0.6,0.2-1,0.2c0,0,0,0,0,0c0,0,0,0,0,0l0.1,1h1.5c0.4,0,0.7-0.1,1.1-0.3c0.3-0.2,0.6-0.5,0.8-0.9
		c0.2-0.4,0.3-0.9,0.4-1.5l0.3-3.2h1.6l-0.3,3.3c0,0.4-0.1,0.8-0.2,1.2c-0.1,0.4-0.2,0.7-0.4,1c-0.2,0.3-0.3,0.5-0.5,0.7
		c-0.2,0.2-0.4,0.4-0.7,0.6c-0.3,0.2-0.7,0.3-1,0.4c-0.4,0.1-0.8,0.1-1.2,0.1H781.3z"/>
	<path class="st2" d="M790,202.5v-4.8h1.7v3.5l-1,1.3H790z"/>
	<path class="st2" d="M793.1,204.9v-2.6c0-0.2,0-0.4,0-0.5s0-0.3,0.1-0.4s0.1-0.3,0.2-0.4c0.1-0.2,0.2-0.4,0.4-0.5s0.4-0.3,0.7-0.3
		l-1.5-2.5h1.9l2.2,3.6c0,0,0.1-0.1,0.1-0.1c0,0,0-0.1,0.1-0.1c0.1-0.1,0.1-0.2,0.2-0.3s0.1-0.3,0.1-0.5v-2.7h1.7v2.6
		c0,0.3,0,0.5-0.1,0.7c0,0.2-0.1,0.4-0.2,0.6c-0.1,0.2-0.2,0.4-0.4,0.5c-0.2,0.2-0.4,0.3-0.7,0.4l1.5,2.5h-1.9l-2.2-3.7
		c-0.1,0-0.1,0.1-0.2,0.1c-0.1,0.1-0.1,0.1-0.2,0.3c-0.1,0.2-0.1,0.4-0.1,0.6v2.6H793.1z"/>
</g>
<circle class="st0" cx="208.4" cy="337.6" r="48.6"/>
<g>
	<path class="st2" d="M190.9,340.6c-0.1,0-0.3,0-0.4,0c-0.1,0-0.3-0.1-0.4-0.1v-1.2c0.2,0,0.4,0.1,0.6,0.1c0.2,0,0.4-0.1,0.5-0.2
		s0.1-0.3,0.1-0.6v-3.9c-0.1,0-0.3,0-0.4,0c-0.1,0-0.3,0-0.4,0v-1.3c0.4,0,0.8-0.1,1.2-0.1s0.7,0,1.1-0.1c0.3,0,0.7,0,1,0
		c0.4,0,0.7,0,0.9,0c0.3,0,0.5,0.1,0.7,0.1c0.2,0.1,0.4,0.1,0.5,0.2c0.2,0.1,0.3,0.2,0.4,0.4c0.1,0.1,0.2,0.3,0.3,0.5
		c0.1,0.1,0.1,0.3,0.1,0.5s0,0.4,0,0.6v4.9h-1.7v-4.8c0-0.3-0.1-0.6-0.2-0.8s-0.3-0.3-0.6-0.4c-0.2,0-0.4-0.1-0.6-0.1
		c-0.1,0-0.2,0-0.3,0s-0.2,0-0.3,0v4c0,0.3,0,0.5-0.1,0.7c0,0.2-0.1,0.4-0.2,0.6c-0.1,0.2-0.2,0.4-0.4,0.5c-0.2,0.1-0.4,0.2-0.6,0.3
		C191.5,340.6,191.2,340.6,190.9,340.6z"/>
	<path class="st2" d="M198.6,340.5v-7.3h1.7v7.3H198.6z"/>
	<path class="st2" d="M201.8,340.5l0.5-4.9c0-0.1,0-0.2,0-0.3s0-0.2,0-0.3c0-0.1,0-0.3,0-0.4s0-0.3-0.1-0.4c0-0.1,0-0.1-0.1-0.2
		c0-0.1,0-0.2-0.1-0.2c0-0.1,0-0.2-0.1-0.2c0,0,0-0.1,0-0.1c0,0,0-0.1-0.1-0.1h1.5c0.1,0.1,0.1,0.2,0.2,0.4c0,0.1,0.1,0.3,0.1,0.4
		h0.1c0.1-0.1,0.2-0.2,0.3-0.3c0.2-0.1,0.3-0.2,0.4-0.3c0.1-0.1,0.3-0.1,0.6-0.2c0.2-0.1,0.5-0.1,0.8-0.1c0.3,0,0.6,0,0.8,0.1
		c0.2,0.1,0.5,0.2,0.6,0.4c0.1,0.1,0.2,0.2,0.3,0.3c0.1,0.1,0.1,0.2,0.2,0.4c0.1,0.2,0.2,0.5,0.2,0.8c0.1,0.3,0.1,0.6,0.1,1v4.4H205
		v-1.3h1.4v-3c0-0.2,0-0.4,0-0.6c0-0.2-0.1-0.3-0.1-0.4c0-0.1-0.1-0.2-0.2-0.3c-0.1-0.1-0.2-0.2-0.3-0.2c-0.1-0.1-0.3-0.1-0.4-0.1
		c-0.2,0-0.4,0-0.5,0.1c-0.2,0.1-0.3,0.1-0.4,0.2c-0.1,0.1-0.2,0.2-0.3,0.3s-0.1,0.2-0.2,0.3l-0.5,5.2H201.8z"/>
	<path class="st2" d="M210.1,340.5v-7.3h1.7v7.3H210.1z"/>
	<path class="st2" d="M216.5,340.5c0,0,0-0.1,0-0.1s0-0.1,0-0.1c0-0.2,0-0.4,0.1-0.7s0.1-0.6,0.2-0.9c0-0.1,0.1-0.3,0.1-0.4
		s0.1-0.3,0.1-0.4c0-0.2,0.1-0.3,0.1-0.4l1-2.9h-4.5v-1.3h6.3v1l-1.1,3.2c0,0.1-0.1,0.3-0.1,0.4c0,0.2-0.1,0.3-0.1,0.5
		c0,0.2-0.1,0.3-0.1,0.4c0,0.1-0.1,0.2-0.1,0.4c0,0.1-0.1,0.3-0.1,0.4s0,0.3-0.1,0.4c0,0.1,0,0.2,0,0.3v0.3H216.5z M213.6,343.3
		v-7.1h1.7v7.1H213.6z"/>
	<path class="st2" d="M220.7,340.5l0.5-4.9c0-0.1,0-0.2,0-0.3s0-0.2,0-0.3c0-0.1,0-0.3,0-0.4s0-0.3-0.1-0.4c0-0.1,0-0.1-0.1-0.2
		c0-0.1,0-0.2-0.1-0.2c0-0.1,0-0.2-0.1-0.2c0,0,0-0.1,0-0.1c0,0,0-0.1-0.1-0.1h1.5c0.1,0.1,0.1,0.2,0.2,0.4c0,0.1,0.1,0.3,0.1,0.4
		h0.1c0.1-0.1,0.2-0.2,0.3-0.3c0.2-0.1,0.3-0.2,0.4-0.3c0.1-0.1,0.3-0.1,0.6-0.2c0.2-0.1,0.5-0.1,0.8-0.1c0.3,0,0.6,0,0.8,0.1
		c0.2,0.1,0.5,0.2,0.6,0.4c0.1,0.1,0.2,0.2,0.3,0.3c0.1,0.1,0.1,0.2,0.2,0.4c0.1,0.2,0.2,0.5,0.2,0.8c0.1,0.3,0.1,0.6,0.1,1v4.4
		h-3.1v-1.3h1.4v-3c0-0.2,0-0.4,0-0.6c0-0.2-0.1-0.3-0.1-0.4c0-0.1-0.1-0.2-0.2-0.3c-0.1-0.1-0.2-0.2-0.3-0.2
		c-0.1-0.1-0.3-0.1-0.4-0.1c-0.2,0-0.4,0-0.5,0.1c-0.2,0.1-0.3,0.1-0.4,0.2c-0.1,0.1-0.2,0.2-0.3,0.3s-0.1,0.2-0.2,0.3l-0.5,5.2
		H220.7z"/>
</g>
<circle class="st0" cx="759.1" cy="433.5" r="34.7"/>
<g>
	<path class="st2" d="M737.3,436.5c-0.1,0-0.3,0-0.4,0c-0.1,0-0.3-0.1-0.4-0.1v-1.2c0.2,0,0.4,0.1,0.6,0.1c0.2,0,0.4-0.1,0.5-0.2
		c0.1-0.1,0.1-0.3,0.1-0.6v-3.9c-0.1,0-0.3,0-0.4,0c-0.1,0-0.3,0-0.4,0v-1.3c0.4,0,0.8-0.1,1.2-0.1c0.4,0,0.7,0,1.1-0.1
		c0.3,0,0.7,0,1,0c0.4,0,0.7,0,0.9,0c0.3,0,0.5,0.1,0.7,0.1c0.2,0.1,0.4,0.1,0.5,0.2c0.2,0.1,0.3,0.2,0.4,0.4s0.2,0.3,0.3,0.5
		c0.1,0.1,0.1,0.3,0.1,0.5s0,0.4,0,0.6v4.9h-1.7v-4.8c0-0.3-0.1-0.6-0.2-0.8c-0.1-0.2-0.3-0.3-0.6-0.4c-0.2,0-0.4-0.1-0.6-0.1
		c-0.1,0-0.2,0-0.3,0c-0.1,0-0.2,0-0.3,0v4c0,0.3,0,0.5-0.1,0.7c0,0.2-0.1,0.4-0.2,0.6c-0.1,0.2-0.2,0.4-0.4,0.5
		c-0.2,0.1-0.4,0.2-0.6,0.3S737.6,436.5,737.3,436.5z"/>
	<path class="st2" d="M745,436.4v-7.3h1.7v7.3H745z"/>
	<path class="st2" d="M748.5,433.9v-4.8h1.7v3.5l-1,1.3H748.5z"/>
	<path class="st2" d="M754.6,436.4v-4.8c0-0.3-0.1-0.6-0.2-0.8c-0.1-0.2-0.3-0.3-0.6-0.4c-0.1,0-0.2-0.1-0.3-0.1c-0.1,0-0.2,0-0.3,0
		c-0.2,0-0.4,0-0.6,0c-0.2,0-0.4,0-0.7,0c-0.2,0-0.5,0-0.7,0.1v-1.3c0.4,0,0.7-0.1,1-0.1c0.3,0,0.6,0,0.9,0c0.5,0,1,0,1.3,0.1
		c0.3,0,0.6,0.1,0.8,0.2c0.2,0.1,0.4,0.2,0.6,0.4c0.1,0.1,0.3,0.3,0.3,0.6c0.1,0.2,0.1,0.4,0.1,0.6c0,0.2,0,0.4,0,0.7v4.8H754.6z"/>
	<path class="st2" d="M760.5,436.5c-0.3,0-0.5,0-0.8,0c-0.3,0-0.5,0-0.7,0c-0.2,0-0.4,0-0.5-0.1l-0.3,0v-1.3c0.4,0,0.8,0.1,1.2,0.1
		c0.4,0,0.8,0,1.2,0c0.2,0,0.4,0,0.5-0.1s0.3-0.1,0.4-0.2c0.1-0.1,0.2-0.3,0.3-0.5s0.1-0.4,0.1-0.6c0-0.2,0-0.4,0-0.5
		c0-0.1,0-0.3,0-0.5c0-0.2,0-0.4,0-0.6c0-0.2,0-0.4-0.1-0.6c0-0.2-0.1-0.4-0.2-0.6c-0.1-0.2-0.2-0.3-0.3-0.4
		c-0.1-0.1-0.2-0.1-0.3-0.2c-0.1,0-0.2-0.1-0.3-0.1c-0.2,0-0.4,0-0.6,0.1c-0.2,0.1-0.3,0.1-0.4,0.2c-0.1,0.1-0.2,0.2-0.3,0.4
		s-0.1,0.3-0.1,0.5c0,0.2,0,0.4,0.1,0.5c0.1,0.2,0.2,0.3,0.3,0.4c0.1,0.1,0.2,0.1,0.3,0.2s0.2,0.1,0.3,0.1l0.3,0.1l-0.3,1.2l-0.4,0
		c-0.2,0-0.4,0-0.6-0.1s-0.4-0.1-0.5-0.2c-0.2-0.1-0.3-0.2-0.5-0.3s-0.3-0.2-0.3-0.4c-0.1-0.2-0.2-0.4-0.3-0.7
		c-0.1-0.2-0.1-0.5-0.1-0.8c0-0.4,0.1-0.8,0.2-1.1c0.1-0.3,0.3-0.6,0.5-0.8c0.3-0.3,0.6-0.5,1-0.6c0.4-0.1,0.8-0.2,1.2-0.2
		c0.3,0,0.7,0,1,0.1c0.3,0.1,0.6,0.2,0.8,0.3c0.2,0.1,0.3,0.3,0.5,0.4c0.2,0.2,0.3,0.4,0.4,0.6c0.1,0.3,0.2,0.6,0.3,1
		c0.1,0.4,0.1,0.8,0.1,1.2c0,0.6-0.1,1.1-0.2,1.5c-0.1,0.4-0.2,0.8-0.4,1.1c-0.2,0.3-0.4,0.5-0.6,0.6c-0.2,0.2-0.5,0.3-0.7,0.4
		c-0.2,0.1-0.3,0.1-0.5,0.1C761,436.5,760.8,436.5,760.5,436.5z"/>
	<path class="st2" d="M764.8,436.4l0.5-4.9c0-0.1,0-0.2,0-0.3s0-0.2,0-0.3c0-0.1,0-0.3,0-0.4c0-0.1,0-0.3-0.1-0.4
		c0-0.1,0-0.1-0.1-0.2c0-0.1,0-0.2-0.1-0.2c0-0.1,0-0.2-0.1-0.2c0,0,0-0.1,0-0.1s0-0.1-0.1-0.1h1.5c0.1,0.1,0.1,0.2,0.2,0.4
		s0.1,0.3,0.1,0.4h0.1c0.1-0.1,0.2-0.2,0.3-0.3c0.2-0.1,0.3-0.2,0.4-0.3c0.1-0.1,0.3-0.1,0.6-0.2c0.2-0.1,0.5-0.1,0.8-0.1
		c0.3,0,0.6,0,0.8,0.1c0.2,0.1,0.5,0.2,0.6,0.4c0.1,0.1,0.2,0.2,0.3,0.3s0.1,0.2,0.2,0.4c0.1,0.2,0.2,0.5,0.2,0.8
		c0.1,0.3,0.1,0.6,0.1,1v4.4H768v-1.3h1.4v-3c0-0.2,0-0.4,0-0.6c0-0.2-0.1-0.3-0.1-0.4c0-0.1-0.1-0.2-0.2-0.3s-0.2-0.2-0.3-0.2
		c-0.1-0.1-0.3-0.1-0.4-0.1c-0.2,0-0.4,0-0.5,0.1c-0.2,0.1-0.3,0.1-0.4,0.2c-0.1,0.1-0.2,0.2-0.3,0.3s-0.1,0.2-0.2,0.3l-0.5,5.2
		H764.8z"/>
	<path class="st2" d="M773,433.9v-4.8h1.7v3.5l-1,1.3H773z"/>
	<path class="st2" d="M776.1,436.4v-2.6c0-0.2,0-0.4,0-0.5s0-0.3,0.1-0.4s0.1-0.3,0.2-0.4c0.1-0.2,0.2-0.4,0.4-0.5s0.4-0.3,0.7-0.3
		l-1.5-2.5h1.9l2.2,3.6c0,0,0.1-0.1,0.1-0.1c0,0,0-0.1,0.1-0.1c0.1-0.1,0.1-0.2,0.2-0.3s0.1-0.3,0.1-0.5v-2.7h1.7v2.6
		c0,0.3,0,0.5-0.1,0.7c0,0.2-0.1,0.4-0.2,0.6c-0.1,0.2-0.2,0.4-0.4,0.5c-0.2,0.2-0.4,0.3-0.7,0.4l1.5,2.5h-1.9l-2.2-3.7
		c-0.1,0-0.1,0.1-0.2,0.1c-0.1,0.1-0.1,0.1-0.2,0.3c-0.1,0.2-0.1,0.4-0.1,0.6v2.6H776.1z"/>
</g>
<circle class="st0" cx="713.4" cy="123.3" r="32.7"/>
<g>
	<path class="st2" d="M703.8,116.3v-7.2c0.1,0,0.2,0,0.4,0c0.1,0,0.3,0,0.5,0c0.3,0,0.7-0.1,1-0.1c0.3,0,0.6,0,1,0
		c0.5,0,0.9,0,1.2,0.1c0.3,0.1,0.6,0.1,0.8,0.3c0.2,0.1,0.3,0.2,0.5,0.3c0.1,0.1,0.2,0.3,0.3,0.5c0.1,0.2,0.1,0.3,0.2,0.5
		c0,0.2,0,0.4,0,0.6v5.1H703.8z M705.5,115h2.4v-3.8c0-0.2,0-0.3-0.1-0.4c0-0.1-0.1-0.2-0.2-0.3c-0.1-0.1-0.1-0.1-0.2-0.1
		c-0.1,0-0.2-0.1-0.3-0.1c-0.1,0-0.2,0-0.3,0c-0.1,0-0.2,0-0.4,0c-0.1,0-0.3,0-0.4,0c-0.2,0-0.3,0-0.5,0V115z"/>
	<path class="st2" d="M711.3,116.3v-7.3h1.7v7.3H711.3z"/>
	<path class="st2" d="M714.8,113.9v-4.8h1.7v3.5l-1,1.3H714.8z"/>
	<path class="st2" d="M722.3,116.3v-4.8c0-0.3-0.1-0.5-0.2-0.7c-0.1-0.2-0.3-0.3-0.5-0.4c-0.1,0-0.2-0.1-0.3-0.1s-0.3,0-0.4,0
		c-0.3,0-0.7,0-1.1,0c-0.4,0-0.9,0.1-1.5,0.1v-1.3c0.2,0,0.4-0.1,0.6-0.1c0.2,0,0.4,0,0.6-0.1c0.3,0,0.6,0,0.8,0c0.3,0,0.5,0,0.8,0
		c0.4,0,0.8,0,1.1,0.1s0.6,0.1,0.8,0.2c0.2,0.1,0.4,0.2,0.6,0.4c0.2,0.2,0.3,0.3,0.3,0.6c0.1,0.2,0.1,0.4,0.1,0.6c0,0.2,0,0.4,0,0.7
		v4.8H722.3z M718.2,116.3V112h1.7v4.3H718.2z"/>
	<path class="st2" d="M692.5,130.2v-4.8c0-0.3-0.1-0.5-0.2-0.7c-0.1-0.2-0.3-0.3-0.5-0.4c-0.1,0-0.2-0.1-0.3-0.1s-0.3,0-0.4,0
		c-0.3,0-0.7,0-1.1,0c-0.4,0-0.9,0.1-1.5,0.1V123c0.2,0,0.4-0.1,0.6-0.1c0.2,0,0.4,0,0.6-0.1c0.3,0,0.6,0,0.8,0c0.3,0,0.5,0,0.8,0
		c0.4,0,0.8,0,1.1,0.1s0.6,0.1,0.8,0.2c0.2,0.1,0.4,0.2,0.6,0.4c0.2,0.2,0.3,0.3,0.3,0.6c0.1,0.2,0.1,0.4,0.1,0.6c0,0.2,0,0.4,0,0.7
		v4.8H692.5z M688.5,130.2v-4.3h1.7v4.3H688.5z"/>
	<path class="st2" d="M695.9,127.7v-4.8h1.7v3.5l-1,1.3H695.9z"/>
	<path class="st2" d="M702,130.2v-4.8c0-0.3-0.1-0.6-0.2-0.8c-0.1-0.2-0.3-0.3-0.6-0.4c-0.1,0-0.2-0.1-0.3-0.1c-0.1,0-0.2,0-0.3,0
		c-0.2,0-0.4,0-0.6,0c-0.2,0-0.4,0-0.7,0c-0.2,0-0.5,0-0.7,0.1v-1.3c0.4,0,0.7-0.1,1-0.1c0.3,0,0.6,0,0.9,0c0.5,0,1,0,1.3,0.1
		c0.3,0,0.6,0.1,0.8,0.2c0.2,0.1,0.4,0.2,0.6,0.4c0.1,0.1,0.3,0.3,0.3,0.6c0.1,0.2,0.1,0.4,0.1,0.6c0,0.2,0,0.4,0,0.7v4.8H702z"/>
	<path class="st2" d="M705.4,130.2v-7.3h1.7v7.3H705.4z"/>
	<path class="st2" d="M711.9,130.3c-0.3,0-0.5,0-0.8-0.1c-0.3,0-0.5-0.1-0.7-0.2c-0.2-0.1-0.3-0.2-0.5-0.4c-0.2-0.1-0.3-0.3-0.5-0.6
		c-0.2-0.3-0.3-0.7-0.4-1.1c-0.1-0.4-0.1-0.9-0.1-1.5v-3.6h1.7v3.6c0,0.5,0,0.9,0.1,1.2s0.2,0.6,0.3,0.8c0.1,0.1,0.2,0.3,0.4,0.3
		c0.2,0.1,0.3,0.1,0.5,0.1c0.2,0,0.4,0,0.6-0.1s0.3-0.2,0.4-0.4c0.1-0.2,0.2-0.5,0.3-0.8c0.1-0.3,0.1-0.7,0.1-1.1
		c0-0.4,0-0.8-0.1-1.1c-0.1-0.3-0.1-0.6-0.3-0.8c-0.1-0.2-0.2-0.3-0.4-0.4c-0.2-0.1-0.4-0.1-0.6-0.1c-0.1,0-0.1,0-0.2,0
		c-0.1,0-0.1,0-0.2,0v-1.3c0.1,0,0.3,0,0.4,0c0.1,0,0.3,0,0.4,0c0.3,0,0.5,0,0.8,0.1c0.3,0.1,0.5,0.2,0.7,0.3
		c0.1,0.1,0.3,0.2,0.4,0.4c0.1,0.1,0.2,0.3,0.3,0.5c0.1,0.3,0.2,0.6,0.3,1c0.1,0.4,0.1,0.9,0.1,1.4c0,0.4,0,0.7-0.1,1
		s-0.1,0.6-0.2,0.9c-0.1,0.3-0.3,0.7-0.5,0.9c-0.2,0.3-0.4,0.5-0.7,0.6c-0.2,0.1-0.5,0.2-0.7,0.3
		C712.5,130.2,712.2,130.3,711.9,130.3z"/>
	<path class="st2" d="M719.1,130.3c-0.5,0-1-0.1-1.4-0.3c-0.3-0.1-0.6-0.3-0.8-0.6c-0.2-0.2-0.4-0.5-0.6-0.9
		c-0.1-0.3-0.2-0.6-0.2-0.9c-0.1-0.3-0.1-0.7-0.1-1.1c0-0.3,0-0.6,0.1-0.9c0.1-0.3,0.1-0.5,0.3-0.8s0.3-0.4,0.4-0.6l0,0l-0.7,0v-1.4
		c0.4,0,0.7,0,1-0.1c0.3,0,0.7,0,1,0c0.3,0,0.6,0,0.9,0c0.3,0,0.6,0,0.8,0.1c0.3,0.1,0.5,0.2,0.7,0.3c0.3,0.1,0.5,0.3,0.7,0.6
		c0.2,0.2,0.4,0.5,0.5,0.8c0.1,0.3,0.2,0.6,0.2,0.9c0.1,0.3,0.1,0.7,0.1,1.1c0,0.3,0,0.6-0.1,0.9c0,0.3-0.1,0.6-0.2,0.8
		c-0.1,0.4-0.3,0.7-0.5,1c-0.2,0.3-0.5,0.5-0.8,0.7C720.2,130.2,719.7,130.3,719.1,130.3z M719.1,128.9c0.2,0,0.4,0,0.6-0.1
		s0.3-0.2,0.4-0.4c0.1-0.1,0.2-0.3,0.2-0.5c0-0.2,0.1-0.4,0.1-0.6c0-0.2,0-0.5,0-0.7c0-0.5,0-0.9-0.1-1.3c-0.1-0.3-0.2-0.6-0.4-0.8
		c-0.1-0.1-0.2-0.2-0.4-0.3c-0.1-0.1-0.3-0.1-0.5-0.1c-0.1,0-0.2,0-0.3,0c-0.1,0-0.2,0-0.3,0c-0.2,0.3-0.4,0.6-0.5,1
		c-0.1,0.4-0.2,0.8-0.2,1.4c0,0.4,0,0.8,0.1,1.1c0.1,0.3,0.1,0.6,0.3,0.7c0.1,0.2,0.2,0.3,0.4,0.4S718.9,128.9,719.1,128.9z"/>
	<path class="st2" d="M723.5,127.7v-4.8h1.7v3.5l-1,1.3H723.5z"/>
	<path class="st2" d="M731,130.2v-4.8c0-0.3-0.1-0.5-0.2-0.7c-0.1-0.2-0.3-0.3-0.5-0.4c-0.1,0-0.2-0.1-0.3-0.1s-0.3,0-0.4,0
		c-0.3,0-0.7,0-1.1,0c-0.4,0-0.9,0.1-1.5,0.1V123c0.2,0,0.4-0.1,0.6-0.1c0.2,0,0.4,0,0.6-0.1c0.3,0,0.6,0,0.8,0c0.3,0,0.5,0,0.8,0
		c0.4,0,0.8,0,1.1,0.1s0.6,0.1,0.8,0.2c0.2,0.1,0.4,0.2,0.6,0.4c0.2,0.2,0.3,0.3,0.3,0.6c0.1,0.2,0.1,0.4,0.1,0.6c0,0.2,0,0.4,0,0.7
		v4.8H731z M726.9,130.2v-4.3h1.7v4.3H726.9z"/>
	<path class="st2" d="M734.1,130.2v-1.3h3.3v-3.5c0-0.3-0.1-0.6-0.2-0.7s-0.3-0.3-0.6-0.4c-0.1,0-0.2-0.1-0.3-0.1
		c-0.1,0-0.2,0-0.4,0c-0.2,0-0.5,0-0.8,0c-0.3,0-0.7,0-1.1,0.1v-1.3c0.2,0,0.5-0.1,0.9-0.1s0.7,0,1.1,0c0.4,0,0.7,0,0.9,0
		c0.3,0,0.5,0.1,0.7,0.2c0.2,0.1,0.4,0.2,0.6,0.3c0.2,0.1,0.3,0.2,0.4,0.4c0.1,0.1,0.2,0.3,0.3,0.5c0.1,0.2,0.1,0.3,0.1,0.5
		c0,0.2,0,0.4,0,0.6v3.6h0.8v1.3H734.1z"/>
</g>
<circle class="st3" cx="499.8" cy="328.4" r="185"/>
<circle class="st3" cx="500.3" cy="329.1" r="143.5"/>
<circle class="st3" cx="569" cy="351.8" r="53.3"/>
<circle class="st3" cx="414.1" cy="369.2" r="41.7"/>
<circle class="st3" cx="490" cy="416.8" r="41.7"/>
<circle class="st3" cx="447.2" cy="263.2" r="48"/>
<circle class="st3" cx="542.3" cy="254.3" r="39.6"/>
<g>
	<g>
		<path class="st2" d="M408.1,381h11.1c0.7,0,1.3,0.6,1.3,1.3v9.4c0,0.7-0.6,1.3-1.3,1.3h-11.1c-0.7,0-1.3-0.6-1.3-1.3v-9.4
			C406.9,381.6,407.4,381,408.1,381z M408.3,391.7h10.8c0.1,0,0.2-0.1,0.2-0.2v-9.1c0-0.1-0.1-0.2-0.2-0.2h-10.8
			c-0.1,0-0.2,0.1-0.2,0.2v9.1C408.1,391.6,408.2,391.7,408.3,391.7z M416.1,384.4c0-0.5,0.4-1,1-1c0.5,0,1,0.4,1,1s-0.4,1-1,1
			C416.6,385.4,416.1,385,416.1,384.4z M416.1,387c0-0.5,0.4-1,1-1c0.5,0,1,0.4,1,1s-0.4,1-1,1C416.6,388,416.1,387.5,416.1,387z
			 M416.1,389.6c0-0.5,0.4-1,1-1c0.5,0,1,0.4,1,1c0,0.5-0.4,1-1,1C416.6,390.5,416.1,390.1,416.1,389.6z M409.4,384.1
			c0-0.2,0.1-0.3,0.3-0.3h5.3c0.2,0,0.3,0.1,0.3,0.3v0.6c0,0.2-0.1,0.3-0.3,0.3h-5.3c-0.2,0-0.3-0.1-0.3-0.3V384.1z M409.4,386.7
			c0-0.2,0.1-0.3,0.3-0.3h5.3c0.2,0,0.3,0.1,0.3,0.3v0.6c0,0.2-0.1,0.3-0.3,0.3h-5.3c-0.2,0-0.3-0.1-0.3-0.3V386.7z M409.4,389.2
			c0-0.2,0.1-0.3,0.3-0.3h5.3c0.2,0,0.3,0.1,0.3,0.3v0.6c0,0.2-0.1,0.3-0.3,0.3h-5.3c-0.2,0-0.3-0.1-0.3-0.3V389.2z"/>
	</g>
</g>
<g>
	<g>
		<path class="st2" d="M440.2,278.5h11.1c0.7,0,1.3,0.6,1.3,1.3v9.4c0,0.7-0.6,1.3-1.3,1.3h-11.1c-0.7,0-1.3-0.6-1.3-1.3v-9.4
			C438.9,279,439.5,278.5,440.2,278.5z M440.3,289.1h10.8c0.1,0,0.2-0.1,0.2-0.2v-9.1c0-0.1-0.1-0.2-0.2-0.2h-10.8
			c-0.1,0-0.2,0.1-0.2,0.2v9.1C440.2,289,440.3,289.1,440.3,289.1z M448.2,281.9c0-0.5,0.4-1,1-1c0.5,0,1,0.4,1,1c0,0.5-0.4,1-1,1
			C448.6,282.8,448.2,282.4,448.2,281.9z M448.2,284.4c0-0.5,0.4-1,1-1c0.5,0,1,0.4,1,1s-0.4,1-1,1
			C448.6,285.4,448.2,285,448.2,284.4z M448.2,287c0-0.5,0.4-1,1-1c0.5,0,1,0.4,1,1c0,0.5-0.4,1-1,1
			C448.6,287.9,448.2,287.5,448.2,287z M441.5,281.5c0-0.2,0.1-0.3,0.3-0.3h5.3c0.2,0,0.3,0.1,0.3,0.3v0.6c0,0.2-0.1,0.3-0.3,0.3
			h-5.3c-0.2,0-0.3-0.1-0.3-0.3V281.5z M441.5,284.1c0-0.2,0.1-0.3,0.3-0.3h5.3c0.2,0,0.3,0.1,0.3,0.3v0.6c0,0.2-0.1,0.3-0.3,0.3
			h-5.3c-0.2,0-0.3-0.1-0.3-0.3V284.1z M441.5,286.7c0-0.2,0.1-0.3,0.3-0.3h5.3c0.2,0,0.3,0.1,0.3,0.3v0.6c0,0.2-0.1,0.3-0.3,0.3
			h-5.3c-0.2,0-0.3-0.1-0.3-0.3V286.7z"/>
	</g>
</g>
<g>
	<g>
		<path class="st2" d="M536.5,267.1h11.1c0.7,0,1.3,0.6,1.3,1.3v9.4c0,0.7-0.6,1.3-1.3,1.3h-11.1c-0.7,0-1.3-0.6-1.3-1.3v-9.4
			C535.2,267.7,535.8,267.1,536.5,267.1z M536.7,277.8h10.8c0.1,0,0.2-0.1,0.2-0.2v-9.1c0-0.1-0.1-0.2-0.2-0.2h-10.8
			c-0.1,0-0.2,0.1-0.2,0.2v9.1C536.5,277.7,536.6,277.8,536.7,277.8z M544.5,270.5c0-0.5,0.4-1,1-1s1,0.4,1,1c0,0.5-0.4,1-1,1
			S544.5,271,544.5,270.5z M544.5,273.1c0-0.5,0.4-1,1-1s1,0.4,1,1c0,0.5-0.4,1-1,1S544.5,273.6,544.5,273.1z M544.5,275.6
			c0-0.5,0.4-1,1-1s1,0.4,1,1c0,0.5-0.4,1-1,1S544.5,276.2,544.5,275.6z M537.8,270.2c0-0.2,0.1-0.3,0.3-0.3h5.3
			c0.2,0,0.3,0.1,0.3,0.3v0.6c0,0.2-0.1,0.3-0.3,0.3h-5.3c-0.2,0-0.3-0.1-0.3-0.3V270.2z M537.8,272.7c0-0.2,0.1-0.3,0.3-0.3h5.3
			c0.2,0,0.3,0.1,0.3,0.3v0.6c0,0.2-0.1,0.3-0.3,0.3h-5.3c-0.2,0-0.3-0.1-0.3-0.3V272.7z M537.8,275.3c0-0.2,0.1-0.3,0.3-0.3h5.3
			c0.2,0,0.3,0.1,0.3,0.3v0.6c0,0.2-0.1,0.3-0.3,0.3h-5.3c-0.2,0-0.3-0.1-0.3-0.3V275.3z"/>
	</g>
</g>
<g>
	<g>
		<path class="st2" d="M562.6,364.7h11.1c0.7,0,1.3,0.6,1.3,1.3v9.4c0,0.7-0.6,1.3-1.3,1.3h-11.1c-0.7,0-1.3-0.6-1.3-1.3V366
			C561.3,365.2,561.9,364.7,562.6,364.7z M562.7,375.3h10.8c0.1,0,0.2-0.1,0.2-0.2v-9.1c0-0.1-0.1-0.2-0.2-0.2h-10.8
			c-0.1,0-0.2,0.1-0.2,0.2v9.1C562.6,375.3,562.6,375.3,562.7,375.3z M570.6,368.1c0-0.5,0.4-1,1-1c0.5,0,1,0.4,1,1s-0.4,1-1,1
			C571,369,570.6,368.6,570.6,368.1z M570.6,370.6c0-0.5,0.4-1,1-1c0.5,0,1,0.4,1,1s-0.4,1-1,1C571,371.6,570.6,371.2,570.6,370.6z
			 M570.6,373.2c0-0.5,0.4-1,1-1c0.5,0,1,0.4,1,1c0,0.5-0.4,1-1,1C571,374.2,570.6,373.7,570.6,373.2z M563.8,367.8
			c0-0.2,0.1-0.3,0.3-0.3h5.3c0.2,0,0.3,0.1,0.3,0.3v0.6c0,0.2-0.1,0.3-0.3,0.3h-5.3c-0.2,0-0.3-0.1-0.3-0.3V367.8z M563.8,370.3
			c0-0.2,0.1-0.3,0.3-0.3h5.3c0.2,0,0.3,0.1,0.3,0.3v0.6c0,0.2-0.1,0.3-0.3,0.3h-5.3c-0.2,0-0.3-0.1-0.3-0.3V370.3z M563.8,372.9
			c0-0.2,0.1-0.3,0.3-0.3h5.3c0.2,0,0.3,0.1,0.3,0.3v0.6c0,0.2-0.1,0.3-0.3,0.3h-5.3c-0.2,0-0.3-0.1-0.3-0.3V372.9z"/>
	</g>
</g>
<g>
	<g>
		<path class="st2" d="M485.3,427.8h11.1c0.7,0,1.3,0.6,1.3,1.3v9.4c0,0.7-0.6,1.3-1.3,1.3h-11.1c-0.7,0-1.3-0.6-1.3-1.3v-9.4
			C484,428.4,484.6,427.8,485.3,427.8z M485.4,438.5h10.8c0.1,0,0.2-0.1,0.2-0.2v-9.1c0-0.1-0.1-0.2-0.2-0.2h-10.8
			c-0.1,0-0.2,0.1-0.2,0.2v9.1C485.3,438.4,485.4,438.5,485.4,438.5z M493.3,431.2c0-0.5,0.4-1,1-1c0.5,0,1,0.4,1,1c0,0.5-0.4,1-1,1
			C493.7,432.2,493.3,431.8,493.3,431.2z M493.3,433.8c0-0.5,0.4-1,1-1c0.5,0,1,0.4,1,1s-0.4,1-1,1
			C493.7,434.8,493.3,434.3,493.3,433.8z M493.3,436.4c0-0.5,0.4-1,1-1c0.5,0,1,0.4,1,1c0,0.5-0.4,1-1,1
			C493.7,437.3,493.3,436.9,493.3,436.4z M486.6,430.9c0-0.2,0.1-0.3,0.3-0.3h5.3c0.2,0,0.3,0.1,0.3,0.3v0.6c0,0.2-0.1,0.3-0.3,0.3
			h-5.3c-0.2,0-0.3-0.1-0.3-0.3V430.9z M486.6,433.5c0-0.2,0.1-0.3,0.3-0.3h5.3c0.2,0,0.3,0.1,0.3,0.3v0.6c0,0.2-0.1,0.3-0.3,0.3
			h-5.3c-0.2,0-0.3-0.1-0.3-0.3V433.5z M486.6,436c0-0.2,0.1-0.3,0.3-0.3h5.3c0.2,0,0.3,0.1,0.3,0.3v0.6c0,0.2-0.1,0.3-0.3,0.3h-5.3
			c-0.2,0-0.3-0.1-0.3-0.3V436z"/>
	</g>
</g>
</svg>
