<?xml version="1.0" encoding="utf-8"?>
<!-- Generator: Adobe Illustrator 26.5.0, SVG Export Plug-In . SVG Version: 6.00 Build 0)  -->
<svg version="1.1" id="Layer_2" xmlns="http://www.w3.org/2000/svg" xmlns:xlink="http://www.w3.org/1999/xlink" x="0px" y="0px"
	 viewBox="0 0 1000 600" style="enable-background:new 0 0 1000 600;" xml:space="preserve">
<style type="text/css">
	.st0{fill:#90C7D3;}
	.st1{fill:#00435B;}
	.st2{fill:#FFFFFF;}
	.st3{fill:none;stroke:#FFFFFF;stroke-width:0.64;stroke-miterlimit:10;}
</style>
<circle class="st1" cx="500.5" cy="328.3" r="227.4"/>
<g>
	<path class="st2" d="M469.1,131.4l0.6-2.8l0.9-3.2h-3.7v-2.8h1.7v1.5h3.7v1.1l-1,3.4l-0.6,2.8H469.1z"/>
	<path class="st2" d="M473.4,131.4v-2.6c0-0.2,0-0.4,0-0.5c0-0.2,0-0.3,0.1-0.4s0.1-0.3,0.2-0.4c0.1-0.2,0.2-0.4,0.4-0.5
		c0.2-0.1,0.4-0.3,0.7-0.3l-1.5-2.5h1.9l2.2,3.6c0,0,0.1-0.1,0.1-0.1c0,0,0-0.1,0.1-0.1c0.1-0.1,0.1-0.2,0.2-0.3
		c0-0.1,0.1-0.3,0.1-0.5v-2.7h1.7v2.6c0,0.3,0,0.5-0.1,0.7c0,0.2-0.1,0.4-0.2,0.6c-0.1,0.2-0.2,0.4-0.4,0.5
		c-0.2,0.1-0.4,0.3-0.7,0.4l1.5,2.5h-1.9l-2.2-3.7c-0.1,0-0.1,0.1-0.2,0.1c-0.1,0.1-0.1,0.2-0.2,0.3c-0.1,0.2-0.1,0.4-0.1,0.6v2.6
		H473.4z"/>
	<path class="st2" d="M483.8,131.4v-4.8c0-0.3-0.1-0.6-0.2-0.8c-0.1-0.2-0.3-0.3-0.6-0.4c-0.1,0-0.2-0.1-0.3-0.1s-0.2,0-0.3,0
		c-0.2,0-0.4,0-0.6,0s-0.4,0-0.7,0c-0.2,0-0.5,0-0.7,0.1v-1.3c0.4,0,0.7-0.1,1-0.1c0.3,0,0.6,0,0.9,0c0.5,0,1,0,1.3,0.1
		s0.6,0.1,0.8,0.2c0.2,0.1,0.4,0.2,0.6,0.4c0.1,0.1,0.3,0.3,0.3,0.6c0.1,0.2,0.1,0.4,0.1,0.6c0,0.2,0,0.4,0,0.7v4.8H483.8z"/>
	<path class="st2" d="M487.5,131.4l-0.6-7.3h1.6l0.3,3.7c0.1,0,0.2-0.1,0.4-0.1s0.2-0.1,0.3-0.2c0.1-0.1,0.2-0.3,0.2-0.4
		s0.1-0.4,0.1-0.6l0.2-2.3h1.6l-0.2,2.2c0,0.4-0.1,0.8-0.2,1.1c-0.1,0.3-0.3,0.6-0.6,0.9c-0.2,0.2-0.5,0.4-0.7,0.5
		c-0.3,0.1-0.6,0.2-1,0.2c0,0,0,0,0,0s0,0,0,0l0.1,1h1.5c0.4,0,0.7-0.1,1.1-0.3c0.3-0.2,0.6-0.5,0.8-0.9c0.2-0.4,0.3-0.9,0.4-1.5
		l0.3-3.2h1.6l-0.3,3.3c0,0.4-0.1,0.8-0.2,1.2c-0.1,0.4-0.2,0.7-0.4,1c-0.1,0.3-0.3,0.5-0.5,0.7c-0.2,0.2-0.4,0.4-0.7,0.6
		c-0.3,0.2-0.7,0.3-1,0.4c-0.4,0.1-0.8,0.1-1.2,0.1H487.5z"/>
	<path class="st2" d="M496.2,128.9v-4.8h1.7v3.5l-1,1.3H496.2z"/>
	<path class="st2" d="M503.3,134.2v-6l-1.6-4.1h1.8l1.3,3.6c0,0,0.1,0,0.1,0s0.1,0,0.1,0c0.2,0,0.4-0.1,0.5-0.3
		c0.1-0.2,0.2-0.4,0.2-0.8v-2.4h1.7v2.5c0,0.4-0.1,0.7-0.2,1c-0.1,0.3-0.3,0.5-0.5,0.7c-0.2,0.1-0.4,0.3-0.6,0.4
		c-0.3,0.1-0.6,0.2-0.9,0.2L505,129v5.2H503.3z"/>
	<path class="st2" d="M511.8,131.4v-4.8c0-0.3-0.1-0.6-0.2-0.8c-0.1-0.2-0.3-0.3-0.6-0.4c-0.1,0-0.2-0.1-0.3-0.1c-0.1,0-0.2,0-0.3,0
		c-0.2,0-0.4,0-0.6,0s-0.4,0-0.7,0c-0.2,0-0.5,0-0.7,0.1v-1.3c0.4,0,0.7-0.1,1-0.1c0.3,0,0.6,0,0.9,0c0.5,0,1,0,1.3,0.1
		s0.6,0.1,0.8,0.2c0.2,0.1,0.4,0.2,0.6,0.4c0.1,0.1,0.3,0.3,0.3,0.6c0.1,0.2,0.1,0.4,0.1,0.6c0,0.2,0,0.4,0,0.7v4.8H511.8z"/>
	<path class="st2" d="M515,131.4v-2.6c0-0.2,0-0.4,0-0.5s0-0.3,0.1-0.4s0.1-0.3,0.2-0.4c0.1-0.2,0.2-0.4,0.4-0.5s0.4-0.3,0.7-0.3
		l-1.5-2.5h1.9l2.2,3.6c0,0,0.1-0.1,0.1-0.1c0,0,0-0.1,0.1-0.1c0.1-0.1,0.1-0.2,0.2-0.3c0-0.1,0.1-0.3,0.1-0.5v-2.7h1.7v2.6
		c0,0.3,0,0.5,0,0.7c0,0.2-0.1,0.4-0.2,0.6c-0.1,0.2-0.2,0.4-0.4,0.5s-0.4,0.3-0.7,0.4l1.5,2.5h-1.9l-2.2-3.7
		c-0.1,0-0.1,0.1-0.2,0.1c-0.1,0.1-0.1,0.2-0.2,0.3c-0.1,0.2-0.1,0.4-0.1,0.6v2.6H515z"/>
</g>
<g>
	<path class="st2" d="M570.7,225.4c-0.1,0-0.3,0-0.4,0c-0.1,0-0.3-0.1-0.4-0.1V224c0.2,0,0.4,0.1,0.6,0.1c0.2,0,0.4-0.1,0.5-0.2
		c0.1-0.1,0.1-0.3,0.1-0.6v-3.9c-0.1,0-0.3,0-0.4,0c-0.1,0-0.3,0-0.4,0v-1.3c0.4,0,0.8-0.1,1.2-0.1c0.4,0,0.7,0,1.1-0.1
		c0.3,0,0.7,0,1,0c0.4,0,0.7,0,0.9,0c0.3,0,0.5,0.1,0.7,0.1c0.2,0.1,0.4,0.1,0.5,0.2c0.2,0.1,0.3,0.2,0.4,0.4s0.2,0.3,0.3,0.5
		c0.1,0.1,0.1,0.3,0.1,0.5s0,0.4,0,0.6v4.9h-1.7v-4.8c0-0.3-0.1-0.6-0.2-0.8c-0.1-0.2-0.3-0.3-0.6-0.4c-0.2,0-0.4-0.1-0.6-0.1
		c-0.1,0-0.2,0-0.3,0c-0.1,0-0.2,0-0.3,0v4c0,0.3,0,0.5-0.1,0.7c0,0.2-0.1,0.4-0.2,0.6c-0.1,0.2-0.2,0.4-0.4,0.5
		c-0.2,0.1-0.4,0.2-0.6,0.3S571,225.4,570.7,225.4z"/>
	<path class="st2" d="M578.4,225.4v-7.3h1.7v7.3H578.4z"/>
	<path class="st2" d="M581.5,225.4V224h2c0-0.1,0.1-0.3,0.1-0.4c0-0.1,0-0.3,0-0.4v-3c0-0.1,0-0.3,0-0.4c0-0.1-0.1-0.2-0.2-0.3
		c-0.1-0.1-0.1-0.1-0.2-0.1c-0.1,0-0.2,0-0.3,0c-0.1,0-0.3,0-0.4,0c-0.1,0-0.3,0-0.5,0.1v-1.4c0.1,0,0.3-0.1,0.5-0.1
		c0.2,0,0.4,0,0.6,0c0.4,0,0.7,0,0.9,0.1c0.2,0.1,0.4,0.2,0.6,0.3s0.3,0.3,0.4,0.4c0.1,0.2,0.2,0.4,0.2,0.5c0,0.1,0.1,0.3,0.1,0.4
		s0,0.3,0,0.5v3c0,0.2,0,0.4,0,0.7s0,0.5-0.1,0.7s-0.1,0.4-0.1,0.5l-0.1,0.3H581.5z"/>
	<path class="st2" d="M586.5,225.4l0.5-4.9c0-0.1,0-0.2,0-0.3s0-0.2,0-0.3c0-0.1,0-0.3,0-0.4c0-0.1,0-0.3-0.1-0.4
		c0-0.1,0-0.1-0.1-0.2s0-0.2-0.1-0.3s0-0.2-0.1-0.2c0,0,0-0.1,0-0.1c0,0,0-0.1-0.1-0.1h1.5c0.1,0.1,0.1,0.2,0.2,0.4
		c0,0.1,0.1,0.3,0.1,0.4h0.1c0.1-0.1,0.2-0.2,0.3-0.3c0.2-0.1,0.3-0.2,0.4-0.3c0.1-0.1,0.3-0.1,0.6-0.2c0.2-0.1,0.5-0.1,0.8-0.1
		c0.3,0,0.6,0,0.8,0.1c0.2,0.1,0.5,0.2,0.6,0.4c0.1,0.1,0.2,0.2,0.3,0.3c0.1,0.1,0.1,0.2,0.2,0.4c0.1,0.2,0.2,0.5,0.2,0.8
		c0.1,0.3,0.1,0.6,0.1,1v4.4h-3.1V224h1.4v-3c0-0.2,0-0.4,0-0.6c0-0.2-0.1-0.3-0.1-0.4c0-0.1-0.1-0.2-0.2-0.3s-0.2-0.2-0.3-0.2
		c-0.1-0.1-0.3-0.1-0.4-0.1c-0.2,0-0.4,0-0.5,0.1c-0.2,0.1-0.3,0.1-0.4,0.2c-0.1,0.1-0.2,0.2-0.3,0.3s-0.1,0.2-0.2,0.3l-0.5,5.2
		H586.5z"/>
	<path class="st2" d="M594.6,225.4v-2.6c0-0.2,0-0.4,0-0.5s0-0.3,0.1-0.4s0.1-0.3,0.2-0.4c0.1-0.2,0.2-0.4,0.4-0.5s0.4-0.3,0.7-0.3
		l-1.5-2.5h1.9l2.2,3.6c0,0,0.1-0.1,0.1-0.1c0,0,0-0.1,0.1-0.1c0.1-0.1,0.1-0.2,0.2-0.3c0-0.1,0.1-0.3,0.1-0.5v-2.7h1.7v2.6
		c0,0.3,0,0.5-0.1,0.7c0,0.2-0.1,0.4-0.2,0.6c-0.1,0.2-0.2,0.4-0.4,0.5c-0.2,0.1-0.4,0.3-0.7,0.4l1.5,2.5h-1.9l-2.2-3.7
		c-0.1,0-0.1,0.1-0.2,0.1c-0.1,0.1-0.1,0.2-0.2,0.3c-0.1,0.2-0.1,0.4-0.1,0.6v2.6H594.6z"/>
	<path class="st2" d="M571.8,239.3c-0.3,0-0.5,0-0.8-0.1c-0.3,0-0.5-0.1-0.7-0.2c-0.2-0.1-0.3-0.2-0.5-0.4c-0.2-0.1-0.3-0.3-0.5-0.6
		c-0.2-0.3-0.3-0.7-0.4-1.1c-0.1-0.4-0.1-0.9-0.1-1.5v-3.6h1.7v3.6c0,0.5,0,0.9,0.1,1.2c0.1,0.3,0.2,0.6,0.3,0.8
		c0.1,0.1,0.2,0.3,0.4,0.3c0.2,0.1,0.3,0.1,0.5,0.1c0.2,0,0.4,0,0.6-0.1c0.2-0.1,0.3-0.2,0.4-0.4c0.1-0.2,0.2-0.5,0.3-0.8
		c0.1-0.3,0.1-0.7,0.1-1.1c0-0.4,0-0.8-0.1-1.1s-0.1-0.6-0.3-0.8c-0.1-0.2-0.2-0.3-0.4-0.4c-0.2-0.1-0.4-0.1-0.6-0.1
		c-0.1,0-0.1,0-0.2,0c-0.1,0-0.1,0-0.2,0v-1.3c0.1,0,0.3,0,0.4,0c0.1,0,0.3,0,0.4,0c0.3,0,0.5,0,0.8,0.1c0.3,0.1,0.5,0.2,0.7,0.3
		c0.1,0.1,0.3,0.2,0.4,0.4s0.2,0.3,0.3,0.5c0.1,0.3,0.2,0.6,0.3,1c0.1,0.4,0.1,0.9,0.1,1.4c0,0.4,0,0.7-0.1,1c0,0.3-0.1,0.6-0.2,0.9
		c-0.1,0.3-0.3,0.7-0.5,0.9c-0.2,0.3-0.4,0.5-0.7,0.6c-0.2,0.1-0.5,0.2-0.7,0.3C572.4,239.3,572.2,239.3,571.8,239.3z"/>
	<path class="st2" d="M579,239.2v-4.8c0-0.3-0.1-0.6-0.2-0.8c-0.1-0.2-0.3-0.3-0.6-0.4c-0.1,0-0.2-0.1-0.3-0.1c-0.1,0-0.2,0-0.3,0
		c-0.2,0-0.4,0-0.6,0c-0.2,0-0.4,0-0.7,0c-0.2,0-0.5,0-0.7,0.1v-1.3c0.4,0,0.7-0.1,1-0.1c0.3,0,0.6,0,0.9,0c0.5,0,1,0,1.3,0.1
		c0.3,0,0.6,0.1,0.8,0.2c0.2,0.1,0.4,0.2,0.6,0.4c0.1,0.1,0.3,0.3,0.3,0.6c0.1,0.2,0.1,0.4,0.1,0.6c0,0.2,0,0.4,0,0.7v4.8H579z"/>
	<path class="st2" d="M582.4,239.2v-7.3h1.7v7.3H582.4z"/>
	<path class="st2" d="M588.5,239.3c-0.3,0-0.5,0-0.8,0c-0.3,0-0.5,0-0.7,0c-0.2,0-0.4,0-0.5-0.1l-0.3,0v-1.3c0.4,0,0.8,0.1,1.2,0.1
		c0.4,0,0.8,0,1.2,0c0.2,0,0.4,0,0.5-0.1s0.3-0.1,0.4-0.2c0.1-0.1,0.2-0.3,0.3-0.5s0.1-0.4,0.1-0.6c0-0.2,0-0.4,0-0.5s0-0.3,0-0.5
		c0-0.2,0-0.4,0-0.6c0-0.2,0-0.4-0.1-0.6c0-0.2-0.1-0.4-0.2-0.6c-0.1-0.2-0.2-0.3-0.3-0.4c-0.1-0.1-0.2-0.1-0.3-0.2
		c-0.1,0-0.2-0.1-0.3-0.1c-0.2,0-0.4,0-0.6,0.1c-0.2,0.1-0.3,0.1-0.4,0.2c-0.1,0.1-0.2,0.2-0.3,0.4c-0.1,0.2-0.1,0.3-0.1,0.5
		c0,0.2,0,0.4,0.1,0.5c0.1,0.2,0.2,0.3,0.3,0.4c0.1,0.1,0.2,0.1,0.3,0.2s0.2,0.1,0.3,0.1l0.3,0.1l-0.3,1.2l-0.4,0
		c-0.2,0-0.4,0-0.6-0.1s-0.4-0.1-0.5-0.2c-0.2-0.1-0.3-0.2-0.5-0.3s-0.3-0.2-0.3-0.4c-0.1-0.2-0.2-0.4-0.3-0.7
		c-0.1-0.2-0.1-0.5-0.1-0.8c0-0.4,0.1-0.8,0.2-1.1s0.3-0.6,0.5-0.8c0.3-0.3,0.6-0.5,1-0.6c0.4-0.1,0.8-0.2,1.2-0.2
		c0.3,0,0.7,0,1,0.1c0.3,0.1,0.6,0.2,0.8,0.3c0.2,0.1,0.3,0.3,0.5,0.4c0.2,0.2,0.3,0.4,0.4,0.6c0.1,0.3,0.2,0.6,0.3,1
		c0.1,0.4,0.1,0.8,0.1,1.2c0,0.6-0.1,1.1-0.2,1.5c-0.1,0.4-0.2,0.8-0.4,1.1c-0.2,0.3-0.4,0.5-0.6,0.6s-0.5,0.3-0.7,0.4
		c-0.2,0.1-0.3,0.1-0.5,0.1C589,239.3,588.8,239.3,588.5,239.3z"/>
	<path class="st2" d="M595.8,239.3c-0.5,0-1-0.1-1.4-0.3c-0.3-0.1-0.6-0.3-0.8-0.6c-0.2-0.2-0.4-0.5-0.6-0.9
		c-0.1-0.3-0.2-0.6-0.2-0.9c-0.1-0.3-0.1-0.7-0.1-1.1c0-0.3,0-0.6,0.1-0.9c0.1-0.3,0.1-0.5,0.3-0.8c0.1-0.2,0.3-0.4,0.4-0.6l0,0
		l-0.7,0v-1.4c0.4,0,0.7,0,1-0.1c0.3,0,0.7,0,1,0s0.6,0,0.9,0c0.3,0,0.6,0,0.8,0.1c0.3,0.1,0.5,0.2,0.7,0.3c0.3,0.1,0.5,0.3,0.7,0.6
		c0.2,0.2,0.4,0.5,0.5,0.8c0.1,0.3,0.2,0.6,0.2,0.9c0.1,0.3,0.1,0.7,0.1,1.1c0,0.3,0,0.6-0.1,0.9c0,0.3-0.1,0.6-0.2,0.8
		c-0.1,0.4-0.3,0.7-0.5,1c-0.2,0.3-0.5,0.5-0.8,0.7C596.9,239.2,596.3,239.3,595.8,239.3z M595.8,237.9c0.2,0,0.4,0,0.6-0.1
		s0.3-0.2,0.4-0.4c0.1-0.1,0.2-0.3,0.2-0.5s0.1-0.4,0.1-0.6c0-0.2,0-0.5,0-0.7c0-0.5,0-0.9-0.1-1.3c-0.1-0.3-0.2-0.6-0.4-0.8
		c-0.1-0.1-0.2-0.2-0.4-0.3c-0.1-0.1-0.3-0.1-0.5-0.1c-0.1,0-0.2,0-0.3,0c-0.1,0-0.2,0-0.3,0c-0.2,0.3-0.4,0.6-0.5,1
		c-0.1,0.4-0.2,0.8-0.2,1.4c0,0.4,0,0.8,0.1,1.1c0.1,0.3,0.1,0.6,0.3,0.7c0.1,0.2,0.2,0.3,0.4,0.4S595.5,237.9,595.8,237.9z"/>
	<path class="st2" d="M600.2,239.2v-7.3h1.7v7.3H600.2z"/>
</g>
<g>
	<path class="st2" d="M382.5,236.1l0.6-2.8l0.9-3.2h-3.7v-2.8h1.7v1.5h3.7v1.1l-1,3.4l-0.6,2.8H382.5z"/>
	<path class="st2" d="M387.4,236.1l-0.6-7.3h1.6l0.3,3.7c0.1,0,0.2-0.1,0.4-0.1s0.2-0.1,0.3-0.2c0.1-0.1,0.2-0.3,0.2-0.4
		s0.1-0.4,0.1-0.6l0.2-2.3h1.6l-0.2,2.2c0,0.4-0.1,0.8-0.2,1.1c-0.1,0.3-0.3,0.6-0.6,0.9c-0.2,0.2-0.5,0.4-0.7,0.5
		c-0.3,0.1-0.6,0.2-1,0.2c0,0,0,0,0,0s0,0,0,0l0.1,1h1.5c0.4,0,0.7-0.1,1.1-0.3c0.3-0.2,0.6-0.5,0.8-0.9c0.2-0.4,0.3-0.9,0.4-1.5
		l0.3-3.2h1.6l-0.3,3.3c0,0.4-0.1,0.8-0.2,1.2c-0.1,0.4-0.2,0.7-0.4,1c-0.1,0.3-0.3,0.5-0.5,0.7c-0.2,0.2-0.4,0.4-0.7,0.6
		c-0.3,0.2-0.7,0.3-1,0.4c-0.4,0.1-0.8,0.1-1.2,0.1H387.4z"/>
	<path class="st2" d="M395.8,236.1l0.5-4.9c0-0.1,0-0.2,0-0.3s0-0.2,0-0.3c0-0.1,0-0.3,0-0.4c0-0.1,0-0.3-0.1-0.4
		c0-0.1,0-0.1-0.1-0.2s0-0.2-0.1-0.3c0-0.1,0-0.2-0.1-0.2c0,0,0-0.1,0-0.1c0,0,0-0.1-0.1-0.1h1.5c0.1,0.1,0.1,0.2,0.2,0.4
		c0,0.1,0.1,0.3,0.1,0.4h0.1c0.1-0.1,0.2-0.2,0.3-0.3s0.3-0.2,0.4-0.3c0.1-0.1,0.3-0.1,0.6-0.2c0.2-0.1,0.5-0.1,0.8-0.1
		c0.3,0,0.6,0,0.8,0.1c0.2,0.1,0.5,0.2,0.6,0.4c0.1,0.1,0.2,0.2,0.3,0.3c0.1,0.1,0.1,0.2,0.2,0.4c0.1,0.2,0.2,0.5,0.2,0.8
		c0.1,0.3,0.1,0.6,0.1,1v4.4H399v-1.3h1.4v-3c0-0.2,0-0.4,0-0.6c0-0.2-0.1-0.3-0.1-0.4c0-0.1-0.1-0.2-0.2-0.3
		c-0.1-0.1-0.2-0.2-0.3-0.2c-0.1-0.1-0.3-0.1-0.4-0.1c-0.2,0-0.4,0-0.5,0.1s-0.3,0.1-0.4,0.2c-0.1,0.1-0.2,0.2-0.3,0.3
		s-0.1,0.2-0.2,0.3l-0.5,5.2H395.8z"/>
	<path class="st2" d="M403.8,236.1l0.5-4.9c0-0.1,0-0.2,0-0.3s0-0.2,0-0.3c0-0.1,0-0.3,0-0.4c0-0.1,0-0.3-0.1-0.4
		c0-0.1,0-0.1-0.1-0.2s0-0.2-0.1-0.3c0-0.1,0-0.2-0.1-0.2c0,0,0-0.1,0-0.1c0,0,0-0.1-0.1-0.1h1.5c0.1,0.1,0.1,0.2,0.2,0.4
		c0,0.1,0.1,0.3,0.1,0.4h0.1c0.1-0.1,0.2-0.2,0.3-0.3s0.3-0.2,0.4-0.3c0.1-0.1,0.3-0.1,0.6-0.2c0.2-0.1,0.5-0.1,0.8-0.1
		c0.3,0,0.6,0,0.8,0.1c0.2,0.1,0.5,0.2,0.6,0.4c0.1,0.1,0.2,0.2,0.3,0.3c0.1,0.1,0.1,0.2,0.2,0.4c0.1,0.2,0.2,0.5,0.2,0.8
		c0.1,0.3,0.1,0.6,0.1,1v4.4H407v-1.3h1.4v-3c0-0.2,0-0.4,0-0.6c0-0.2-0.1-0.3-0.1-0.4c0-0.1-0.1-0.2-0.2-0.3
		c-0.1-0.1-0.2-0.2-0.3-0.2c-0.1-0.1-0.3-0.1-0.4-0.1c-0.2,0-0.4,0-0.5,0.1s-0.3,0.1-0.4,0.2c-0.1,0.1-0.2,0.2-0.3,0.3
		s-0.1,0.2-0.2,0.3l-0.5,5.2H403.8z"/>
	<path class="st2" d="M416.6,234.8l0.1,0.1c-0.1,0.3-0.2,0.6-0.3,0.9c-0.1,0.3-0.2,0.6-0.3,0.9c-0.1,0.3-0.3,0.6-0.4,0.9h-1.2
		c0.1-0.3,0.1-0.6,0.2-1c0.1-0.3,0.1-0.7,0.2-1c0.1-0.3,0.1-0.6,0.1-0.9H416.6z"/>
	<path class="st2" d="M422.4,236.1v-4.8c0-0.3-0.1-0.5-0.2-0.7s-0.3-0.3-0.5-0.4c-0.1,0-0.2-0.1-0.3-0.1c-0.1,0-0.3,0-0.4,0
		c-0.3,0-0.7,0-1.1,0c-0.4,0-0.9,0.1-1.5,0.1v-1.3c0.2,0,0.4-0.1,0.6-0.1c0.2,0,0.4,0,0.6-0.1c0.3,0,0.6,0,0.8,0c0.3,0,0.5,0,0.8,0
		c0.4,0,0.8,0,1.1,0.1s0.6,0.1,0.8,0.2c0.2,0.1,0.4,0.2,0.6,0.4s0.3,0.3,0.3,0.6c0.1,0.2,0.1,0.4,0.1,0.6c0,0.2,0,0.4,0,0.7v4.8
		H422.4z M418.3,236.1v-4.3h1.7v4.3H418.3z"/>
	<path class="st2" d="M428.8,236.1c0,0,0-0.1,0-0.1c0,0,0-0.1,0-0.1c0-0.2,0-0.4,0.1-0.7c0-0.3,0.1-0.6,0.2-0.9
		c0-0.1,0.1-0.3,0.1-0.4c0-0.1,0.1-0.3,0.1-0.4c0-0.1,0.1-0.3,0.1-0.4l1-2.9h-4.5v-1.3h6.3v1l-1.1,3.2c0,0.1-0.1,0.3-0.1,0.4
		c0,0.2-0.1,0.3-0.1,0.5c0,0.2-0.1,0.3-0.1,0.4c0,0.1-0.1,0.2-0.1,0.4c0,0.1-0.1,0.3-0.1,0.4s0,0.3-0.1,0.4c0,0.1,0,0.2,0,0.3v0.3
		H428.8z M425.9,238.9v-7.1h1.7v7.1H425.9z"/>
	<path class="st2" d="M433.2,233.6v-4.8h1.7v3.5l-1,1.3H433.2z"/>
	<path class="st2" d="M439.5,236.2c-0.3,0-0.5,0-0.8-0.1c-0.3,0-0.5-0.1-0.7-0.2c-0.2-0.1-0.3-0.2-0.5-0.4c-0.2-0.1-0.3-0.3-0.5-0.6
		c-0.2-0.3-0.3-0.7-0.4-1.1c-0.1-0.4-0.1-0.9-0.1-1.5v-3.6h1.7v3.6c0,0.5,0,0.9,0.1,1.2c0.1,0.3,0.2,0.6,0.3,0.8
		c0.1,0.1,0.2,0.3,0.4,0.3s0.3,0.1,0.5,0.1c0.2,0,0.4,0,0.6-0.1c0.2-0.1,0.3-0.2,0.4-0.4c0.1-0.2,0.2-0.5,0.3-0.8
		c0.1-0.3,0.1-0.7,0.1-1.1c0-0.4,0-0.8-0.1-1.1s-0.1-0.6-0.3-0.8c-0.1-0.2-0.2-0.3-0.4-0.4c-0.2-0.1-0.4-0.1-0.6-0.1
		c-0.1,0-0.1,0-0.2,0c-0.1,0-0.1,0-0.2,0v-1.3c0.1,0,0.3,0,0.4,0s0.3,0,0.4,0c0.3,0,0.5,0,0.8,0.1c0.3,0.1,0.5,0.2,0.7,0.3
		c0.1,0.1,0.3,0.2,0.4,0.4s0.2,0.3,0.3,0.5c0.1,0.3,0.2,0.6,0.3,1c0.1,0.4,0.1,0.9,0.1,1.4c0,0.4,0,0.7-0.1,1c0,0.3-0.1,0.6-0.2,0.9
		c-0.1,0.3-0.3,0.7-0.5,0.9c-0.2,0.3-0.5,0.5-0.7,0.6c-0.2,0.1-0.5,0.2-0.7,0.3S439.8,236.2,439.5,236.2z"/>
	<path class="st2" d="M444,233.6v-4.8h1.7v3.5l-1,1.3H444z"/>
	<path class="st2" d="M449.1,236.1l0.6-2.8l0.9-3.2h-3.7v-2.8h1.7v1.5h3.7v1.1l-1,3.4l-0.6,2.8H449.1z"/>
	<path class="st2" d="M453.7,236.1v-7.3h1.7v7.3H453.7z"/>
	<path class="st2" d="M459.8,236.2c-0.3,0-0.5,0-0.8,0c-0.3,0-0.5,0-0.7,0c-0.2,0-0.4,0-0.5-0.1l-0.3,0v-1.3c0.4,0,0.8,0.1,1.2,0.1
		c0.4,0,0.8,0,1.2,0c0.2,0,0.4,0,0.5-0.1s0.3-0.1,0.4-0.2c0.1-0.1,0.2-0.3,0.3-0.5c0.1-0.2,0.1-0.4,0.1-0.6c0-0.2,0-0.4,0-0.5
		c0-0.1,0-0.3,0-0.5c0-0.2,0-0.4,0-0.6c0-0.2,0-0.4-0.1-0.6c0-0.2-0.1-0.4-0.2-0.6c-0.1-0.2-0.2-0.3-0.3-0.4
		c-0.1-0.1-0.2-0.1-0.3-0.2s-0.2-0.1-0.3-0.1c-0.2,0-0.4,0-0.6,0.1c-0.2,0.1-0.3,0.1-0.4,0.2c-0.1,0.1-0.2,0.2-0.3,0.4
		c-0.1,0.2-0.1,0.3-0.1,0.5c0,0.2,0,0.4,0.1,0.5c0.1,0.2,0.2,0.3,0.3,0.4c0.1,0.1,0.2,0.1,0.3,0.2c0.1,0,0.2,0.1,0.3,0.1l0.3,0.1
		l-0.3,1.2l-0.4,0c-0.2,0-0.4,0-0.6-0.1c-0.2,0-0.4-0.1-0.5-0.2c-0.2-0.1-0.3-0.2-0.5-0.3c-0.1-0.1-0.3-0.2-0.3-0.4
		c-0.1-0.2-0.2-0.4-0.3-0.7s-0.1-0.5-0.1-0.8c0-0.4,0.1-0.8,0.2-1.1s0.3-0.6,0.5-0.8c0.3-0.3,0.6-0.5,1-0.6c0.4-0.1,0.8-0.2,1.2-0.2
		c0.3,0,0.7,0,1,0.1c0.3,0.1,0.6,0.2,0.8,0.3c0.2,0.1,0.3,0.3,0.5,0.4c0.2,0.2,0.3,0.4,0.4,0.6c0.1,0.3,0.2,0.6,0.3,1
		c0.1,0.4,0.1,0.8,0.1,1.2c0,0.6-0.1,1.1-0.2,1.5c-0.1,0.4-0.2,0.8-0.4,1.1c-0.2,0.3-0.4,0.5-0.6,0.6c-0.2,0.2-0.5,0.3-0.7,0.4
		c-0.2,0.1-0.3,0.1-0.5,0.1C460.2,236.2,460,236.2,459.8,236.2z"/>
	<path class="st2" d="M408.9,249.9v-4.8c0-0.3-0.1-0.5-0.2-0.7s-0.3-0.3-0.5-0.4c-0.1,0-0.2-0.1-0.3-0.1c-0.1,0-0.3,0-0.4,0
		c-0.3,0-0.7,0-1.1,0c-0.4,0-0.9,0.1-1.5,0.1v-1.3c0.2,0,0.4-0.1,0.6-0.1c0.2,0,0.4,0,0.6-0.1c0.3,0,0.6,0,0.8,0c0.3,0,0.5,0,0.8,0
		c0.4,0,0.8,0,1.1,0.1s0.6,0.1,0.8,0.2c0.2,0.1,0.4,0.2,0.6,0.4s0.3,0.3,0.3,0.6c0.1,0.2,0.1,0.4,0.1,0.6c0,0.2,0,0.4,0,0.7v4.8
		H408.9z M404.8,249.9v-4.3h1.7v4.3H404.8z"/>
	<path class="st2" d="M414.1,249.9l0.6-2.8l0.9-3.2h-3.7v-2.8h1.7v1.5h3.7v1.1l-1,3.4l-0.6,2.8H414.1z"/>
	<path class="st2" d="M420.2,250c-0.4,0-0.8,0-1.2,0c-0.3,0-0.7-0.1-0.9-0.1v-1.4c0.2,0,0.4,0.1,0.6,0.1c0.2,0,0.4,0,0.7,0.1
		s0.5,0,0.7,0c0.2,0,0.4,0,0.5-0.1c0.1-0.1,0.3-0.1,0.4-0.2c0.1-0.1,0.2-0.2,0.2-0.3s0.1-0.2,0.2-0.3c0-0.1,0.1-0.3,0.1-0.4
		c0-0.2,0-0.3,0-0.5v-1c0-0.3,0-0.6-0.1-0.8c-0.1-0.3-0.1-0.5-0.3-0.6c-0.1-0.2-0.3-0.3-0.5-0.4c-0.2-0.1-0.5-0.1-0.7-0.1
		c-0.2,0-0.5,0-0.7,0c-0.2,0-0.5,0-0.8,0.1c0,0-0.1,0-0.1,0c0,0-0.1,0-0.1,0v-1.4c0.1,0,0.2,0,0.4-0.1c0.1,0,0.3,0,0.4,0
		c0.2,0,0.4,0,0.6,0c0.2,0,0.5,0,0.7,0c0.4,0,0.8,0.1,1.2,0.2c0.4,0.1,0.6,0.3,0.9,0.5c0.1,0.1,0.2,0.2,0.3,0.3
		c0.1,0.1,0.2,0.3,0.2,0.4c0.1,0.2,0.2,0.4,0.2,0.6s0.1,0.4,0.1,0.6c0,0.2,0,0.4,0,0.7v1c0,0.3,0,0.7-0.1,0.9c0,0.3-0.1,0.6-0.3,0.8
		c-0.1,0.3-0.3,0.5-0.4,0.7c-0.2,0.2-0.4,0.3-0.7,0.5c-0.2,0.1-0.4,0.2-0.7,0.3C420.7,250,420.5,250,420.2,250z"/>
	<path class="st2" d="M426.3,249.9l0.6-2.8l0.9-3.2h-3.7v-2.8h1.7v1.5h3.7v1.1l-1,3.4l-0.6,2.8H426.3z"/>
	<path class="st2" d="M432.4,250c-0.4,0-0.8,0-1.2,0c-0.3,0-0.7-0.1-0.9-0.1v-1.4c0.2,0,0.4,0.1,0.6,0.1c0.2,0,0.4,0,0.7,0.1
		s0.5,0,0.7,0c0.2,0,0.4,0,0.5-0.1c0.1-0.1,0.3-0.1,0.4-0.2c0.1-0.1,0.2-0.2,0.2-0.3s0.1-0.2,0.2-0.3c0-0.1,0.1-0.3,0.1-0.4
		c0-0.2,0-0.3,0-0.5v-1c0-0.3,0-0.6-0.1-0.8c-0.1-0.3-0.1-0.5-0.3-0.6c-0.1-0.2-0.3-0.3-0.5-0.4c-0.2-0.1-0.5-0.1-0.7-0.1
		c-0.2,0-0.5,0-0.7,0c-0.2,0-0.5,0-0.8,0.1c0,0-0.1,0-0.1,0c0,0-0.1,0-0.1,0v-1.4c0.1,0,0.2,0,0.4-0.1c0.1,0,0.3,0,0.4,0
		c0.2,0,0.4,0,0.6,0c0.2,0,0.5,0,0.7,0c0.4,0,0.8,0.1,1.2,0.2c0.4,0.1,0.6,0.3,0.9,0.5c0.1,0.1,0.2,0.2,0.3,0.3
		c0.1,0.1,0.2,0.3,0.2,0.4c0.1,0.2,0.2,0.4,0.2,0.6s0.1,0.4,0.1,0.6c0,0.2,0,0.4,0,0.7v1c0,0.3,0,0.7-0.1,0.9c0,0.3-0.1,0.6-0.3,0.8
		c-0.1,0.3-0.3,0.5-0.4,0.7c-0.2,0.2-0.4,0.3-0.7,0.5c-0.2,0.1-0.4,0.2-0.7,0.3C433,250,432.7,250,432.4,250z"/>
	<path class="st2" d="M436.8,249.9v-7.3h1.7v7.3H436.8z"/>
</g>
<g>
	<path class="st2" d="M399.1,399.9v-6.9c0-0.3,0-0.5,0-0.7c0-0.2-0.1-0.4-0.2-0.6c0-0.1-0.1-0.2-0.1-0.2s-0.1-0.1-0.2-0.2
		c-0.2-0.2-0.6-0.3-1.1-0.3c-0.2,0-0.3,0-0.5,0c-0.1,0-0.3,0-0.4,0c-0.1,0-0.2,0-0.4,0.1c-0.1,0-0.3,0-0.4,0.1v-1.4
		c0.1,0,0.3,0,0.4-0.1c0.2,0,0.3,0,0.5,0c0.2,0,0.4,0,0.6,0c0.2,0,0.4,0,0.6,0c0.4,0,0.8,0.1,1.2,0.2c0.4,0.1,0.6,0.3,0.9,0.5
		c0.1,0.1,0.2,0.2,0.3,0.3c0.1,0.1,0.2,0.3,0.2,0.4c0.1,0.3,0.2,0.5,0.3,0.9c0.1,0.3,0.1,0.6,0.1,1v6.8H399.1z"/>
	<path class="st2" d="M402.6,397.1v-7.3h1.7v7.3H402.6z"/>
	<path class="st2" d="M405.7,397.1v-1.3h2c0-0.1,0.1-0.3,0.1-0.4c0-0.1,0-0.3,0-0.4v-3c0-0.1,0-0.3,0-0.4c0-0.1-0.1-0.2-0.2-0.3
		c-0.1-0.1-0.1-0.1-0.2-0.1c-0.1,0-0.2,0-0.3,0c-0.1,0-0.3,0-0.4,0s-0.3,0-0.5,0.1v-1.4c0.1,0,0.3-0.1,0.5-0.1c0.2,0,0.4,0,0.6,0
		c0.4,0,0.7,0,0.9,0.1c0.2,0.1,0.4,0.2,0.6,0.3s0.3,0.3,0.4,0.4c0.1,0.2,0.2,0.4,0.2,0.5c0,0.1,0.1,0.3,0.1,0.4s0,0.3,0,0.5v3
		c0,0.2,0,0.4,0,0.7s0,0.5-0.1,0.7s-0.1,0.4-0.1,0.5l-0.1,0.3H405.7z"/>
	<path class="st2" d="M410.9,394.7v-4.8h1.7v3.5l-1,1.3H410.9z"/>
	<path class="st2" d="M414.3,397.1v-7.2c0.1,0,0.3,0,0.4-0.1c0.1,0,0.3,0,0.5,0c0.3,0,0.6-0.1,1-0.1c0.3,0,0.6,0,1,0
		c0.4,0,0.8,0,1.1,0.1s0.6,0.1,0.8,0.2c0.2,0.1,0.4,0.2,0.6,0.4c0.1,0.1,0.3,0.3,0.3,0.6c0.1,0.2,0.1,0.4,0.1,0.6c0,0.2,0,0.4,0,0.7
		v4.8h-1.7v-4.8c0-0.3-0.1-0.6-0.2-0.8c-0.1-0.2-0.4-0.3-0.6-0.4c-0.1,0-0.2,0-0.3,0c-0.1,0-0.2,0-0.3,0c-0.1,0-0.3,0-0.4,0
		c-0.2,0-0.3,0-0.5,0v6H414.3z"/>
	<path class="st2" d="M391.5,411c-0.1,0-0.3,0-0.4,0c-0.1,0-0.3-0.1-0.4-0.1v-1.2c0.2,0,0.4,0.1,0.6,0.1c0.2,0,0.4-0.1,0.5-0.2
		s0.1-0.3,0.1-0.6V405c-0.1,0-0.3,0-0.4,0c-0.1,0-0.3,0-0.4,0v-1.3c0.4,0,0.8-0.1,1.2-0.1c0.4,0,0.7,0,1.1-0.1s0.7,0,1,0
		c0.4,0,0.7,0,0.9,0c0.3,0,0.5,0.1,0.7,0.1c0.2,0.1,0.4,0.1,0.5,0.2c0.2,0.1,0.3,0.2,0.4,0.4c0.1,0.1,0.2,0.3,0.3,0.5
		c0.1,0.1,0.1,0.3,0.1,0.5s0,0.4,0,0.6v4.9h-1.7v-4.8c0-0.3-0.1-0.6-0.2-0.8s-0.3-0.3-0.6-0.4c-0.2,0-0.4-0.1-0.6-0.1
		c-0.1,0-0.2,0-0.3,0s-0.2,0-0.3,0v4c0,0.3,0,0.5-0.1,0.7s-0.1,0.4-0.2,0.6c-0.1,0.2-0.2,0.4-0.4,0.5c-0.2,0.1-0.4,0.2-0.6,0.3
		C392.1,411,391.8,411,391.5,411z"/>
	<path class="st2" d="M399.3,411v-7.3h1.7v7.3H399.3z"/>
	<path class="st2" d="M402.5,411v-1.3h3.3v-3.5c0-0.3-0.1-0.6-0.2-0.7c-0.1-0.2-0.3-0.3-0.6-0.4c-0.1,0-0.2-0.1-0.3-0.1
		c-0.1,0-0.2,0-0.4,0c-0.2,0-0.5,0-0.8,0c-0.3,0-0.7,0-1.1,0.1v-1.3c0.2,0,0.5-0.1,0.9-0.1c0.3,0,0.7,0,1.1,0c0.4,0,0.7,0,0.9,0
		c0.3,0,0.5,0.1,0.7,0.2c0.2,0.1,0.4,0.2,0.6,0.3s0.3,0.2,0.4,0.4c0.1,0.1,0.2,0.3,0.3,0.5c0.1,0.2,0.1,0.3,0.1,0.5
		c0,0.2,0,0.4,0,0.6v3.6h0.8v1.3H402.5z"/>
	<path class="st2" d="M412.1,411v-4.8c0-0.3-0.1-0.6-0.2-0.8c-0.1-0.2-0.3-0.3-0.6-0.4c-0.1,0-0.2-0.1-0.3-0.1s-0.2,0-0.3,0
		c-0.2,0-0.4,0-0.6,0s-0.4,0-0.7,0c-0.2,0-0.5,0-0.7,0.1v-1.3c0.4,0,0.7-0.1,1-0.1c0.3,0,0.6,0,0.9,0c0.5,0,1,0,1.3,0.1
		s0.6,0.1,0.8,0.2c0.2,0.1,0.4,0.2,0.6,0.4c0.1,0.1,0.3,0.3,0.3,0.6c0.1,0.2,0.1,0.4,0.1,0.6c0,0.2,0,0.4,0,0.7v4.8H412.1z"/>
	<path class="st2" d="M415.9,411c-0.1,0-0.3,0-0.4,0c-0.1,0-0.3-0.1-0.4-0.1v-1.2c0.2,0,0.4,0.1,0.6,0.1c0.2,0,0.4-0.1,0.5-0.2
		s0.1-0.3,0.1-0.6V405c-0.1,0-0.3,0-0.4,0c-0.1,0-0.3,0-0.4,0v-1.3c0.4,0,0.8-0.1,1.2-0.1c0.4,0,0.7,0,1.1-0.1s0.7,0,1,0
		c0.4,0,0.7,0,0.9,0c0.3,0,0.5,0.1,0.7,0.1c0.2,0.1,0.4,0.1,0.5,0.2c0.2,0.1,0.3,0.2,0.4,0.4c0.1,0.1,0.2,0.3,0.3,0.5
		c0.1,0.1,0.1,0.3,0.1,0.5s0,0.4,0,0.6v4.9H420v-4.8c0-0.3-0.1-0.6-0.2-0.8s-0.3-0.3-0.6-0.4c-0.2,0-0.4-0.1-0.6-0.1
		c-0.1,0-0.2,0-0.3,0s-0.2,0-0.3,0v4c0,0.3,0,0.5-0.1,0.7s-0.1,0.4-0.2,0.6c-0.1,0.2-0.2,0.4-0.4,0.5c-0.2,0.1-0.4,0.2-0.6,0.3
		C416.4,411,416.2,411,415.9,411z"/>
	<path class="st2" d="M423.6,411v-7.3h1.7v7.3H423.6z"/>
</g>
<g>
	<path class="st2" d="M560.3,412.3v-1.4l1.3-0.2c0.1,0,0.2,0,0.3-0.1c0.1,0,0.2,0,0.3-0.1l-1.6-6h1.7l0.9,3.2l0.5,2.2
		c0.2-0.1,0.4-0.3,0.5-0.5s0.3-0.5,0.4-0.7s0.2-0.6,0.2-0.9l0.3-3.3h1.7l-0.3,3.2c0,0.3-0.1,0.5-0.1,0.7c-0.1,0.2-0.1,0.4-0.2,0.6
		s-0.2,0.4-0.3,0.6c-0.3,0.6-0.7,1.1-1.3,1.4c-0.6,0.4-1.2,0.6-2.1,0.7c-0.4,0.1-0.8,0.1-1.1,0.2C561,412.2,560.6,412.2,560.3,412.3
		z"/>
	<path class="st2" d="M570.5,411.9v-4.7c0-0.2,0-0.3,0-0.4c0-0.1,0.1-0.3,0.1-0.4c0.1-0.1,0.1-0.2,0.2-0.3c0.1-0.1,0.1-0.1,0.2-0.2
		h-3.7v-1.3h5.8v1.2c-0.2,0.1-0.3,0.1-0.5,0.2c-0.1,0.1-0.2,0.2-0.3,0.3c-0.2,0.2-0.2,0.5-0.2,0.9v4.6H570.5z"/>
	<path class="st2" d="M574.1,411.9l0.5-4.9c0-0.1,0-0.2,0-0.3s0-0.2,0-0.3c0-0.1,0-0.3,0-0.4c0-0.1,0-0.3-0.1-0.4
		c0-0.1,0-0.1-0.1-0.2s0-0.2-0.1-0.3s0-0.2-0.1-0.2c0,0,0-0.1,0-0.1c0,0,0-0.1-0.1-0.1h1.5c0.1,0.1,0.1,0.2,0.2,0.4
		c0,0.1,0.1,0.3,0.1,0.4h0.1c0.1-0.1,0.2-0.2,0.3-0.3c0.2-0.1,0.3-0.2,0.4-0.3c0.1-0.1,0.3-0.1,0.6-0.2c0.2-0.1,0.5-0.1,0.8-0.1
		c0.3,0,0.6,0,0.8,0.1c0.2,0.1,0.5,0.2,0.6,0.4c0.1,0.1,0.2,0.2,0.3,0.3c0.1,0.1,0.1,0.2,0.2,0.4c0.1,0.2,0.2,0.5,0.2,0.8
		c0.1,0.3,0.1,0.6,0.1,1v4.4h-3.1v-1.3h1.4v-3c0-0.2,0-0.4,0-0.6c0-0.2-0.1-0.3-0.1-0.4c0-0.1-0.1-0.2-0.2-0.3s-0.2-0.2-0.3-0.2
		c-0.1-0.1-0.3-0.1-0.4-0.1c-0.2,0-0.4,0-0.5,0.1c-0.2,0.1-0.3,0.1-0.4,0.2c-0.1,0.1-0.2,0.2-0.3,0.3s-0.1,0.2-0.2,0.3l-0.5,5.2
		H574.1z"/>
	<path class="st2" d="M549.9,425.7v-4.8c0-0.3-0.1-0.5-0.2-0.7s-0.3-0.3-0.5-0.4c-0.1,0-0.2-0.1-0.3-0.1s-0.3,0-0.4,0
		c-0.3,0-0.7,0-1.1,0c-0.4,0-0.9,0.1-1.5,0.1v-1.3c0.2,0,0.4-0.1,0.6-0.1c0.2,0,0.4,0,0.6-0.1c0.3,0,0.6,0,0.8,0c0.3,0,0.5,0,0.8,0
		c0.4,0,0.8,0,1.1,0.1s0.6,0.1,0.8,0.2c0.2,0.1,0.4,0.2,0.6,0.4s0.3,0.3,0.3,0.6c0.1,0.2,0.1,0.4,0.1,0.6c0,0.2,0,0.4,0,0.7v4.8
		H549.9z M545.8,425.7v-4.3h1.7v4.3H545.8z"/>
	<path class="st2" d="M553.3,423.3v-4.8h1.7v3.5l-1,1.3H553.3z"/>
	<path class="st2" d="M556.9,425.8c-0.1,0-0.2,0-0.3,0c-0.1,0-0.2,0-0.4-0.1l0.2-1.5c0.1,0,0.2,0,0.4,0.1s0.2,0,0.4,0
		c0.3,0,0.5,0,0.7-0.1c0.2-0.1,0.4-0.2,0.5-0.4c0.1-0.1,0.2-0.3,0.2-0.5c0.1-0.2,0.1-0.4,0.1-0.6v-2.2c0-0.3,0-0.5-0.1-0.6
		c-0.1-0.1-0.2-0.2-0.4-0.2c-0.2,0-0.3,0-0.5,0s-0.3,0.1-0.5,0.1v-1.4c0.4-0.1,0.8-0.1,1.2-0.1c0.4,0,0.7,0,0.9,0.1
		c0.2,0.1,0.4,0.2,0.6,0.3c0.2,0.2,0.4,0.4,0.5,0.7c0.1,0.3,0.1,0.6,0.1,1v5.3H559l-0.3-1.1h-0.1c-0.1,0.1-0.1,0.2-0.3,0.4
		s-0.2,0.3-0.3,0.3c-0.1,0.1-0.3,0.2-0.5,0.3C557.4,425.8,557.2,425.8,556.9,425.8z"/>
	<path class="st2" d="M562.1,425.7v-7.3h1.7v7.3H562.1z"/>
	<path class="st2" d="M567.3,425.7l0.6-2.8l0.9-3.2h-3.7V417h1.7v1.5h3.7v1.1l-1,3.4l-0.6,2.8H567.3z"/>
	<path class="st2" d="M571.9,425.7v-7.3h1.7v7.3H571.9z"/>
	<path class="st2" d="M575,425.7v-1.3h2c0-0.1,0.1-0.3,0.1-0.4c0-0.1,0-0.3,0-0.4v-3c0-0.1,0-0.3,0-0.4c0-0.1-0.1-0.2-0.2-0.3
		c-0.1-0.1-0.1-0.1-0.2-0.1c-0.1,0-0.2,0-0.3,0c-0.1,0-0.3,0-0.4,0c-0.1,0-0.3,0-0.5,0.1v-1.4c0.1,0,0.3-0.1,0.5-0.1
		c0.2,0,0.4,0,0.6,0c0.4,0,0.7,0,0.9,0.1c0.2,0.1,0.4,0.2,0.6,0.3s0.3,0.3,0.4,0.4c0.1,0.2,0.2,0.4,0.2,0.5c0,0.1,0.1,0.3,0.1,0.4
		s0,0.3,0,0.5v3c0,0.2,0,0.4,0,0.7s0,0.5-0.1,0.7s-0.1,0.4-0.1,0.5l-0.1,0.3H575z"/>
	<path class="st2" d="M581.9,425.8c-0.4,0-0.8,0-1.2,0c-0.3,0-0.7-0.1-0.9-0.1v-1.4c0.2,0,0.4,0.1,0.6,0.1s0.4,0,0.7,0.1
		s0.5,0,0.7,0c0.2,0,0.4,0,0.5-0.1c0.1-0.1,0.3-0.1,0.4-0.2c0.1-0.1,0.2-0.2,0.2-0.3c0.1-0.1,0.1-0.2,0.2-0.3c0-0.1,0.1-0.3,0.1-0.4
		c0-0.2,0-0.3,0-0.5v-1c0-0.3,0-0.6-0.1-0.8c-0.1-0.3-0.1-0.5-0.3-0.6c-0.1-0.2-0.3-0.3-0.5-0.4c-0.2-0.1-0.5-0.1-0.7-0.1
		c-0.2,0-0.5,0-0.7,0c-0.2,0-0.5,0-0.8,0.1c0,0-0.1,0-0.1,0c0,0-0.1,0-0.1,0v-1.4c0.1,0,0.2,0,0.4-0.1c0.1,0,0.3,0,0.4,0
		c0.2,0,0.4,0,0.6,0c0.2,0,0.5,0,0.7,0c0.4,0,0.8,0.1,1.2,0.2c0.4,0.1,0.6,0.3,0.9,0.5c0.1,0.1,0.2,0.2,0.3,0.3
		c0.1,0.1,0.2,0.3,0.2,0.4c0.1,0.2,0.2,0.4,0.2,0.6c0.1,0.2,0.1,0.4,0.1,0.6c0,0.2,0,0.4,0,0.7v1c0,0.3,0,0.7-0.1,0.9
		c0,0.3-0.1,0.6-0.3,0.8c-0.1,0.3-0.3,0.5-0.4,0.7c-0.2,0.2-0.4,0.3-0.7,0.5c-0.2,0.1-0.4,0.2-0.7,0.3
		C582.4,425.8,582.2,425.8,581.9,425.8z"/>
	<path class="st2" d="M589.2,425.8c-0.3,0-0.5,0-0.8-0.1c-0.3,0-0.5-0.1-0.7-0.2c-0.2-0.1-0.3-0.2-0.5-0.4c-0.2-0.1-0.3-0.3-0.5-0.6
		c-0.2-0.3-0.3-0.7-0.4-1.1c-0.1-0.4-0.1-0.9-0.1-1.5v-3.6h1.7v3.6c0,0.5,0,0.9,0.1,1.2c0.1,0.3,0.2,0.6,0.3,0.8
		c0.1,0.1,0.2,0.3,0.4,0.3c0.2,0.1,0.3,0.1,0.5,0.1c0.2,0,0.4,0,0.6-0.1c0.2-0.1,0.3-0.2,0.4-0.4c0.1-0.2,0.2-0.5,0.3-0.8
		c0.1-0.3,0.1-0.7,0.1-1.1c0-0.4,0-0.8-0.1-1.1s-0.1-0.6-0.3-0.8c-0.1-0.2-0.2-0.3-0.4-0.4c-0.2-0.1-0.4-0.1-0.6-0.1
		c-0.1,0-0.1,0-0.2,0c-0.1,0-0.1,0-0.2,0v-1.3c0.1,0,0.3,0,0.4,0c0.1,0,0.3,0,0.4,0c0.3,0,0.5,0,0.8,0.1c0.3,0.1,0.5,0.2,0.7,0.3
		c0.1,0.1,0.3,0.2,0.4,0.4s0.2,0.3,0.3,0.5c0.1,0.3,0.2,0.6,0.3,1c0.1,0.4,0.1,0.9,0.1,1.4c0,0.4,0,0.7-0.1,1c0,0.3-0.1,0.6-0.2,0.9
		c-0.1,0.3-0.3,0.7-0.5,0.9c-0.2,0.3-0.4,0.5-0.7,0.6c-0.2,0.1-0.5,0.2-0.7,0.3C589.8,425.8,589.5,425.8,589.2,425.8z"/>
	<path class="st2" d="M593.7,425.7v-7.3h1.7v7.3H593.7z"/>
</g>
<circle class="st0" cx="223.5" cy="178.7" r="79.6"/>
<g>
	<path class="st2" d="M176.4,179.6v-4.8h1.7v3.5l-1,1.3H176.4z"/>
	<path class="st2" d="M182.2,182.1v-4.7c0-0.2,0-0.3,0.1-0.4s0.1-0.3,0.1-0.4c0.1-0.1,0.1-0.2,0.2-0.3c0.1-0.1,0.1-0.1,0.2-0.2h-3.7
		v-1.3h5.8v1.2c-0.2,0.1-0.3,0.1-0.5,0.2c-0.1,0.1-0.2,0.2-0.3,0.3c-0.2,0.2-0.2,0.5-0.2,0.9v4.6H182.2z"/>
	<path class="st2" d="M186.1,182.1v-7.3h1.7v7.3H186.1z"/>
	<path class="st2" d="M193.7,182.1v-4.8c0-0.3-0.1-0.5-0.2-0.7s-0.3-0.3-0.5-0.4c-0.1,0-0.2-0.1-0.3-0.1c-0.1,0-0.3,0-0.4,0
		c-0.3,0-0.7,0-1.1,0c-0.4,0-0.9,0.1-1.5,0.1v-1.3c0.2,0,0.4-0.1,0.6-0.1c0.2,0,0.4,0,0.6-0.1c0.3,0,0.6,0,0.8,0c0.3,0,0.5,0,0.8,0
		c0.4,0,0.8,0,1.1,0.1s0.6,0.1,0.8,0.2c0.2,0.1,0.4,0.2,0.6,0.4s0.3,0.3,0.3,0.6c0.1,0.2,0.1,0.4,0.1,0.6c0,0.2,0,0.4,0,0.7v4.8
		H193.7z M189.7,182.1v-4.3h1.7v4.3H189.7z"/>
	<path class="st2" d="M197.1,179.6v-4.8h1.7v3.5l-1,1.3H197.1z"/>
	<path class="st2" d="M204.6,182.1v-4.8c0-0.3-0.1-0.5-0.2-0.7s-0.3-0.3-0.5-0.4c-0.1,0-0.2-0.1-0.3-0.1c-0.1,0-0.3,0-0.4,0
		c-0.3,0-0.7,0-1.1,0c-0.4,0-0.9,0.1-1.5,0.1v-1.3c0.2,0,0.4-0.1,0.6-0.1c0.2,0,0.4,0,0.6-0.1c0.3,0,0.6,0,0.8,0c0.3,0,0.5,0,0.8,0
		c0.4,0,0.8,0,1.1,0.1s0.6,0.1,0.8,0.2c0.2,0.1,0.4,0.2,0.6,0.4s0.3,0.3,0.3,0.6c0.1,0.2,0.1,0.4,0.1,0.6c0,0.2,0,0.4,0,0.7v4.8
		H204.6z M200.6,182.1v-4.3h1.7v4.3H200.6z"/>
	<path class="st2" d="M211.1,182.1v-7.2c0.1,0,0.2,0,0.4-0.1c0.1,0,0.3,0,0.5,0c0.3,0,0.7-0.1,1-0.1c0.3,0,0.6,0,1,0
		c0.5,0,0.9,0,1.2,0.1c0.3,0.1,0.6,0.1,0.8,0.3c0.2,0.1,0.3,0.2,0.5,0.3s0.2,0.3,0.3,0.5c0.1,0.2,0.1,0.3,0.2,0.5
		c0,0.2,0.1,0.4,0.1,0.6v5.1H211.1z M212.8,180.8h2.4V177c0-0.2,0-0.3-0.1-0.4c0-0.1-0.1-0.2-0.2-0.3c-0.1-0.1-0.1-0.1-0.2-0.1
		s-0.2-0.1-0.3-0.1c-0.1,0-0.2,0-0.3,0c-0.1,0-0.2,0-0.4,0c-0.1,0-0.3,0-0.4,0c-0.2,0-0.3,0-0.5,0V180.8z"/>
	<path class="st2" d="M218.2,182.5v-1.4l1.3-0.2c0.1,0,0.2,0,0.3-0.1c0.1,0,0.2,0,0.3-0.1l-1.6-6h1.7l0.9,3.2l0.5,2.2
		c0.2-0.1,0.4-0.3,0.5-0.5c0.1-0.2,0.3-0.5,0.4-0.7c0.1-0.3,0.2-0.6,0.2-0.9l0.3-3.3h1.7l-0.3,3.2c0,0.3-0.1,0.5-0.1,0.7
		c-0.1,0.2-0.1,0.4-0.2,0.6c-0.1,0.2-0.2,0.4-0.3,0.6c-0.3,0.6-0.7,1.1-1.3,1.4c-0.6,0.4-1.2,0.6-2.1,0.7c-0.4,0.1-0.8,0.1-1.1,0.2
		S218.5,182.4,218.2,182.5z"/>
	<path class="st2" d="M230.1,182.1v-4.8c0-0.3-0.1-0.5-0.2-0.7s-0.3-0.3-0.5-0.4c-0.1,0-0.2-0.1-0.3-0.1c-0.1,0-0.3,0-0.4,0
		c-0.3,0-0.7,0-1.1,0c-0.4,0-0.9,0.1-1.5,0.1v-1.3c0.2,0,0.4-0.1,0.6-0.1c0.2,0,0.4,0,0.6-0.1c0.3,0,0.6,0,0.8,0c0.3,0,0.5,0,0.8,0
		c0.4,0,0.8,0,1.1,0.1s0.6,0.1,0.8,0.2c0.2,0.1,0.4,0.2,0.6,0.4s0.3,0.3,0.3,0.6c0.1,0.2,0.1,0.4,0.1,0.6c0,0.2,0,0.4,0,0.7v4.8
		H230.1z M226,182.1v-4.3h1.7v4.3H226z"/>
	<path class="st2" d="M236.9,182.2c-0.1,0-0.3,0-0.4,0c-0.1,0-0.3-0.1-0.4-0.1v-1.2c0.2,0,0.4,0.1,0.6,0.1c0.2,0,0.4-0.1,0.5-0.2
		s0.1-0.3,0.1-0.6v-3.9c-0.1,0-0.3,0-0.4,0c-0.1,0-0.3,0-0.4,0v-1.3c0.4,0,0.8-0.1,1.2-0.1c0.4,0,0.7,0,1.1-0.1s0.7,0,1,0
		c0.4,0,0.7,0,0.9,0c0.3,0,0.5,0.1,0.7,0.1c0.2,0.1,0.4,0.1,0.5,0.2c0.2,0.1,0.3,0.2,0.4,0.4c0.1,0.1,0.2,0.3,0.3,0.5
		c0.1,0.1,0.1,0.3,0.1,0.5s0,0.4,0,0.6v4.9H241v-4.8c0-0.3-0.1-0.6-0.2-0.8s-0.3-0.3-0.6-0.4c-0.2,0-0.4-0.1-0.6-0.1
		c-0.1,0-0.2,0-0.3,0s-0.2,0-0.3,0v4c0,0.3,0,0.5-0.1,0.7s-0.1,0.4-0.2,0.6c-0.1,0.2-0.2,0.4-0.4,0.5c-0.2,0.1-0.4,0.2-0.6,0.3
		C237.4,182.1,237.2,182.2,236.9,182.2z"/>
	<path class="st2" d="M244.6,182.1v-7.3h1.7v7.3H244.6z"/>
	<path class="st2" d="M250.5,182.1v-4.7c0-0.2,0-0.3,0.1-0.4s0.1-0.3,0.1-0.4c0.1-0.1,0.1-0.2,0.2-0.3c0.1-0.1,0.1-0.1,0.2-0.2h-3.7
		v-1.3h5.8v1.2c-0.2,0.1-0.3,0.1-0.5,0.2c-0.1,0.1-0.2,0.2-0.3,0.3c-0.2,0.2-0.2,0.5-0.2,0.9v4.6H250.5z"/>
	<path class="st2" d="M256.1,182.1l0.6-2.8l0.9-3.2h-3.7v-2.8h1.7v1.5h3.7v1.1l-1,3.4l-0.6,2.8H256.1z"/>
	<path class="st2" d="M260.7,182.1v-7.3h1.7v7.3H260.7z"/>
	<path class="st2" d="M264.5,182.2c-0.1,0-0.3,0-0.4,0c-0.1,0-0.3-0.1-0.4-0.1v-1.2c0.2,0,0.4,0.1,0.6,0.1c0.2,0,0.4-0.1,0.5-0.2
		s0.1-0.3,0.1-0.6v-3.9c-0.1,0-0.3,0-0.4,0c-0.1,0-0.3,0-0.4,0v-1.3c0.4,0,0.8-0.1,1.2-0.1c0.4,0,0.7,0,1.1-0.1s0.7,0,1,0
		c0.4,0,0.7,0,0.9,0c0.3,0,0.5,0.1,0.7,0.1c0.2,0.1,0.4,0.1,0.5,0.2c0.2,0.1,0.3,0.2,0.4,0.4c0.1,0.1,0.2,0.3,0.3,0.5
		c0.1,0.1,0.1,0.3,0.1,0.5s0,0.4,0,0.6v4.9h-1.7v-4.8c0-0.3-0.1-0.6-0.2-0.8s-0.3-0.3-0.6-0.4c-0.2,0-0.4-0.1-0.6-0.1
		c-0.1,0-0.2,0-0.3,0s-0.2,0-0.3,0v4c0,0.3,0,0.5-0.1,0.7s-0.1,0.4-0.2,0.6c-0.1,0.2-0.2,0.4-0.4,0.5c-0.2,0.1-0.4,0.2-0.6,0.3
		C265.1,182.1,264.9,182.2,264.5,182.2z"/>
</g>
<circle class="st0" cx="224.8" cy="483.4" r="79.6"/>
<g>
	<path class="st2" d="M211.7,486.8c-0.1,0-0.3,0-0.4,0c-0.1,0-0.3-0.1-0.4-0.1v-1.2c0.2,0,0.4,0.1,0.6,0.1c0.2,0,0.4-0.1,0.5-0.2
		s0.1-0.3,0.1-0.6v-3.9c-0.1,0-0.3,0-0.4,0c-0.1,0-0.3,0-0.4,0v-1.3c0.4,0,0.8-0.1,1.2-0.1c0.4,0,0.7,0,1.1-0.1s0.7,0,1,0
		c0.4,0,0.7,0,0.9,0c0.3,0,0.5,0.1,0.7,0.1c0.2,0.1,0.4,0.1,0.5,0.2c0.2,0.1,0.3,0.2,0.4,0.4c0.1,0.1,0.2,0.3,0.3,0.5
		c0.1,0.1,0.1,0.3,0.1,0.5s0,0.4,0,0.6v4.9h-1.7v-4.8c0-0.3-0.1-0.6-0.2-0.8s-0.3-0.3-0.6-0.4c-0.2,0-0.4-0.1-0.6-0.1
		c-0.1,0-0.2,0-0.3,0s-0.2,0-0.3,0v4c0,0.3,0,0.5-0.1,0.7s-0.1,0.4-0.2,0.6c-0.1,0.2-0.2,0.4-0.4,0.5c-0.2,0.1-0.4,0.2-0.6,0.3
		C212.3,486.8,212,486.8,211.7,486.8z"/>
	<path class="st2" d="M219.4,486.8v-7.3h1.7v7.3H219.4z"/>
	<path class="st2" d="M225.3,486.8v-4.7c0-0.2,0-0.3,0.1-0.4s0.1-0.3,0.1-0.4c0.1-0.1,0.1-0.2,0.2-0.3c0.1-0.1,0.1-0.1,0.2-0.2h-3.7
		v-1.3h5.8v1.2c-0.2,0.1-0.3,0.1-0.5,0.2c-0.1,0.1-0.2,0.2-0.3,0.3c-0.2,0.2-0.2,0.5-0.2,0.9v4.6H225.3z"/>
	<path class="st2" d="M233.3,486.8v-4.8c0-0.3-0.1-0.5-0.2-0.7s-0.3-0.3-0.5-0.4c-0.1,0-0.2-0.1-0.3-0.1c-0.1,0-0.3,0-0.4,0
		c-0.3,0-0.7,0-1.1,0c-0.4,0-0.9,0.1-1.5,0.1v-1.3c0.2,0,0.4-0.1,0.6-0.1c0.2,0,0.4,0,0.6-0.1c0.3,0,0.6,0,0.8,0c0.3,0,0.5,0,0.8,0
		c0.4,0,0.8,0,1.1,0.1s0.6,0.1,0.8,0.2c0.2,0.1,0.4,0.2,0.6,0.4s0.3,0.3,0.3,0.6c0.1,0.2,0.1,0.4,0.1,0.6c0,0.2,0,0.4,0,0.7v4.8
		H233.3z M229.2,486.8v-4.3h1.7v4.3H229.2z"/>
	<path class="st2" d="M236.7,484.3v-4.8h1.7v3.5l-1,1.3H236.7z"/>
</g>
<circle class="st0" cx="731.3" cy="516.6" r="44.3"/>
<g>
	<path class="st2" d="M704.9,519.6v-7.2c0.1,0,0.2,0,0.4-0.1c0.1,0,0.3,0,0.5,0c0.3,0,0.7-0.1,1-0.1c0.3,0,0.6,0,1,0
		c0.5,0,0.9,0,1.2,0.1c0.3,0.1,0.6,0.1,0.8,0.3c0.2,0.1,0.3,0.2,0.5,0.3c0.1,0.1,0.2,0.3,0.3,0.5c0.1,0.2,0.1,0.3,0.2,0.5
		c0,0.2,0,0.4,0,0.6v5.1H704.9z M706.6,518.2h2.4v-3.8c0-0.2,0-0.3-0.1-0.4c0-0.1-0.1-0.2-0.2-0.3c-0.1-0.1-0.1-0.1-0.2-0.1
		s-0.2-0.1-0.3-0.1c-0.1,0-0.2,0-0.3,0c-0.1,0-0.2,0-0.4,0c-0.1,0-0.3,0-0.4,0c-0.2,0-0.3,0-0.5,0V518.2z"/>
	<path class="st2" d="M712.4,517.1v-4.8h1.7v3.5l-1,1.3H712.4z"/>
	<path class="st2" d="M718.8,519.7c-0.3,0-0.5,0-0.8-0.1c-0.3,0-0.5-0.1-0.7-0.2c-0.2-0.1-0.3-0.2-0.5-0.4c-0.2-0.1-0.3-0.3-0.5-0.6
		c-0.2-0.3-0.3-0.7-0.4-1.1c-0.1-0.4-0.1-0.9-0.1-1.5v-3.6h1.7v3.6c0,0.5,0,0.9,0.1,1.2c0.1,0.3,0.2,0.6,0.3,0.8
		c0.1,0.1,0.2,0.3,0.4,0.3c0.2,0.1,0.3,0.1,0.5,0.1c0.2,0,0.4,0,0.6-0.1c0.2-0.1,0.3-0.2,0.4-0.4c0.1-0.2,0.2-0.5,0.3-0.8
		c0.1-0.3,0.1-0.7,0.1-1.1c0-0.4,0-0.8-0.1-1.1s-0.1-0.6-0.3-0.8c-0.1-0.2-0.2-0.3-0.4-0.4c-0.2-0.1-0.4-0.1-0.6-0.1
		c-0.1,0-0.1,0-0.2,0c-0.1,0-0.1,0-0.2,0v-1.3c0.1,0,0.3,0,0.4,0c0.1,0,0.3,0,0.4,0c0.3,0,0.5,0,0.8,0.1c0.3,0.1,0.5,0.2,0.7,0.3
		c0.1,0.1,0.3,0.2,0.4,0.4s0.2,0.3,0.3,0.5c0.1,0.3,0.2,0.6,0.3,1c0.1,0.4,0.1,0.9,0.1,1.4c0,0.4,0,0.7-0.1,1c0,0.3-0.1,0.6-0.2,0.9
		c-0.1,0.3-0.3,0.7-0.5,0.9c-0.2,0.3-0.4,0.5-0.7,0.6c-0.2,0.1-0.5,0.2-0.7,0.3C719.4,519.6,719.1,519.7,718.8,519.7z"/>
	<path class="st2" d="M726.2,519.6c0,0,0-0.1,0-0.1c0,0,0-0.1,0-0.1c0-0.2,0-0.4,0.1-0.7c0-0.3,0.1-0.6,0.2-0.9
		c0-0.1,0.1-0.3,0.1-0.4c0-0.1,0.1-0.3,0.1-0.4s0.1-0.3,0.1-0.4l1-2.9h-4.5v-1.3h6.3v1l-1.1,3.2c0,0.1-0.1,0.3-0.1,0.4
		s-0.1,0.3-0.1,0.5c0,0.2-0.1,0.3-0.1,0.4c0,0.1-0.1,0.2-0.1,0.4s-0.1,0.3-0.1,0.4s0,0.3-0.1,0.4c0,0.1,0,0.2,0,0.3v0.3H726.2z
		 M723.3,522.3v-7.1h1.7v7.1H723.3z"/>
	<path class="st2" d="M730.6,517.1v-4.8h1.7v3.5l-1,1.3H730.6z"/>
	<path class="st2" d="M735.7,519.6l0.6-2.8l0.9-3.2h-3.7v-2.8h1.7v1.5h3.7v1.1l-1,3.4l-0.6,2.8H735.7z"/>
	<path class="st2" d="M742.9,519.7c-0.3,0-0.5,0-0.8,0c-0.3,0-0.5,0-0.7,0c-0.2,0-0.4,0-0.5-0.1l-0.3,0v-1.3c0.4,0,0.8,0.1,1.2,0.1
		c0.4,0,0.8,0,1.2,0c0.2,0,0.4,0,0.5-0.1s0.3-0.1,0.4-0.2c0.1-0.1,0.2-0.3,0.3-0.5s0.1-0.4,0.1-0.6c0-0.2,0-0.4,0-0.5s0-0.3,0-0.5
		c0-0.2,0-0.4,0-0.6c0-0.2,0-0.4-0.1-0.6c0-0.2-0.1-0.4-0.2-0.6c-0.1-0.2-0.2-0.3-0.3-0.4c-0.1-0.1-0.2-0.1-0.3-0.2
		c-0.1,0-0.2-0.1-0.3-0.1c-0.2,0-0.4,0-0.6,0.1c-0.2,0.1-0.3,0.1-0.4,0.2c-0.1,0.1-0.2,0.2-0.3,0.4c-0.1,0.2-0.1,0.3-0.1,0.5
		c0,0.2,0,0.4,0.1,0.5c0.1,0.2,0.2,0.3,0.3,0.4c0.1,0.1,0.2,0.1,0.3,0.2s0.2,0.1,0.3,0.1l0.3,0.1l-0.3,1.2l-0.4,0
		c-0.2,0-0.4,0-0.6-0.1s-0.4-0.1-0.5-0.2c-0.2-0.1-0.3-0.2-0.5-0.3s-0.3-0.2-0.3-0.4c-0.1-0.2-0.2-0.4-0.3-0.7
		c-0.1-0.2-0.1-0.5-0.1-0.8c0-0.4,0.1-0.8,0.2-1.1s0.3-0.6,0.5-0.8c0.3-0.3,0.6-0.5,1-0.6c0.4-0.1,0.8-0.2,1.2-0.2
		c0.3,0,0.7,0,1,0.1c0.3,0.1,0.6,0.2,0.8,0.3c0.2,0.1,0.3,0.3,0.5,0.4c0.2,0.2,0.3,0.4,0.4,0.6c0.1,0.3,0.2,0.6,0.3,1
		c0.1,0.4,0.1,0.8,0.1,1.2c0,0.6-0.1,1.1-0.2,1.5c-0.1,0.4-0.2,0.8-0.4,1.1c-0.2,0.3-0.4,0.5-0.6,0.6s-0.5,0.3-0.7,0.4
		c-0.2,0.1-0.3,0.1-0.5,0.1C743.3,519.7,743.1,519.7,742.9,519.7z"/>
	<path class="st2" d="M747,519.6v-1.3h2c0-0.1,0.1-0.3,0.1-0.4c0-0.1,0-0.3,0-0.4v-3c0-0.1,0-0.3,0-0.4c0-0.1-0.1-0.2-0.2-0.3
		c-0.1-0.1-0.1-0.1-0.2-0.1c-0.1,0-0.2,0-0.3,0c-0.1,0-0.3,0-0.4,0c-0.1,0-0.3,0-0.5,0.1v-1.4c0.1,0,0.3-0.1,0.5-0.1
		c0.2,0,0.4,0,0.6,0c0.4,0,0.7,0,0.9,0.1c0.2,0.1,0.4,0.2,0.6,0.3s0.3,0.3,0.4,0.4c0.1,0.2,0.2,0.4,0.2,0.5c0,0.1,0.1,0.3,0.1,0.4
		s0,0.3,0,0.5v3c0,0.2,0,0.4,0,0.7s0,0.5-0.1,0.7s-0.1,0.4-0.1,0.5l-0.1,0.3H747z"/>
	<path class="st2" d="M752.4,519.6v-7.3h1.7v7.3H752.4z"/>
	<path class="st2" d="M758.8,519.6c0,0,0-0.1,0-0.1c0,0,0-0.1,0-0.1c0-0.2,0-0.4,0.1-0.7c0-0.3,0.1-0.6,0.2-0.9
		c0-0.1,0.1-0.3,0.1-0.4c0-0.1,0.1-0.3,0.1-0.4s0.1-0.3,0.1-0.4l1-2.9h-4.5v-1.3h6.3v1l-1.1,3.2c0,0.1-0.1,0.3-0.1,0.4
		s-0.1,0.3-0.1,0.5c0,0.2-0.1,0.3-0.1,0.4c0,0.1-0.1,0.2-0.1,0.4s-0.1,0.3-0.1,0.4s0,0.3-0.1,0.4c0,0.1,0,0.2,0,0.3v0.3H758.8z
		 M755.9,522.3v-7.1h1.7v7.1H755.9z"/>
	<path class="st2" d="M710.5,533.5c-0.1,0-0.3,0-0.4,0c-0.1,0-0.3-0.1-0.4-0.1V532c0.2,0,0.4,0.1,0.6,0.1c0.2,0,0.4-0.1,0.5-0.2
		c0.1-0.1,0.1-0.3,0.1-0.6v-3.9c-0.1,0-0.3,0-0.4,0c-0.1,0-0.3,0-0.4,0v-1.3c0.4,0,0.8-0.1,1.2-0.1c0.4,0,0.7,0,1.1-0.1
		c0.3,0,0.7,0,1,0c0.4,0,0.7,0,0.9,0c0.3,0,0.5,0.1,0.7,0.1c0.2,0.1,0.4,0.1,0.5,0.2c0.2,0.1,0.3,0.2,0.4,0.4s0.2,0.3,0.3,0.5
		c0.1,0.1,0.1,0.3,0.1,0.5s0,0.4,0,0.6v4.9h-1.7v-4.8c0-0.3-0.1-0.6-0.2-0.8c-0.1-0.2-0.3-0.3-0.6-0.4c-0.2,0-0.4-0.1-0.6-0.1
		c-0.1,0-0.2,0-0.3,0c-0.1,0-0.2,0-0.3,0v4c0,0.3,0,0.5-0.1,0.7c0,0.2-0.1,0.4-0.2,0.6c-0.1,0.2-0.2,0.4-0.4,0.5
		c-0.2,0.1-0.4,0.2-0.6,0.3S710.8,533.5,710.5,533.5z"/>
	<path class="st2" d="M718.3,533.4v-7.3h1.7v7.3H718.3z"/>
	<path class="st2" d="M721.5,533.4l0.5-4.9c0-0.1,0-0.2,0-0.3s0-0.2,0-0.3c0-0.1,0-0.3,0-0.4c0-0.1,0-0.3-0.1-0.4
		c0-0.1,0-0.1-0.1-0.2s0-0.2-0.1-0.3s0-0.2-0.1-0.2c0,0,0-0.1,0-0.1c0,0,0-0.1-0.1-0.1h1.5c0.1,0.1,0.1,0.2,0.2,0.4
		c0,0.1,0.1,0.3,0.1,0.4h0.1c0.1-0.1,0.2-0.2,0.3-0.3c0.2-0.1,0.3-0.2,0.4-0.3c0.1-0.1,0.3-0.1,0.6-0.2c0.2-0.1,0.5-0.1,0.8-0.1
		c0.3,0,0.6,0,0.8,0.1c0.2,0.1,0.5,0.2,0.6,0.4c0.1,0.1,0.2,0.2,0.3,0.3c0.1,0.1,0.1,0.2,0.2,0.4c0.1,0.2,0.2,0.5,0.2,0.8
		c0.1,0.3,0.1,0.6,0.1,1v4.4h-3.1v-1.3h1.4v-3c0-0.2,0-0.4,0-0.6c0-0.2-0.1-0.3-0.1-0.4c0-0.1-0.1-0.2-0.2-0.3s-0.2-0.2-0.3-0.2
		c-0.1-0.1-0.3-0.1-0.4-0.1c-0.2,0-0.4,0-0.5,0.1c-0.2,0.1-0.3,0.1-0.4,0.2c-0.1,0.1-0.2,0.2-0.3,0.3s-0.1,0.2-0.2,0.3l-0.5,5.2
		H721.5z"/>
	<path class="st2" d="M729.7,533.4v-7.2c0.1,0,0.3,0,0.4-0.1c0.1,0,0.3,0,0.5,0c0.3,0,0.6-0.1,1-0.1c0.3,0,0.6,0,1,0
		c0.4,0,0.8,0,1.1,0.1s0.6,0.1,0.8,0.2c0.2,0.1,0.4,0.2,0.6,0.4c0.1,0.1,0.3,0.3,0.3,0.6c0.1,0.2,0.1,0.4,0.1,0.6c0,0.2,0,0.4,0,0.7
		v4.8h-1.7v-4.8c0-0.3-0.1-0.6-0.2-0.8s-0.4-0.3-0.6-0.4c-0.1,0-0.2,0-0.3,0c-0.1,0-0.2,0-0.3,0c-0.1,0-0.3,0-0.4,0
		c-0.2,0-0.3,0-0.5,0v6H729.7z"/>
	<path class="st2" d="M739,533.4l0.6-2.8l0.9-3.2h-3.7v-2.8h1.7v1.5h3.7v1.1l-1,3.4l-0.6,2.8H739z"/>
	<path class="st2" d="M743.2,533.4l0.5-4.9c0-0.1,0-0.2,0-0.3s0-0.2,0-0.3c0-0.1,0-0.3,0-0.4c0-0.1,0-0.3-0.1-0.4
		c0-0.1,0-0.1-0.1-0.2s0-0.2-0.1-0.3s0-0.2-0.1-0.2c0,0,0-0.1,0-0.1c0,0,0-0.1-0.1-0.1h1.5c0.1,0.1,0.1,0.2,0.2,0.4
		c0,0.1,0.1,0.3,0.1,0.4h0.1c0.1-0.1,0.2-0.2,0.3-0.3c0.2-0.1,0.3-0.2,0.4-0.3c0.1-0.1,0.3-0.1,0.6-0.2c0.2-0.1,0.5-0.1,0.8-0.1
		c0.3,0,0.6,0,0.8,0.1c0.2,0.1,0.5,0.2,0.6,0.4c0.1,0.1,0.2,0.2,0.3,0.3c0.1,0.1,0.1,0.2,0.2,0.4c0.1,0.2,0.2,0.5,0.2,0.8
		c0.1,0.3,0.1,0.6,0.1,1v4.4h-3.1v-1.3h1.4v-3c0-0.2,0-0.4,0-0.6c0-0.2-0.1-0.3-0.1-0.4c0-0.1-0.1-0.2-0.2-0.3s-0.2-0.2-0.3-0.2
		c-0.1-0.1-0.3-0.1-0.4-0.1c-0.2,0-0.4,0-0.5,0.1c-0.2,0.1-0.3,0.1-0.4,0.2c-0.1,0.1-0.2,0.2-0.3,0.3s-0.1,0.2-0.2,0.3l-0.5,5.2
		H743.2z"/>
	<path class="st2" d="M751.5,533.4v-7.3h1.7v7.3H751.5z"/>
</g>
<circle class="st0" cx="759.4" cy="202" r="55.2"/>
<g>
	<path class="st2" d="M722.2,204.9v-7.2c0.1,0,0.2,0,0.4-0.1c0.1,0,0.3,0,0.5,0c0.3,0,0.7-0.1,1-0.1c0.3,0,0.6,0,1,0
		c0.5,0,0.9,0,1.2,0.1c0.3,0.1,0.6,0.1,0.8,0.3c0.2,0.1,0.3,0.2,0.5,0.3c0.1,0.1,0.2,0.3,0.3,0.5c0.1,0.2,0.1,0.3,0.2,0.5
		c0,0.2,0,0.4,0,0.6v5.1H722.2z M723.9,203.6h2.4v-3.8c0-0.2,0-0.3-0.1-0.4c0-0.1-0.1-0.2-0.2-0.3c-0.1-0.1-0.1-0.1-0.2-0.1
		s-0.2-0.1-0.3-0.1c-0.1,0-0.2,0-0.3,0c-0.1,0-0.2,0-0.4,0c-0.1,0-0.3,0-0.4,0c-0.2,0-0.3,0-0.5,0V203.6z"/>
	<path class="st2" d="M729.7,202.5v-4.8h1.7v3.5l-1,1.3H729.7z"/>
	<path class="st2" d="M733.3,205c-0.1,0-0.2,0-0.3,0c-0.1,0-0.2,0-0.4-0.1l0.2-1.5c0.1,0,0.2,0,0.4,0.1s0.2,0,0.4,0
		c0.3,0,0.5,0,0.7-0.1c0.2-0.1,0.4-0.2,0.5-0.4c0.1-0.1,0.2-0.3,0.2-0.5c0.1-0.2,0.1-0.4,0.1-0.6v-2.2c0-0.3,0-0.5-0.1-0.6
		c-0.1-0.1-0.2-0.2-0.4-0.2c-0.2,0-0.3,0-0.5,0s-0.3,0.1-0.5,0.1v-1.4c0.4-0.1,0.8-0.1,1.2-0.1c0.4,0,0.7,0,0.9,0.1
		c0.2,0.1,0.4,0.2,0.6,0.3c0.2,0.2,0.4,0.4,0.5,0.7c0.1,0.3,0.1,0.6,0.1,1v5.3h-1.3l-0.3-1.1H735c-0.1,0.1-0.1,0.2-0.3,0.4
		s-0.2,0.3-0.3,0.3c-0.1,0.1-0.3,0.2-0.5,0.3C733.7,205,733.5,205,733.3,205z"/>
	<path class="st2" d="M738.3,202.5v-4.8h1.7v3.5l-1,1.3H738.3z"/>
	<path class="st2" d="M745.8,204.9v-4.8c0-0.3-0.1-0.5-0.2-0.7s-0.3-0.3-0.5-0.4c-0.1,0-0.2-0.1-0.3-0.1s-0.3,0-0.4,0
		c-0.3,0-0.7,0-1.1,0c-0.4,0-0.9,0.1-1.5,0.1v-1.3c0.2,0,0.4-0.1,0.6-0.1c0.2,0,0.4,0,0.6-0.1c0.3,0,0.6,0,0.8,0c0.3,0,0.5,0,0.8,0
		c0.4,0,0.8,0,1.1,0.1s0.6,0.1,0.8,0.2c0.2,0.1,0.4,0.2,0.6,0.4s0.3,0.3,0.3,0.6c0.1,0.2,0.1,0.4,0.1,0.6c0,0.2,0,0.4,0,0.7v4.8
		H745.8z M741.7,204.9v-4.3h1.7v4.3H741.7z"/>
	<path class="st2" d="M748.9,204.9v-1.3h2c0-0.1,0.1-0.3,0.1-0.4c0-0.1,0-0.3,0-0.4v-3c0-0.1,0-0.3,0-0.4c0-0.1-0.1-0.2-0.2-0.3
		c-0.1-0.1-0.1-0.1-0.2-0.1c-0.1,0-0.2,0-0.3,0c-0.1,0-0.3,0-0.4,0c-0.1,0-0.3,0-0.5,0.1v-1.4c0.1,0,0.3-0.1,0.5-0.1
		c0.2,0,0.4,0,0.6,0c0.4,0,0.7,0,0.9,0.1c0.2,0.1,0.4,0.2,0.6,0.3s0.3,0.3,0.4,0.4c0.1,0.2,0.2,0.4,0.2,0.5c0,0.1,0.1,0.3,0.1,0.4
		s0,0.3,0,0.5v3c0,0.2,0,0.4,0,0.7s0,0.5-0.1,0.7s-0.1,0.4-0.1,0.5l-0.1,0.3H748.9z"/>
	<path class="st2" d="M753.9,204.9l0.5-4.9c0-0.1,0-0.2,0-0.3s0-0.2,0-0.3c0-0.1,0-0.3,0-0.4c0-0.1,0-0.3-0.1-0.4
		c0-0.1,0-0.1-0.1-0.2s0-0.2-0.1-0.3s0-0.2-0.1-0.2c0,0,0-0.1,0-0.1c0,0,0-0.1-0.1-0.1h1.5c0.1,0.1,0.1,0.2,0.2,0.4
		c0,0.1,0.1,0.3,0.1,0.4h0.1c0.1-0.1,0.2-0.2,0.3-0.3c0.2-0.1,0.3-0.2,0.4-0.3c0.1-0.1,0.3-0.1,0.6-0.2c0.2-0.1,0.5-0.1,0.8-0.1
		c0.3,0,0.6,0,0.8,0.1c0.2,0.1,0.5,0.2,0.6,0.4c0.1,0.1,0.2,0.2,0.3,0.3c0.1,0.1,0.1,0.2,0.2,0.4c0.1,0.2,0.2,0.5,0.2,0.8
		c0.1,0.3,0.1,0.6,0.1,1v4.4h-3.1v-1.3h1.4v-3c0-0.2,0-0.4,0-0.6c0-0.2-0.1-0.3-0.1-0.4c0-0.1-0.1-0.2-0.2-0.3s-0.2-0.2-0.3-0.2
		c-0.1-0.1-0.3-0.1-0.4-0.1c-0.2,0-0.4,0-0.5,0.1c-0.2,0.1-0.3,0.1-0.4,0.2c-0.1,0.1-0.2,0.2-0.3,0.3s-0.1,0.2-0.2,0.3l-0.5,5.2
		H753.9z"/>
	<path class="st2" d="M762.2,204.9v-7.3h1.7v7.3H762.2z"/>
	<path class="st2" d="M768.7,204.9v-7.2c0.1,0,0.2,0,0.4-0.1c0.1,0,0.3,0,0.5,0c0.3,0,0.7-0.1,1-0.1c0.3,0,0.6,0,1,0
		c0.5,0,0.9,0,1.2,0.1c0.3,0.1,0.6,0.1,0.8,0.3c0.2,0.1,0.3,0.2,0.5,0.3c0.1,0.1,0.2,0.3,0.3,0.5c0.1,0.2,0.1,0.3,0.2,0.5
		c0,0.2,0,0.4,0,0.6v5.1H768.7z M770.4,203.6h2.4v-3.8c0-0.2,0-0.3-0.1-0.4c0-0.1-0.1-0.2-0.2-0.3c-0.1-0.1-0.1-0.1-0.2-0.1
		s-0.2-0.1-0.3-0.1c-0.1,0-0.2,0-0.3,0c-0.1,0-0.2,0-0.4,0c-0.1,0-0.3,0-0.4,0c-0.2,0-0.3,0-0.5,0V203.6z"/>
	<path class="st2" d="M776.2,202.5v-4.8h1.7v3.5l-1,1.3H776.2z"/>
	<path class="st2" d="M779.9,204.9l-0.6-7.3h1.6l0.3,3.7c0.1,0,0.2-0.1,0.4-0.1c0.1-0.1,0.2-0.1,0.3-0.2c0.1-0.1,0.2-0.3,0.2-0.4
		c0.1-0.2,0.1-0.4,0.1-0.6l0.2-2.3h1.6l-0.2,2.2c0,0.4-0.1,0.8-0.2,1.1c-0.1,0.3-0.3,0.6-0.6,0.9c-0.2,0.2-0.5,0.4-0.7,0.5
		s-0.6,0.2-1,0.2c0,0,0,0,0,0c0,0,0,0,0,0l0.1,1h1.5c0.4,0,0.7-0.1,1.1-0.3c0.3-0.2,0.6-0.5,0.8-0.9c0.2-0.4,0.3-0.9,0.4-1.5
		l0.3-3.2h1.6l-0.3,3.3c0,0.4-0.1,0.8-0.2,1.2c-0.1,0.4-0.2,0.7-0.4,1c-0.2,0.3-0.3,0.5-0.5,0.7c-0.2,0.2-0.4,0.4-0.7,0.6
		c-0.3,0.2-0.7,0.3-1,0.4c-0.4,0.1-0.8,0.1-1.2,0.1H779.9z"/>
	<path class="st2" d="M788.5,202.5v-4.8h1.7v3.5l-1,1.3H788.5z"/>
	<path class="st2" d="M791.7,204.9v-2.6c0-0.2,0-0.4,0-0.5s0-0.3,0.1-0.4s0.1-0.3,0.2-0.4c0.1-0.2,0.2-0.4,0.4-0.5s0.4-0.3,0.7-0.3
		l-1.5-2.5h1.9l2.2,3.6c0,0,0.1-0.1,0.1-0.1c0,0,0-0.1,0.1-0.1c0.1-0.1,0.1-0.2,0.2-0.3c0-0.1,0.1-0.3,0.1-0.5v-2.7h1.7v2.6
		c0,0.3,0,0.5-0.1,0.7c0,0.2-0.1,0.4-0.2,0.6c-0.1,0.2-0.2,0.4-0.4,0.5c-0.2,0.1-0.4,0.3-0.7,0.4l1.5,2.5H796l-2.2-3.7
		c-0.1,0-0.1,0.1-0.2,0.1c-0.1,0.1-0.1,0.2-0.2,0.3c-0.1,0.2-0.1,0.4-0.1,0.6v2.6H791.7z"/>
</g>
<circle class="st0" cx="207" cy="337.6" r="48.6"/>
<g>
	<path class="st2" d="M189.5,340.6c-0.1,0-0.3,0-0.4,0c-0.1,0-0.3-0.1-0.4-0.1v-1.2c0.2,0,0.4,0.1,0.6,0.1c0.2,0,0.4-0.1,0.5-0.2
		s0.1-0.3,0.1-0.6v-3.9c-0.1,0-0.3,0-0.4,0c-0.1,0-0.3,0-0.4,0v-1.3c0.4,0,0.8-0.1,1.2-0.1c0.4,0,0.7,0,1.1-0.1s0.7,0,1,0
		c0.4,0,0.7,0,0.9,0c0.3,0,0.5,0.1,0.7,0.1c0.2,0.1,0.4,0.1,0.5,0.2c0.2,0.1,0.3,0.2,0.4,0.4c0.1,0.1,0.2,0.3,0.3,0.5
		c0.1,0.1,0.1,0.3,0.1,0.5s0,0.4,0,0.6v4.9h-1.7v-4.8c0-0.3-0.1-0.6-0.2-0.8s-0.3-0.3-0.6-0.4c-0.2,0-0.4-0.1-0.6-0.1
		c-0.1,0-0.2,0-0.3,0s-0.2,0-0.3,0v4c0,0.3,0,0.5-0.1,0.7s-0.1,0.4-0.2,0.6c-0.1,0.2-0.2,0.4-0.4,0.5c-0.2,0.1-0.4,0.2-0.6,0.3
		C190.1,340.6,189.8,340.6,189.5,340.6z"/>
	<path class="st2" d="M197.2,340.5v-7.3h1.7v7.3H197.2z"/>
	<path class="st2" d="M200.4,340.5l0.5-4.9c0-0.1,0-0.2,0-0.3s0-0.2,0-0.3c0-0.1,0-0.3,0-0.4c0-0.1,0-0.3-0.1-0.4
		c0-0.1,0-0.1-0.1-0.2s0-0.2-0.1-0.3c0-0.1,0-0.2-0.1-0.2c0,0,0-0.1,0-0.1c0,0,0-0.1-0.1-0.1h1.5c0.1,0.1,0.1,0.2,0.2,0.4
		c0,0.1,0.1,0.3,0.1,0.4h0.1c0.1-0.1,0.2-0.2,0.3-0.3s0.3-0.2,0.4-0.3c0.1-0.1,0.3-0.1,0.6-0.2c0.2-0.1,0.5-0.1,0.8-0.1
		c0.3,0,0.6,0,0.8,0.1c0.2,0.1,0.5,0.2,0.6,0.4c0.1,0.1,0.2,0.2,0.3,0.3c0.1,0.1,0.1,0.2,0.2,0.4c0.1,0.2,0.2,0.5,0.2,0.8
		c0.1,0.3,0.1,0.6,0.1,1v4.4h-3.1v-1.3h1.4v-3c0-0.2,0-0.4,0-0.6c0-0.2-0.1-0.3-0.1-0.4c0-0.1-0.1-0.2-0.2-0.3
		c-0.1-0.1-0.2-0.2-0.3-0.2c-0.1-0.1-0.3-0.1-0.4-0.1c-0.2,0-0.4,0-0.5,0.1s-0.3,0.1-0.4,0.2c-0.1,0.1-0.2,0.2-0.3,0.3
		s-0.1,0.2-0.2,0.3l-0.5,5.2H200.4z"/>
	<path class="st2" d="M208.7,340.5v-7.3h1.7v7.3H208.7z"/>
	<path class="st2" d="M215.1,340.5c0,0,0-0.1,0-0.1c0,0,0-0.1,0-0.1c0-0.2,0-0.4,0.1-0.7c0-0.3,0.1-0.6,0.2-0.9
		c0-0.1,0.1-0.3,0.1-0.4c0-0.1,0.1-0.3,0.1-0.4c0-0.1,0.1-0.3,0.1-0.4l1-2.9h-4.5v-1.3h6.3v1l-1.1,3.2c0,0.1-0.1,0.3-0.1,0.4
		c0,0.2-0.1,0.3-0.1,0.5c0,0.2-0.1,0.3-0.1,0.4c0,0.1-0.1,0.2-0.1,0.4c0,0.1-0.1,0.3-0.1,0.4s0,0.3-0.1,0.4c0,0.1,0,0.2,0,0.3v0.3
		H215.1z M212.2,343.3v-7.1h1.7v7.1H212.2z"/>
	<path class="st2" d="M219.3,340.5l0.5-4.9c0-0.1,0-0.2,0-0.3s0-0.2,0-0.3c0-0.1,0-0.3,0-0.4c0-0.1,0-0.3-0.1-0.4
		c0-0.1,0-0.1-0.1-0.2s0-0.2-0.1-0.3c0-0.1,0-0.2-0.1-0.2c0,0,0-0.1,0-0.1c0,0,0-0.1-0.1-0.1h1.5c0.1,0.1,0.1,0.2,0.2,0.4
		c0,0.1,0.1,0.3,0.1,0.4h0.1c0.1-0.1,0.2-0.2,0.3-0.3s0.3-0.2,0.4-0.3c0.1-0.1,0.3-0.1,0.6-0.2c0.2-0.1,0.5-0.1,0.8-0.1
		c0.3,0,0.6,0,0.8,0.1c0.2,0.1,0.5,0.2,0.6,0.4c0.1,0.1,0.2,0.2,0.3,0.3c0.1,0.1,0.1,0.2,0.2,0.4c0.1,0.2,0.2,0.5,0.2,0.8
		c0.1,0.3,0.1,0.6,0.1,1v4.4h-3.1v-1.3h1.4v-3c0-0.2,0-0.4,0-0.6c0-0.2-0.1-0.3-0.1-0.4c0-0.1-0.1-0.2-0.2-0.3
		c-0.1-0.1-0.2-0.2-0.3-0.2c-0.1-0.1-0.3-0.1-0.4-0.1c-0.2,0-0.4,0-0.5,0.1s-0.3,0.1-0.4,0.2c-0.1,0.1-0.2,0.2-0.3,0.3
		s-0.1,0.2-0.2,0.3l-0.5,5.2H219.3z"/>
</g>
<circle class="st0" cx="757.7" cy="433.5" r="34.7"/>
<g>
	<path class="st2" d="M735.9,436.5c-0.1,0-0.3,0-0.4,0c-0.1,0-0.3-0.1-0.4-0.1v-1.2c0.2,0,0.4,0.1,0.6,0.1c0.2,0,0.4-0.1,0.5-0.2
		c0.1-0.1,0.1-0.3,0.1-0.6v-3.9c-0.1,0-0.3,0-0.4,0c-0.1,0-0.3,0-0.4,0v-1.3c0.4,0,0.8-0.1,1.2-0.1c0.4,0,0.7,0,1.1-0.1
		c0.3,0,0.7,0,1,0c0.4,0,0.7,0,0.9,0c0.3,0,0.5,0.1,0.7,0.1c0.2,0.1,0.4,0.1,0.5,0.2c0.2,0.1,0.3,0.2,0.4,0.4s0.2,0.3,0.3,0.5
		c0.1,0.1,0.1,0.3,0.1,0.5s0,0.4,0,0.6v4.9h-1.7v-4.8c0-0.3-0.1-0.6-0.2-0.8c-0.1-0.2-0.3-0.3-0.6-0.4c-0.2,0-0.4-0.1-0.6-0.1
		c-0.1,0-0.2,0-0.3,0c-0.1,0-0.2,0-0.3,0v4c0,0.3,0,0.5-0.1,0.7c0,0.2-0.1,0.4-0.2,0.6c-0.1,0.2-0.2,0.4-0.4,0.5
		c-0.2,0.1-0.4,0.2-0.6,0.3S736.2,436.5,735.9,436.5z"/>
	<path class="st2" d="M743.6,436.4v-7.3h1.7v7.3H743.6z"/>
	<path class="st2" d="M747.1,433.9v-4.8h1.7v3.5l-1,1.3H747.1z"/>
	<path class="st2" d="M753.2,436.4v-4.8c0-0.3-0.1-0.6-0.2-0.8c-0.1-0.2-0.3-0.3-0.6-0.4c-0.1,0-0.2-0.1-0.3-0.1c-0.1,0-0.2,0-0.3,0
		c-0.2,0-0.4,0-0.6,0c-0.2,0-0.4,0-0.7,0c-0.2,0-0.5,0-0.7,0.1v-1.3c0.4,0,0.7-0.1,1-0.1c0.3,0,0.6,0,0.9,0c0.5,0,1,0,1.3,0.1
		c0.3,0,0.6,0.1,0.8,0.2c0.2,0.1,0.4,0.2,0.6,0.4c0.1,0.1,0.3,0.3,0.3,0.6c0.1,0.2,0.1,0.4,0.1,0.6c0,0.2,0,0.4,0,0.7v4.8H753.2z"/>
	<path class="st2" d="M759.1,436.5c-0.3,0-0.5,0-0.8,0c-0.3,0-0.5,0-0.7,0c-0.2,0-0.4,0-0.5-0.1l-0.3,0v-1.3c0.4,0,0.8,0.1,1.2,0.1
		c0.4,0,0.8,0,1.2,0c0.2,0,0.4,0,0.5-0.1s0.3-0.1,0.4-0.2c0.1-0.1,0.2-0.3,0.3-0.5s0.1-0.4,0.1-0.6c0-0.2,0-0.4,0-0.5s0-0.3,0-0.5
		c0-0.2,0-0.4,0-0.6c0-0.2,0-0.4-0.1-0.6c0-0.2-0.1-0.4-0.2-0.6c-0.1-0.2-0.2-0.3-0.3-0.4c-0.1-0.1-0.2-0.1-0.3-0.2
		c-0.1,0-0.2-0.1-0.3-0.1c-0.2,0-0.4,0-0.6,0.1c-0.2,0.1-0.3,0.1-0.4,0.2c-0.1,0.1-0.2,0.2-0.3,0.4c-0.1,0.2-0.1,0.3-0.1,0.5
		c0,0.2,0,0.4,0.1,0.5c0.1,0.2,0.2,0.3,0.3,0.4c0.1,0.1,0.2,0.1,0.3,0.2s0.2,0.1,0.3,0.1l0.3,0.1l-0.3,1.2l-0.4,0
		c-0.2,0-0.4,0-0.6-0.1s-0.4-0.1-0.5-0.2c-0.2-0.1-0.3-0.2-0.5-0.3s-0.3-0.2-0.3-0.4c-0.1-0.2-0.2-0.4-0.3-0.7
		c-0.1-0.2-0.1-0.5-0.1-0.8c0-0.4,0.1-0.8,0.2-1.1s0.3-0.6,0.5-0.8c0.3-0.3,0.6-0.5,1-0.6c0.4-0.1,0.8-0.2,1.2-0.2
		c0.3,0,0.7,0,1,0.1c0.3,0.1,0.6,0.2,0.8,0.3c0.2,0.1,0.3,0.3,0.5,0.4c0.2,0.2,0.3,0.4,0.4,0.6c0.1,0.3,0.2,0.6,0.3,1
		c0.1,0.4,0.1,0.8,0.1,1.2c0,0.6-0.1,1.1-0.2,1.5c-0.1,0.4-0.2,0.8-0.4,1.1c-0.2,0.3-0.4,0.5-0.6,0.6s-0.5,0.3-0.7,0.4
		c-0.2,0.1-0.3,0.1-0.5,0.1C759.6,436.5,759.4,436.5,759.1,436.5z"/>
	<path class="st2" d="M763.4,436.4l0.5-4.9c0-0.1,0-0.2,0-0.3s0-0.2,0-0.3c0-0.1,0-0.3,0-0.4c0-0.1,0-0.3-0.1-0.4
		c0-0.1,0-0.1-0.1-0.2s0-0.2-0.1-0.3s0-0.2-0.1-0.2c0,0,0-0.1,0-0.1c0,0,0-0.1-0.1-0.1h1.5c0.1,0.1,0.1,0.2,0.2,0.4
		c0,0.1,0.1,0.3,0.1,0.4h0.1c0.1-0.1,0.2-0.2,0.3-0.3c0.2-0.1,0.3-0.2,0.4-0.3c0.1-0.1,0.3-0.1,0.6-0.2c0.2-0.1,0.5-0.1,0.8-0.1
		c0.3,0,0.6,0,0.8,0.1c0.2,0.1,0.5,0.2,0.6,0.4c0.1,0.1,0.2,0.2,0.3,0.3c0.1,0.1,0.1,0.2,0.2,0.4c0.1,0.2,0.2,0.5,0.2,0.8
		c0.1,0.3,0.1,0.6,0.1,1v4.4h-3.1v-1.3h1.4v-3c0-0.2,0-0.4,0-0.6c0-0.2-0.1-0.3-0.1-0.4c0-0.1-0.1-0.2-0.2-0.3s-0.2-0.2-0.3-0.2
		c-0.1-0.1-0.3-0.1-0.4-0.1c-0.2,0-0.4,0-0.5,0.1c-0.2,0.1-0.3,0.1-0.4,0.2c-0.1,0.1-0.2,0.2-0.3,0.3s-0.1,0.2-0.2,0.3l-0.5,5.2
		H763.4z"/>
	<path class="st2" d="M771.6,433.9v-4.8h1.7v3.5l-1,1.3H771.6z"/>
	<path class="st2" d="M774.7,436.4v-2.6c0-0.2,0-0.4,0-0.5s0-0.3,0.1-0.4s0.1-0.3,0.2-0.4c0.1-0.2,0.2-0.4,0.4-0.5s0.4-0.3,0.7-0.3
		l-1.5-2.5h1.9l2.2,3.6c0,0,0.1-0.1,0.1-0.1c0,0,0-0.1,0.1-0.1c0.1-0.1,0.1-0.2,0.2-0.3c0-0.1,0.1-0.3,0.1-0.5v-2.7h1.7v2.6
		c0,0.3,0,0.5-0.1,0.7c0,0.2-0.1,0.4-0.2,0.6c-0.1,0.2-0.2,0.4-0.4,0.5c-0.2,0.1-0.4,0.3-0.7,0.4l1.5,2.5h-1.9l-2.2-3.7
		c-0.1,0-0.1,0.1-0.2,0.1c-0.1,0.1-0.1,0.2-0.2,0.3c-0.1,0.2-0.1,0.4-0.1,0.6v2.6H774.7z"/>
</g>
<circle class="st0" cx="712" cy="123.3" r="32.7"/>
<g>
	<path class="st2" d="M702.4,116.3v-7.2c0.1,0,0.2,0,0.4-0.1c0.1,0,0.3,0,0.5,0c0.3,0,0.7-0.1,1-0.1c0.3,0,0.6,0,1,0
		c0.5,0,0.9,0,1.2,0.1c0.3,0.1,0.6,0.1,0.8,0.3c0.2,0.1,0.3,0.2,0.5,0.3c0.1,0.1,0.2,0.3,0.3,0.5c0.1,0.2,0.1,0.3,0.2,0.5
		c0,0.2,0,0.4,0,0.6v5.1H702.4z M704.1,115h2.4v-3.8c0-0.2,0-0.3-0.1-0.4c0-0.1-0.1-0.2-0.2-0.3c-0.1-0.1-0.1-0.1-0.2-0.1
		s-0.2-0.1-0.3-0.1c-0.1,0-0.2,0-0.3,0c-0.1,0-0.2,0-0.4,0c-0.1,0-0.3,0-0.4,0c-0.2,0-0.3,0-0.5,0V115z"/>
	<path class="st2" d="M709.9,116.3v-7.3h1.7v7.3H709.9z"/>
	<path class="st2" d="M713.4,113.9v-4.8h1.7v3.5l-1,1.3H713.4z"/>
	<path class="st2" d="M720.9,116.3v-4.8c0-0.3-0.1-0.5-0.2-0.7s-0.3-0.3-0.5-0.4c-0.1,0-0.2-0.1-0.3-0.1s-0.3,0-0.4,0
		c-0.3,0-0.7,0-1.1,0c-0.4,0-0.9,0.1-1.5,0.1v-1.3c0.2,0,0.4-0.1,0.6-0.1c0.2,0,0.4,0,0.6-0.1c0.3,0,0.6,0,0.8,0c0.3,0,0.5,0,0.8,0
		c0.4,0,0.8,0,1.1,0.1s0.6,0.1,0.8,0.2c0.2,0.1,0.4,0.2,0.6,0.4s0.3,0.3,0.3,0.6c0.1,0.2,0.1,0.4,0.1,0.6c0,0.2,0,0.4,0,0.7v4.8
		H720.9z M716.8,116.3V112h1.7v4.3H716.8z"/>
	<path class="st2" d="M691.1,130.2v-4.8c0-0.3-0.1-0.5-0.2-0.7s-0.3-0.3-0.5-0.4c-0.1,0-0.2-0.1-0.3-0.1s-0.3,0-0.4,0
		c-0.3,0-0.7,0-1.1,0c-0.4,0-0.9,0.1-1.5,0.1V123c0.2,0,0.4-0.1,0.6-0.1c0.2,0,0.4,0,0.6-0.1c0.3,0,0.6,0,0.8,0c0.3,0,0.5,0,0.8,0
		c0.4,0,0.8,0,1.1,0.1s0.6,0.1,0.8,0.2c0.2,0.1,0.4,0.2,0.6,0.4s0.3,0.3,0.3,0.6c0.1,0.2,0.1,0.4,0.1,0.6c0,0.2,0,0.4,0,0.7v4.8
		H691.1z M687,130.2v-4.3h1.7v4.3H687z"/>
	<path class="st2" d="M694.5,127.7v-4.8h1.7v3.5l-1,1.3H694.5z"/>
	<path class="st2" d="M700.6,130.2v-4.8c0-0.3-0.1-0.6-0.2-0.8c-0.1-0.2-0.3-0.3-0.6-0.4c-0.1,0-0.2-0.1-0.3-0.1c-0.1,0-0.2,0-0.3,0
		c-0.2,0-0.4,0-0.6,0c-0.2,0-0.4,0-0.7,0c-0.2,0-0.5,0-0.7,0.1v-1.3c0.4,0,0.7-0.1,1-0.1c0.3,0,0.6,0,0.9,0c0.5,0,1,0,1.3,0.1
		c0.3,0,0.6,0.1,0.8,0.2c0.2,0.1,0.4,0.2,0.6,0.4c0.1,0.1,0.3,0.3,0.3,0.6c0.1,0.2,0.1,0.4,0.1,0.6c0,0.2,0,0.4,0,0.7v4.8H700.6z"/>
	<path class="st2" d="M704,130.2v-7.3h1.7v7.3H704z"/>
	<path class="st2" d="M710.5,130.3c-0.3,0-0.5,0-0.8-0.1c-0.3,0-0.5-0.1-0.7-0.2c-0.2-0.1-0.3-0.2-0.5-0.4c-0.2-0.1-0.3-0.3-0.5-0.6
		c-0.2-0.3-0.3-0.7-0.4-1.1c-0.1-0.4-0.1-0.9-0.1-1.5v-3.6h1.7v3.6c0,0.5,0,0.9,0.1,1.2c0.1,0.3,0.2,0.6,0.3,0.8
		c0.1,0.1,0.2,0.3,0.4,0.3c0.2,0.1,0.3,0.1,0.5,0.1c0.2,0,0.4,0,0.6-0.1c0.2-0.1,0.3-0.2,0.4-0.4c0.1-0.2,0.2-0.5,0.3-0.8
		c0.1-0.3,0.1-0.7,0.1-1.1c0-0.4,0-0.8-0.1-1.1s-0.1-0.6-0.3-0.8c-0.1-0.2-0.2-0.3-0.4-0.4c-0.2-0.1-0.4-0.1-0.6-0.1
		c-0.1,0-0.1,0-0.2,0c-0.1,0-0.1,0-0.2,0v-1.3c0.1,0,0.3,0,0.4,0c0.1,0,0.3,0,0.4,0c0.3,0,0.5,0,0.8,0.1c0.3,0.1,0.5,0.2,0.7,0.3
		c0.1,0.1,0.3,0.2,0.4,0.4s0.2,0.3,0.3,0.5c0.1,0.3,0.2,0.6,0.3,1c0.1,0.4,0.1,0.9,0.1,1.4c0,0.4,0,0.7-0.1,1c0,0.3-0.1,0.6-0.2,0.9
		c-0.1,0.3-0.3,0.7-0.5,0.9c-0.2,0.3-0.4,0.5-0.7,0.6c-0.2,0.1-0.5,0.2-0.7,0.3C711.1,130.2,710.8,130.3,710.5,130.3z"/>
	<path class="st2" d="M717.7,130.3c-0.5,0-1-0.1-1.4-0.3c-0.3-0.1-0.6-0.3-0.8-0.6c-0.2-0.2-0.4-0.5-0.6-0.9
		c-0.1-0.3-0.2-0.6-0.2-0.9c-0.1-0.3-0.1-0.7-0.1-1.1c0-0.3,0-0.6,0.1-0.9c0.1-0.3,0.1-0.5,0.3-0.8c0.1-0.2,0.3-0.4,0.4-0.6l0,0
		l-0.7,0v-1.4c0.4,0,0.7,0,1-0.1c0.3,0,0.7,0,1,0s0.6,0,0.9,0c0.3,0,0.6,0,0.8,0.1c0.3,0.1,0.5,0.2,0.7,0.3c0.3,0.1,0.5,0.3,0.7,0.6
		c0.2,0.2,0.4,0.5,0.5,0.8c0.1,0.3,0.2,0.6,0.2,0.9c0.1,0.3,0.1,0.7,0.1,1.1c0,0.3,0,0.6-0.1,0.9c0,0.3-0.1,0.6-0.2,0.8
		c-0.1,0.4-0.3,0.7-0.5,1c-0.2,0.3-0.5,0.5-0.8,0.7C718.8,130.2,718.3,130.3,717.7,130.3z M717.7,128.9c0.2,0,0.4,0,0.6-0.1
		s0.3-0.2,0.4-0.4c0.1-0.1,0.2-0.3,0.2-0.5s0.1-0.4,0.1-0.6c0-0.2,0-0.5,0-0.7c0-0.5,0-0.9-0.1-1.3c-0.1-0.3-0.2-0.6-0.4-0.8
		c-0.1-0.1-0.2-0.2-0.4-0.3c-0.1-0.1-0.3-0.1-0.5-0.1c-0.1,0-0.2,0-0.3,0c-0.1,0-0.2,0-0.3,0c-0.2,0.3-0.4,0.6-0.5,1
		c-0.1,0.4-0.2,0.8-0.2,1.4c0,0.4,0,0.8,0.1,1.1c0.1,0.3,0.1,0.6,0.3,0.7c0.1,0.2,0.2,0.3,0.4,0.4S717.5,128.9,717.7,128.9z"/>
	<path class="st2" d="M722.1,127.7v-4.8h1.7v3.5l-1,1.3H722.1z"/>
	<path class="st2" d="M729.6,130.2v-4.8c0-0.3-0.1-0.5-0.2-0.7s-0.3-0.3-0.5-0.4c-0.1,0-0.2-0.1-0.3-0.1s-0.3,0-0.4,0
		c-0.3,0-0.7,0-1.1,0c-0.4,0-0.9,0.1-1.5,0.1V123c0.2,0,0.4-0.1,0.6-0.1c0.2,0,0.4,0,0.6-0.1c0.3,0,0.6,0,0.8,0c0.3,0,0.5,0,0.8,0
		c0.4,0,0.8,0,1.1,0.1s0.6,0.1,0.8,0.2c0.2,0.1,0.4,0.2,0.6,0.4s0.3,0.3,0.3,0.6c0.1,0.2,0.1,0.4,0.1,0.6c0,0.2,0,0.4,0,0.7v4.8
		H729.6z M725.5,130.2v-4.3h1.7v4.3H725.5z"/>
	<path class="st2" d="M732.7,130.2v-1.3h3.3v-3.5c0-0.3-0.1-0.6-0.2-0.7s-0.3-0.3-0.6-0.4c-0.1,0-0.2-0.1-0.3-0.1
		c-0.1,0-0.2,0-0.4,0c-0.2,0-0.5,0-0.8,0c-0.3,0-0.7,0-1.1,0.1v-1.3c0.2,0,0.5-0.1,0.9-0.1c0.3,0,0.7,0,1.1,0c0.4,0,0.7,0,0.9,0
		c0.3,0,0.5,0.1,0.7,0.2c0.2,0.1,0.4,0.2,0.6,0.3s0.3,0.2,0.4,0.4c0.1,0.1,0.2,0.3,0.3,0.5c0.1,0.2,0.1,0.3,0.1,0.5
		c0,0.2,0,0.4,0,0.6v3.6h0.8v1.3H732.7z"/>
</g>
<circle class="st3" cx="587.7" cy="243.8" r="97.5"/>
<circle class="st3" cx="409.2" cy="406.2" r="81.6"/>
<circle class="st3" cx="422.6" cy="238.4" r="55.6"/>
<circle class="st3" cx="571.6" cy="414.2" r="48.4"/>
</svg>
