<?xml version="1.0" encoding="utf-8"?>
<!-- Generator: Adobe Illustrator 26.5.0, SVG Export Plug-In . SVG Version: 6.00 Build 0)  -->
<svg version="1.1" id="Layer_2" xmlns="http://www.w3.org/2000/svg" xmlns:xlink="http://www.w3.org/1999/xlink" x="0px" y="0px"
	 viewBox="0 0 1000 600" style="enable-background:new 0 0 1000 600;" xml:space="preserve">
<style type="text/css">
	.st0{fill:#90C7D3;}
	.st1{fill:#00435B;}
	.st2{fill:#FFFFFF;}
	.st3{fill:none;stroke:#FFFFFF;stroke-width:0.64;stroke-miterlimit:10;}
</style>
<circle class="st1" cx="502.5" cy="328.3" r="227.4"/>
<g>
	<path class="st2" d="M471.1,131.4l0.6-2.8l0.9-3.2h-3.7v-2.8h1.7v1.5h3.7v1.1l-1,3.4l-0.6,2.8H471.1z"/>
	<path class="st2" d="M475.4,131.4v-2.6c0-0.2,0-0.4,0-0.5s0-0.3,0.1-0.4s0.1-0.3,0.2-0.4c0.1-0.2,0.2-0.4,0.4-0.5s0.4-0.3,0.7-0.3
		l-1.5-2.5h1.9l2.2,3.6c0,0,0.1-0.1,0.1-0.1c0,0,0-0.1,0.1-0.1c0.1-0.1,0.1-0.2,0.2-0.3c0-0.1,0.1-0.3,0.1-0.5v-2.7h1.7v2.6
		c0,0.3,0,0.5-0.1,0.7c0,0.2-0.1,0.4-0.2,0.6c-0.1,0.2-0.2,0.4-0.4,0.5c-0.2,0.1-0.4,0.3-0.7,0.4l1.5,2.5h-1.9l-2.2-3.7
		c-0.1,0-0.1,0.1-0.2,0.1c-0.1,0.1-0.1,0.2-0.2,0.3c-0.1,0.2-0.1,0.4-0.1,0.6v2.6H475.4z"/>
	<path class="st2" d="M485.8,131.4v-4.8c0-0.3-0.1-0.6-0.2-0.8c-0.1-0.2-0.3-0.3-0.6-0.4c-0.1,0-0.2-0.1-0.3-0.1c-0.1,0-0.2,0-0.3,0
		c-0.2,0-0.4,0-0.6,0c-0.2,0-0.4,0-0.7,0c-0.2,0-0.5,0-0.7,0.1v-1.3c0.4,0,0.7-0.1,1-0.1c0.3,0,0.6,0,0.9,0c0.5,0,1,0,1.3,0.1
		c0.3,0,0.6,0.1,0.8,0.2c0.2,0.1,0.4,0.2,0.6,0.4c0.1,0.1,0.3,0.3,0.3,0.6c0.1,0.2,0.1,0.4,0.1,0.6c0,0.2,0,0.4,0,0.7v4.8H485.8z"/>
	<path class="st2" d="M489.5,131.4l-0.6-7.3h1.6l0.3,3.7c0.1,0,0.2-0.1,0.4-0.1c0.1-0.1,0.2-0.1,0.3-0.2c0.1-0.1,0.2-0.3,0.2-0.4
		c0.1-0.2,0.1-0.4,0.1-0.6l0.2-2.3h1.6l-0.2,2.2c0,0.4-0.1,0.8-0.2,1.1c-0.1,0.3-0.3,0.6-0.6,0.9c-0.2,0.2-0.5,0.4-0.7,0.5
		s-0.6,0.2-1,0.2c0,0,0,0,0,0c0,0,0,0,0,0l0.1,1h1.5c0.4,0,0.7-0.1,1.1-0.3c0.3-0.2,0.6-0.5,0.8-0.9c0.2-0.4,0.3-0.9,0.4-1.5
		l0.3-3.2h1.6l-0.3,3.3c0,0.4-0.1,0.8-0.2,1.2c-0.1,0.4-0.2,0.7-0.4,1c-0.2,0.3-0.3,0.5-0.5,0.7c-0.2,0.2-0.4,0.4-0.7,0.6
		c-0.3,0.2-0.7,0.3-1,0.4c-0.4,0.1-0.8,0.1-1.2,0.1H489.5z"/>
	<path class="st2" d="M498.2,128.9v-4.8h1.7v3.5l-1,1.3H498.2z"/>
	<path class="st2" d="M505.3,134.2v-6l-1.6-4.1h1.8l1.3,3.6c0,0,0.1,0,0.1,0c0,0,0.1,0,0.1,0c0.2,0,0.4-0.1,0.5-0.3
		c0.1-0.2,0.2-0.4,0.2-0.8v-2.4h1.7v2.5c0,0.4-0.1,0.7-0.2,1c-0.1,0.3-0.3,0.5-0.5,0.7c-0.2,0.1-0.4,0.3-0.6,0.4
		c-0.3,0.1-0.6,0.2-0.9,0.2L507,129v5.2H505.3z"/>
	<path class="st2" d="M513.9,131.4v-4.8c0-0.3-0.1-0.6-0.2-0.8c-0.1-0.2-0.3-0.3-0.6-0.4c-0.1,0-0.2-0.1-0.3-0.1c-0.1,0-0.2,0-0.3,0
		c-0.2,0-0.4,0-0.6,0c-0.2,0-0.4,0-0.7,0c-0.2,0-0.5,0-0.7,0.1v-1.3c0.4,0,0.7-0.1,1-0.1c0.3,0,0.6,0,0.9,0c0.5,0,1,0,1.3,0.1
		c0.3,0,0.6,0.1,0.8,0.2c0.2,0.1,0.4,0.2,0.6,0.4c0.1,0.1,0.3,0.3,0.3,0.6c0.1,0.2,0.1,0.4,0.1,0.6c0,0.2,0,0.4,0,0.7v4.8H513.9z"/>
	<path class="st2" d="M517,131.4v-2.6c0-0.2,0-0.4,0-0.5s0-0.3,0.1-0.4s0.1-0.3,0.2-0.4c0.1-0.2,0.2-0.4,0.4-0.5s0.4-0.3,0.7-0.3
		l-1.5-2.5h1.9l2.2,3.6c0,0,0.1-0.1,0.1-0.1c0,0,0-0.1,0.1-0.1c0.1-0.1,0.1-0.2,0.2-0.3c0-0.1,0.1-0.3,0.1-0.5v-2.7h1.7v2.6
		c0,0.3,0,0.5-0.1,0.7c0,0.2-0.1,0.4-0.2,0.6c-0.1,0.2-0.2,0.4-0.4,0.5c-0.2,0.1-0.4,0.3-0.7,0.4l1.5,2.5h-1.9l-2.2-3.7
		c-0.1,0-0.1,0.1-0.2,0.1c-0.1,0.1-0.1,0.2-0.2,0.3c-0.1,0.2-0.1,0.4-0.1,0.6v2.6H517z"/>
</g>
<g>
	<path class="st2" d="M470.6,171.7c-0.1,0-0.3,0-0.4,0c-0.1,0-0.3-0.1-0.4-0.1v-1.2c0.2,0,0.4,0.1,0.6,0.1c0.2,0,0.4-0.1,0.5-0.2
		c0.1-0.1,0.1-0.3,0.1-0.6v-3.9c-0.1,0-0.3,0-0.4,0c-0.1,0-0.3,0-0.4,0v-1.3c0.4,0,0.8-0.1,1.2-0.1c0.4,0,0.7,0,1.1-0.1
		c0.3,0,0.7,0,1,0c0.4,0,0.7,0,0.9,0c0.3,0,0.5,0.1,0.7,0.1c0.2,0.1,0.4,0.1,0.5,0.2c0.2,0.1,0.3,0.2,0.4,0.4s0.2,0.3,0.3,0.5
		c0.1,0.1,0.1,0.3,0.1,0.5s0,0.4,0,0.6v4.9h-1.7v-4.8c0-0.3-0.1-0.6-0.2-0.8c-0.1-0.2-0.3-0.3-0.6-0.4c-0.2,0-0.4-0.1-0.6-0.1
		c-0.1,0-0.2,0-0.3,0c-0.1,0-0.2,0-0.3,0v4c0,0.3,0,0.5-0.1,0.7c0,0.2-0.1,0.4-0.2,0.6c-0.1,0.2-0.2,0.4-0.4,0.5
		c-0.2,0.1-0.4,0.2-0.6,0.3S470.9,171.7,470.6,171.7z"/>
	<path class="st2" d="M478.3,171.7v-7.3h1.7v7.3H478.3z"/>
	<path class="st2" d="M481.5,171.7v-1.3h3.3v-3.5c0-0.3-0.1-0.6-0.2-0.7s-0.3-0.3-0.6-0.4c-0.1,0-0.2-0.1-0.3-0.1
		c-0.1,0-0.2,0-0.4,0c-0.2,0-0.5,0-0.8,0c-0.3,0-0.7,0-1.1,0.1v-1.3c0.2,0,0.5-0.1,0.9-0.1c0.3,0,0.7,0,1.1,0c0.4,0,0.7,0,0.9,0
		c0.3,0,0.5,0.1,0.7,0.2c0.2,0.1,0.4,0.2,0.6,0.3s0.3,0.2,0.4,0.4c0.1,0.1,0.2,0.3,0.3,0.5c0.1,0.2,0.1,0.3,0.1,0.5
		c0,0.2,0,0.4,0,0.6v3.6h0.8v1.3H481.5z"/>
	<path class="st2" d="M491.1,171.7v-4.8c0-0.3-0.1-0.6-0.2-0.8c-0.1-0.2-0.3-0.3-0.6-0.4c-0.1,0-0.2-0.1-0.3-0.1c-0.1,0-0.2,0-0.3,0
		c-0.2,0-0.4,0-0.6,0c-0.2,0-0.4,0-0.7,0c-0.2,0-0.5,0-0.7,0.1v-1.3c0.4,0,0.7-0.1,1-0.1c0.3,0,0.6,0,0.9,0c0.5,0,1,0,1.3,0.1
		c0.3,0,0.6,0.1,0.8,0.2c0.2,0.1,0.4,0.2,0.6,0.4c0.1,0.1,0.3,0.3,0.3,0.6c0.1,0.2,0.1,0.4,0.1,0.6c0,0.2,0,0.4,0,0.7v4.8H491.1z"/>
	<path class="st2" d="M494.9,171.7c-0.1,0-0.3,0-0.4,0c-0.1,0-0.3-0.1-0.4-0.1v-1.2c0.2,0,0.4,0.1,0.6,0.1c0.2,0,0.4-0.1,0.5-0.2
		c0.1-0.1,0.1-0.3,0.1-0.6v-3.9c-0.1,0-0.3,0-0.4,0c-0.1,0-0.3,0-0.4,0v-1.3c0.4,0,0.8-0.1,1.2-0.1c0.4,0,0.7,0,1.1-0.1
		c0.3,0,0.7,0,1,0c0.4,0,0.7,0,0.9,0c0.3,0,0.5,0.1,0.7,0.1c0.2,0.1,0.4,0.1,0.5,0.2c0.2,0.1,0.3,0.2,0.4,0.4s0.2,0.3,0.3,0.5
		c0.1,0.1,0.1,0.3,0.1,0.5s0,0.4,0,0.6v4.9H499v-4.8c0-0.3-0.1-0.6-0.2-0.8c-0.1-0.2-0.3-0.3-0.6-0.4c-0.2,0-0.4-0.1-0.6-0.1
		c-0.1,0-0.2,0-0.3,0c-0.1,0-0.2,0-0.3,0v4c0,0.3,0,0.5-0.1,0.7c0,0.2-0.1,0.4-0.2,0.6c-0.1,0.2-0.2,0.4-0.4,0.5
		c-0.2,0.1-0.4,0.2-0.6,0.3S495.2,171.7,494.9,171.7z"/>
	<path class="st2" d="M502.6,171.7v-7.3h1.7v7.3H502.6z"/>
	<path class="st2" d="M511.8,174.4v-6.9c0-0.3,0-0.5,0-0.7c0-0.2-0.1-0.4-0.2-0.6c0-0.1-0.1-0.2-0.1-0.2c-0.1-0.1-0.1-0.1-0.2-0.2
		c-0.2-0.2-0.6-0.3-1.1-0.3c-0.2,0-0.3,0-0.5,0c-0.1,0-0.3,0-0.4,0c-0.1,0-0.2,0-0.4,0.1s-0.3,0-0.4,0.1v-1.4c0.1,0,0.3,0,0.4-0.1
		c0.2,0,0.3,0,0.5,0c0.2,0,0.4,0,0.6,0c0.2,0,0.4,0,0.6,0c0.4,0,0.8,0.1,1.2,0.2c0.4,0.1,0.6,0.3,0.9,0.5c0.1,0.1,0.2,0.2,0.3,0.3
		c0.1,0.1,0.2,0.3,0.2,0.4c0.1,0.3,0.2,0.5,0.3,0.9c0.1,0.3,0.1,0.6,0.1,1v6.8H511.8z"/>
	<path class="st2" d="M515.3,171.7v-7.3h1.7v7.3H515.3z"/>
	<path class="st2" d="M518.4,171.7v-1.3h2c0-0.1,0.1-0.3,0.1-0.4c0-0.1,0-0.3,0-0.4v-3c0-0.1,0-0.3,0-0.4c0-0.1-0.1-0.2-0.2-0.3
		c-0.1-0.1-0.1-0.1-0.2-0.1c-0.1,0-0.2,0-0.3,0c-0.1,0-0.3,0-0.4,0c-0.1,0-0.3,0-0.5,0.1v-1.4c0.1,0,0.3-0.1,0.5-0.1
		c0.2,0,0.4,0,0.6,0c0.4,0,0.7,0,0.9,0.1c0.2,0.1,0.4,0.2,0.6,0.3s0.3,0.3,0.4,0.4c0.1,0.2,0.2,0.4,0.2,0.5c0,0.1,0.1,0.3,0.1,0.4
		s0,0.3,0,0.5v3c0,0.2,0,0.4,0,0.7s0,0.5-0.1,0.7s-0.1,0.4-0.1,0.5l-0.1,0.3H518.4z"/>
	<path class="st2" d="M523.7,169.2v-4.8h1.7v3.5l-1,1.3H523.7z"/>
	<path class="st2" d="M527.1,171.7v-7.2c0.1,0,0.3,0,0.4-0.1c0.1,0,0.3,0,0.5,0c0.3,0,0.6-0.1,1-0.1c0.3,0,0.6,0,1,0
		c0.4,0,0.8,0,1.1,0.1s0.6,0.1,0.8,0.2c0.2,0.1,0.4,0.2,0.6,0.4c0.1,0.1,0.3,0.3,0.3,0.6c0.1,0.2,0.1,0.4,0.1,0.6c0,0.2,0,0.4,0,0.7
		v4.8h-1.7v-4.8c0-0.3-0.1-0.6-0.2-0.8s-0.4-0.3-0.6-0.4c-0.1,0-0.2,0-0.3,0c-0.1,0-0.2,0-0.3,0c-0.1,0-0.3,0-0.4,0
		c-0.2,0-0.3,0-0.5,0v6H527.1z"/>
</g>
<g>
	<path class="st2" d="M555.9,239.7c-0.1,0-0.3,0-0.4,0c-0.1,0-0.3-0.1-0.4-0.1v-1.2c0.2,0,0.4,0.1,0.6,0.1c0.2,0,0.4-0.1,0.5-0.2
		c0.1-0.1,0.1-0.3,0.1-0.6v-3.9c-0.1,0-0.3,0-0.4,0c-0.1,0-0.3,0-0.4,0v-1.3c0.4,0,0.8-0.1,1.2-0.1c0.4,0,0.7,0,1.1-0.1
		c0.3,0,0.7,0,1,0c0.4,0,0.7,0,0.9,0c0.3,0,0.5,0.1,0.7,0.1c0.2,0.1,0.4,0.1,0.5,0.2c0.2,0.1,0.3,0.2,0.4,0.4s0.2,0.3,0.3,0.5
		c0.1,0.1,0.1,0.3,0.1,0.5s0,0.4,0,0.6v4.9h-1.7v-4.8c0-0.3-0.1-0.6-0.2-0.8c-0.1-0.2-0.3-0.3-0.6-0.4c-0.2,0-0.4-0.1-0.6-0.1
		c-0.1,0-0.2,0-0.3,0c-0.1,0-0.2,0-0.3,0v4c0,0.3,0,0.5-0.1,0.7c0,0.2-0.1,0.4-0.2,0.6c-0.1,0.2-0.2,0.4-0.4,0.5
		c-0.2,0.1-0.4,0.2-0.6,0.3S556.3,239.7,555.9,239.7z"/>
	<path class="st2" d="M563.7,239.7v-7.3h1.7v7.3H563.7z"/>
	<path class="st2" d="M571,231.4l-3.1,8.2h-1.6l3.1-8.2H571z"/>
	<path class="st2" d="M572,239.7v-7.2c0.1,0,0.2,0,0.4-0.1c0.1,0,0.3,0,0.5,0c0.3,0,0.7-0.1,1-0.1c0.3,0,0.6,0,1,0
		c0.5,0,0.9,0,1.2,0.1c0.3,0.1,0.6,0.1,0.8,0.3c0.2,0.1,0.3,0.2,0.5,0.3c0.1,0.1,0.2,0.3,0.3,0.5c0.1,0.2,0.1,0.3,0.2,0.5
		c0,0.2,0,0.4,0,0.6v5.1H572z M573.7,238.3h2.4v-3.8c0-0.2,0-0.3-0.1-0.4c0-0.1-0.1-0.2-0.2-0.3c-0.1-0.1-0.1-0.1-0.2-0.1
		s-0.2-0.1-0.3-0.1c-0.1,0-0.2,0-0.3,0c-0.1,0-0.2,0-0.4,0c-0.1,0-0.3,0-0.4,0c-0.2,0-0.3,0-0.5,0V238.3z"/>
	<path class="st2" d="M579.5,237.2v-4.8h1.7v3.5l-1,1.3H579.5z"/>
	<path class="st2" d="M585.5,239.7v-4.8c0-0.3-0.1-0.6-0.2-0.8c-0.1-0.2-0.3-0.3-0.6-0.4c-0.1,0-0.2-0.1-0.3-0.1c-0.1,0-0.2,0-0.3,0
		c-0.2,0-0.4,0-0.6,0c-0.2,0-0.4,0-0.7,0c-0.2,0-0.5,0-0.7,0.1v-1.3c0.4,0,0.7-0.1,1-0.1c0.3,0,0.6,0,0.9,0c0.5,0,1,0,1.3,0.1
		c0.3,0,0.6,0.1,0.8,0.2c0.2,0.1,0.4,0.2,0.6,0.4c0.1,0.1,0.3,0.3,0.3,0.6c0.1,0.2,0.1,0.4,0.1,0.6c0,0.2,0,0.4,0,0.7v4.8H585.5z"/>
	<path class="st2" d="M591.5,239.8c-0.3,0-0.5,0-0.8,0c-0.3,0-0.5,0-0.7,0c-0.2,0-0.4,0-0.5-0.1l-0.3,0v-1.3c0.4,0,0.8,0.1,1.2,0.1
		c0.4,0,0.8,0,1.2,0c0.2,0,0.4,0,0.5-0.1s0.3-0.1,0.4-0.2c0.1-0.1,0.2-0.3,0.3-0.5s0.1-0.4,0.1-0.6c0-0.2,0-0.4,0-0.5s0-0.3,0-0.5
		c0-0.2,0-0.4,0-0.6c0-0.2,0-0.4-0.1-0.6c0-0.2-0.1-0.4-0.2-0.6c-0.1-0.2-0.2-0.3-0.3-0.4c-0.1-0.1-0.2-0.1-0.3-0.2
		c-0.1,0-0.2-0.1-0.3-0.1c-0.2,0-0.4,0-0.6,0.1c-0.2,0.1-0.3,0.1-0.4,0.2c-0.1,0.1-0.2,0.2-0.3,0.4c-0.1,0.2-0.1,0.3-0.1,0.5
		c0,0.2,0,0.4,0.1,0.5c0.1,0.2,0.2,0.3,0.3,0.4c0.1,0.1,0.2,0.1,0.3,0.2s0.2,0.1,0.3,0.1l0.3,0.1l-0.3,1.2l-0.4,0
		c-0.2,0-0.4,0-0.6-0.1s-0.4-0.1-0.5-0.2c-0.2-0.1-0.3-0.2-0.5-0.3s-0.3-0.2-0.3-0.4c-0.1-0.2-0.2-0.4-0.3-0.7
		c-0.1-0.2-0.1-0.5-0.1-0.8c0-0.4,0.1-0.8,0.2-1.1s0.3-0.6,0.5-0.8c0.3-0.3,0.6-0.5,1-0.6c0.4-0.1,0.8-0.2,1.2-0.2
		c0.3,0,0.7,0,1,0.1c0.3,0.1,0.6,0.2,0.8,0.3c0.2,0.1,0.3,0.3,0.5,0.4c0.2,0.2,0.3,0.4,0.4,0.6c0.1,0.3,0.2,0.6,0.3,1
		c0.1,0.4,0.1,0.8,0.1,1.2c0,0.6-0.1,1.1-0.2,1.5c-0.1,0.4-0.2,0.8-0.4,1.1c-0.2,0.3-0.4,0.5-0.6,0.6s-0.5,0.3-0.7,0.4
		c-0.2,0.1-0.3,0.1-0.5,0.1C592,239.8,591.8,239.8,591.5,239.8z"/>
	<path class="st2" d="M596.1,239.7v-7.3h1.7v7.3H596.1z"/>
	<path class="st2" d="M602.2,239.8c-0.5,0-1-0.1-1.4-0.3c-0.3-0.1-0.6-0.3-0.8-0.6c-0.2-0.2-0.4-0.5-0.6-0.9
		c-0.1-0.3-0.2-0.6-0.2-0.9c-0.1-0.3-0.1-0.7-0.1-1.1c0-0.3,0-0.6,0.1-0.9c0.1-0.3,0.1-0.5,0.3-0.8c0.1-0.2,0.3-0.4,0.4-0.6l0,0
		l-0.7,0v-1.4c0.4,0,0.7,0,1-0.1c0.3,0,0.7,0,1,0s0.6,0,0.9,0c0.3,0,0.6,0,0.8,0.1c0.3,0.1,0.5,0.2,0.7,0.3c0.3,0.1,0.5,0.3,0.7,0.6
		c0.2,0.2,0.4,0.5,0.5,0.8c0.1,0.3,0.2,0.6,0.2,0.9c0.1,0.3,0.1,0.7,0.1,1.1c0,0.3,0,0.6-0.1,0.9c0,0.3-0.1,0.6-0.2,0.8
		c-0.1,0.4-0.3,0.7-0.5,1c-0.2,0.3-0.5,0.5-0.8,0.7C603.4,239.7,602.8,239.8,602.2,239.8z M602.3,238.4c0.2,0,0.4,0,0.6-0.1
		s0.3-0.2,0.4-0.4c0.1-0.1,0.2-0.3,0.2-0.5s0.1-0.4,0.1-0.6c0-0.2,0-0.5,0-0.7c0-0.5,0-0.9-0.1-1.3c-0.1-0.3-0.2-0.6-0.4-0.8
		c-0.1-0.1-0.2-0.2-0.4-0.3c-0.1-0.1-0.3-0.1-0.5-0.1c-0.1,0-0.2,0-0.3,0c-0.1,0-0.2,0-0.3,0c-0.2,0.3-0.4,0.6-0.5,1
		c-0.1,0.4-0.2,0.8-0.2,1.4c0,0.4,0,0.8,0.1,1.1c0.1,0.3,0.1,0.6,0.3,0.7c0.1,0.2,0.2,0.3,0.4,0.4S602,238.4,602.3,238.4z"/>
	<path class="st2" d="M549.8,253.6c-0.1,0-0.3,0-0.4,0c-0.1,0-0.3-0.1-0.4-0.1v-1.2c0.2,0,0.4,0.1,0.6,0.1c0.2,0,0.4-0.1,0.5-0.2
		c0.1-0.1,0.1-0.3,0.1-0.6v-3.9c-0.1,0-0.3,0-0.4,0c-0.1,0-0.3,0-0.4,0v-1.3c0.4,0,0.8-0.1,1.2-0.1c0.4,0,0.7,0,1.1-0.1
		c0.3,0,0.7,0,1,0c0.4,0,0.7,0,0.9,0c0.3,0,0.5,0.1,0.7,0.1c0.2,0.1,0.4,0.1,0.5,0.2c0.2,0.1,0.3,0.2,0.4,0.4s0.2,0.3,0.3,0.5
		c0.1,0.1,0.1,0.3,0.1,0.5s0,0.4,0,0.6v4.9H554v-4.8c0-0.3-0.1-0.6-0.2-0.8c-0.1-0.2-0.3-0.3-0.6-0.4c-0.2,0-0.4-0.1-0.6-0.1
		c-0.1,0-0.2,0-0.3,0c-0.1,0-0.2,0-0.3,0v4c0,0.3,0,0.5-0.1,0.7c0,0.2-0.1,0.4-0.2,0.6c-0.1,0.2-0.2,0.4-0.4,0.5
		c-0.2,0.1-0.4,0.2-0.6,0.3S550.1,253.6,549.8,253.6z"/>
	<path class="st2" d="M557.5,253.5v-7.3h1.7v7.3H557.5z"/>
	<path class="st2" d="M564.8,245.3l-3.1,8.2h-1.6l3.1-8.2H564.8z"/>
	<path class="st2" d="M565.8,253.5v-7.2c0.1,0,0.2,0,0.4-0.1c0.1,0,0.3,0,0.5,0c0.3,0,0.7-0.1,1-0.1c0.3,0,0.6,0,1,0
		c0.5,0,0.9,0,1.2,0.1c0.3,0.1,0.6,0.1,0.8,0.3c0.2,0.1,0.3,0.2,0.5,0.3c0.1,0.1,0.2,0.3,0.3,0.5c0.1,0.2,0.1,0.3,0.2,0.5
		c0,0.2,0,0.4,0,0.6v5.1H565.8z M567.5,252.2h2.4v-3.8c0-0.2,0-0.3-0.1-0.4c0-0.1-0.1-0.2-0.2-0.3c-0.1-0.1-0.1-0.1-0.2-0.1
		s-0.2-0.1-0.3-0.1c-0.1,0-0.2,0-0.3,0c-0.1,0-0.2,0-0.4,0c-0.1,0-0.3,0-0.4,0c-0.2,0-0.3,0-0.5,0V252.2z"/>
	<path class="st2" d="M573.3,251v-4.8h1.7v3.5l-1,1.3H573.3z"/>
	<path class="st2" d="M579.4,253.5v-4.8c0-0.3-0.1-0.6-0.2-0.8c-0.1-0.2-0.3-0.3-0.6-0.4c-0.1,0-0.2-0.1-0.3-0.1c-0.1,0-0.2,0-0.3,0
		c-0.2,0-0.4,0-0.6,0c-0.2,0-0.4,0-0.7,0c-0.2,0-0.5,0-0.7,0.1v-1.3c0.4,0,0.7-0.1,1-0.1c0.3,0,0.6,0,0.9,0c0.5,0,1,0,1.3,0.1
		c0.3,0,0.6,0.1,0.8,0.2c0.2,0.1,0.4,0.2,0.6,0.4c0.1,0.1,0.3,0.3,0.3,0.6c0.1,0.2,0.1,0.4,0.1,0.6c0,0.2,0,0.4,0,0.7v4.8H579.4z"/>
	<path class="st2" d="M585.5,253.5v-4.8c0-0.3-0.1-0.6-0.2-0.8c-0.1-0.2-0.3-0.3-0.6-0.4c-0.1,0-0.2-0.1-0.3-0.1c-0.1,0-0.2,0-0.3,0
		c-0.2,0-0.4,0-0.6,0c-0.2,0-0.4,0-0.7,0c-0.2,0-0.5,0-0.7,0.1v-1.3c0.4,0,0.7-0.1,1-0.1c0.3,0,0.6,0,0.9,0c0.5,0,1,0,1.3,0.1
		c0.3,0,0.6,0.1,0.8,0.2c0.2,0.1,0.4,0.2,0.6,0.4c0.1,0.1,0.3,0.3,0.3,0.6c0.1,0.2,0.1,0.4,0.1,0.6c0,0.2,0,0.4,0,0.7v4.8H585.5z"/>
	<path class="st2" d="M588.9,253.5v-7.3h1.7v7.3H588.9z"/>
	<path class="st2" d="M592.7,253.5l-0.6-7.3h1.6l0.3,3.7c0.1,0,0.2-0.1,0.4-0.1c0.1-0.1,0.2-0.1,0.3-0.2c0.1-0.1,0.2-0.3,0.2-0.4
		c0.1-0.2,0.1-0.4,0.1-0.6l0.2-2.3h1.6l-0.2,2.2c0,0.4-0.1,0.8-0.2,1.1c-0.1,0.3-0.3,0.6-0.6,0.9c-0.2,0.2-0.5,0.4-0.7,0.5
		s-0.6,0.2-1,0.2c0,0,0,0,0,0c0,0,0,0,0,0l0.1,1h1.5c0.4,0,0.7-0.1,1.1-0.3c0.3-0.2,0.6-0.5,0.8-0.9c0.2-0.4,0.3-0.9,0.4-1.5
		l0.3-3.2h1.6l-0.3,3.3c0,0.4-0.1,0.8-0.2,1.2c-0.1,0.4-0.2,0.7-0.4,1c-0.2,0.3-0.3,0.5-0.5,0.7c-0.2,0.2-0.4,0.4-0.7,0.6
		c-0.3,0.2-0.7,0.3-1,0.4c-0.4,0.1-0.8,0.1-1.2,0.1H592.7z"/>
	<path class="st2" d="M601.1,253.5l0.5-4.9c0-0.1,0-0.2,0-0.3s0-0.2,0-0.3c0-0.1,0-0.3,0-0.4c0-0.1,0-0.3-0.1-0.4
		c0-0.1,0-0.1-0.1-0.2s0-0.2-0.1-0.3s0-0.2-0.1-0.2c0,0,0-0.1,0-0.1c0,0,0-0.1-0.1-0.1h1.5c0.1,0.1,0.1,0.2,0.2,0.4
		c0,0.1,0.1,0.3,0.1,0.4h0.1c0.1-0.1,0.2-0.2,0.3-0.3c0.2-0.1,0.3-0.2,0.4-0.3c0.1-0.1,0.3-0.1,0.6-0.2c0.2-0.1,0.5-0.1,0.8-0.1
		c0.3,0,0.6,0,0.8,0.1c0.2,0.1,0.5,0.2,0.6,0.4c0.1,0.1,0.2,0.2,0.3,0.3c0.1,0.1,0.1,0.2,0.2,0.4c0.1,0.2,0.2,0.5,0.2,0.8
		c0.1,0.3,0.1,0.6,0.1,1v4.4h-3.1v-1.3h1.4v-3c0-0.2,0-0.4,0-0.6c0-0.2-0.1-0.3-0.1-0.4c0-0.1-0.1-0.2-0.2-0.3s-0.2-0.2-0.3-0.2
		c-0.1-0.1-0.3-0.1-0.4-0.1c-0.2,0-0.4,0-0.5,0.1c-0.2,0.1-0.3,0.1-0.4,0.2c-0.1,0.1-0.2,0.2-0.3,0.3s-0.1,0.2-0.2,0.3l-0.5,5.2
		H601.1z"/>
	<path class="st2" d="M609.4,253.5v-7.3h1.7v7.3H609.4z"/>
</g>
<g>
	<path class="st2" d="M480,208.4c-0.1,0-0.3,0-0.4,0c-0.1,0-0.3-0.1-0.4-0.1V207c0.2,0,0.4,0.1,0.6,0.1c0.2,0,0.4-0.1,0.5-0.2
		c0.1-0.1,0.1-0.3,0.1-0.6v-3.9c-0.1,0-0.3,0-0.4,0c-0.1,0-0.3,0-0.4,0v-1.3c0.4,0,0.8-0.1,1.2-0.1c0.4,0,0.7,0,1.1-0.1
		c0.3,0,0.7,0,1,0c0.4,0,0.7,0,0.9,0c0.3,0,0.5,0.1,0.7,0.1c0.2,0.1,0.4,0.1,0.5,0.2c0.2,0.1,0.3,0.2,0.4,0.4s0.2,0.3,0.3,0.5
		c0.1,0.1,0.1,0.3,0.1,0.5s0,0.4,0,0.6v4.9h-1.7v-4.8c0-0.3-0.1-0.6-0.2-0.8c-0.1-0.2-0.3-0.3-0.6-0.4c-0.2,0-0.4-0.1-0.6-0.1
		c-0.1,0-0.2,0-0.3,0c-0.1,0-0.2,0-0.3,0v4c0,0.3,0,0.5-0.1,0.7c0,0.2-0.1,0.4-0.2,0.6c-0.1,0.2-0.2,0.4-0.4,0.5
		c-0.2,0.1-0.4,0.2-0.6,0.3S480.3,208.4,480,208.4z"/>
	<path class="st2" d="M487.8,208.4v-7.3h1.7v7.3H487.8z"/>
	<path class="st2" d="M491.5,208.4c-0.1,0-0.2,0-0.3,0c-0.1,0-0.2,0-0.4-0.1l0.2-1.5c0.1,0,0.2,0,0.4,0.1s0.2,0,0.4,0
		c0.3,0,0.5,0,0.7-0.1c0.2-0.1,0.4-0.2,0.5-0.4c0.1-0.1,0.2-0.3,0.2-0.5c0.1-0.2,0.1-0.4,0.1-0.6v-2.2c0-0.3,0-0.5-0.1-0.6
		c-0.1-0.1-0.2-0.2-0.4-0.2c-0.2,0-0.3,0-0.5,0s-0.3,0.1-0.5,0.1v-1.4c0.4-0.1,0.8-0.1,1.2-0.1c0.4,0,0.7,0,0.9,0.1
		c0.2,0.1,0.4,0.2,0.6,0.3c0.2,0.2,0.4,0.4,0.5,0.7c0.1,0.3,0.1,0.6,0.1,1v5.3h-1.3l-0.3-1.1h-0.1c-0.1,0.1-0.1,0.2-0.3,0.4
		s-0.2,0.3-0.3,0.3c-0.1,0.1-0.3,0.2-0.5,0.3C491.9,208.4,491.7,208.4,491.5,208.4z"/>
	<path class="st2" d="M498.3,208.4l0.6-2.8l0.9-3.2h-3.7v-2.8h1.7v1.5h3.7v1.1l-1,3.4l-0.6,2.8H498.3z"/>
	<path class="st2" d="M502.6,208.4l0.5-4.9c0-0.1,0-0.2,0-0.3s0-0.2,0-0.3c0-0.1,0-0.3,0-0.4c0-0.1,0-0.3-0.1-0.4
		c0-0.1,0-0.1-0.1-0.2s0-0.2-0.1-0.3s0-0.2-0.1-0.2c0,0,0-0.1,0-0.1c0,0,0-0.1-0.1-0.1h1.5c0.1,0.1,0.1,0.2,0.2,0.4
		c0,0.1,0.1,0.3,0.1,0.4h0.1c0.1-0.1,0.2-0.2,0.3-0.3c0.2-0.1,0.3-0.2,0.4-0.3c0.1-0.1,0.3-0.1,0.6-0.2c0.2-0.1,0.5-0.1,0.8-0.1
		c0.3,0,0.6,0,0.8,0.1c0.2,0.1,0.5,0.2,0.6,0.4c0.1,0.1,0.2,0.2,0.3,0.3c0.1,0.1,0.1,0.2,0.2,0.4c0.1,0.2,0.2,0.5,0.2,0.8
		c0.1,0.3,0.1,0.6,0.1,1v4.4h-3.1V207h1.4v-3c0-0.2,0-0.4,0-0.6c0-0.2-0.1-0.3-0.1-0.4c0-0.1-0.1-0.2-0.2-0.3s-0.2-0.2-0.3-0.2
		c-0.1-0.1-0.3-0.1-0.4-0.1c-0.2,0-0.4,0-0.5,0.1c-0.2,0.1-0.3,0.1-0.4,0.2c-0.1,0.1-0.2,0.2-0.3,0.3s-0.1,0.2-0.2,0.3l-0.5,5.2
		H502.6z"/>
	<path class="st2" d="M477.9,222.2V215c0.1,0,0.2,0,0.4-0.1c0.1,0,0.3,0,0.5,0c0.3,0,0.7-0.1,1-0.1c0.3,0,0.6,0,1,0
		c0.5,0,0.9,0,1.2,0.1c0.3,0.1,0.6,0.1,0.8,0.3c0.2,0.1,0.3,0.2,0.5,0.3c0.1,0.1,0.2,0.3,0.3,0.5c0.1,0.2,0.1,0.3,0.2,0.5
		c0,0.2,0,0.4,0,0.6v5.1H477.9z M479.6,220.9h2.4v-3.8c0-0.2,0-0.3-0.1-0.4c0-0.1-0.1-0.2-0.2-0.3c-0.1-0.1-0.1-0.1-0.2-0.1
		s-0.2-0.1-0.3-0.1c-0.1,0-0.2,0-0.3,0c-0.1,0-0.2,0-0.4,0c-0.1,0-0.3,0-0.4,0c-0.2,0-0.3,0-0.5,0V220.9z"/>
	<path class="st2" d="M485.4,219.7v-4.8h1.7v3.5l-1,1.3H485.4z"/>
	<path class="st2" d="M491.4,222.3c-0.5,0-1-0.1-1.4-0.3c-0.3-0.1-0.6-0.3-0.8-0.6c-0.2-0.2-0.4-0.5-0.6-0.9
		c-0.1-0.3-0.2-0.6-0.2-0.9c-0.1-0.3-0.1-0.7-0.1-1.1c0-0.3,0-0.6,0.1-0.9c0.1-0.3,0.1-0.5,0.3-0.8c0.1-0.2,0.3-0.4,0.4-0.6l0,0
		l-0.7,0v-1.4c0.4,0,0.7,0,1-0.1c0.3,0,0.7,0,1,0s0.6,0,0.9,0c0.3,0,0.6,0,0.8,0.1c0.3,0.1,0.5,0.2,0.7,0.3c0.3,0.1,0.5,0.3,0.7,0.6
		c0.2,0.2,0.4,0.5,0.5,0.8c0.1,0.3,0.2,0.6,0.2,0.9c0.1,0.3,0.1,0.7,0.1,1.1c0,0.3,0,0.6-0.1,0.9c0,0.3-0.1,0.6-0.2,0.8
		c-0.1,0.4-0.3,0.7-0.5,1c-0.2,0.3-0.5,0.5-0.8,0.7C492.5,222.2,492,222.3,491.4,222.3z M491.5,220.9c0.2,0,0.4,0,0.6-0.1
		s0.3-0.2,0.4-0.4c0.1-0.1,0.2-0.3,0.2-0.5s0.1-0.4,0.1-0.6c0-0.2,0-0.5,0-0.7c0-0.5,0-0.9-0.1-1.3c-0.1-0.3-0.2-0.6-0.4-0.8
		c-0.1-0.1-0.2-0.2-0.4-0.3c-0.1-0.1-0.3-0.1-0.5-0.1c-0.1,0-0.2,0-0.3,0c-0.1,0-0.2,0-0.3,0c-0.2,0.3-0.4,0.6-0.5,1
		c-0.1,0.4-0.2,0.8-0.2,1.4c0,0.4,0,0.8,0.1,1.1c0.1,0.3,0.1,0.6,0.3,0.7c0.1,0.2,0.2,0.3,0.4,0.4S491.2,220.9,491.5,220.9z"/>
	<path class="st2" d="M498.6,222.2v-4.8c0-0.3-0.1-0.6-0.2-0.8c-0.1-0.2-0.3-0.3-0.6-0.4c-0.1,0-0.2-0.1-0.3-0.1c-0.1,0-0.2,0-0.3,0
		c-0.2,0-0.4,0-0.6,0c-0.2,0-0.4,0-0.7,0c-0.2,0-0.5,0-0.7,0.1v-1.3c0.4,0,0.7-0.1,1-0.1c0.3,0,0.6,0,0.9,0c0.5,0,1,0,1.3,0.1
		c0.3,0,0.6,0.1,0.8,0.2c0.2,0.1,0.4,0.2,0.6,0.4c0.1,0.1,0.3,0.3,0.3,0.6c0.1,0.2,0.1,0.4,0.1,0.6c0,0.2,0,0.4,0,0.7v4.8H498.6z"/>
	<path class="st2" d="M504.6,222.3c-0.3,0-0.5,0-0.8,0c-0.3,0-0.5,0-0.7,0c-0.2,0-0.4,0-0.5-0.1l-0.3,0v-1.3c0.4,0,0.8,0.1,1.2,0.1
		c0.4,0,0.8,0,1.2,0c0.2,0,0.4,0,0.5-0.1s0.3-0.1,0.4-0.2c0.1-0.1,0.2-0.3,0.3-0.5s0.1-0.4,0.1-0.6c0-0.2,0-0.4,0-0.5s0-0.3,0-0.5
		c0-0.2,0-0.4,0-0.6c0-0.2,0-0.4-0.1-0.6c0-0.2-0.1-0.4-0.2-0.6c-0.1-0.2-0.2-0.3-0.3-0.4c-0.1-0.1-0.2-0.1-0.3-0.2
		c-0.1,0-0.2-0.1-0.3-0.1c-0.2,0-0.4,0-0.6,0.1c-0.2,0.1-0.3,0.1-0.4,0.2c-0.1,0.1-0.2,0.2-0.3,0.4c-0.1,0.2-0.1,0.3-0.1,0.5
		c0,0.2,0,0.4,0.1,0.5c0.1,0.2,0.2,0.3,0.3,0.4c0.1,0.1,0.2,0.1,0.3,0.2s0.2,0.1,0.3,0.1l0.3,0.1l-0.3,1.2l-0.4,0
		c-0.2,0-0.4,0-0.6-0.1s-0.4-0.1-0.5-0.2c-0.2-0.1-0.3-0.2-0.5-0.3s-0.3-0.2-0.3-0.4c-0.1-0.2-0.2-0.4-0.3-0.7
		c-0.1-0.2-0.1-0.5-0.1-0.8c0-0.4,0.1-0.8,0.2-1.1s0.3-0.6,0.5-0.8c0.3-0.3,0.6-0.5,1-0.6c0.4-0.1,0.8-0.2,1.2-0.2
		c0.3,0,0.7,0,1,0.1c0.3,0.1,0.6,0.2,0.8,0.3c0.2,0.1,0.3,0.3,0.5,0.4c0.2,0.2,0.3,0.4,0.4,0.6c0.1,0.3,0.2,0.6,0.3,1
		c0.1,0.4,0.1,0.8,0.1,1.2c0,0.6-0.1,1.1-0.2,1.5c-0.1,0.4-0.2,0.8-0.4,1.1c-0.2,0.3-0.4,0.5-0.6,0.6s-0.5,0.3-0.7,0.4
		c-0.2,0.1-0.3,0.1-0.5,0.1C505,222.3,504.8,222.3,504.6,222.3z"/>
	<path class="st2" d="M509.1,222.2v-7.3h1.7v7.3H509.1z"/>
</g>
<g>
	<path class="st2" d="M498.6,459.9V453c0-0.3,0-0.5,0-0.7c0-0.2-0.1-0.4-0.2-0.6c0-0.1-0.1-0.2-0.1-0.2c-0.1-0.1-0.1-0.1-0.2-0.2
		c-0.2-0.2-0.6-0.3-1.1-0.3c-0.2,0-0.3,0-0.5,0c-0.1,0-0.3,0-0.4,0c-0.1,0-0.2,0-0.4,0.1s-0.3,0-0.4,0.1v-1.4c0.1,0,0.3,0,0.4-0.1
		c0.2,0,0.3,0,0.5,0c0.2,0,0.4,0,0.6,0c0.2,0,0.4,0,0.6,0c0.4,0,0.8,0.1,1.2,0.2c0.4,0.1,0.6,0.3,0.9,0.5c0.1,0.1,0.2,0.2,0.3,0.3
		c0.1,0.1,0.2,0.3,0.2,0.4c0.1,0.3,0.2,0.5,0.3,0.9c0.1,0.3,0.1,0.6,0.1,1v6.8H498.6z"/>
	<path class="st2" d="M502,457.1v-7.3h1.7v7.3H502z"/>
	<path class="st2" d="M505.2,457.1v-1.3h2c0-0.1,0.1-0.3,0.1-0.4c0-0.1,0-0.3,0-0.4v-3c0-0.1,0-0.3,0-0.4c0-0.1-0.1-0.2-0.2-0.3
		c-0.1-0.1-0.1-0.1-0.2-0.1c-0.1,0-0.2,0-0.3,0c-0.1,0-0.3,0-0.4,0c-0.1,0-0.3,0-0.5,0.1v-1.4c0.1,0,0.3-0.1,0.5-0.1
		c0.2,0,0.4,0,0.6,0c0.4,0,0.7,0,0.9,0.1c0.2,0.1,0.4,0.2,0.6,0.3s0.3,0.3,0.4,0.4c0.1,0.2,0.2,0.4,0.2,0.5c0,0.1,0.1,0.3,0.1,0.4
		s0,0.3,0,0.5v3c0,0.2,0,0.4,0,0.7s0,0.5-0.1,0.7s-0.1,0.4-0.1,0.5l-0.1,0.3H505.2z"/>
	<path class="st2" d="M510.4,454.6v-4.8h1.7v3.5l-1,1.3H510.4z"/>
	<path class="st2" d="M513.8,457.1v-7.2c0.1,0,0.3,0,0.4-0.1c0.1,0,0.3,0,0.5,0c0.3,0,0.6-0.1,1-0.1c0.3,0,0.6,0,1,0
		c0.4,0,0.8,0,1.1,0.1s0.6,0.1,0.8,0.2c0.2,0.1,0.4,0.2,0.6,0.4c0.1,0.1,0.3,0.3,0.3,0.6c0.1,0.2,0.1,0.4,0.1,0.6c0,0.2,0,0.4,0,0.7
		v4.8h-1.7v-4.8c0-0.3-0.1-0.6-0.2-0.8s-0.4-0.3-0.6-0.4c-0.1,0-0.2,0-0.3,0c-0.1,0-0.2,0-0.3,0c-0.1,0-0.3,0-0.4,0
		c-0.2,0-0.3,0-0.5,0v6H513.8z"/>
	<path class="st2" d="M524.3,454.6v-4.8h1.7v3.5l-1,1.3H524.3z"/>
	<path class="st2" d="M530.7,457.2c-0.3,0-0.5,0-0.8-0.1c-0.3,0-0.5-0.1-0.7-0.2c-0.2-0.1-0.3-0.2-0.5-0.4c-0.2-0.1-0.3-0.3-0.5-0.6
		c-0.2-0.3-0.3-0.7-0.4-1.1c-0.1-0.4-0.1-0.9-0.1-1.5v-3.6h1.7v3.6c0,0.5,0,0.9,0.1,1.2c0.1,0.3,0.2,0.6,0.3,0.8
		c0.1,0.1,0.2,0.3,0.4,0.3c0.2,0.1,0.3,0.1,0.5,0.1c0.2,0,0.4,0,0.6-0.1c0.2-0.1,0.3-0.2,0.4-0.4c0.1-0.2,0.2-0.5,0.3-0.8
		c0.1-0.3,0.1-0.7,0.1-1.1c0-0.4,0-0.8-0.1-1.1s-0.1-0.6-0.3-0.8c-0.1-0.2-0.2-0.3-0.4-0.4c-0.2-0.1-0.4-0.1-0.6-0.1
		c-0.1,0-0.1,0-0.2,0c-0.1,0-0.1,0-0.2,0v-1.3c0.1,0,0.3,0,0.4,0c0.1,0,0.3,0,0.4,0c0.3,0,0.5,0,0.8,0.1c0.3,0.1,0.5,0.2,0.7,0.3
		c0.1,0.1,0.3,0.2,0.4,0.4s0.2,0.3,0.3,0.5c0.1,0.3,0.2,0.6,0.3,1c0.1,0.4,0.1,0.9,0.1,1.4c0,0.4,0,0.7-0.1,1c0,0.3-0.1,0.6-0.2,0.9
		c-0.1,0.3-0.3,0.7-0.5,0.9c-0.2,0.3-0.4,0.5-0.7,0.6c-0.2,0.1-0.5,0.2-0.7,0.3C531.3,457.2,531,457.2,530.7,457.2z"/>
	<path class="st2" d="M538.1,457.1c0,0,0-0.1,0-0.1c0,0,0-0.1,0-0.1c0-0.2,0-0.4,0.1-0.7c0-0.3,0.1-0.6,0.2-0.9
		c0-0.1,0.1-0.3,0.1-0.4c0-0.1,0.1-0.3,0.1-0.4s0.1-0.3,0.1-0.4l1-2.9h-4.5v-1.3h6.3v1l-1.1,3.2c0,0.1-0.1,0.3-0.1,0.4
		s-0.1,0.3-0.1,0.5c0,0.2-0.1,0.3-0.1,0.4c0,0.1-0.1,0.2-0.1,0.4s-0.1,0.3-0.1,0.4s0,0.3-0.1,0.4c0,0.1,0,0.2,0,0.3v0.3H538.1z
		 M535.2,459.9v-7.1h1.7v7.1H535.2z"/>
	<path class="st2" d="M542.5,454.6v-4.8h1.7v3.5l-1,1.3H542.5z"/>
	<path class="st2" d="M545.9,457.1v-7.3h1.7v7.3H545.9z"/>
	<path class="st2" d="M552.1,457.1v-4.8c0-0.3-0.1-0.6-0.2-0.8c-0.1-0.2-0.3-0.3-0.6-0.4c-0.1,0-0.2-0.1-0.3-0.1c-0.1,0-0.2,0-0.3,0
		c-0.2,0-0.4,0-0.6,0c-0.2,0-0.4,0-0.7,0c-0.2,0-0.5,0-0.7,0.1v-1.3c0.4,0,0.7-0.1,1-0.1c0.3,0,0.6,0,0.9,0c0.5,0,1,0,1.3,0.1
		c0.3,0,0.6,0.1,0.8,0.2c0.2,0.1,0.4,0.2,0.6,0.4c0.1,0.1,0.3,0.3,0.3,0.6c0.1,0.2,0.1,0.4,0.1,0.6c0,0.2,0,0.4,0,0.7v4.8H552.1z"/>
	<path class="st2" d="M558.1,457.2c-0.3,0-0.5,0-0.8,0c-0.3,0-0.5,0-0.7,0c-0.2,0-0.4,0-0.5-0.1l-0.3,0v-1.3c0.4,0,0.8,0.1,1.2,0.1
		c0.4,0,0.8,0,1.2,0c0.2,0,0.4,0,0.5-0.1s0.3-0.1,0.4-0.2c0.1-0.1,0.2-0.3,0.3-0.5s0.1-0.4,0.1-0.6c0-0.2,0-0.4,0-0.5s0-0.3,0-0.5
		c0-0.2,0-0.4,0-0.6c0-0.2,0-0.4-0.1-0.6c0-0.2-0.1-0.4-0.2-0.6c-0.1-0.2-0.2-0.3-0.3-0.4c-0.1-0.1-0.2-0.1-0.3-0.2
		c-0.1,0-0.2-0.1-0.3-0.1c-0.2,0-0.4,0-0.6,0.1c-0.2,0.1-0.3,0.1-0.4,0.2c-0.1,0.1-0.2,0.2-0.3,0.4c-0.1,0.2-0.1,0.3-0.1,0.5
		c0,0.2,0,0.4,0.1,0.5c0.1,0.2,0.2,0.3,0.3,0.4c0.1,0.1,0.2,0.1,0.3,0.2s0.2,0.1,0.3,0.1l0.3,0.1l-0.3,1.2l-0.4,0
		c-0.2,0-0.4,0-0.6-0.1s-0.4-0.1-0.5-0.2c-0.2-0.1-0.3-0.2-0.5-0.3s-0.3-0.2-0.3-0.4c-0.1-0.2-0.2-0.4-0.3-0.7
		c-0.1-0.2-0.1-0.5-0.1-0.8c0-0.4,0.1-0.8,0.2-1.1s0.3-0.6,0.5-0.8c0.3-0.3,0.6-0.5,1-0.6c0.4-0.1,0.8-0.2,1.2-0.2
		c0.3,0,0.7,0,1,0.1c0.3,0.1,0.6,0.2,0.8,0.3c0.2,0.1,0.3,0.3,0.5,0.4c0.2,0.2,0.3,0.4,0.4,0.6c0.1,0.3,0.2,0.6,0.3,1
		c0.1,0.4,0.1,0.8,0.1,1.2c0,0.6-0.1,1.1-0.2,1.5c-0.1,0.4-0.2,0.8-0.4,1.1c-0.2,0.3-0.4,0.5-0.6,0.6s-0.5,0.3-0.7,0.4
		c-0.2,0.1-0.3,0.1-0.5,0.1C558.5,457.2,558.3,457.2,558.1,457.2z"/>
	<path class="st2" d="M509.5,470.9v-7.2c0.1,0,0.2,0,0.4-0.1c0.1,0,0.3,0,0.5,0c0.3,0,0.7-0.1,1-0.1c0.3,0,0.6,0,1,0
		c0.5,0,0.9,0,1.2,0.1c0.3,0.1,0.6,0.1,0.8,0.3c0.2,0.1,0.3,0.2,0.5,0.3c0.1,0.1,0.2,0.3,0.3,0.5c0.1,0.2,0.1,0.3,0.2,0.5
		c0,0.2,0,0.4,0,0.6v5.1H509.5z M511.2,469.6h2.4v-3.8c0-0.2,0-0.3-0.1-0.4c0-0.1-0.1-0.2-0.2-0.3c-0.1-0.1-0.1-0.1-0.2-0.1
		s-0.2-0.1-0.3-0.1c-0.1,0-0.2,0-0.3,0c-0.1,0-0.2,0-0.4,0c-0.1,0-0.3,0-0.4,0c-0.2,0-0.3,0-0.5,0V469.6z"/>
	<path class="st2" d="M517,468.5v-4.8h1.7v3.5l-1,1.3H517z"/>
	<path class="st2" d="M522.8,470.9v-4.7c0-0.2,0-0.3,0-0.4c0-0.1,0.1-0.3,0.1-0.4c0.1-0.1,0.1-0.2,0.2-0.3c0.1-0.1,0.1-0.1,0.2-0.2
		h-3.7v-1.3h5.8v1.2c-0.2,0.1-0.3,0.1-0.5,0.2c-0.1,0.1-0.2,0.2-0.3,0.3c-0.2,0.2-0.2,0.5-0.2,0.9v4.6H522.8z"/>
	<path class="st2" d="M526.7,470.9v-7.2c0.1,0,0.3,0,0.4-0.1c0.1,0,0.3,0,0.5,0c0.3,0,0.6-0.1,1-0.1c0.3,0,0.6,0,1,0
		c0.4,0,0.8,0,1.1,0.1s0.6,0.1,0.8,0.2c0.2,0.1,0.4,0.2,0.6,0.4c0.1,0.1,0.3,0.3,0.3,0.6c0.1,0.2,0.1,0.4,0.1,0.6c0,0.2,0,0.4,0,0.7
		v4.8h-1.7v-4.8c0-0.3-0.1-0.6-0.2-0.8s-0.4-0.3-0.6-0.4c-0.1,0-0.2,0-0.3,0c-0.1,0-0.2,0-0.3,0c-0.1,0-0.3,0-0.4,0
		c-0.2,0-0.3,0-0.5,0v6H526.7z"/>
	<path class="st2" d="M534.3,470.9v-7.3h1.7v7.3H534.3z"/>
	<path class="st2" d="M537.7,468.5v-4.8h1.7v3.5l-1,1.3H537.7z"/>
	<path class="st2" d="M540.8,470.9l0.5-4.9c0-0.1,0-0.2,0-0.3s0-0.2,0-0.3c0-0.1,0-0.3,0-0.4c0-0.1,0-0.3-0.1-0.4
		c0-0.1,0-0.1-0.1-0.2s0-0.2-0.1-0.3s0-0.2-0.1-0.2c0,0,0-0.1,0-0.1c0,0,0-0.1-0.1-0.1h1.5c0.1,0.1,0.1,0.2,0.2,0.4
		c0,0.1,0.1,0.3,0.1,0.4h0.1c0.1-0.1,0.2-0.2,0.3-0.3c0.2-0.1,0.3-0.2,0.4-0.3c0.1-0.1,0.3-0.1,0.6-0.2c0.2-0.1,0.5-0.1,0.8-0.1
		c0.3,0,0.6,0,0.8,0.1c0.2,0.1,0.5,0.2,0.6,0.4c0.1,0.1,0.2,0.2,0.3,0.3c0.1,0.1,0.1,0.2,0.2,0.4c0.1,0.2,0.2,0.5,0.2,0.8
		c0.1,0.3,0.1,0.6,0.1,1v4.4H544v-1.3h1.4v-3c0-0.2,0-0.4,0-0.6c0-0.2-0.1-0.3-0.1-0.4c0-0.1-0.1-0.2-0.2-0.3s-0.2-0.2-0.3-0.2
		c-0.1-0.1-0.3-0.1-0.4-0.1c-0.2,0-0.4,0-0.5,0.1c-0.2,0.1-0.3,0.1-0.4,0.2c-0.1,0.1-0.2,0.2-0.3,0.3s-0.1,0.2-0.2,0.3l-0.5,5.2
		H540.8z"/>
</g>
<g>
	<path class="st2" d="M406.8,416c-0.1,0-0.3,0-0.4,0c-0.1,0-0.3-0.1-0.4-0.1v-1.2c0.2,0,0.4,0.1,0.6,0.1c0.2,0,0.4-0.1,0.5-0.2
		c0.1-0.1,0.1-0.3,0.1-0.6V410c-0.1,0-0.3,0-0.4,0c-0.1,0-0.3,0-0.4,0v-1.3c0.4,0,0.8-0.1,1.2-0.1c0.4,0,0.7,0,1.1-0.1
		c0.3,0,0.7,0,1,0c0.4,0,0.7,0,0.9,0c0.3,0,0.5,0.1,0.7,0.1c0.2,0.1,0.4,0.1,0.5,0.2c0.2,0.1,0.3,0.2,0.4,0.4s0.2,0.3,0.3,0.5
		c0.1,0.1,0.1,0.3,0.1,0.5s0,0.4,0,0.6v4.9h-1.7v-4.8c0-0.3-0.1-0.6-0.2-0.8c-0.1-0.2-0.3-0.3-0.6-0.4c-0.2,0-0.4-0.1-0.6-0.1
		c-0.1,0-0.2,0-0.3,0c-0.1,0-0.2,0-0.3,0v4c0,0.3,0,0.5-0.1,0.7c0,0.2-0.1,0.4-0.2,0.6c-0.1,0.2-0.2,0.4-0.4,0.5
		c-0.2,0.1-0.4,0.2-0.6,0.3S407.1,416,406.8,416z"/>
	<path class="st2" d="M414.5,415.9v-7.3h1.7v7.3H414.5z"/>
	<path class="st2" d="M417.7,415.9v-1.3h2c0-0.1,0.1-0.3,0.1-0.4c0-0.1,0-0.3,0-0.4v-3c0-0.1,0-0.3,0-0.4c0-0.1-0.1-0.2-0.2-0.3
		c-0.1-0.1-0.1-0.1-0.2-0.1c-0.1,0-0.2,0-0.3,0c-0.1,0-0.3,0-0.4,0c-0.1,0-0.3,0-0.5,0.1v-1.4c0.1,0,0.3-0.1,0.5-0.1
		c0.2,0,0.4,0,0.6,0c0.4,0,0.7,0,0.9,0.1c0.2,0.1,0.4,0.2,0.6,0.3s0.3,0.3,0.4,0.4c0.1,0.2,0.2,0.4,0.2,0.5c0,0.1,0.1,0.3,0.1,0.4
		s0,0.3,0,0.5v3c0,0.2,0,0.4,0,0.7s0,0.5-0.1,0.7s-0.1,0.4-0.1,0.5l-0.1,0.3H417.7z"/>
	<path class="st2" d="M422.9,413.5v-4.8h1.7v3.5l-1,1.3H422.9z"/>
	<path class="st2" d="M426.3,415.9v-7.2c0.1,0,0.3,0,0.4-0.1c0.1,0,0.3,0,0.5,0c0.3,0,0.6-0.1,1-0.1c0.3,0,0.6,0,1,0
		c0.4,0,0.8,0,1.1,0.1s0.6,0.1,0.8,0.2c0.2,0.1,0.4,0.2,0.6,0.4c0.1,0.1,0.3,0.3,0.3,0.6c0.1,0.2,0.1,0.4,0.1,0.6c0,0.2,0,0.4,0,0.7
		v4.8h-1.7v-4.8c0-0.3-0.1-0.6-0.2-0.8s-0.4-0.3-0.6-0.4c-0.1,0-0.2,0-0.3,0c-0.1,0-0.2,0-0.3,0c-0.1,0-0.3,0-0.4,0
		c-0.2,0-0.3,0-0.5,0v6H426.3z"/>
	<path class="st2" d="M435.6,415.9l0.6-2.8l0.9-3.2h-3.7v-2.8h1.7v1.5h3.7v1.1l-1,3.4l-0.6,2.8H435.6z"/>
	<path class="st2" d="M439.8,415.9l0.5-4.9c0-0.1,0-0.2,0-0.3s0-0.2,0-0.3c0-0.1,0-0.3,0-0.4c0-0.1,0-0.3-0.1-0.4
		c0-0.1,0-0.1-0.1-0.2s0-0.2-0.1-0.3s0-0.2-0.1-0.2c0,0,0-0.1,0-0.1c0,0,0-0.1-0.1-0.1h1.5c0.1,0.1,0.1,0.2,0.2,0.4
		c0,0.1,0.1,0.3,0.1,0.4h0.1c0.1-0.1,0.2-0.2,0.3-0.3c0.2-0.1,0.3-0.2,0.4-0.3c0.1-0.1,0.3-0.1,0.6-0.2c0.2-0.1,0.5-0.1,0.8-0.1
		c0.3,0,0.6,0,0.8,0.1c0.2,0.1,0.5,0.2,0.6,0.4c0.1,0.1,0.2,0.2,0.3,0.3c0.1,0.1,0.1,0.2,0.2,0.4c0.1,0.2,0.2,0.5,0.2,0.8
		c0.1,0.3,0.1,0.6,0.1,1v4.4H443v-1.3h1.4v-3c0-0.2,0-0.4,0-0.6c0-0.2-0.1-0.3-0.1-0.4c0-0.1-0.1-0.2-0.2-0.3s-0.2-0.2-0.3-0.2
		c-0.1-0.1-0.3-0.1-0.4-0.1c-0.2,0-0.4,0-0.5,0.1c-0.2,0.1-0.3,0.1-0.4,0.2c-0.1,0.1-0.2,0.2-0.3,0.3s-0.1,0.2-0.2,0.3l-0.5,5.2
		H439.8z"/>
	<path class="st2" d="M405,429.8v-7.2c0.1,0,0.2,0,0.4-0.1c0.1,0,0.3,0,0.5,0c0.3,0,0.7-0.1,1-0.1c0.3,0,0.6,0,1,0
		c0.5,0,0.9,0,1.2,0.1c0.3,0.1,0.6,0.1,0.8,0.3c0.2,0.1,0.3,0.2,0.5,0.3c0.1,0.1,0.2,0.3,0.3,0.5c0.1,0.2,0.1,0.3,0.2,0.5
		c0,0.2,0,0.4,0,0.6v5.1H405z M406.7,428.4h2.4v-3.8c0-0.2,0-0.3-0.1-0.4c0-0.1-0.1-0.2-0.2-0.3c-0.1-0.1-0.1-0.1-0.2-0.1
		s-0.2-0.1-0.3-0.1c-0.1,0-0.2,0-0.3,0c-0.1,0-0.2,0-0.4,0c-0.1,0-0.3,0-0.4,0c-0.2,0-0.3,0-0.5,0V428.4z"/>
	<path class="st2" d="M412.5,427.3v-4.8h1.7v3.5l-1,1.3H412.5z"/>
	<path class="st2" d="M415.5,429.8v-1.3h2c0-0.1,0.1-0.3,0.1-0.4c0-0.1,0-0.3,0-0.4v-3c0-0.1,0-0.3,0-0.4c0-0.1-0.1-0.2-0.2-0.3
		c-0.1-0.1-0.1-0.1-0.2-0.1c-0.1,0-0.2,0-0.3,0c-0.1,0-0.3,0-0.4,0c-0.1,0-0.3,0-0.5,0.1v-1.4c0.1,0,0.3-0.1,0.5-0.1
		c0.2,0,0.4,0,0.6,0c0.4,0,0.7,0,0.9,0.1c0.2,0.1,0.4,0.2,0.6,0.3s0.3,0.3,0.4,0.4c0.1,0.2,0.2,0.4,0.2,0.5c0,0.1,0.1,0.3,0.1,0.4
		s0,0.3,0,0.5v3c0,0.2,0,0.4,0,0.7s0,0.5-0.1,0.7s-0.1,0.4-0.1,0.5l-0.1,0.3H415.5z"/>
	<path class="st2" d="M420.8,427.3v-4.8h1.7v3.5l-1,1.3H420.8z"/>
	<path class="st2" d="M424.2,429.8v-7.2c0.1,0,0.3,0,0.4-0.1c0.1,0,0.3,0,0.5,0c0.3,0,0.6-0.1,1-0.1c0.3,0,0.6,0,1,0
		c0.4,0,0.8,0,1.1,0.1s0.6,0.1,0.8,0.2c0.2,0.1,0.4,0.2,0.6,0.4c0.1,0.1,0.3,0.3,0.3,0.6c0.1,0.2,0.1,0.4,0.1,0.6c0,0.2,0,0.4,0,0.7
		v4.8h-1.7v-4.8c0-0.3-0.1-0.6-0.2-0.8s-0.4-0.3-0.6-0.4c-0.1,0-0.2,0-0.3,0c-0.1,0-0.2,0-0.3,0c-0.1,0-0.3,0-0.4,0
		c-0.2,0-0.3,0-0.5,0v6H424.2z"/>
	<path class="st2" d="M433.5,429.8l0.6-2.8l0.9-3.2h-3.7V421h1.7v1.5h3.7v1.1l-1,3.4l-0.6,2.8H433.5z"/>
	<path class="st2" d="M437.7,429.8l0.5-4.9c0-0.1,0-0.2,0-0.3s0-0.2,0-0.3c0-0.1,0-0.3,0-0.4c0-0.1,0-0.3-0.1-0.4
		c0-0.1,0-0.1-0.1-0.2s0-0.2-0.1-0.3s0-0.2-0.1-0.2c0,0,0-0.1,0-0.1c0,0,0-0.1-0.1-0.1h1.5c0.1,0.1,0.1,0.2,0.2,0.4
		c0,0.1,0.1,0.3,0.1,0.4h0.1c0.1-0.1,0.2-0.2,0.3-0.3c0.2-0.1,0.3-0.2,0.4-0.3c0.1-0.1,0.3-0.1,0.6-0.2c0.2-0.1,0.5-0.1,0.8-0.1
		c0.3,0,0.6,0,0.8,0.1c0.2,0.1,0.5,0.2,0.6,0.4c0.1,0.1,0.2,0.2,0.3,0.3c0.1,0.1,0.1,0.2,0.2,0.4c0.1,0.2,0.2,0.5,0.2,0.8
		c0.1,0.3,0.1,0.6,0.1,1v4.4h-3.1v-1.3h1.4v-3c0-0.2,0-0.4,0-0.6c0-0.2-0.1-0.3-0.1-0.4c0-0.1-0.1-0.2-0.2-0.3s-0.2-0.2-0.3-0.2
		c-0.1-0.1-0.3-0.1-0.4-0.1c-0.2,0-0.4,0-0.5,0.1c-0.2,0.1-0.3,0.1-0.4,0.2c-0.1,0.1-0.2,0.2-0.3,0.3s-0.1,0.2-0.2,0.3l-0.5,5.2
		H437.7z"/>
	<path class="st2" d="M446,429.8v-7.3h1.7v7.3H446z"/>
</g>
<g>
	<path class="st2" d="M370.2,337.2v-4.8c0-0.3-0.1-0.5-0.2-0.7s-0.3-0.3-0.5-0.4c-0.1,0-0.2-0.1-0.3-0.1s-0.3,0-0.4,0
		c-0.3,0-0.7,0-1.1,0c-0.4,0-0.9,0.1-1.5,0.1V330c0.2,0,0.4-0.1,0.6-0.1c0.2,0,0.4,0,0.6-0.1c0.3,0,0.6,0,0.8,0c0.3,0,0.5,0,0.8,0
		c0.4,0,0.8,0,1.1,0.1s0.6,0.1,0.8,0.2c0.2,0.1,0.4,0.2,0.6,0.4s0.3,0.3,0.3,0.6c0.1,0.2,0.1,0.4,0.1,0.6c0,0.2,0,0.4,0,0.7v4.8
		H370.2z M366.1,337.2v-4.3h1.7v4.3H366.1z"/>
	<path class="st2" d="M373.6,334.7v-4.8h1.7v3.5l-1,1.3H373.6z"/>
	<path class="st2" d="M376.7,337.2l0.5-4.9c0-0.1,0-0.2,0-0.3s0-0.2,0-0.3c0-0.1,0-0.3,0-0.4c0-0.1,0-0.3-0.1-0.4
		c0-0.1,0-0.1-0.1-0.2s0-0.2-0.1-0.3s0-0.2-0.1-0.2c0,0,0-0.1,0-0.1c0,0,0-0.1-0.1-0.1h1.5c0.1,0.1,0.1,0.2,0.2,0.4
		c0,0.1,0.1,0.3,0.1,0.4h0.1c0.1-0.1,0.2-0.2,0.3-0.3c0.2-0.1,0.3-0.2,0.4-0.3c0.1-0.1,0.3-0.1,0.6-0.2c0.2-0.1,0.5-0.1,0.8-0.1
		c0.3,0,0.6,0,0.8,0.1c0.2,0.1,0.5,0.2,0.6,0.4c0.1,0.1,0.2,0.2,0.3,0.3c0.1,0.1,0.1,0.2,0.2,0.4c0.1,0.2,0.2,0.5,0.2,0.8
		c0.1,0.3,0.1,0.6,0.1,1v4.4h-3.1v-1.3h1.4v-3c0-0.2,0-0.4,0-0.6c0-0.2-0.1-0.3-0.1-0.4c0-0.1-0.1-0.2-0.2-0.3s-0.2-0.2-0.3-0.2
		c-0.1-0.1-0.3-0.1-0.4-0.1c-0.2,0-0.4,0-0.5,0.1c-0.2,0.1-0.3,0.1-0.4,0.2c-0.1,0.1-0.2,0.2-0.3,0.3s-0.1,0.2-0.2,0.3l-0.5,5.2
		H376.7z"/>
	<path class="st2" d="M387.4,337.2v-4.7c0-0.2,0-0.3,0-0.4c0-0.1,0.1-0.3,0.1-0.4c0.1-0.1,0.1-0.2,0.2-0.3c0.1-0.1,0.1-0.1,0.2-0.2
		h-3.7v-1.3h5.8v1.2c-0.2,0.1-0.3,0.1-0.5,0.2c-0.1,0.1-0.2,0.2-0.3,0.3c-0.2,0.2-0.2,0.5-0.2,0.9v4.6H387.4z"/>
	<path class="st2" d="M394.2,337.2c0,0,0-0.1,0-0.1c0,0,0-0.1,0-0.1c0-0.2,0-0.4,0.1-0.7c0-0.3,0.1-0.6,0.2-0.9
		c0-0.1,0.1-0.3,0.1-0.4c0-0.1,0.1-0.3,0.1-0.4s0.1-0.3,0.1-0.4l1-2.9h-4.5v-1.3h6.3v1l-1.1,3.2c0,0.1-0.1,0.3-0.1,0.4
		s-0.1,0.3-0.1,0.5c0,0.2-0.1,0.3-0.1,0.4c0,0.1-0.1,0.2-0.1,0.4s-0.1,0.3-0.1,0.4s0,0.3-0.1,0.4c0,0.1,0,0.2,0,0.3v0.3H394.2z
		 M391.3,340v-7.1h1.7v7.1H391.3z"/>
	<path class="st2" d="M398.4,337.2v-2.6c0-0.2,0-0.4,0-0.5s0-0.3,0.1-0.4s0.1-0.3,0.2-0.4c0.1-0.2,0.2-0.4,0.4-0.5s0.4-0.3,0.7-0.3
		l-1.5-2.5h1.9l2.2,3.6c0,0,0.1-0.1,0.1-0.1c0,0,0-0.1,0.1-0.1c0.1-0.1,0.1-0.2,0.2-0.3c0-0.1,0.1-0.3,0.1-0.5v-2.7h1.7v2.6
		c0,0.3,0,0.5-0.1,0.7c0,0.2-0.1,0.4-0.2,0.6c-0.1,0.2-0.2,0.4-0.4,0.5c-0.2,0.1-0.4,0.3-0.7,0.4l1.5,2.5h-1.9l-2.2-3.7
		c-0.1,0-0.1,0.1-0.2,0.1c-0.1,0.1-0.1,0.2-0.2,0.3c-0.1,0.2-0.1,0.4-0.1,0.6v2.6H398.4z"/>
</g>
<g>
	<path class="st2" d="M462,318.5v-6.4c0-0.5,0-0.8-0.1-1.1c0-0.3-0.1-0.5-0.2-0.7c-0.1-0.2-0.3-0.4-0.5-0.4
		c-0.2-0.1-0.4-0.1-0.6-0.1s-0.4,0-0.6,0.1c-0.2,0.1-0.3,0.2-0.4,0.3c-0.1,0.1-0.2,0.2-0.2,0.4c-0.1,0.1-0.1,0.3-0.1,0.5
		c0,0.2,0,0.4,0.1,0.5c0.1,0.2,0.2,0.3,0.3,0.4c0.1,0.1,0.2,0.1,0.3,0.2s0.2,0.1,0.3,0.1l0.3,0.1l-0.3,1.2l-0.4,0
		c-0.4,0-0.7-0.1-1-0.2c-0.3-0.1-0.5-0.3-0.8-0.5c-0.2-0.2-0.3-0.5-0.4-0.8c-0.1-0.3-0.2-0.6-0.2-1c0-0.3,0.1-0.7,0.2-1
		s0.3-0.6,0.5-0.8c0.1-0.1,0.2-0.2,0.3-0.3c0.1-0.1,0.3-0.2,0.4-0.2c0.2-0.1,0.5-0.2,0.8-0.2c0.3-0.1,0.5-0.1,0.8-0.1
		c0.3,0,0.7,0,0.9,0.1c0.3,0.1,0.5,0.2,0.8,0.3c0.2,0.1,0.4,0.3,0.5,0.5c0.2,0.2,0.3,0.4,0.4,0.6c0.1,0.3,0.2,0.6,0.3,1
		c0.1,0.4,0.1,0.8,0.1,1.2v6.4H462z"/>
	<path class="st2" d="M468.2,315.8c-0.5,0-1-0.1-1.4-0.3c-0.3-0.1-0.6-0.3-0.8-0.6c-0.2-0.2-0.4-0.5-0.6-0.9
		c-0.1-0.3-0.2-0.6-0.2-0.9c-0.1-0.3-0.1-0.7-0.1-1.1c0-0.3,0-0.6,0.1-0.9c0.1-0.3,0.1-0.5,0.3-0.8c0.1-0.2,0.3-0.4,0.4-0.6l0,0
		l-0.7,0v-1.4c0.4,0,0.7,0,1-0.1c0.3,0,0.7,0,1,0s0.6,0,0.9,0c0.3,0,0.6,0,0.8,0.1c0.3,0.1,0.5,0.2,0.7,0.3c0.3,0.1,0.5,0.3,0.7,0.6
		c0.2,0.2,0.4,0.5,0.5,0.8c0.1,0.3,0.2,0.6,0.2,0.9c0.1,0.3,0.1,0.7,0.1,1.1c0,0.3,0,0.6-0.1,0.9c0,0.3-0.1,0.6-0.2,0.8
		c-0.1,0.4-0.3,0.7-0.5,1c-0.2,0.3-0.5,0.5-0.8,0.7C469.3,315.7,468.8,315.8,468.2,315.8z M468.2,314.5c0.2,0,0.4,0,0.6-0.1
		s0.3-0.2,0.4-0.4c0.1-0.1,0.2-0.3,0.2-0.5s0.1-0.4,0.1-0.6c0-0.2,0-0.5,0-0.7c0-0.5,0-0.9-0.1-1.3c-0.1-0.3-0.2-0.6-0.4-0.8
		c-0.1-0.1-0.2-0.2-0.4-0.3c-0.1-0.1-0.3-0.1-0.5-0.1c-0.1,0-0.2,0-0.3,0c-0.1,0-0.2,0-0.3,0c-0.2,0.3-0.4,0.6-0.5,1
		c-0.1,0.4-0.2,0.8-0.2,1.4c0,0.4,0,0.8,0.1,1.1c0.1,0.3,0.1,0.6,0.3,0.7c0.1,0.2,0.2,0.3,0.4,0.4S468,314.5,468.2,314.5z"/>
	<path class="st2" d="M472.7,315.7v-7.3h1.7v7.3H472.7z"/>
	<path class="st2" d="M475.8,315.7v-1.3h2c0-0.1,0.1-0.3,0.1-0.4c0-0.1,0-0.3,0-0.4v-3c0-0.1,0-0.3,0-0.4c0-0.1-0.1-0.2-0.2-0.3
		c-0.1-0.1-0.1-0.1-0.2-0.1c-0.1,0-0.2,0-0.3,0c-0.1,0-0.3,0-0.4,0c-0.1,0-0.3,0-0.5,0.1v-1.4c0.1,0,0.3-0.1,0.5-0.1
		c0.2,0,0.4,0,0.6,0c0.4,0,0.7,0,0.9,0.1c0.2,0.1,0.4,0.2,0.6,0.3s0.3,0.3,0.4,0.4c0.1,0.2,0.2,0.4,0.2,0.5c0,0.1,0.1,0.3,0.1,0.4
		s0,0.3,0,0.5v3c0,0.2,0,0.4,0,0.7s0,0.5-0.1,0.7s-0.1,0.4-0.1,0.5l-0.1,0.3H475.8z"/>
	<path class="st2" d="M483.9,315.7v-2.6c0-0.2,0-0.4,0-0.5s0-0.3,0.1-0.4s0.1-0.3,0.2-0.4c0.1-0.2,0.2-0.4,0.4-0.5s0.4-0.3,0.7-0.3
		l-1.5-2.5h1.9l2.2,3.6c0,0,0.1-0.1,0.1-0.1c0,0,0-0.1,0.1-0.1c0.1-0.1,0.1-0.2,0.2-0.3c0-0.1,0.1-0.3,0.1-0.5v-2.7h1.7v2.6
		c0,0.3,0,0.5-0.1,0.7c0,0.2-0.1,0.4-0.2,0.6c-0.1,0.2-0.2,0.4-0.4,0.5c-0.2,0.1-0.4,0.3-0.7,0.4l1.5,2.5h-1.9l-2.2-3.7
		c-0.1,0-0.1,0.1-0.2,0.1c-0.1,0.1-0.1,0.2-0.2,0.3c-0.1,0.2-0.1,0.4-0.1,0.6v2.6H483.9z"/>
	<path class="st2" d="M491.9,315.7l-0.6-7.3h1.6l0.3,3.7c0.1,0,0.2-0.1,0.4-0.1c0.1-0.1,0.2-0.1,0.3-0.2c0.1-0.1,0.2-0.3,0.2-0.4
		c0.1-0.2,0.1-0.4,0.1-0.6l0.2-2.3h1.6l-0.2,2.2c0,0.4-0.1,0.8-0.2,1.1c-0.1,0.3-0.3,0.6-0.6,0.9c-0.2,0.2-0.5,0.4-0.7,0.5
		s-0.6,0.2-1,0.2c0,0,0,0,0,0c0,0,0,0,0,0l0.1,1h1.5c0.4,0,0.7-0.1,1.1-0.3c0.3-0.2,0.6-0.5,0.8-0.9c0.2-0.4,0.3-0.9,0.4-1.5
		l0.3-3.2h1.6l-0.3,3.3c0,0.4-0.1,0.8-0.2,1.2c-0.1,0.4-0.2,0.7-0.4,1c-0.2,0.3-0.3,0.5-0.5,0.7c-0.2,0.2-0.4,0.4-0.7,0.6
		c-0.3,0.2-0.7,0.3-1,0.4c-0.4,0.1-0.8,0.1-1.2,0.1H491.9z"/>
	<path class="st2" d="M500.6,315.7v-7.3h1.7v7.3H500.6z"/>
	<path class="st2" d="M503.8,315.7v-1.3h2c0-0.1,0.1-0.3,0.1-0.4c0-0.1,0-0.3,0-0.4v-3c0-0.1,0-0.3,0-0.4c0-0.1-0.1-0.2-0.2-0.3
		c-0.1-0.1-0.1-0.1-0.2-0.1c-0.1,0-0.2,0-0.3,0c-0.1,0-0.3,0-0.4,0c-0.1,0-0.3,0-0.5,0.1v-1.4c0.1,0,0.3-0.1,0.5-0.1
		c0.2,0,0.4,0,0.6,0c0.4,0,0.7,0,0.9,0.1c0.2,0.1,0.4,0.2,0.6,0.3s0.3,0.3,0.4,0.4c0.1,0.2,0.2,0.4,0.2,0.5c0,0.1,0.1,0.3,0.1,0.4
		s0,0.3,0,0.5v3c0,0.2,0,0.4,0,0.7s0,0.5-0.1,0.7s-0.1,0.4-0.1,0.5l-0.1,0.3H503.8z"/>
</g>
<g>
	<path class="st2" d="M581.9,372.2v-6.4c0-0.5,0-0.8-0.1-1.1c0-0.3-0.1-0.5-0.2-0.7c-0.1-0.2-0.3-0.4-0.5-0.4
		c-0.2-0.1-0.4-0.1-0.6-0.1s-0.4,0-0.6,0.1c-0.2,0.1-0.3,0.2-0.4,0.3c-0.1,0.1-0.2,0.2-0.2,0.4c-0.1,0.1-0.1,0.3-0.1,0.5
		c0,0.2,0,0.4,0.1,0.5c0.1,0.2,0.2,0.3,0.3,0.4c0.1,0.1,0.2,0.1,0.3,0.2s0.2,0.1,0.3,0.1l0.3,0.1l-0.3,1.2l-0.4,0
		c-0.4,0-0.7-0.1-1-0.2c-0.3-0.1-0.5-0.3-0.8-0.5c-0.2-0.2-0.3-0.5-0.4-0.8c-0.1-0.3-0.2-0.6-0.2-1c0-0.3,0.1-0.7,0.2-1
		s0.3-0.6,0.5-0.8c0.1-0.1,0.2-0.2,0.3-0.3c0.1-0.1,0.3-0.2,0.4-0.2c0.2-0.1,0.5-0.2,0.8-0.2c0.3-0.1,0.5-0.1,0.8-0.1
		c0.3,0,0.7,0,0.9,0.1c0.3,0.1,0.5,0.2,0.8,0.3c0.2,0.1,0.4,0.3,0.5,0.5c0.2,0.2,0.3,0.4,0.4,0.6c0.1,0.3,0.2,0.6,0.3,1
		c0.1,0.4,0.1,0.8,0.1,1.2v6.4H581.9z"/>
	<path class="st2" d="M588.1,369.5c-0.5,0-1-0.1-1.4-0.3c-0.3-0.1-0.6-0.3-0.8-0.6c-0.2-0.2-0.4-0.5-0.6-0.9
		c-0.1-0.3-0.2-0.6-0.2-0.9c-0.1-0.3-0.1-0.7-0.1-1.1c0-0.3,0-0.6,0.1-0.9c0.1-0.3,0.1-0.5,0.3-0.8c0.1-0.2,0.3-0.4,0.4-0.6l0,0
		l-0.7,0v-1.4c0.4,0,0.7,0,1-0.1c0.3,0,0.7,0,1,0s0.6,0,0.9,0c0.3,0,0.6,0,0.8,0.1c0.3,0.1,0.5,0.2,0.7,0.3c0.3,0.1,0.5,0.3,0.7,0.6
		c0.2,0.2,0.4,0.5,0.5,0.8c0.1,0.3,0.2,0.6,0.2,0.9c0.1,0.3,0.1,0.7,0.1,1.1c0,0.3,0,0.6-0.1,0.9c0,0.3-0.1,0.6-0.2,0.8
		c-0.1,0.4-0.3,0.7-0.5,1c-0.2,0.3-0.5,0.5-0.8,0.7C589.2,369.4,588.7,369.5,588.1,369.5z M588.1,368.2c0.2,0,0.4,0,0.6-0.1
		s0.3-0.2,0.4-0.4c0.1-0.1,0.2-0.3,0.2-0.5s0.1-0.4,0.1-0.6c0-0.2,0-0.5,0-0.7c0-0.5,0-0.9-0.1-1.3c-0.1-0.3-0.2-0.6-0.4-0.8
		c-0.1-0.1-0.2-0.2-0.4-0.3c-0.1-0.1-0.3-0.1-0.5-0.1c-0.1,0-0.2,0-0.3,0c-0.1,0-0.2,0-0.3,0c-0.2,0.3-0.4,0.6-0.5,1
		c-0.1,0.4-0.2,0.8-0.2,1.4c0,0.4,0,0.8,0.1,1.1c0.1,0.3,0.1,0.6,0.3,0.7c0.1,0.2,0.2,0.3,0.4,0.4S587.9,368.2,588.1,368.2z"/>
	<path class="st2" d="M592.6,369.4v-7.3h1.7v7.3H592.6z"/>
	<path class="st2" d="M595.7,369.4v-1.3h2c0-0.1,0.1-0.3,0.1-0.4c0-0.1,0-0.3,0-0.4v-3c0-0.1,0-0.3,0-0.4c0-0.1-0.1-0.2-0.2-0.3
		c-0.1-0.1-0.1-0.1-0.2-0.1c-0.1,0-0.2,0-0.3,0c-0.1,0-0.3,0-0.4,0c-0.1,0-0.3,0-0.5,0.1v-1.4c0.1,0,0.3-0.1,0.5-0.1
		c0.2,0,0.4,0,0.6,0c0.4,0,0.7,0,0.9,0.1c0.2,0.1,0.4,0.2,0.6,0.3s0.3,0.3,0.4,0.4c0.1,0.2,0.2,0.4,0.2,0.5c0,0.1,0.1,0.3,0.1,0.4
		s0,0.3,0,0.5v3c0,0.2,0,0.4,0,0.7s0,0.5-0.1,0.7s-0.1,0.4-0.1,0.5l-0.1,0.3H595.7z"/>
	<path class="st2" d="M603.8,369.4v-2.6c0-0.2,0-0.4,0-0.5s0-0.3,0.1-0.4s0.1-0.3,0.2-0.4c0.1-0.2,0.2-0.4,0.4-0.5s0.4-0.3,0.7-0.3
		l-1.5-2.5h1.9l2.2,3.6c0,0,0.1-0.1,0.1-0.1c0,0,0-0.1,0.1-0.1c0.1-0.1,0.1-0.2,0.2-0.3c0-0.1,0.1-0.3,0.1-0.5v-2.7h1.7v2.6
		c0,0.3,0,0.5-0.1,0.7c0,0.2-0.1,0.4-0.2,0.6c-0.1,0.2-0.2,0.4-0.4,0.5c-0.2,0.1-0.4,0.3-0.7,0.4l1.5,2.5h-1.9l-2.2-3.7
		c-0.1,0-0.1,0.1-0.2,0.1c-0.1,0.1-0.1,0.2-0.2,0.3c-0.1,0.2-0.1,0.4-0.1,0.6v2.6H603.8z"/>
	<path class="st2" d="M611.8,369.4l-0.6-7.3h1.6l0.3,3.7c0.1,0,0.2-0.1,0.4-0.1c0.1-0.1,0.2-0.1,0.3-0.2c0.1-0.1,0.2-0.3,0.2-0.4
		c0.1-0.2,0.1-0.4,0.1-0.6l0.2-2.3h1.6l-0.2,2.2c0,0.4-0.1,0.8-0.2,1.1c-0.1,0.3-0.3,0.6-0.6,0.9c-0.2,0.2-0.5,0.4-0.7,0.5
		s-0.6,0.2-1,0.2c0,0,0,0,0,0c0,0,0,0,0,0l0.1,1h1.5c0.4,0,0.7-0.1,1.1-0.3c0.3-0.2,0.6-0.5,0.8-0.9c0.2-0.4,0.3-0.9,0.4-1.5
		l0.3-3.2h1.6l-0.3,3.3c0,0.4-0.1,0.8-0.2,1.2c-0.1,0.4-0.2,0.7-0.4,1c-0.2,0.3-0.3,0.5-0.5,0.7c-0.2,0.2-0.4,0.4-0.7,0.6
		c-0.3,0.2-0.7,0.3-1,0.4c-0.4,0.1-0.8,0.1-1.2,0.1H611.8z"/>
	<path class="st2" d="M620.5,369.4v-7.3h1.7v7.3H620.5z"/>
	<path class="st2" d="M623.7,369.4v-1.3h2c0-0.1,0.1-0.3,0.1-0.4c0-0.1,0-0.3,0-0.4v-3c0-0.1,0-0.3,0-0.4c0-0.1-0.1-0.2-0.2-0.3
		c-0.1-0.1-0.1-0.1-0.2-0.1c-0.1,0-0.2,0-0.3,0c-0.1,0-0.3,0-0.4,0c-0.1,0-0.3,0-0.5,0.1v-1.4c0.1,0,0.3-0.1,0.5-0.1
		c0.2,0,0.4,0,0.6,0c0.4,0,0.7,0,0.9,0.1c0.2,0.1,0.4,0.2,0.6,0.3s0.3,0.3,0.4,0.4c0.1,0.2,0.2,0.4,0.2,0.5c0,0.1,0.1,0.3,0.1,0.4
		s0,0.3,0,0.5v3c0,0.2,0,0.4,0,0.7s0,0.5-0.1,0.7s-0.1,0.4-0.1,0.5l-0.1,0.3H623.7z"/>
</g>
<g>
	<path class="st2" d="M383.3,249.6v-6.4c0-0.5,0-0.8-0.1-1.1c0-0.3-0.1-0.5-0.2-0.7c-0.1-0.2-0.3-0.4-0.5-0.4
		c-0.2-0.1-0.4-0.1-0.6-0.1s-0.4,0-0.6,0.1c-0.2,0.1-0.3,0.2-0.4,0.3c-0.1,0.1-0.2,0.2-0.2,0.4c-0.1,0.1-0.1,0.3-0.1,0.5
		c0,0.2,0,0.4,0.1,0.5c0.1,0.2,0.2,0.3,0.3,0.4c0.1,0.1,0.2,0.1,0.3,0.2s0.2,0.1,0.3,0.1l0.3,0.1l-0.3,1.2l-0.4,0
		c-0.4,0-0.7-0.1-1-0.2c-0.3-0.1-0.5-0.3-0.8-0.5c-0.2-0.2-0.3-0.5-0.4-0.8c-0.1-0.3-0.2-0.6-0.2-1c0-0.3,0.1-0.7,0.2-1
		s0.3-0.6,0.5-0.8c0.1-0.1,0.2-0.2,0.3-0.3c0.1-0.1,0.3-0.2,0.4-0.2c0.2-0.1,0.5-0.2,0.8-0.2c0.3-0.1,0.5-0.1,0.8-0.1
		c0.3,0,0.7,0,0.9,0.1c0.3,0.1,0.5,0.2,0.8,0.3c0.2,0.1,0.4,0.3,0.5,0.5c0.2,0.2,0.3,0.4,0.4,0.6c0.1,0.3,0.2,0.6,0.3,1
		c0.1,0.4,0.1,0.8,0.1,1.2v6.4H383.3z"/>
	<path class="st2" d="M389.5,246.9c-0.5,0-1-0.1-1.4-0.3c-0.3-0.1-0.6-0.3-0.8-0.6c-0.2-0.2-0.4-0.5-0.6-0.9
		c-0.1-0.3-0.2-0.6-0.2-0.9c-0.1-0.3-0.1-0.7-0.1-1.1c0-0.3,0-0.6,0.1-0.9c0.1-0.3,0.1-0.5,0.3-0.8c0.1-0.2,0.3-0.4,0.4-0.6l0,0
		l-0.7,0v-1.4c0.4,0,0.7,0,1-0.1c0.3,0,0.7,0,1,0s0.6,0,0.9,0c0.3,0,0.6,0,0.8,0.1c0.3,0.1,0.5,0.2,0.7,0.3c0.3,0.1,0.5,0.3,0.7,0.6
		c0.2,0.2,0.4,0.5,0.5,0.8c0.1,0.3,0.2,0.6,0.2,0.9c0.1,0.3,0.1,0.7,0.1,1.1c0,0.3,0,0.6-0.1,0.9c0,0.3-0.1,0.6-0.2,0.8
		c-0.1,0.4-0.3,0.7-0.5,1c-0.2,0.3-0.5,0.5-0.8,0.7C390.6,246.8,390.1,246.9,389.5,246.9z M389.5,245.6c0.2,0,0.4,0,0.6-0.1
		s0.3-0.2,0.4-0.4c0.1-0.1,0.2-0.3,0.2-0.5s0.1-0.4,0.1-0.6c0-0.2,0-0.5,0-0.7c0-0.5,0-0.9-0.1-1.3c-0.1-0.3-0.2-0.6-0.4-0.8
		c-0.1-0.1-0.2-0.2-0.4-0.3c-0.1-0.1-0.3-0.1-0.5-0.1c-0.1,0-0.2,0-0.3,0c-0.1,0-0.2,0-0.3,0c-0.2,0.3-0.4,0.6-0.5,1
		c-0.1,0.4-0.2,0.8-0.2,1.4c0,0.4,0,0.8,0.1,1.1c0.1,0.3,0.1,0.6,0.3,0.7c0.1,0.2,0.2,0.3,0.4,0.4S389.3,245.6,389.5,245.6z"/>
	<path class="st2" d="M393.9,246.8v-7.3h1.7v7.3H393.9z"/>
	<path class="st2" d="M397.1,246.8v-1.3h2c0-0.1,0.1-0.3,0.1-0.4c0-0.1,0-0.3,0-0.4v-3c0-0.1,0-0.3,0-0.4c0-0.1-0.1-0.2-0.2-0.3
		c-0.1-0.1-0.1-0.1-0.2-0.1c-0.1,0-0.2,0-0.3,0c-0.1,0-0.3,0-0.4,0c-0.1,0-0.3,0-0.5,0.1v-1.4c0.1,0,0.3-0.1,0.5-0.1
		c0.2,0,0.4,0,0.6,0c0.4,0,0.7,0,0.9,0.1c0.2,0.1,0.4,0.2,0.6,0.3s0.3,0.3,0.4,0.4c0.1,0.2,0.2,0.4,0.2,0.5c0,0.1,0.1,0.3,0.1,0.4
		s0,0.3,0,0.5v3c0,0.2,0,0.4,0,0.7s0,0.5-0.1,0.7s-0.1,0.4-0.1,0.5l-0.1,0.3H397.1z"/>
	<path class="st2" d="M405.1,246.8v-2.6c0-0.2,0-0.4,0-0.5s0-0.3,0.1-0.4s0.1-0.3,0.2-0.4c0.1-0.2,0.2-0.4,0.4-0.5s0.4-0.3,0.7-0.3
		l-1.5-2.5h1.9l2.2,3.6c0,0,0.1-0.1,0.1-0.1c0,0,0-0.1,0.1-0.1c0.1-0.1,0.1-0.2,0.2-0.3c0-0.1,0.1-0.3,0.1-0.5v-2.7h1.7v2.6
		c0,0.3,0,0.5-0.1,0.7c0,0.2-0.1,0.4-0.2,0.6c-0.1,0.2-0.2,0.4-0.4,0.5c-0.2,0.1-0.4,0.3-0.7,0.4l1.5,2.5h-1.9l-2.2-3.7
		c-0.1,0-0.1,0.1-0.2,0.1c-0.1,0.1-0.1,0.2-0.2,0.3c-0.1,0.2-0.1,0.4-0.1,0.6v2.6H405.1z"/>
	<path class="st2" d="M413.2,246.8l-0.6-7.3h1.6l0.3,3.7c0.1,0,0.2-0.1,0.4-0.1c0.1-0.1,0.2-0.1,0.3-0.2c0.1-0.1,0.2-0.3,0.2-0.4
		c0.1-0.2,0.1-0.4,0.1-0.6l0.2-2.3h1.6l-0.2,2.2c0,0.4-0.1,0.8-0.2,1.1c-0.1,0.3-0.3,0.6-0.6,0.9c-0.2,0.2-0.5,0.4-0.7,0.5
		s-0.6,0.2-1,0.2c0,0,0,0,0,0c0,0,0,0,0,0l0.1,1h1.5c0.4,0,0.7-0.1,1.1-0.3c0.3-0.2,0.6-0.5,0.8-0.9c0.2-0.4,0.3-0.9,0.4-1.5
		l0.3-3.2h1.6l-0.3,3.3c0,0.4-0.1,0.8-0.2,1.2c-0.1,0.4-0.2,0.7-0.4,1c-0.2,0.3-0.3,0.5-0.5,0.7c-0.2,0.2-0.4,0.4-0.7,0.6
		c-0.3,0.2-0.7,0.3-1,0.4c-0.4,0.1-0.8,0.1-1.2,0.1H413.2z"/>
	<path class="st2" d="M421.9,246.8v-7.3h1.7v7.3H421.9z"/>
	<path class="st2" d="M425,246.8v-1.3h2c0-0.1,0.1-0.3,0.1-0.4c0-0.1,0-0.3,0-0.4v-3c0-0.1,0-0.3,0-0.4c0-0.1-0.1-0.2-0.2-0.3
		c-0.1-0.1-0.1-0.1-0.2-0.1c-0.1,0-0.2,0-0.3,0c-0.1,0-0.3,0-0.4,0c-0.1,0-0.3,0-0.5,0.1v-1.4c0.1,0,0.3-0.1,0.5-0.1
		c0.2,0,0.4,0,0.6,0c0.4,0,0.7,0,0.9,0.1c0.2,0.1,0.4,0.2,0.6,0.3s0.3,0.3,0.4,0.4c0.1,0.2,0.2,0.4,0.2,0.5c0,0.1,0.1,0.3,0.1,0.4
		s0,0.3,0,0.5v3c0,0.2,0,0.4,0,0.7s0,0.5-0.1,0.7s-0.1,0.4-0.1,0.5l-0.1,0.3H425z"/>
</g>
<circle class="st0" cx="225.5" cy="178.7" r="79.6"/>
<g>
	<path class="st2" d="M178.4,179.6v-4.8h1.7v3.5l-1,1.3H178.4z"/>
	<path class="st2" d="M184.3,182.1v-4.7c0-0.2,0-0.3,0-0.4c0-0.1,0.1-0.3,0.1-0.4c0.1-0.1,0.1-0.2,0.2-0.3c0.1-0.1,0.1-0.1,0.2-0.2
		h-3.7v-1.3h5.8v1.2c-0.2,0.1-0.3,0.1-0.5,0.2c-0.1,0.1-0.2,0.2-0.3,0.3c-0.2,0.2-0.2,0.5-0.2,0.9v4.6H184.3z"/>
	<path class="st2" d="M188.1,182.1v-7.3h1.7v7.3H188.1z"/>
	<path class="st2" d="M195.8,182.1v-4.8c0-0.3-0.1-0.5-0.2-0.7s-0.3-0.3-0.5-0.4c-0.1,0-0.2-0.1-0.3-0.1s-0.3,0-0.4,0
		c-0.3,0-0.7,0-1.1,0c-0.4,0-0.9,0.1-1.5,0.1v-1.3c0.2,0,0.4-0.1,0.6-0.1c0.2,0,0.4,0,0.6-0.1c0.3,0,0.6,0,0.8,0c0.3,0,0.5,0,0.8,0
		c0.4,0,0.8,0,1.1,0.1s0.6,0.1,0.8,0.2c0.2,0.1,0.4,0.2,0.6,0.4s0.3,0.3,0.3,0.6c0.1,0.2,0.1,0.4,0.1,0.6c0,0.2,0,0.4,0,0.7v4.8
		H195.8z M191.7,182.1v-4.3h1.7v4.3H191.7z"/>
	<path class="st2" d="M199.2,179.6v-4.8h1.7v3.5l-1,1.3H199.2z"/>
	<path class="st2" d="M206.6,182.1v-4.8c0-0.3-0.1-0.5-0.2-0.7s-0.3-0.3-0.5-0.4c-0.1,0-0.2-0.1-0.3-0.1s-0.3,0-0.4,0
		c-0.3,0-0.7,0-1.1,0c-0.4,0-0.9,0.1-1.5,0.1v-1.3c0.2,0,0.4-0.1,0.6-0.1c0.2,0,0.4,0,0.6-0.1c0.3,0,0.6,0,0.8,0c0.3,0,0.5,0,0.8,0
		c0.4,0,0.8,0,1.1,0.1s0.6,0.1,0.8,0.2c0.2,0.1,0.4,0.2,0.6,0.4s0.3,0.3,0.3,0.6c0.1,0.2,0.1,0.4,0.1,0.6c0,0.2,0,0.4,0,0.7v4.8
		H206.6z M202.6,182.1v-4.3h1.7v4.3H202.6z"/>
	<path class="st2" d="M213.1,182.1v-7.2c0.1,0,0.2,0,0.4-0.1c0.1,0,0.3,0,0.5,0c0.3,0,0.7-0.1,1-0.1c0.3,0,0.6,0,1,0
		c0.5,0,0.9,0,1.2,0.1c0.3,0.1,0.6,0.1,0.8,0.3c0.2,0.1,0.3,0.2,0.5,0.3c0.1,0.1,0.2,0.3,0.3,0.5c0.1,0.2,0.1,0.3,0.2,0.5
		c0,0.2,0,0.4,0,0.6v5.1H213.1z M214.8,180.8h2.4V177c0-0.2,0-0.3-0.1-0.4c0-0.1-0.1-0.2-0.2-0.3c-0.1-0.1-0.1-0.1-0.2-0.1
		s-0.2-0.1-0.3-0.1c-0.1,0-0.2,0-0.3,0c-0.1,0-0.2,0-0.4,0c-0.1,0-0.3,0-0.4,0c-0.2,0-0.3,0-0.5,0V180.8z"/>
	<path class="st2" d="M220.2,182.5v-1.4l1.3-0.2c0.1,0,0.2,0,0.3-0.1c0.1,0,0.2,0,0.3-0.1l-1.6-6h1.7l0.9,3.2l0.5,2.2
		c0.2-0.1,0.4-0.3,0.5-0.5s0.3-0.5,0.4-0.7s0.2-0.6,0.2-0.9l0.3-3.3h1.7l-0.3,3.2c0,0.3-0.1,0.5-0.1,0.7c-0.1,0.2-0.1,0.4-0.2,0.6
		s-0.2,0.4-0.3,0.6c-0.3,0.6-0.7,1.1-1.3,1.4c-0.6,0.4-1.2,0.6-2.1,0.7c-0.4,0.1-0.8,0.1-1.1,0.2
		C220.9,182.4,220.5,182.4,220.2,182.5z"/>
	<path class="st2" d="M232.1,182.1v-4.8c0-0.3-0.1-0.5-0.2-0.7s-0.3-0.3-0.5-0.4c-0.1,0-0.2-0.1-0.3-0.1s-0.3,0-0.4,0
		c-0.3,0-0.7,0-1.1,0c-0.4,0-0.9,0.1-1.5,0.1v-1.3c0.2,0,0.4-0.1,0.6-0.1c0.2,0,0.4,0,0.6-0.1c0.3,0,0.6,0,0.8,0c0.3,0,0.5,0,0.8,0
		c0.4,0,0.8,0,1.1,0.1s0.6,0.1,0.8,0.2c0.2,0.1,0.4,0.2,0.6,0.4s0.3,0.3,0.3,0.6c0.1,0.2,0.1,0.4,0.1,0.6c0,0.2,0,0.4,0,0.7v4.8
		H232.1z M228,182.1v-4.3h1.7v4.3H228z"/>
	<path class="st2" d="M238.9,182.2c-0.1,0-0.3,0-0.4,0c-0.1,0-0.3-0.1-0.4-0.1v-1.2c0.2,0,0.4,0.1,0.6,0.1c0.2,0,0.4-0.1,0.5-0.2
		c0.1-0.1,0.1-0.3,0.1-0.6v-3.9c-0.1,0-0.3,0-0.4,0c-0.1,0-0.3,0-0.4,0v-1.3c0.4,0,0.8-0.1,1.2-0.1c0.4,0,0.7,0,1.1-0.1
		c0.3,0,0.7,0,1,0c0.4,0,0.7,0,0.9,0c0.3,0,0.5,0.1,0.7,0.1c0.2,0.1,0.4,0.1,0.5,0.2c0.2,0.1,0.3,0.2,0.4,0.4s0.2,0.3,0.3,0.5
		c0.1,0.1,0.1,0.3,0.1,0.5s0,0.4,0,0.6v4.9H243v-4.8c0-0.3-0.1-0.6-0.2-0.8c-0.1-0.2-0.3-0.3-0.6-0.4c-0.2,0-0.4-0.1-0.6-0.1
		c-0.1,0-0.2,0-0.3,0c-0.1,0-0.2,0-0.3,0v4c0,0.3,0,0.5-0.1,0.7c0,0.2-0.1,0.4-0.2,0.6c-0.1,0.2-0.2,0.4-0.4,0.5
		c-0.2,0.1-0.4,0.2-0.6,0.3S239.2,182.2,238.9,182.2z"/>
	<path class="st2" d="M246.6,182.1v-7.3h1.7v7.3H246.6z"/>
	<path class="st2" d="M252.5,182.1v-4.7c0-0.2,0-0.3,0-0.4c0-0.1,0.1-0.3,0.1-0.4c0.1-0.1,0.1-0.2,0.2-0.3c0.1-0.1,0.1-0.1,0.2-0.2
		h-3.7v-1.3h5.8v1.2c-0.2,0.1-0.3,0.1-0.5,0.2c-0.1,0.1-0.2,0.2-0.3,0.3c-0.2,0.2-0.2,0.5-0.2,0.9v4.6H252.5z"/>
	<path class="st2" d="M258.1,182.1l0.6-2.8l0.9-3.2h-3.7v-2.8h1.7v1.5h3.7v1.1l-1,3.4l-0.6,2.8H258.1z"/>
	<path class="st2" d="M262.7,182.1v-7.3h1.7v7.3H262.7z"/>
	<path class="st2" d="M266.5,182.2c-0.1,0-0.3,0-0.4,0c-0.1,0-0.3-0.1-0.4-0.1v-1.2c0.2,0,0.4,0.1,0.6,0.1c0.2,0,0.4-0.1,0.5-0.2
		c0.1-0.1,0.1-0.3,0.1-0.6v-3.9c-0.1,0-0.3,0-0.4,0c-0.1,0-0.3,0-0.4,0v-1.3c0.4,0,0.8-0.1,1.2-0.1c0.4,0,0.7,0,1.1-0.1
		c0.3,0,0.7,0,1,0c0.4,0,0.7,0,0.9,0c0.3,0,0.5,0.1,0.7,0.1c0.2,0.1,0.4,0.1,0.5,0.2c0.2,0.1,0.3,0.2,0.4,0.4s0.2,0.3,0.3,0.5
		c0.1,0.1,0.1,0.3,0.1,0.5s0,0.4,0,0.6v4.9h-1.7v-4.8c0-0.3-0.1-0.6-0.2-0.8c-0.1-0.2-0.3-0.3-0.6-0.4c-0.2,0-0.4-0.1-0.6-0.1
		c-0.1,0-0.2,0-0.3,0c-0.1,0-0.2,0-0.3,0v4c0,0.3,0,0.5-0.1,0.7c0,0.2-0.1,0.4-0.2,0.6c-0.1,0.2-0.2,0.4-0.4,0.5
		c-0.2,0.1-0.4,0.2-0.6,0.3S266.9,182.2,266.5,182.2z"/>
</g>
<circle class="st0" cx="226.8" cy="483.4" r="79.6"/>
<g>
	<path class="st2" d="M213.7,486.8c-0.1,0-0.3,0-0.4,0c-0.1,0-0.3-0.1-0.4-0.1v-1.2c0.2,0,0.4,0.1,0.6,0.1c0.2,0,0.4-0.1,0.5-0.2
		c0.1-0.1,0.1-0.3,0.1-0.6v-3.9c-0.1,0-0.3,0-0.4,0c-0.1,0-0.3,0-0.4,0v-1.3c0.4,0,0.8-0.1,1.2-0.1c0.4,0,0.7,0,1.1-0.1
		c0.3,0,0.7,0,1,0c0.4,0,0.7,0,0.9,0c0.3,0,0.5,0.1,0.7,0.1c0.2,0.1,0.4,0.1,0.5,0.2c0.2,0.1,0.3,0.2,0.4,0.4s0.2,0.3,0.3,0.5
		c0.1,0.1,0.1,0.3,0.1,0.5s0,0.4,0,0.6v4.9h-1.7v-4.8c0-0.3-0.1-0.6-0.2-0.8c-0.1-0.2-0.3-0.3-0.6-0.4c-0.2,0-0.4-0.1-0.6-0.1
		c-0.1,0-0.2,0-0.3,0c-0.1,0-0.2,0-0.3,0v4c0,0.3,0,0.5-0.1,0.7c0,0.2-0.1,0.4-0.2,0.6c-0.1,0.2-0.2,0.4-0.4,0.5
		c-0.2,0.1-0.4,0.2-0.6,0.3S214,486.8,213.7,486.8z"/>
	<path class="st2" d="M221.4,486.8v-7.3h1.7v7.3H221.4z"/>
	<path class="st2" d="M227.3,486.8v-4.7c0-0.2,0-0.3,0-0.4c0-0.1,0.1-0.3,0.1-0.4c0.1-0.1,0.1-0.2,0.2-0.3c0.1-0.1,0.1-0.1,0.2-0.2
		h-3.7v-1.3h5.8v1.2c-0.2,0.1-0.3,0.1-0.5,0.2c-0.1,0.1-0.2,0.2-0.3,0.3c-0.2,0.2-0.2,0.5-0.2,0.9v4.6H227.3z"/>
	<path class="st2" d="M235.3,486.8v-4.8c0-0.3-0.1-0.5-0.2-0.7s-0.3-0.3-0.5-0.4c-0.1,0-0.2-0.1-0.3-0.1s-0.3,0-0.4,0
		c-0.3,0-0.7,0-1.1,0c-0.4,0-0.9,0.1-1.5,0.1v-1.3c0.2,0,0.4-0.1,0.6-0.1c0.2,0,0.4,0,0.6-0.1c0.3,0,0.6,0,0.8,0c0.3,0,0.5,0,0.8,0
		c0.4,0,0.8,0,1.1,0.1s0.6,0.1,0.8,0.2c0.2,0.1,0.4,0.2,0.6,0.4s0.3,0.3,0.3,0.6c0.1,0.2,0.1,0.4,0.1,0.6c0,0.2,0,0.4,0,0.7v4.8
		H235.3z M231.2,486.8v-4.3h1.7v4.3H231.2z"/>
	<path class="st2" d="M238.7,484.3v-4.8h1.7v3.5l-1,1.3H238.7z"/>
</g>
<circle class="st0" cx="733.3" cy="516.6" r="44.3"/>
<g>
	<path class="st2" d="M707,519.6v-7.2c0.1,0,0.2,0,0.4-0.1c0.1,0,0.3,0,0.5,0c0.3,0,0.7-0.1,1-0.1c0.3,0,0.6,0,1,0
		c0.5,0,0.9,0,1.2,0.1c0.3,0.1,0.6,0.1,0.8,0.3c0.2,0.1,0.3,0.2,0.5,0.3c0.1,0.1,0.2,0.3,0.3,0.5c0.1,0.2,0.1,0.3,0.2,0.5
		c0,0.2,0,0.4,0,0.6v5.1H707z M708.7,518.2h2.4v-3.8c0-0.2,0-0.3-0.1-0.4c0-0.1-0.1-0.2-0.2-0.3c-0.1-0.1-0.1-0.1-0.2-0.1
		s-0.2-0.1-0.3-0.1c-0.1,0-0.2,0-0.3,0c-0.1,0-0.2,0-0.4,0c-0.1,0-0.3,0-0.4,0c-0.2,0-0.3,0-0.5,0V518.2z"/>
	<path class="st2" d="M714.5,517.1v-4.8h1.7v3.5l-1,1.3H714.5z"/>
	<path class="st2" d="M720.8,519.7c-0.3,0-0.5,0-0.8-0.1c-0.3,0-0.5-0.1-0.7-0.2c-0.2-0.1-0.3-0.2-0.5-0.4c-0.2-0.1-0.3-0.3-0.5-0.6
		c-0.2-0.3-0.3-0.7-0.4-1.1c-0.1-0.4-0.1-0.9-0.1-1.5v-3.6h1.7v3.6c0,0.5,0,0.9,0.1,1.2c0.1,0.3,0.2,0.6,0.3,0.8
		c0.1,0.1,0.2,0.3,0.4,0.3c0.2,0.1,0.3,0.1,0.5,0.1c0.2,0,0.4,0,0.6-0.1c0.2-0.1,0.3-0.2,0.4-0.4c0.1-0.2,0.2-0.5,0.3-0.8
		c0.1-0.3,0.1-0.7,0.1-1.1c0-0.4,0-0.8-0.1-1.1s-0.1-0.6-0.3-0.8c-0.1-0.2-0.2-0.3-0.4-0.4c-0.2-0.1-0.4-0.1-0.6-0.1
		c-0.1,0-0.1,0-0.2,0c-0.1,0-0.1,0-0.2,0v-1.3c0.1,0,0.3,0,0.4,0c0.1,0,0.3,0,0.4,0c0.3,0,0.5,0,0.8,0.1c0.3,0.1,0.5,0.2,0.7,0.3
		c0.1,0.1,0.3,0.2,0.4,0.4s0.2,0.3,0.3,0.5c0.1,0.3,0.2,0.6,0.3,1c0.1,0.4,0.1,0.9,0.1,1.4c0,0.4,0,0.7-0.1,1c0,0.3-0.1,0.6-0.2,0.9
		c-0.1,0.3-0.3,0.7-0.5,0.9c-0.2,0.3-0.4,0.5-0.7,0.6c-0.2,0.1-0.5,0.2-0.7,0.3C721.4,519.6,721.1,519.7,720.8,519.7z"/>
	<path class="st2" d="M728.2,519.6c0,0,0-0.1,0-0.1c0,0,0-0.1,0-0.1c0-0.2,0-0.4,0.1-0.7c0-0.3,0.1-0.6,0.2-0.9
		c0-0.1,0.1-0.3,0.1-0.4c0-0.1,0.1-0.3,0.1-0.4s0.1-0.3,0.1-0.4l1-2.9h-4.5v-1.3h6.3v1l-1.1,3.2c0,0.1-0.1,0.3-0.1,0.4
		s-0.1,0.3-0.1,0.5c0,0.2-0.1,0.3-0.1,0.4c0,0.1-0.1,0.2-0.1,0.4s-0.1,0.3-0.1,0.4s0,0.3-0.1,0.4c0,0.1,0,0.2,0,0.3v0.3H728.2z
		 M725.3,522.3v-7.1h1.7v7.1H725.3z"/>
	<path class="st2" d="M732.6,517.1v-4.8h1.7v3.5l-1,1.3H732.6z"/>
	<path class="st2" d="M737.7,519.6l0.6-2.8l0.9-3.2h-3.7v-2.8h1.7v1.5h3.7v1.1l-1,3.4l-0.6,2.8H737.7z"/>
	<path class="st2" d="M744.9,519.7c-0.3,0-0.5,0-0.8,0c-0.3,0-0.5,0-0.7,0c-0.2,0-0.4,0-0.5-0.1l-0.3,0v-1.3c0.4,0,0.8,0.1,1.2,0.1
		c0.4,0,0.8,0,1.2,0c0.2,0,0.4,0,0.5-0.1s0.3-0.1,0.4-0.2c0.1-0.1,0.2-0.3,0.3-0.5s0.1-0.4,0.1-0.6c0-0.2,0-0.4,0-0.5s0-0.3,0-0.5
		c0-0.2,0-0.4,0-0.6c0-0.2,0-0.4-0.1-0.6c0-0.2-0.1-0.4-0.2-0.6c-0.1-0.2-0.2-0.3-0.3-0.4c-0.1-0.1-0.2-0.1-0.3-0.2
		c-0.1,0-0.2-0.1-0.3-0.1c-0.2,0-0.4,0-0.6,0.1c-0.2,0.1-0.3,0.1-0.4,0.2c-0.1,0.1-0.2,0.2-0.3,0.4c-0.1,0.2-0.1,0.3-0.1,0.5
		c0,0.2,0,0.4,0.1,0.5c0.1,0.2,0.2,0.3,0.3,0.4c0.1,0.1,0.2,0.1,0.3,0.2s0.2,0.1,0.3,0.1l0.3,0.1l-0.3,1.2l-0.4,0
		c-0.2,0-0.4,0-0.6-0.1s-0.4-0.1-0.5-0.2c-0.2-0.1-0.3-0.2-0.5-0.3s-0.3-0.2-0.3-0.4c-0.1-0.2-0.2-0.4-0.3-0.7
		c-0.1-0.2-0.1-0.5-0.1-0.8c0-0.4,0.1-0.8,0.2-1.1s0.3-0.6,0.5-0.8c0.3-0.3,0.6-0.5,1-0.6c0.4-0.1,0.8-0.2,1.2-0.2
		c0.3,0,0.7,0,1,0.1c0.3,0.1,0.6,0.2,0.8,0.3c0.2,0.1,0.3,0.3,0.5,0.4c0.2,0.2,0.3,0.4,0.4,0.6c0.1,0.3,0.2,0.6,0.3,1
		c0.1,0.4,0.1,0.8,0.1,1.2c0,0.6-0.1,1.1-0.2,1.5c-0.1,0.4-0.2,0.8-0.4,1.1c-0.2,0.3-0.4,0.5-0.6,0.6s-0.5,0.3-0.7,0.4
		c-0.2,0.1-0.3,0.1-0.5,0.1C745.3,519.7,745.1,519.7,744.9,519.7z"/>
	<path class="st2" d="M749.1,519.6v-1.3h2c0-0.1,0.1-0.3,0.1-0.4c0-0.1,0-0.3,0-0.4v-3c0-0.1,0-0.3,0-0.4c0-0.1-0.1-0.2-0.2-0.3
		c-0.1-0.1-0.1-0.1-0.2-0.1c-0.1,0-0.2,0-0.3,0c-0.1,0-0.3,0-0.4,0c-0.1,0-0.3,0-0.5,0.1v-1.4c0.1,0,0.3-0.1,0.5-0.1
		c0.2,0,0.4,0,0.6,0c0.4,0,0.7,0,0.9,0.1c0.2,0.1,0.4,0.2,0.6,0.3s0.3,0.3,0.4,0.4c0.1,0.2,0.2,0.4,0.2,0.5c0,0.1,0.1,0.3,0.1,0.4
		s0,0.3,0,0.5v3c0,0.2,0,0.4,0,0.7s0,0.5-0.1,0.7s-0.1,0.4-0.1,0.5l-0.1,0.3H749.1z"/>
	<path class="st2" d="M754.4,519.6v-7.3h1.7v7.3H754.4z"/>
	<path class="st2" d="M760.8,519.6c0,0,0-0.1,0-0.1c0,0,0-0.1,0-0.1c0-0.2,0-0.4,0.1-0.7c0-0.3,0.1-0.6,0.2-0.9
		c0-0.1,0.1-0.3,0.1-0.4c0-0.1,0.1-0.3,0.1-0.4s0.1-0.3,0.1-0.4l1-2.9h-4.5v-1.3h6.3v1l-1.1,3.2c0,0.1-0.1,0.3-0.1,0.4
		s-0.1,0.3-0.1,0.5c0,0.2-0.1,0.3-0.1,0.4c0,0.1-0.1,0.2-0.1,0.4s-0.1,0.3-0.1,0.4s0,0.3-0.1,0.4c0,0.1,0,0.2,0,0.3v0.3H760.8z
		 M757.9,522.3v-7.1h1.7v7.1H757.9z"/>
	<path class="st2" d="M712.5,533.5c-0.1,0-0.3,0-0.4,0c-0.1,0-0.3-0.1-0.4-0.1V532c0.2,0,0.4,0.1,0.6,0.1c0.2,0,0.4-0.1,0.5-0.2
		c0.1-0.1,0.1-0.3,0.1-0.6v-3.9c-0.1,0-0.3,0-0.4,0c-0.1,0-0.3,0-0.4,0v-1.3c0.4,0,0.8-0.1,1.2-0.1c0.4,0,0.7,0,1.1-0.1
		c0.3,0,0.7,0,1,0c0.4,0,0.7,0,0.9,0c0.3,0,0.5,0.1,0.7,0.1c0.2,0.1,0.4,0.1,0.5,0.2c0.2,0.1,0.3,0.2,0.4,0.4s0.2,0.3,0.3,0.5
		c0.1,0.1,0.1,0.3,0.1,0.5s0,0.4,0,0.6v4.9h-1.7v-4.8c0-0.3-0.1-0.6-0.2-0.8c-0.1-0.2-0.3-0.3-0.6-0.4c-0.2,0-0.4-0.1-0.6-0.1
		c-0.1,0-0.2,0-0.3,0c-0.1,0-0.2,0-0.3,0v4c0,0.3,0,0.5-0.1,0.7c0,0.2-0.1,0.4-0.2,0.6c-0.1,0.2-0.2,0.4-0.4,0.5
		c-0.2,0.1-0.4,0.2-0.6,0.3S712.8,533.5,712.5,533.5z"/>
	<path class="st2" d="M720.3,533.4v-7.3h1.7v7.3H720.3z"/>
	<path class="st2" d="M723.5,533.4l0.5-4.9c0-0.1,0-0.2,0-0.3s0-0.2,0-0.3c0-0.1,0-0.3,0-0.4c0-0.1,0-0.3-0.1-0.4
		c0-0.1,0-0.1-0.1-0.2s0-0.2-0.1-0.3s0-0.2-0.1-0.2c0,0,0-0.1,0-0.1c0,0,0-0.1-0.1-0.1h1.5c0.1,0.1,0.1,0.2,0.2,0.4
		c0,0.1,0.1,0.3,0.1,0.4h0.1c0.1-0.1,0.2-0.2,0.3-0.3c0.2-0.1,0.3-0.2,0.4-0.3c0.1-0.1,0.3-0.1,0.6-0.2c0.2-0.1,0.5-0.1,0.8-0.1
		c0.3,0,0.6,0,0.8,0.1c0.2,0.1,0.5,0.2,0.6,0.4c0.1,0.1,0.2,0.2,0.3,0.3c0.1,0.1,0.1,0.2,0.2,0.4c0.1,0.2,0.2,0.5,0.2,0.8
		c0.1,0.3,0.1,0.6,0.1,1v4.4h-3.1v-1.3h1.4v-3c0-0.2,0-0.4,0-0.6c0-0.2-0.1-0.3-0.1-0.4c0-0.1-0.1-0.2-0.2-0.3s-0.2-0.2-0.3-0.2
		c-0.1-0.1-0.3-0.1-0.4-0.1c-0.2,0-0.4,0-0.5,0.1c-0.2,0.1-0.3,0.1-0.4,0.2c-0.1,0.1-0.2,0.2-0.3,0.3s-0.1,0.2-0.2,0.3l-0.5,5.2
		H723.5z"/>
	<path class="st2" d="M731.7,533.4v-7.2c0.1,0,0.3,0,0.4-0.1c0.1,0,0.3,0,0.5,0c0.3,0,0.6-0.1,1-0.1c0.3,0,0.6,0,1,0
		c0.4,0,0.8,0,1.1,0.1s0.6,0.1,0.8,0.2c0.2,0.1,0.4,0.2,0.6,0.4c0.1,0.1,0.3,0.3,0.3,0.6c0.1,0.2,0.1,0.4,0.1,0.6c0,0.2,0,0.4,0,0.7
		v4.8h-1.7v-4.8c0-0.3-0.1-0.6-0.2-0.8s-0.4-0.3-0.6-0.4c-0.1,0-0.2,0-0.3,0c-0.1,0-0.2,0-0.3,0c-0.1,0-0.3,0-0.4,0
		c-0.2,0-0.3,0-0.5,0v6H731.7z"/>
	<path class="st2" d="M741,533.4l0.6-2.8l0.9-3.2h-3.7v-2.8h1.7v1.5h3.7v1.1l-1,3.4l-0.6,2.8H741z"/>
	<path class="st2" d="M745.2,533.4l0.5-4.9c0-0.1,0-0.2,0-0.3s0-0.2,0-0.3c0-0.1,0-0.3,0-0.4c0-0.1,0-0.3-0.1-0.4
		c0-0.1,0-0.1-0.1-0.2s0-0.2-0.1-0.3s0-0.2-0.1-0.2c0,0,0-0.1,0-0.1c0,0,0-0.1-0.1-0.1h1.5c0.1,0.1,0.1,0.2,0.2,0.4
		c0,0.1,0.1,0.3,0.1,0.4h0.1c0.1-0.1,0.2-0.2,0.3-0.3c0.2-0.1,0.3-0.2,0.4-0.3c0.1-0.1,0.3-0.1,0.6-0.2c0.2-0.1,0.5-0.1,0.8-0.1
		c0.3,0,0.6,0,0.8,0.1c0.2,0.1,0.5,0.2,0.6,0.4c0.1,0.1,0.2,0.2,0.3,0.3c0.1,0.1,0.1,0.2,0.2,0.4c0.1,0.2,0.2,0.5,0.2,0.8
		c0.1,0.3,0.1,0.6,0.1,1v4.4h-3.1v-1.3h1.4v-3c0-0.2,0-0.4,0-0.6c0-0.2-0.1-0.3-0.1-0.4c0-0.1-0.1-0.2-0.2-0.3s-0.2-0.2-0.3-0.2
		c-0.1-0.1-0.3-0.1-0.4-0.1c-0.2,0-0.4,0-0.5,0.1c-0.2,0.1-0.3,0.1-0.4,0.2c-0.1,0.1-0.2,0.2-0.3,0.3s-0.1,0.2-0.2,0.3l-0.5,5.2
		H745.2z"/>
	<path class="st2" d="M753.5,533.4v-7.3h1.7v7.3H753.5z"/>
</g>
<circle class="st0" cx="761.5" cy="202" r="55.2"/>
<g>
	<path class="st2" d="M724.2,204.9v-7.2c0.1,0,0.2,0,0.4-0.1c0.1,0,0.3,0,0.5,0c0.3,0,0.7-0.1,1-0.1c0.3,0,0.6,0,1,0
		c0.5,0,0.9,0,1.2,0.1c0.3,0.1,0.6,0.1,0.8,0.3c0.2,0.1,0.3,0.2,0.5,0.3c0.1,0.1,0.2,0.3,0.3,0.5c0.1,0.2,0.1,0.3,0.2,0.5
		c0,0.2,0,0.4,0,0.6v5.1H724.2z M725.9,203.6h2.4v-3.8c0-0.2,0-0.3-0.1-0.4c0-0.1-0.1-0.2-0.2-0.3c-0.1-0.1-0.1-0.1-0.2-0.1
		s-0.2-0.1-0.3-0.1c-0.1,0-0.2,0-0.3,0c-0.1,0-0.2,0-0.4,0c-0.1,0-0.3,0-0.4,0c-0.2,0-0.3,0-0.5,0V203.6z"/>
	<path class="st2" d="M731.7,202.5v-4.8h1.7v3.5l-1,1.3H731.7z"/>
	<path class="st2" d="M735.3,205c-0.1,0-0.2,0-0.3,0c-0.1,0-0.2,0-0.4-0.1l0.2-1.5c0.1,0,0.2,0,0.4,0.1s0.2,0,0.4,0
		c0.3,0,0.5,0,0.7-0.1c0.2-0.1,0.4-0.2,0.5-0.4c0.1-0.1,0.2-0.3,0.2-0.5c0.1-0.2,0.1-0.4,0.1-0.6v-2.2c0-0.3,0-0.5-0.1-0.6
		c-0.1-0.1-0.2-0.2-0.4-0.2c-0.2,0-0.3,0-0.5,0s-0.3,0.1-0.5,0.1v-1.4c0.4-0.1,0.8-0.1,1.2-0.1c0.4,0,0.7,0,0.9,0.1
		c0.2,0.1,0.4,0.2,0.6,0.3c0.2,0.2,0.4,0.4,0.5,0.7c0.1,0.3,0.1,0.6,0.1,1v5.3h-1.3l-0.3-1.1H737c-0.1,0.1-0.1,0.2-0.3,0.4
		s-0.2,0.3-0.3,0.3c-0.1,0.1-0.3,0.2-0.5,0.3C735.7,205,735.5,205,735.3,205z"/>
	<path class="st2" d="M740.3,202.5v-4.8h1.7v3.5l-1,1.3H740.3z"/>
	<path class="st2" d="M747.8,204.9v-4.8c0-0.3-0.1-0.5-0.2-0.7s-0.3-0.3-0.5-0.4c-0.1,0-0.2-0.1-0.3-0.1s-0.3,0-0.4,0
		c-0.3,0-0.7,0-1.1,0c-0.4,0-0.9,0.1-1.5,0.1v-1.3c0.2,0,0.4-0.1,0.6-0.1c0.2,0,0.4,0,0.6-0.1c0.3,0,0.6,0,0.8,0c0.3,0,0.5,0,0.8,0
		c0.4,0,0.8,0,1.1,0.1s0.6,0.1,0.8,0.2c0.2,0.1,0.4,0.2,0.6,0.4s0.3,0.3,0.3,0.6c0.1,0.2,0.1,0.4,0.1,0.6c0,0.2,0,0.4,0,0.7v4.8
		H747.8z M743.8,204.9v-4.3h1.7v4.3H743.8z"/>
	<path class="st2" d="M750.9,204.9v-1.3h2c0-0.1,0.1-0.3,0.1-0.4c0-0.1,0-0.3,0-0.4v-3c0-0.1,0-0.3,0-0.4c0-0.1-0.1-0.2-0.2-0.3
		c-0.1-0.1-0.1-0.1-0.2-0.1c-0.1,0-0.2,0-0.3,0c-0.1,0-0.3,0-0.4,0c-0.1,0-0.3,0-0.5,0.1v-1.4c0.1,0,0.3-0.1,0.5-0.1
		c0.2,0,0.4,0,0.6,0c0.4,0,0.7,0,0.9,0.1c0.2,0.1,0.4,0.2,0.6,0.3s0.3,0.3,0.4,0.4c0.1,0.2,0.2,0.4,0.2,0.5c0,0.1,0.1,0.3,0.1,0.4
		s0,0.3,0,0.5v3c0,0.2,0,0.4,0,0.7s0,0.5-0.1,0.7s-0.1,0.4-0.1,0.5l-0.1,0.3H750.9z"/>
	<path class="st2" d="M755.9,204.9l0.5-4.9c0-0.1,0-0.2,0-0.3s0-0.2,0-0.3c0-0.1,0-0.3,0-0.4c0-0.1,0-0.3-0.1-0.4
		c0-0.1,0-0.1-0.1-0.2s0-0.2-0.1-0.3s0-0.2-0.1-0.2c0,0,0-0.1,0-0.1c0,0,0-0.1-0.1-0.1h1.5c0.1,0.1,0.1,0.2,0.2,0.4
		c0,0.1,0.1,0.3,0.1,0.4h0.1c0.1-0.1,0.2-0.2,0.3-0.3c0.2-0.1,0.3-0.2,0.4-0.3c0.1-0.1,0.3-0.1,0.6-0.2c0.2-0.1,0.5-0.1,0.8-0.1
		c0.3,0,0.6,0,0.8,0.1c0.2,0.1,0.5,0.2,0.6,0.4c0.1,0.1,0.2,0.2,0.3,0.3c0.1,0.1,0.1,0.2,0.2,0.4c0.1,0.2,0.2,0.5,0.2,0.8
		c0.1,0.3,0.1,0.6,0.1,1v4.4h-3.1v-1.3h1.4v-3c0-0.2,0-0.4,0-0.6c0-0.2-0.1-0.3-0.1-0.4c0-0.1-0.1-0.2-0.2-0.3s-0.2-0.2-0.3-0.2
		c-0.1-0.1-0.3-0.1-0.4-0.1c-0.2,0-0.4,0-0.5,0.1c-0.2,0.1-0.3,0.1-0.4,0.2c-0.1,0.1-0.2,0.2-0.3,0.3s-0.1,0.2-0.2,0.3l-0.5,5.2
		H755.9z"/>
	<path class="st2" d="M764.2,204.9v-7.3h1.7v7.3H764.2z"/>
	<path class="st2" d="M770.7,204.9v-7.2c0.1,0,0.2,0,0.4-0.1c0.1,0,0.3,0,0.5,0c0.3,0,0.7-0.1,1-0.1c0.3,0,0.6,0,1,0
		c0.5,0,0.9,0,1.2,0.1c0.3,0.1,0.6,0.1,0.8,0.3c0.2,0.1,0.3,0.2,0.5,0.3c0.1,0.1,0.2,0.3,0.3,0.5c0.1,0.2,0.1,0.3,0.2,0.5
		c0,0.2,0,0.4,0,0.6v5.1H770.7z M772.4,203.6h2.4v-3.8c0-0.2,0-0.3-0.1-0.4c0-0.1-0.1-0.2-0.2-0.3c-0.1-0.1-0.1-0.1-0.2-0.1
		s-0.2-0.1-0.3-0.1c-0.1,0-0.2,0-0.3,0c-0.1,0-0.2,0-0.4,0c-0.1,0-0.3,0-0.4,0c-0.2,0-0.3,0-0.5,0V203.6z"/>
	<path class="st2" d="M778.2,202.5v-4.8h1.7v3.5l-1,1.3H778.2z"/>
	<path class="st2" d="M781.9,204.9l-0.6-7.3h1.6l0.3,3.7c0.1,0,0.2-0.1,0.4-0.1c0.1-0.1,0.2-0.1,0.3-0.2c0.1-0.1,0.2-0.3,0.2-0.4
		c0.1-0.2,0.1-0.4,0.1-0.6l0.2-2.3h1.6l-0.2,2.2c0,0.4-0.1,0.8-0.2,1.1c-0.1,0.3-0.3,0.6-0.6,0.9c-0.2,0.2-0.5,0.4-0.7,0.5
		s-0.6,0.2-1,0.2c0,0,0,0,0,0c0,0,0,0,0,0l0.1,1h1.5c0.4,0,0.7-0.1,1.1-0.3c0.3-0.2,0.6-0.5,0.8-0.9c0.2-0.4,0.3-0.9,0.4-1.5
		l0.3-3.2h1.6l-0.3,3.3c0,0.4-0.1,0.8-0.2,1.2c-0.1,0.4-0.2,0.7-0.4,1c-0.2,0.3-0.3,0.5-0.5,0.7c-0.2,0.2-0.4,0.4-0.7,0.6
		c-0.3,0.2-0.7,0.3-1,0.4c-0.4,0.1-0.8,0.1-1.2,0.1H781.9z"/>
	<path class="st2" d="M790.6,202.5v-4.8h1.7v3.5l-1,1.3H790.6z"/>
	<path class="st2" d="M793.7,204.9v-2.6c0-0.2,0-0.4,0-0.5s0-0.3,0.1-0.4s0.1-0.3,0.2-0.4c0.1-0.2,0.2-0.4,0.4-0.5s0.4-0.3,0.7-0.3
		l-1.5-2.5h1.9l2.2,3.6c0,0,0.1-0.1,0.1-0.1c0,0,0-0.1,0.1-0.1c0.1-0.1,0.1-0.2,0.2-0.3c0-0.1,0.1-0.3,0.1-0.5v-2.7h1.7v2.6
		c0,0.3,0,0.5-0.1,0.7c0,0.2-0.1,0.4-0.2,0.6c-0.1,0.2-0.2,0.4-0.4,0.5c-0.2,0.1-0.4,0.3-0.7,0.4l1.5,2.5H798l-2.2-3.7
		c-0.1,0-0.1,0.1-0.2,0.1c-0.1,0.1-0.1,0.2-0.2,0.3c-0.1,0.2-0.1,0.4-0.1,0.6v2.6H793.7z"/>
</g>
<circle class="st0" cx="209" cy="337.6" r="48.6"/>
<g>
	<path class="st2" d="M191.5,340.6c-0.1,0-0.3,0-0.4,0c-0.1,0-0.3-0.1-0.4-0.1v-1.2c0.2,0,0.4,0.1,0.6,0.1c0.2,0,0.4-0.1,0.5-0.2
		c0.1-0.1,0.1-0.3,0.1-0.6v-3.9c-0.1,0-0.3,0-0.4,0c-0.1,0-0.3,0-0.4,0v-1.3c0.4,0,0.8-0.1,1.2-0.1c0.4,0,0.7,0,1.1-0.1
		c0.3,0,0.7,0,1,0c0.4,0,0.7,0,0.9,0c0.3,0,0.5,0.1,0.7,0.1c0.2,0.1,0.4,0.1,0.5,0.2c0.2,0.1,0.3,0.2,0.4,0.4s0.2,0.3,0.3,0.5
		c0.1,0.1,0.1,0.3,0.1,0.5s0,0.4,0,0.6v4.9h-1.7v-4.8c0-0.3-0.1-0.6-0.2-0.8c-0.1-0.2-0.3-0.3-0.6-0.4c-0.2,0-0.4-0.1-0.6-0.1
		c-0.1,0-0.2,0-0.3,0c-0.1,0-0.2,0-0.3,0v4c0,0.3,0,0.5-0.1,0.7c0,0.2-0.1,0.4-0.2,0.6c-0.1,0.2-0.2,0.4-0.4,0.5
		c-0.2,0.1-0.4,0.2-0.6,0.3S191.8,340.6,191.5,340.6z"/>
	<path class="st2" d="M199.2,340.5v-7.3h1.7v7.3H199.2z"/>
	<path class="st2" d="M202.4,340.5l0.5-4.9c0-0.1,0-0.2,0-0.3s0-0.2,0-0.3c0-0.1,0-0.3,0-0.4c0-0.1,0-0.3-0.1-0.4
		c0-0.1,0-0.1-0.1-0.2s0-0.2-0.1-0.3s0-0.2-0.1-0.2c0,0,0-0.1,0-0.1c0,0,0-0.1-0.1-0.1h1.5c0.1,0.1,0.1,0.2,0.2,0.4
		c0,0.1,0.1,0.3,0.1,0.4h0.1c0.1-0.1,0.2-0.2,0.3-0.3c0.2-0.1,0.3-0.2,0.4-0.3c0.1-0.1,0.3-0.1,0.6-0.2c0.2-0.1,0.5-0.1,0.8-0.1
		c0.3,0,0.6,0,0.8,0.1c0.2,0.1,0.5,0.2,0.6,0.4c0.1,0.1,0.2,0.2,0.3,0.3c0.1,0.1,0.1,0.2,0.2,0.4c0.1,0.2,0.2,0.5,0.2,0.8
		c0.1,0.3,0.1,0.6,0.1,1v4.4h-3.1v-1.3h1.4v-3c0-0.2,0-0.4,0-0.6c0-0.2-0.1-0.3-0.1-0.4c0-0.1-0.1-0.2-0.2-0.3s-0.2-0.2-0.3-0.2
		c-0.1-0.1-0.3-0.1-0.4-0.1c-0.2,0-0.4,0-0.5,0.1c-0.2,0.1-0.3,0.1-0.4,0.2c-0.1,0.1-0.2,0.2-0.3,0.3s-0.1,0.2-0.2,0.3l-0.5,5.2
		H202.4z"/>
	<path class="st2" d="M210.7,340.5v-7.3h1.7v7.3H210.7z"/>
	<path class="st2" d="M217.1,340.5c0,0,0-0.1,0-0.1c0,0,0-0.1,0-0.1c0-0.2,0-0.4,0.1-0.7c0-0.3,0.1-0.6,0.2-0.9
		c0-0.1,0.1-0.3,0.1-0.4c0-0.1,0.1-0.3,0.1-0.4s0.1-0.3,0.1-0.4l1-2.9h-4.5v-1.3h6.3v1l-1.1,3.2c0,0.1-0.1,0.3-0.1,0.4
		s-0.1,0.3-0.1,0.5c0,0.2-0.1,0.3-0.1,0.4c0,0.1-0.1,0.2-0.1,0.4s-0.1,0.3-0.1,0.4s0,0.3-0.1,0.4c0,0.1,0,0.2,0,0.3v0.3H217.1z
		 M214.2,343.3v-7.1h1.7v7.1H214.2z"/>
	<path class="st2" d="M221.3,340.5l0.5-4.9c0-0.1,0-0.2,0-0.3s0-0.2,0-0.3c0-0.1,0-0.3,0-0.4c0-0.1,0-0.3-0.1-0.4
		c0-0.1,0-0.1-0.1-0.2s0-0.2-0.1-0.3s0-0.2-0.1-0.2c0,0,0-0.1,0-0.1c0,0,0-0.1-0.1-0.1h1.5c0.1,0.1,0.1,0.2,0.2,0.4
		c0,0.1,0.1,0.3,0.1,0.4h0.1c0.1-0.1,0.2-0.2,0.3-0.3c0.2-0.1,0.3-0.2,0.4-0.3c0.1-0.1,0.3-0.1,0.6-0.2c0.2-0.1,0.5-0.1,0.8-0.1
		c0.3,0,0.6,0,0.8,0.1c0.2,0.1,0.5,0.2,0.6,0.4c0.1,0.1,0.2,0.2,0.3,0.3c0.1,0.1,0.1,0.2,0.2,0.4c0.1,0.2,0.2,0.5,0.2,0.8
		c0.1,0.3,0.1,0.6,0.1,1v4.4h-3.1v-1.3h1.4v-3c0-0.2,0-0.4,0-0.6c0-0.2-0.1-0.3-0.1-0.4c0-0.1-0.1-0.2-0.2-0.3s-0.2-0.2-0.3-0.2
		c-0.1-0.1-0.3-0.1-0.4-0.1c-0.2,0-0.4,0-0.5,0.1c-0.2,0.1-0.3,0.1-0.4,0.2c-0.1,0.1-0.2,0.2-0.3,0.3s-0.1,0.2-0.2,0.3l-0.5,5.2
		H221.3z"/>
</g>
<circle class="st0" cx="759.7" cy="433.5" r="34.7"/>
<g>
	<path class="st2" d="M737.9,436.5c-0.1,0-0.3,0-0.4,0c-0.1,0-0.3-0.1-0.4-0.1v-1.2c0.2,0,0.4,0.1,0.6,0.1c0.2,0,0.4-0.1,0.5-0.2
		c0.1-0.1,0.1-0.3,0.1-0.6v-3.9c-0.1,0-0.3,0-0.4,0c-0.1,0-0.3,0-0.4,0v-1.3c0.4,0,0.8-0.1,1.2-0.1c0.4,0,0.7,0,1.1-0.1
		c0.3,0,0.7,0,1,0c0.4,0,0.7,0,0.9,0c0.3,0,0.5,0.1,0.7,0.1c0.2,0.1,0.4,0.1,0.5,0.2c0.2,0.1,0.3,0.2,0.4,0.4s0.2,0.3,0.3,0.5
		c0.1,0.1,0.1,0.3,0.1,0.5s0,0.4,0,0.6v4.9h-1.7v-4.8c0-0.3-0.1-0.6-0.2-0.8c-0.1-0.2-0.3-0.3-0.6-0.4c-0.2,0-0.4-0.1-0.6-0.1
		c-0.1,0-0.2,0-0.3,0c-0.1,0-0.2,0-0.3,0v4c0,0.3,0,0.5-0.1,0.7c0,0.2-0.1,0.4-0.2,0.6c-0.1,0.2-0.2,0.4-0.4,0.5
		c-0.2,0.1-0.4,0.2-0.6,0.3S738.2,436.5,737.9,436.5z"/>
	<path class="st2" d="M745.6,436.4v-7.3h1.7v7.3H745.6z"/>
	<path class="st2" d="M749.1,433.9v-4.8h1.7v3.5l-1,1.3H749.1z"/>
	<path class="st2" d="M755.2,436.4v-4.8c0-0.3-0.1-0.6-0.2-0.8c-0.1-0.2-0.3-0.3-0.6-0.4c-0.1,0-0.2-0.1-0.3-0.1c-0.1,0-0.2,0-0.3,0
		c-0.2,0-0.4,0-0.6,0c-0.2,0-0.4,0-0.7,0c-0.2,0-0.5,0-0.7,0.1v-1.3c0.4,0,0.7-0.1,1-0.1c0.3,0,0.6,0,0.9,0c0.5,0,1,0,1.3,0.1
		c0.3,0,0.6,0.1,0.8,0.2c0.2,0.1,0.4,0.2,0.6,0.4c0.1,0.1,0.3,0.3,0.3,0.6c0.1,0.2,0.1,0.4,0.1,0.6c0,0.2,0,0.4,0,0.7v4.8H755.2z"/>
	<path class="st2" d="M761.2,436.5c-0.3,0-0.5,0-0.8,0c-0.3,0-0.5,0-0.7,0c-0.2,0-0.4,0-0.5-0.1l-0.3,0v-1.3c0.4,0,0.8,0.1,1.2,0.1
		c0.4,0,0.8,0,1.2,0c0.2,0,0.4,0,0.5-0.1s0.3-0.1,0.4-0.2c0.1-0.1,0.2-0.3,0.3-0.5s0.1-0.4,0.1-0.6c0-0.2,0-0.4,0-0.5s0-0.3,0-0.5
		c0-0.2,0-0.4,0-0.6c0-0.2,0-0.4-0.1-0.6c0-0.2-0.1-0.4-0.2-0.6c-0.1-0.2-0.2-0.3-0.3-0.4c-0.1-0.1-0.2-0.1-0.3-0.2
		c-0.1,0-0.2-0.1-0.3-0.1c-0.2,0-0.4,0-0.6,0.1c-0.2,0.1-0.3,0.1-0.4,0.2c-0.1,0.1-0.2,0.2-0.3,0.4c-0.1,0.2-0.1,0.3-0.1,0.5
		c0,0.2,0,0.4,0.1,0.5c0.1,0.2,0.2,0.3,0.3,0.4c0.1,0.1,0.2,0.1,0.3,0.2s0.2,0.1,0.3,0.1l0.3,0.1l-0.3,1.2l-0.4,0
		c-0.2,0-0.4,0-0.6-0.1s-0.4-0.1-0.5-0.2c-0.2-0.1-0.3-0.2-0.5-0.3s-0.3-0.2-0.3-0.4c-0.1-0.2-0.2-0.4-0.3-0.7
		c-0.1-0.2-0.1-0.5-0.1-0.8c0-0.4,0.1-0.8,0.2-1.1s0.3-0.6,0.5-0.8c0.3-0.3,0.6-0.5,1-0.6c0.4-0.1,0.8-0.2,1.2-0.2
		c0.3,0,0.7,0,1,0.1c0.3,0.1,0.6,0.2,0.8,0.3c0.2,0.1,0.3,0.3,0.5,0.4c0.2,0.2,0.3,0.4,0.4,0.6c0.1,0.3,0.2,0.6,0.3,1
		c0.1,0.4,0.1,0.8,0.1,1.2c0,0.6-0.1,1.1-0.2,1.5c-0.1,0.4-0.2,0.8-0.4,1.1c-0.2,0.3-0.4,0.5-0.6,0.6s-0.5,0.3-0.7,0.4
		c-0.2,0.1-0.3,0.1-0.5,0.1C761.6,436.5,761.4,436.5,761.2,436.5z"/>
	<path class="st2" d="M765.4,436.4l0.5-4.9c0-0.1,0-0.2,0-0.3s0-0.2,0-0.3c0-0.1,0-0.3,0-0.4c0-0.1,0-0.3-0.1-0.4
		c0-0.1,0-0.1-0.1-0.2s0-0.2-0.1-0.3s0-0.2-0.1-0.2c0,0,0-0.1,0-0.1c0,0,0-0.1-0.1-0.1h1.5c0.1,0.1,0.1,0.2,0.2,0.4
		c0,0.1,0.1,0.3,0.1,0.4h0.1c0.1-0.1,0.2-0.2,0.3-0.3c0.2-0.1,0.3-0.2,0.4-0.3c0.1-0.1,0.3-0.1,0.6-0.2c0.2-0.1,0.5-0.1,0.8-0.1
		c0.3,0,0.6,0,0.8,0.1c0.2,0.1,0.5,0.2,0.6,0.4c0.1,0.1,0.2,0.2,0.3,0.3c0.1,0.1,0.1,0.2,0.2,0.4c0.1,0.2,0.2,0.5,0.2,0.8
		c0.1,0.3,0.1,0.6,0.1,1v4.4h-3.1v-1.3h1.4v-3c0-0.2,0-0.4,0-0.6c0-0.2-0.1-0.3-0.1-0.4c0-0.1-0.1-0.2-0.2-0.3s-0.2-0.2-0.3-0.2
		c-0.1-0.1-0.3-0.1-0.4-0.1c-0.2,0-0.4,0-0.5,0.1c-0.2,0.1-0.3,0.1-0.4,0.2c-0.1,0.1-0.2,0.2-0.3,0.3s-0.1,0.2-0.2,0.3l-0.5,5.2
		H765.4z"/>
	<path class="st2" d="M773.6,433.9v-4.8h1.7v3.5l-1,1.3H773.6z"/>
	<path class="st2" d="M776.7,436.4v-2.6c0-0.2,0-0.4,0-0.5s0-0.3,0.1-0.4s0.1-0.3,0.2-0.4c0.1-0.2,0.2-0.4,0.4-0.5s0.4-0.3,0.7-0.3
		l-1.5-2.5h1.9l2.2,3.6c0,0,0.1-0.1,0.1-0.1c0,0,0-0.1,0.1-0.1c0.1-0.1,0.1-0.2,0.2-0.3c0-0.1,0.1-0.3,0.1-0.5v-2.7h1.7v2.6
		c0,0.3,0,0.5-0.1,0.7c0,0.2-0.1,0.4-0.2,0.6c-0.1,0.2-0.2,0.4-0.4,0.5c-0.2,0.1-0.4,0.3-0.7,0.4l1.5,2.5h-1.9l-2.2-3.7
		c-0.1,0-0.1,0.1-0.2,0.1c-0.1,0.1-0.1,0.2-0.2,0.3c-0.1,0.2-0.1,0.4-0.1,0.6v2.6H776.7z"/>
</g>
<circle class="st0" cx="714" cy="123.3" r="32.7"/>
<g>
	<path class="st2" d="M704.4,116.3v-7.2c0.1,0,0.2,0,0.4-0.1c0.1,0,0.3,0,0.5,0c0.3,0,0.7-0.1,1-0.1c0.3,0,0.6,0,1,0
		c0.5,0,0.9,0,1.2,0.1c0.3,0.1,0.6,0.1,0.8,0.3c0.2,0.1,0.3,0.2,0.5,0.3c0.1,0.1,0.2,0.3,0.3,0.5c0.1,0.2,0.1,0.3,0.2,0.5
		c0,0.2,0,0.4,0,0.6v5.1H704.4z M706.1,115h2.4v-3.8c0-0.2,0-0.3-0.1-0.4c0-0.1-0.1-0.2-0.2-0.3c-0.1-0.1-0.1-0.1-0.2-0.1
		s-0.2-0.1-0.3-0.1c-0.1,0-0.2,0-0.3,0c-0.1,0-0.2,0-0.4,0c-0.1,0-0.3,0-0.4,0c-0.2,0-0.3,0-0.5,0V115z"/>
	<path class="st2" d="M712,116.3v-7.3h1.7v7.3H712z"/>
	<path class="st2" d="M715.4,113.9v-4.8h1.7v3.5l-1,1.3H715.4z"/>
	<path class="st2" d="M722.9,116.3v-4.8c0-0.3-0.1-0.5-0.2-0.7s-0.3-0.3-0.5-0.4c-0.1,0-0.2-0.1-0.3-0.1s-0.3,0-0.4,0
		c-0.3,0-0.7,0-1.1,0c-0.4,0-0.9,0.1-1.5,0.1v-1.3c0.2,0,0.4-0.1,0.6-0.1c0.2,0,0.4,0,0.6-0.1c0.3,0,0.6,0,0.8,0c0.3,0,0.5,0,0.8,0
		c0.4,0,0.8,0,1.1,0.1s0.6,0.1,0.8,0.2c0.2,0.1,0.4,0.2,0.6,0.4s0.3,0.3,0.3,0.6c0.1,0.2,0.1,0.4,0.1,0.6c0,0.2,0,0.4,0,0.7v4.8
		H722.9z M718.8,116.3V112h1.7v4.3H718.8z"/>
	<path class="st2" d="M693.1,130.2v-4.8c0-0.3-0.1-0.5-0.2-0.7s-0.3-0.3-0.5-0.4c-0.1,0-0.2-0.1-0.3-0.1s-0.3,0-0.4,0
		c-0.3,0-0.7,0-1.1,0c-0.4,0-0.9,0.1-1.5,0.1V123c0.2,0,0.4-0.1,0.6-0.1c0.2,0,0.4,0,0.6-0.1c0.3,0,0.6,0,0.8,0c0.3,0,0.5,0,0.8,0
		c0.4,0,0.8,0,1.1,0.1s0.6,0.1,0.8,0.2c0.2,0.1,0.4,0.2,0.6,0.4s0.3,0.3,0.3,0.6c0.1,0.2,0.1,0.4,0.1,0.6c0,0.2,0,0.4,0,0.7v4.8
		H693.1z M689.1,130.2v-4.3h1.7v4.3H689.1z"/>
	<path class="st2" d="M696.5,127.7v-4.8h1.7v3.5l-1,1.3H696.5z"/>
	<path class="st2" d="M702.6,130.2v-4.8c0-0.3-0.1-0.6-0.2-0.8c-0.1-0.2-0.3-0.3-0.6-0.4c-0.1,0-0.2-0.1-0.3-0.1c-0.1,0-0.2,0-0.3,0
		c-0.2,0-0.4,0-0.6,0c-0.2,0-0.4,0-0.7,0c-0.2,0-0.5,0-0.7,0.1v-1.3c0.4,0,0.7-0.1,1-0.1c0.3,0,0.6,0,0.9,0c0.5,0,1,0,1.3,0.1
		c0.3,0,0.6,0.1,0.8,0.2c0.2,0.1,0.4,0.2,0.6,0.4c0.1,0.1,0.3,0.3,0.3,0.6c0.1,0.2,0.1,0.4,0.1,0.6c0,0.2,0,0.4,0,0.7v4.8H702.6z"/>
	<path class="st2" d="M706,130.2v-7.3h1.7v7.3H706z"/>
	<path class="st2" d="M712.5,130.3c-0.3,0-0.5,0-0.8-0.1c-0.3,0-0.5-0.1-0.7-0.2c-0.2-0.1-0.3-0.2-0.5-0.4c-0.2-0.1-0.3-0.3-0.5-0.6
		c-0.2-0.3-0.3-0.7-0.4-1.1c-0.1-0.4-0.1-0.9-0.1-1.5v-3.6h1.7v3.6c0,0.5,0,0.9,0.1,1.2c0.1,0.3,0.2,0.6,0.3,0.8
		c0.1,0.1,0.2,0.3,0.4,0.3c0.2,0.1,0.3,0.1,0.5,0.1c0.2,0,0.4,0,0.6-0.1c0.2-0.1,0.3-0.2,0.4-0.4c0.1-0.2,0.2-0.5,0.3-0.8
		c0.1-0.3,0.1-0.7,0.1-1.1c0-0.4,0-0.8-0.1-1.1s-0.1-0.6-0.3-0.8c-0.1-0.2-0.2-0.3-0.4-0.4c-0.2-0.1-0.4-0.1-0.6-0.1
		c-0.1,0-0.1,0-0.2,0c-0.1,0-0.1,0-0.2,0v-1.3c0.1,0,0.3,0,0.4,0c0.1,0,0.3,0,0.4,0c0.3,0,0.5,0,0.8,0.1c0.3,0.1,0.5,0.2,0.7,0.3
		c0.1,0.1,0.3,0.2,0.4,0.4s0.2,0.3,0.3,0.5c0.1,0.3,0.2,0.6,0.3,1c0.1,0.4,0.1,0.9,0.1,1.4c0,0.4,0,0.7-0.1,1c0,0.3-0.1,0.6-0.2,0.9
		c-0.1,0.3-0.3,0.7-0.5,0.9c-0.2,0.3-0.4,0.5-0.7,0.6c-0.2,0.1-0.5,0.2-0.7,0.3C713.1,130.2,712.8,130.3,712.5,130.3z"/>
	<path class="st2" d="M719.7,130.3c-0.5,0-1-0.1-1.4-0.3c-0.3-0.1-0.6-0.3-0.8-0.6c-0.2-0.2-0.4-0.5-0.6-0.9
		c-0.1-0.3-0.2-0.6-0.2-0.9c-0.1-0.3-0.1-0.7-0.1-1.1c0-0.3,0-0.6,0.1-0.9c0.1-0.3,0.1-0.5,0.3-0.8c0.1-0.2,0.3-0.4,0.4-0.6l0,0
		l-0.7,0v-1.4c0.4,0,0.7,0,1-0.1c0.3,0,0.7,0,1,0s0.6,0,0.9,0c0.3,0,0.6,0,0.8,0.1c0.3,0.1,0.5,0.2,0.7,0.3c0.3,0.1,0.5,0.3,0.7,0.6
		c0.2,0.2,0.4,0.5,0.5,0.8c0.1,0.3,0.2,0.6,0.2,0.9c0.1,0.3,0.1,0.7,0.1,1.1c0,0.3,0,0.6-0.1,0.9c0,0.3-0.1,0.6-0.2,0.8
		c-0.1,0.4-0.3,0.7-0.5,1c-0.2,0.3-0.5,0.5-0.8,0.7C720.8,130.2,720.3,130.3,719.7,130.3z M719.7,128.9c0.2,0,0.4,0,0.6-0.1
		s0.3-0.2,0.4-0.4c0.1-0.1,0.2-0.3,0.2-0.5s0.1-0.4,0.1-0.6c0-0.2,0-0.5,0-0.7c0-0.5,0-0.9-0.1-1.3c-0.1-0.3-0.2-0.6-0.4-0.8
		c-0.1-0.1-0.2-0.2-0.4-0.3c-0.1-0.1-0.3-0.1-0.5-0.1c-0.1,0-0.2,0-0.3,0c-0.1,0-0.2,0-0.3,0c-0.2,0.3-0.4,0.6-0.5,1
		c-0.1,0.4-0.2,0.8-0.2,1.4c0,0.4,0,0.8,0.1,1.1c0.1,0.3,0.1,0.6,0.3,0.7c0.1,0.2,0.2,0.3,0.4,0.4S719.5,128.9,719.7,128.9z"/>
	<path class="st2" d="M724.1,127.7v-4.8h1.7v3.5l-1,1.3H724.1z"/>
	<path class="st2" d="M731.6,130.2v-4.8c0-0.3-0.1-0.5-0.2-0.7s-0.3-0.3-0.5-0.4c-0.1,0-0.2-0.1-0.3-0.1s-0.3,0-0.4,0
		c-0.3,0-0.7,0-1.1,0c-0.4,0-0.9,0.1-1.5,0.1V123c0.2,0,0.4-0.1,0.6-0.1c0.2,0,0.4,0,0.6-0.1c0.3,0,0.6,0,0.8,0c0.3,0,0.5,0,0.8,0
		c0.4,0,0.8,0,1.1,0.1s0.6,0.1,0.8,0.2c0.2,0.1,0.4,0.2,0.6,0.4s0.3,0.3,0.3,0.6c0.1,0.2,0.1,0.4,0.1,0.6c0,0.2,0,0.4,0,0.7v4.8
		H731.6z M727.5,130.2v-4.3h1.7v4.3H727.5z"/>
	<path class="st2" d="M734.7,130.2v-1.3h3.3v-3.5c0-0.3-0.1-0.6-0.2-0.7s-0.3-0.3-0.6-0.4c-0.1,0-0.2-0.1-0.3-0.1
		c-0.1,0-0.2,0-0.4,0c-0.2,0-0.5,0-0.8,0c-0.3,0-0.7,0-1.1,0.1v-1.3c0.2,0,0.5-0.1,0.9-0.1c0.3,0,0.7,0,1.1,0c0.4,0,0.7,0,0.9,0
		c0.3,0,0.5,0.1,0.7,0.2c0.2,0.1,0.4,0.2,0.6,0.3s0.3,0.2,0.4,0.4c0.1,0.1,0.2,0.3,0.3,0.5c0.1,0.2,0.1,0.3,0.1,0.5
		c0,0.2,0,0.4,0,0.6v3.6h0.8v1.3H734.7z"/>
</g>
<circle class="st3" cx="500.4" cy="328.4" r="185"/>
<circle class="st3" cx="482.5" cy="315" r="55.4"/>
<circle class="st3" cx="601.5" cy="369.6" r="63.6"/>
<circle class="st3" cx="580.1" cy="241.6" r="46.5"/>
<circle class="st3" cx="426.6" cy="418.3" r="41.7"/>
<circle class="st3" cx="402.4" cy="243.8" r="41.7"/>
<circle class="st3" cx="526.8" cy="456.8" r="35.3"/>
<circle class="st3" cx="383.6" cy="332.4" r="36.3"/>
</svg>
