<?xml version="1.0" encoding="utf-8"?>
<!-- Generator: Adobe Illustrator 26.5.0, SVG Export Plug-In . SVG Version: 6.00 Build 0)  -->
<svg version="1.1" id="Layer_2" xmlns="http://www.w3.org/2000/svg" xmlns:xlink="http://www.w3.org/1999/xlink" x="0px" y="0px"
	 viewBox="0 0 1000 600" style="enable-background:new 0 0 1000 600;" xml:space="preserve">
<style type="text/css">
	.st0{fill:#90C7D3;}
	.st1{fill:#00435B;}
	.st2{fill:#FFFFFF;}
	.st3{fill:none;stroke:#FFFFFF;stroke-width:0.64;stroke-miterlimit:10;}
</style>
<circle class="st0" cx="501.9" cy="328.3" r="227.4"/>
<circle class="st1" cx="499.8" cy="328.4" r="185"/>
<g>
	<path class="st2" d="M470.5,131.4l0.6-2.8l0.9-3.2h-3.7v-2.8h1.7v1.5h3.7v1.1l-1,3.4l-0.6,2.8H470.5z"/>
	<path class="st2" d="M474.8,131.4v-2.6c0-0.2,0-0.4,0-0.5c0-0.2,0-0.3,0.1-0.4s0.1-0.3,0.2-0.4c0.1-0.2,0.2-0.4,0.4-0.5
		c0.2-0.1,0.4-0.3,0.7-0.3l-1.5-2.5h1.9l2.2,3.6c0,0,0.1-0.1,0.1-0.1c0,0,0-0.1,0.1-0.1c0.1-0.1,0.1-0.2,0.2-0.3s0.1-0.3,0.1-0.5
		v-2.7h1.7v2.6c0,0.3,0,0.5-0.1,0.7c0,0.2-0.1,0.4-0.2,0.6c-0.1,0.2-0.2,0.4-0.4,0.5c-0.2,0.2-0.4,0.3-0.7,0.4l1.5,2.5h-1.9
		l-2.2-3.7c-0.1,0-0.1,0.1-0.2,0.1c-0.1,0.1-0.1,0.1-0.2,0.3c-0.1,0.2-0.1,0.4-0.1,0.6v2.6H474.8z"/>
	<path class="st2" d="M485.2,131.4v-4.8c0-0.3-0.1-0.6-0.2-0.8c-0.1-0.2-0.3-0.3-0.6-0.4c-0.1,0-0.2-0.1-0.3-0.1c-0.1,0-0.2,0-0.3,0
		c-0.2,0-0.4,0-0.6,0s-0.4,0-0.7,0c-0.2,0-0.5,0-0.7,0.1v-1.3c0.4,0,0.7-0.1,1-0.1c0.3,0,0.6,0,0.9,0c0.5,0,1,0,1.3,0.1
		s0.6,0.1,0.8,0.2c0.2,0.1,0.4,0.2,0.6,0.4c0.1,0.1,0.3,0.3,0.3,0.6c0.1,0.2,0.1,0.4,0.1,0.6c0,0.2,0,0.4,0,0.7v4.8H485.2z"/>
	<path class="st2" d="M488.9,131.4l-0.6-7.3h1.6l0.3,3.7c0.1,0,0.2-0.1,0.4-0.1c0.1-0.1,0.2-0.1,0.3-0.2c0.1-0.1,0.2-0.3,0.2-0.4
		c0.1-0.2,0.1-0.4,0.1-0.6l0.2-2.3h1.6l-0.2,2.2c0,0.4-0.1,0.8-0.2,1.1c-0.1,0.3-0.3,0.6-0.6,0.9c-0.2,0.2-0.5,0.4-0.7,0.5
		c-0.3,0.1-0.6,0.2-1,0.2c0,0,0,0,0,0s0,0,0,0l0.1,1h1.5c0.4,0,0.7-0.1,1.1-0.3c0.3-0.2,0.6-0.5,0.8-0.9c0.2-0.4,0.3-0.9,0.4-1.5
		l0.3-3.2h1.6l-0.3,3.3c0,0.4-0.1,0.8-0.2,1.2c-0.1,0.4-0.2,0.7-0.4,1c-0.1,0.3-0.3,0.5-0.5,0.7s-0.4,0.4-0.7,0.6
		c-0.3,0.2-0.7,0.3-1,0.4c-0.4,0.1-0.8,0.1-1.2,0.1H488.9z"/>
	<path class="st2" d="M497.6,128.9v-4.8h1.7v3.5l-1,1.3H497.6z"/>
	<path class="st2" d="M504.7,134.2v-6l-1.6-4.1h1.8l1.3,3.6c0,0,0.1,0,0.1,0c0,0,0.1,0,0.1,0c0.2,0,0.4-0.1,0.5-0.3
		c0.1-0.2,0.2-0.4,0.2-0.8v-2.4h1.7v2.5c0,0.4-0.1,0.7-0.2,1c-0.1,0.3-0.3,0.5-0.5,0.7c-0.2,0.1-0.4,0.3-0.6,0.4
		c-0.3,0.1-0.6,0.2-0.9,0.2l-0.4,0.1v5.2H504.7z"/>
	<path class="st2" d="M513.2,131.4v-4.8c0-0.3-0.1-0.6-0.2-0.8c-0.1-0.2-0.3-0.3-0.6-0.4c-0.1,0-0.2-0.1-0.3-0.1c-0.1,0-0.2,0-0.3,0
		c-0.2,0-0.4,0-0.6,0s-0.4,0-0.7,0c-0.2,0-0.5,0-0.7,0.1v-1.3c0.4,0,0.7-0.1,1-0.1c0.3,0,0.6,0,0.9,0c0.5,0,1,0,1.3,0.1
		s0.6,0.1,0.8,0.2c0.2,0.1,0.4,0.2,0.6,0.4c0.1,0.1,0.3,0.3,0.3,0.6c0.1,0.2,0.1,0.4,0.1,0.6c0,0.2,0,0.4,0,0.7v4.8H513.2z"/>
	<path class="st2" d="M516.4,131.4v-2.6c0-0.2,0-0.4,0-0.5c0-0.2,0-0.3,0.1-0.4s0.1-0.3,0.2-0.4c0.1-0.2,0.2-0.4,0.4-0.5
		c0.2-0.1,0.4-0.3,0.7-0.3l-1.5-2.5h1.9l2.2,3.6c0,0,0.1-0.1,0.1-0.1c0,0,0-0.1,0.1-0.1c0.1-0.1,0.1-0.2,0.2-0.3s0.1-0.3,0.1-0.5
		v-2.7h1.7v2.6c0,0.3,0,0.5-0.1,0.7c0,0.2-0.1,0.4-0.2,0.6c-0.1,0.2-0.2,0.4-0.4,0.5c-0.2,0.2-0.4,0.3-0.7,0.4l1.5,2.5h-1.9
		l-2.2-3.7c-0.1,0-0.1,0.1-0.2,0.1c-0.1,0.1-0.1,0.1-0.2,0.3c-0.1,0.2-0.1,0.4-0.1,0.6v2.6H516.4z"/>
</g>
<g>
	<path class="st2" d="M469.9,171.7c-0.1,0-0.3,0-0.4,0c-0.1,0-0.3-0.1-0.4-0.1v-1.2c0.2,0,0.4,0.1,0.6,0.1c0.2,0,0.4-0.1,0.5-0.2
		s0.1-0.3,0.1-0.6v-3.9c-0.1,0-0.3,0-0.4,0c-0.1,0-0.3,0-0.4,0v-1.3c0.4,0,0.8-0.1,1.2-0.1s0.7,0,1.1-0.1c0.3,0,0.7,0,1,0
		c0.4,0,0.7,0,0.9,0c0.3,0,0.5,0.1,0.7,0.1c0.2,0.1,0.4,0.1,0.5,0.2c0.2,0.1,0.3,0.2,0.4,0.4c0.1,0.1,0.2,0.3,0.3,0.5
		c0.1,0.1,0.1,0.3,0.1,0.5s0,0.4,0,0.6v4.9h-1.7v-4.8c0-0.3-0.1-0.6-0.2-0.8s-0.3-0.3-0.6-0.4c-0.2,0-0.4-0.1-0.6-0.1
		c-0.1,0-0.2,0-0.3,0s-0.2,0-0.3,0v4c0,0.3,0,0.5-0.1,0.7c0,0.2-0.1,0.4-0.2,0.6c-0.1,0.2-0.2,0.4-0.4,0.5c-0.2,0.1-0.4,0.2-0.6,0.3
		C470.5,171.7,470.3,171.7,469.9,171.7z"/>
	<path class="st2" d="M477.7,171.7v-7.3h1.7v7.3H477.7z"/>
	<path class="st2" d="M480.9,171.7v-1.3h3.3v-3.5c0-0.3-0.1-0.6-0.2-0.7c-0.1-0.2-0.3-0.3-0.6-0.4c-0.1,0-0.2-0.1-0.3-0.1
		c-0.1,0-0.2,0-0.4,0c-0.2,0-0.5,0-0.8,0c-0.3,0-0.7,0-1.1,0.1v-1.3c0.2,0,0.5-0.1,0.9-0.1c0.3,0,0.7,0,1.1,0c0.4,0,0.7,0,0.9,0
		c0.3,0,0.5,0.1,0.7,0.2c0.2,0.1,0.4,0.2,0.6,0.3c0.1,0.1,0.3,0.2,0.4,0.4c0.1,0.1,0.2,0.3,0.3,0.5c0.1,0.2,0.1,0.3,0.1,0.5
		c0,0.2,0,0.4,0,0.6v3.6h0.8v1.3H480.9z"/>
	<path class="st2" d="M490.5,171.7v-4.8c0-0.3-0.1-0.6-0.2-0.8c-0.1-0.2-0.3-0.3-0.6-0.4c-0.1,0-0.2-0.1-0.3-0.1c-0.1,0-0.2,0-0.3,0
		c-0.2,0-0.4,0-0.6,0s-0.4,0-0.7,0c-0.2,0-0.5,0-0.7,0.1v-1.3c0.4,0,0.7-0.1,1-0.1c0.3,0,0.6,0,0.9,0c0.5,0,1,0,1.3,0.1
		s0.6,0.1,0.8,0.2c0.2,0.1,0.4,0.2,0.6,0.4c0.1,0.1,0.3,0.3,0.3,0.6c0.1,0.2,0.1,0.4,0.1,0.6c0,0.2,0,0.4,0,0.7v4.8H490.5z"/>
	<path class="st2" d="M494.3,171.7c-0.1,0-0.3,0-0.4,0c-0.1,0-0.3-0.1-0.4-0.1v-1.2c0.2,0,0.4,0.1,0.6,0.1c0.2,0,0.4-0.1,0.5-0.2
		s0.1-0.3,0.1-0.6v-3.9c-0.1,0-0.3,0-0.4,0c-0.1,0-0.3,0-0.4,0v-1.3c0.4,0,0.8-0.1,1.2-0.1s0.7,0,1.1-0.1c0.3,0,0.7,0,1,0
		c0.4,0,0.7,0,0.9,0c0.3,0,0.5,0.1,0.7,0.1c0.2,0.1,0.4,0.1,0.5,0.2c0.2,0.1,0.3,0.2,0.4,0.4c0.1,0.1,0.2,0.3,0.3,0.5
		c0.1,0.1,0.1,0.3,0.1,0.5s0,0.4,0,0.6v4.9h-1.7v-4.8c0-0.3-0.1-0.6-0.2-0.8s-0.3-0.3-0.6-0.4c-0.2,0-0.4-0.1-0.6-0.1
		c-0.1,0-0.2,0-0.3,0s-0.2,0-0.3,0v4c0,0.3,0,0.5-0.1,0.7c0,0.2-0.1,0.4-0.2,0.6c-0.1,0.2-0.2,0.4-0.4,0.5c-0.2,0.1-0.4,0.2-0.6,0.3
		C494.9,171.7,494.6,171.7,494.3,171.7z"/>
	<path class="st2" d="M502,171.7v-7.3h1.7v7.3H502z"/>
	<path class="st2" d="M511.2,174.4v-6.9c0-0.3,0-0.5,0-0.7c0-0.2-0.1-0.4-0.2-0.6c0-0.1-0.1-0.2-0.1-0.2s-0.1-0.1-0.2-0.2
		c-0.2-0.2-0.6-0.3-1.1-0.3c-0.2,0-0.3,0-0.5,0c-0.1,0-0.3,0-0.4,0c-0.1,0-0.2,0-0.4,0.1c-0.1,0-0.3,0-0.4,0.1v-1.4
		c0.1,0,0.3,0,0.4-0.1c0.2,0,0.3,0,0.5,0c0.2,0,0.4,0,0.6,0s0.4,0,0.6,0c0.4,0,0.8,0.1,1.2,0.2s0.6,0.3,0.9,0.5
		c0.1,0.1,0.2,0.2,0.3,0.3c0.1,0.1,0.2,0.3,0.2,0.4c0.1,0.3,0.2,0.5,0.3,0.9c0.1,0.3,0.1,0.6,0.1,1v6.8H511.2z"/>
	<path class="st2" d="M514.7,171.7v-7.3h1.7v7.3H514.7z"/>
	<path class="st2" d="M517.8,171.7v-1.3h2c0-0.1,0.1-0.3,0.1-0.4c0-0.1,0-0.3,0-0.4v-3c0-0.1,0-0.3,0-0.4c0-0.1-0.1-0.2-0.2-0.3
		c-0.1-0.1-0.1-0.1-0.2-0.1c-0.1,0-0.2,0-0.3,0c-0.1,0-0.3,0-0.4,0c-0.1,0-0.3,0-0.5,0.1v-1.4c0.1,0,0.3-0.1,0.5-0.1
		c0.2,0,0.4,0,0.6,0c0.4,0,0.7,0,0.9,0.1s0.4,0.2,0.6,0.3s0.3,0.3,0.4,0.4c0.1,0.2,0.2,0.3,0.2,0.5c0,0.1,0.1,0.3,0.1,0.4
		s0,0.3,0,0.5v3c0,0.2,0,0.4,0,0.7s0,0.5-0.1,0.7s-0.1,0.4-0.1,0.5l-0.1,0.3H517.8z"/>
	<path class="st2" d="M523.1,169.2v-4.8h1.7v3.5l-1,1.3H523.1z"/>
	<path class="st2" d="M526.5,171.7v-7.2c0.1,0,0.3,0,0.4,0c0.1,0,0.3,0,0.5,0c0.3,0,0.6-0.1,1-0.1c0.3,0,0.6,0,1,0
		c0.4,0,0.8,0,1.1,0.1s0.6,0.1,0.8,0.2c0.2,0.1,0.4,0.2,0.6,0.4c0.1,0.1,0.3,0.3,0.3,0.6c0.1,0.2,0.1,0.4,0.1,0.6s0,0.4,0,0.7v4.8
		h-1.7v-4.8c0-0.3-0.1-0.6-0.2-0.8c-0.1-0.2-0.4-0.3-0.6-0.4c-0.1,0-0.2,0-0.3,0c-0.1,0-0.2,0-0.3,0c-0.1,0-0.3,0-0.4,0
		c-0.2,0-0.3,0-0.5,0v6H526.5z"/>
</g>
<g>
	<path class="st2" d="M555.3,239.7c-0.1,0-0.3,0-0.4,0c-0.1,0-0.3-0.1-0.4-0.1v-1.2c0.2,0,0.4,0.1,0.6,0.1c0.2,0,0.4-0.1,0.5-0.2
		s0.1-0.3,0.1-0.6v-3.9c-0.1,0-0.3,0-0.4,0c-0.1,0-0.3,0-0.4,0v-1.3c0.4,0,0.8-0.1,1.2-0.1s0.7,0,1.1-0.1c0.3,0,0.7,0,1,0
		c0.4,0,0.7,0,0.9,0c0.3,0,0.5,0.1,0.7,0.1c0.2,0.1,0.4,0.1,0.5,0.2c0.2,0.1,0.3,0.2,0.4,0.4c0.1,0.1,0.2,0.3,0.3,0.5
		c0.1,0.1,0.1,0.3,0.1,0.5s0,0.4,0,0.6v4.9h-1.7v-4.8c0-0.3-0.1-0.6-0.2-0.8s-0.3-0.3-0.6-0.4c-0.2,0-0.4-0.1-0.6-0.1
		c-0.1,0-0.2,0-0.3,0s-0.2,0-0.3,0v4c0,0.3,0,0.5-0.1,0.7c0,0.2-0.1,0.4-0.2,0.6c-0.1,0.2-0.2,0.4-0.4,0.5c-0.2,0.1-0.4,0.2-0.6,0.3
		C555.9,239.7,555.6,239.7,555.3,239.7z"/>
	<path class="st2" d="M563.1,239.7v-7.3h1.7v7.3H563.1z"/>
	<path class="st2" d="M570.4,231.4l-3.1,8.2h-1.6l3.1-8.2H570.4z"/>
	<path class="st2" d="M571.3,239.7v-7.2c0.1,0,0.2,0,0.4,0c0.1,0,0.3,0,0.5,0c0.3,0,0.7-0.1,1-0.1c0.3,0,0.6,0,1,0
		c0.5,0,0.9,0,1.2,0.1c0.3,0.1,0.6,0.1,0.8,0.3c0.2,0.1,0.3,0.2,0.5,0.3c0.1,0.1,0.2,0.3,0.3,0.5c0.1,0.2,0.1,0.3,0.2,0.5
		s0.1,0.4,0.1,0.6v5.1H571.3z M573,238.3h2.4v-3.8c0-0.2,0-0.3-0.1-0.4c0-0.1-0.1-0.2-0.2-0.3c-0.1-0.1-0.1-0.1-0.2-0.1
		c-0.1,0-0.2-0.1-0.3-0.1c-0.1,0-0.2,0-0.3,0c-0.1,0-0.2,0-0.4,0c-0.1,0-0.3,0-0.4,0c-0.2,0-0.3,0-0.5,0V238.3z"/>
	<path class="st2" d="M578.8,237.2v-4.8h1.7v3.5l-1,1.3H578.8z"/>
	<path class="st2" d="M584.9,239.7v-4.8c0-0.3-0.1-0.6-0.2-0.8c-0.1-0.2-0.3-0.3-0.6-0.4c-0.1,0-0.2-0.1-0.3-0.1c-0.1,0-0.2,0-0.3,0
		c-0.2,0-0.4,0-0.6,0s-0.4,0-0.7,0c-0.2,0-0.5,0-0.7,0.1v-1.3c0.4,0,0.7-0.1,1-0.1c0.3,0,0.6,0,0.9,0c0.5,0,1,0,1.3,0.1
		s0.6,0.1,0.8,0.2c0.2,0.1,0.4,0.2,0.6,0.4c0.1,0.1,0.3,0.3,0.3,0.6c0.1,0.2,0.1,0.4,0.1,0.6c0,0.2,0,0.4,0,0.7v4.8H584.9z"/>
	<path class="st2" d="M590.9,239.8c-0.3,0-0.5,0-0.8,0c-0.3,0-0.5,0-0.7,0c-0.2,0-0.4,0-0.5-0.1l-0.3,0v-1.3c0.4,0,0.8,0.1,1.2,0.1
		c0.4,0,0.8,0,1.2,0c0.2,0,0.4,0,0.5-0.1s0.3-0.1,0.4-0.2c0.1-0.1,0.2-0.3,0.3-0.5c0.1-0.2,0.1-0.4,0.1-0.6c0-0.2,0-0.4,0-0.5
		c0-0.1,0-0.3,0-0.5c0-0.2,0-0.4,0-0.6c0-0.2,0-0.4-0.1-0.6c0-0.2-0.1-0.4-0.2-0.6c-0.1-0.2-0.2-0.3-0.3-0.4
		c-0.1-0.1-0.2-0.1-0.3-0.2c-0.1,0-0.2-0.1-0.3-0.1c-0.2,0-0.4,0-0.6,0.1c-0.2,0.1-0.3,0.1-0.4,0.2c-0.1,0.1-0.2,0.2-0.3,0.4
		c-0.1,0.2-0.1,0.3-0.1,0.5c0,0.2,0,0.4,0.1,0.5c0.1,0.2,0.2,0.3,0.3,0.4c0.1,0.1,0.2,0.1,0.3,0.2c0.1,0,0.2,0.1,0.3,0.1l0.3,0.1
		l-0.3,1.2l-0.4,0c-0.2,0-0.4,0-0.6-0.1c-0.2,0-0.4-0.1-0.5-0.2c-0.2-0.1-0.3-0.2-0.5-0.3c-0.1-0.1-0.3-0.2-0.3-0.4
		c-0.1-0.2-0.2-0.4-0.3-0.7c-0.1-0.2-0.1-0.5-0.1-0.8c0-0.4,0.1-0.8,0.2-1.1c0.1-0.3,0.3-0.6,0.5-0.8c0.3-0.3,0.6-0.5,1-0.6
		c0.4-0.1,0.8-0.2,1.2-0.2c0.3,0,0.7,0,1,0.1c0.3,0.1,0.6,0.2,0.8,0.3c0.2,0.1,0.3,0.3,0.5,0.4c0.2,0.2,0.3,0.4,0.4,0.6
		c0.1,0.3,0.2,0.6,0.3,1c0.1,0.4,0.1,0.8,0.1,1.2c0,0.6-0.1,1.1-0.2,1.5c-0.1,0.4-0.2,0.8-0.4,1.1c-0.2,0.3-0.4,0.5-0.6,0.6
		c-0.2,0.2-0.5,0.3-0.7,0.4c-0.2,0.1-0.3,0.1-0.5,0.1C591.4,239.8,591.2,239.8,590.9,239.8z"/>
	<path class="st2" d="M595.5,239.7v-7.3h1.7v7.3H595.5z"/>
	<path class="st2" d="M601.6,239.8c-0.5,0-1-0.1-1.4-0.3c-0.3-0.1-0.6-0.3-0.8-0.6c-0.2-0.2-0.4-0.5-0.6-0.9
		c-0.1-0.3-0.2-0.6-0.2-0.9c-0.1-0.3-0.1-0.7-0.1-1.1c0-0.3,0-0.6,0.1-0.9s0.1-0.5,0.3-0.8c0.1-0.2,0.3-0.4,0.4-0.6l0,0l-0.7,0v-1.4
		c0.4,0,0.7,0,1-0.1c0.3,0,0.7,0,1,0c0.3,0,0.6,0,0.9,0c0.3,0,0.6,0,0.8,0.1c0.3,0.1,0.5,0.2,0.7,0.3c0.3,0.1,0.5,0.3,0.7,0.6
		s0.4,0.5,0.5,0.8c0.1,0.3,0.2,0.6,0.2,0.9s0.1,0.7,0.1,1.1c0,0.3,0,0.6-0.1,0.9c0,0.3-0.1,0.6-0.2,0.8c-0.1,0.4-0.3,0.7-0.5,1
		c-0.2,0.3-0.5,0.5-0.8,0.7C602.7,239.7,602.2,239.8,601.6,239.8z M601.7,238.4c0.2,0,0.4,0,0.6-0.1s0.3-0.2,0.4-0.4
		c0.1-0.1,0.2-0.3,0.2-0.5c0-0.2,0.1-0.4,0.1-0.6c0-0.2,0-0.5,0-0.7c0-0.5,0-0.9-0.1-1.3s-0.2-0.6-0.4-0.8c-0.1-0.1-0.2-0.2-0.4-0.3
		c-0.1-0.1-0.3-0.1-0.5-0.1c-0.1,0-0.2,0-0.3,0c-0.1,0-0.2,0-0.3,0c-0.2,0.3-0.4,0.6-0.5,1c-0.1,0.4-0.2,0.8-0.2,1.4
		c0,0.4,0,0.8,0.1,1.1s0.1,0.6,0.3,0.7c0.1,0.2,0.2,0.3,0.4,0.4S601.4,238.4,601.7,238.4z"/>
	<path class="st2" d="M549.2,253.6c-0.1,0-0.3,0-0.4,0c-0.1,0-0.3-0.1-0.4-0.1v-1.2c0.2,0,0.4,0.1,0.6,0.1c0.2,0,0.4-0.1,0.5-0.2
		s0.1-0.3,0.1-0.6v-3.9c-0.1,0-0.3,0-0.4,0c-0.1,0-0.3,0-0.4,0v-1.3c0.4,0,0.8-0.1,1.2-0.1s0.7,0,1.1-0.1c0.3,0,0.7,0,1,0
		c0.4,0,0.7,0,0.9,0c0.3,0,0.5,0.1,0.7,0.1c0.2,0.1,0.4,0.1,0.5,0.2c0.2,0.1,0.3,0.2,0.4,0.4c0.1,0.1,0.2,0.3,0.3,0.5
		c0.1,0.1,0.1,0.3,0.1,0.5s0,0.4,0,0.6v4.9h-1.7v-4.8c0-0.3-0.1-0.6-0.2-0.8s-0.3-0.3-0.6-0.4c-0.2,0-0.4-0.1-0.6-0.1
		c-0.1,0-0.2,0-0.3,0s-0.2,0-0.3,0v4c0,0.3,0,0.5-0.1,0.7c0,0.2-0.1,0.4-0.2,0.6c-0.1,0.2-0.2,0.4-0.4,0.5c-0.2,0.1-0.4,0.2-0.6,0.3
		C549.8,253.5,549.5,253.6,549.2,253.6z"/>
	<path class="st2" d="M556.9,253.5v-7.3h1.7v7.3H556.9z"/>
	<path class="st2" d="M564.2,245.3l-3.1,8.2h-1.6l3.1-8.2H564.2z"/>
	<path class="st2" d="M565.2,253.5v-7.2c0.1,0,0.2,0,0.4,0c0.1,0,0.3,0,0.5,0c0.3,0,0.7-0.1,1-0.1c0.3,0,0.6,0,1,0
		c0.5,0,0.9,0,1.2,0.1c0.3,0.1,0.6,0.1,0.8,0.3c0.2,0.1,0.3,0.2,0.5,0.3c0.1,0.1,0.2,0.3,0.3,0.5c0.1,0.2,0.1,0.3,0.2,0.5
		s0.1,0.4,0.1,0.6v5.1H565.2z M566.9,252.2h2.4v-3.8c0-0.2,0-0.3-0.1-0.4c0-0.1-0.1-0.2-0.2-0.3c-0.1-0.1-0.1-0.1-0.2-0.1
		c-0.1,0-0.2-0.1-0.3-0.1c-0.1,0-0.2,0-0.3,0c-0.1,0-0.2,0-0.4,0c-0.1,0-0.3,0-0.4,0c-0.2,0-0.3,0-0.5,0V252.2z"/>
	<path class="st2" d="M572.7,251v-4.8h1.7v3.5l-1,1.3H572.7z"/>
	<path class="st2" d="M578.8,253.5v-4.8c0-0.3-0.1-0.6-0.2-0.8c-0.1-0.2-0.3-0.3-0.6-0.4c-0.1,0-0.2-0.1-0.3-0.1c-0.1,0-0.2,0-0.3,0
		c-0.2,0-0.4,0-0.6,0s-0.4,0-0.7,0c-0.2,0-0.5,0-0.7,0.1v-1.3c0.4,0,0.7-0.1,1-0.1c0.3,0,0.6,0,0.9,0c0.5,0,1,0,1.3,0.1
		s0.6,0.1,0.8,0.2c0.2,0.1,0.4,0.2,0.6,0.4c0.1,0.1,0.3,0.3,0.3,0.6c0.1,0.2,0.1,0.4,0.1,0.6c0,0.2,0,0.4,0,0.7v4.8H578.8z"/>
	<path class="st2" d="M584.9,253.5v-4.8c0-0.3-0.1-0.6-0.2-0.8c-0.1-0.2-0.3-0.3-0.6-0.4c-0.1,0-0.2-0.1-0.3-0.1c-0.1,0-0.2,0-0.3,0
		c-0.2,0-0.4,0-0.6,0s-0.4,0-0.7,0c-0.2,0-0.5,0-0.7,0.1v-1.3c0.4,0,0.7-0.1,1-0.1c0.3,0,0.6,0,0.9,0c0.5,0,1,0,1.3,0.1
		s0.6,0.1,0.8,0.2c0.2,0.1,0.4,0.2,0.6,0.4c0.1,0.1,0.3,0.3,0.3,0.6c0.1,0.2,0.1,0.4,0.1,0.6c0,0.2,0,0.4,0,0.7v4.8H584.9z"/>
	<path class="st2" d="M588.3,253.5v-7.3h1.7v7.3H588.3z"/>
	<path class="st2" d="M592.1,253.5l-0.6-7.3h1.6l0.3,3.7c0.1,0,0.2-0.1,0.4-0.1c0.1-0.1,0.2-0.1,0.3-0.2c0.1-0.1,0.2-0.3,0.2-0.4
		c0.1-0.2,0.1-0.4,0.1-0.6l0.2-2.3h1.6l-0.2,2.2c0,0.4-0.1,0.8-0.2,1.1c-0.1,0.3-0.3,0.6-0.6,0.9c-0.2,0.2-0.5,0.4-0.7,0.5
		c-0.3,0.1-0.6,0.2-1,0.2c0,0,0,0,0,0s0,0,0,0l0.1,1h1.5c0.4,0,0.7-0.1,1.1-0.3c0.3-0.2,0.6-0.5,0.8-0.9c0.2-0.4,0.3-0.9,0.4-1.5
		l0.3-3.2h1.6l-0.3,3.3c0,0.4-0.1,0.8-0.2,1.2c-0.1,0.4-0.2,0.7-0.4,1c-0.1,0.3-0.3,0.5-0.5,0.7s-0.4,0.4-0.7,0.6
		c-0.3,0.2-0.7,0.3-1,0.4c-0.4,0.1-0.8,0.1-1.2,0.1H592.1z"/>
	<path class="st2" d="M600.5,253.5l0.5-4.9c0-0.1,0-0.2,0-0.3s0-0.2,0-0.3c0-0.1,0-0.3,0-0.4s0-0.3-0.1-0.4c0-0.1,0-0.1-0.1-0.2
		c0-0.1,0-0.2-0.1-0.2c0-0.1,0-0.2-0.1-0.2c0,0,0-0.1,0-0.1c0,0,0-0.1-0.1-0.1h1.5c0.1,0.1,0.1,0.2,0.2,0.4c0,0.1,0.1,0.3,0.1,0.4
		h0.1c0.1-0.1,0.2-0.2,0.3-0.3c0.2-0.1,0.3-0.2,0.4-0.3c0.1-0.1,0.3-0.1,0.6-0.2c0.2-0.1,0.5-0.1,0.8-0.1c0.3,0,0.6,0,0.8,0.1
		c0.2,0.1,0.5,0.2,0.6,0.4c0.1,0.1,0.2,0.2,0.3,0.3c0.1,0.1,0.1,0.2,0.2,0.4c0.1,0.2,0.2,0.5,0.2,0.8c0.1,0.3,0.1,0.6,0.1,1v4.4
		h-3.1v-1.3h1.4v-3c0-0.2,0-0.4,0-0.6c0-0.2-0.1-0.3-0.1-0.4c0-0.1-0.1-0.2-0.2-0.3c-0.1-0.1-0.2-0.2-0.3-0.2
		c-0.1-0.1-0.3-0.1-0.4-0.1c-0.2,0-0.4,0-0.5,0.1c-0.2,0.1-0.3,0.1-0.4,0.2c-0.1,0.1-0.2,0.2-0.3,0.3s-0.1,0.2-0.2,0.3l-0.5,5.2
		H600.5z"/>
	<path class="st2" d="M608.8,253.5v-7.3h1.7v7.3H608.8z"/>
</g>
<g>
	<path class="st2" d="M479.4,208.4c-0.1,0-0.3,0-0.4,0c-0.1,0-0.3-0.1-0.4-0.1V207c0.2,0,0.4,0.1,0.6,0.1c0.2,0,0.4-0.1,0.5-0.2
		s0.1-0.3,0.1-0.6v-3.9c-0.1,0-0.3,0-0.4,0c-0.1,0-0.3,0-0.4,0v-1.3c0.4,0,0.8-0.1,1.2-0.1s0.7,0,1.1-0.1c0.3,0,0.7,0,1,0
		c0.4,0,0.7,0,0.9,0c0.3,0,0.5,0.1,0.7,0.1c0.2,0.1,0.4,0.1,0.5,0.2c0.2,0.1,0.3,0.2,0.4,0.4c0.1,0.1,0.2,0.3,0.3,0.5
		c0.1,0.1,0.1,0.3,0.1,0.5s0,0.4,0,0.6v4.9h-1.7v-4.8c0-0.3-0.1-0.6-0.2-0.8s-0.3-0.3-0.6-0.4c-0.2,0-0.4-0.1-0.6-0.1
		c-0.1,0-0.2,0-0.3,0s-0.2,0-0.3,0v4c0,0.3,0,0.5-0.1,0.7c0,0.2-0.1,0.4-0.2,0.6c-0.1,0.2-0.2,0.4-0.4,0.5c-0.2,0.1-0.4,0.2-0.6,0.3
		C480,208.4,479.7,208.4,479.4,208.4z"/>
	<path class="st2" d="M487.2,208.4v-7.3h1.7v7.3H487.2z"/>
	<path class="st2" d="M490.9,208.4c-0.1,0-0.2,0-0.3,0c-0.1,0-0.2,0-0.4-0.1l0.2-1.5c0.1,0,0.2,0,0.4,0.1c0.1,0,0.2,0,0.4,0
		c0.3,0,0.5,0,0.7-0.1c0.2-0.1,0.4-0.2,0.5-0.4c0.1-0.1,0.2-0.3,0.2-0.5s0.1-0.4,0.1-0.6v-2.2c0-0.3,0-0.5-0.1-0.6s-0.2-0.2-0.5-0.2
		c-0.2,0-0.3,0-0.5,0c-0.2,0-0.3,0.1-0.5,0.1v-1.3c0.4-0.1,0.8-0.1,1.2-0.1c0.4,0,0.7,0,0.9,0.1s0.4,0.2,0.6,0.3
		c0.2,0.2,0.4,0.4,0.5,0.7c0.1,0.3,0.1,0.6,0.1,1v5.3H493l-0.3-1.1h-0.1c-0.1,0.1-0.1,0.2-0.3,0.4c-0.1,0.1-0.2,0.3-0.3,0.3
		c-0.1,0.1-0.3,0.2-0.5,0.3C491.3,208.4,491.1,208.4,490.9,208.4z"/>
	<path class="st2" d="M497.7,208.4l0.6-2.8l0.9-3.2h-3.7v-2.8h1.7v1.5h3.7v1.1l-1,3.4l-0.6,2.8H497.7z"/>
	<path class="st2" d="M502,208.4l0.5-4.9c0-0.1,0-0.2,0-0.3s0-0.2,0-0.3c0-0.1,0-0.3,0-0.4s0-0.3-0.1-0.4c0-0.1,0-0.1-0.1-0.2
		c0-0.1,0-0.2-0.1-0.2c0-0.1,0-0.2-0.1-0.2c0,0,0-0.1,0-0.1c0,0,0-0.1-0.1-0.1h1.5c0.1,0.1,0.1,0.2,0.2,0.4c0,0.1,0.1,0.3,0.1,0.4
		h0.1c0.1-0.1,0.2-0.2,0.3-0.3c0.2-0.1,0.3-0.2,0.4-0.3c0.1-0.1,0.3-0.1,0.6-0.2c0.2-0.1,0.5-0.1,0.8-0.1c0.3,0,0.6,0,0.8,0.1
		c0.2,0.1,0.5,0.2,0.6,0.4c0.1,0.1,0.2,0.2,0.3,0.3c0.1,0.1,0.1,0.2,0.2,0.4c0.1,0.2,0.2,0.5,0.2,0.8c0.1,0.3,0.1,0.6,0.1,1v4.4
		h-3.1V207h1.4v-3c0-0.2,0-0.4,0-0.6c0-0.2-0.1-0.3-0.1-0.4c0-0.1-0.1-0.2-0.2-0.3c-0.1-0.1-0.2-0.2-0.3-0.2
		c-0.1-0.1-0.3-0.1-0.4-0.1c-0.2,0-0.4,0-0.5,0.1c-0.2,0.1-0.3,0.1-0.4,0.2c-0.1,0.1-0.2,0.2-0.3,0.3s-0.1,0.2-0.2,0.3l-0.5,5.2H502
		z"/>
	<path class="st2" d="M477.3,222.2V215c0.1,0,0.2,0,0.4,0c0.1,0,0.3,0,0.5,0c0.3,0,0.7-0.1,1-0.1c0.3,0,0.6,0,1,0
		c0.5,0,0.9,0,1.2,0.1c0.3,0.1,0.6,0.1,0.8,0.3c0.2,0.1,0.3,0.2,0.5,0.3c0.1,0.1,0.2,0.3,0.3,0.5c0.1,0.2,0.1,0.3,0.2,0.5
		s0.1,0.4,0.1,0.6v5.1H477.3z M479,220.9h2.4v-3.8c0-0.2,0-0.3-0.1-0.4c0-0.1-0.1-0.2-0.2-0.3c-0.1-0.1-0.1-0.1-0.2-0.1
		c-0.1,0-0.2-0.1-0.3-0.1c-0.1,0-0.2,0-0.3,0c-0.1,0-0.2,0-0.4,0c-0.1,0-0.3,0-0.4,0c-0.2,0-0.3,0-0.5,0V220.9z"/>
	<path class="st2" d="M484.8,219.7v-4.8h1.7v3.5l-1,1.3H484.8z"/>
	<path class="st2" d="M490.8,222.3c-0.5,0-1-0.1-1.4-0.3c-0.3-0.1-0.6-0.3-0.8-0.6c-0.2-0.2-0.4-0.5-0.6-0.9
		c-0.1-0.3-0.2-0.6-0.2-0.9c-0.1-0.3-0.1-0.7-0.1-1.1c0-0.3,0-0.6,0.1-0.9s0.1-0.5,0.3-0.8c0.1-0.2,0.3-0.4,0.4-0.6l0,0l-0.7,0v-1.4
		c0.4,0,0.7,0,1-0.1c0.3,0,0.7,0,1,0c0.3,0,0.6,0,0.9,0c0.3,0,0.6,0,0.8,0.1c0.3,0.1,0.5,0.2,0.7,0.3c0.3,0.1,0.5,0.3,0.7,0.6
		s0.4,0.5,0.5,0.8c0.1,0.3,0.2,0.6,0.2,0.9s0.1,0.7,0.1,1.1c0,0.3,0,0.6-0.1,0.9c0,0.3-0.1,0.6-0.2,0.8c-0.1,0.4-0.3,0.7-0.5,1
		c-0.2,0.3-0.5,0.5-0.8,0.7C491.9,222.2,491.4,222.3,490.8,222.3z M490.8,220.9c0.2,0,0.4,0,0.6-0.1s0.3-0.2,0.4-0.4
		c0.1-0.1,0.2-0.3,0.2-0.5c0-0.2,0.1-0.4,0.1-0.6c0-0.2,0-0.5,0-0.7c0-0.5,0-0.9-0.1-1.3s-0.2-0.6-0.4-0.8c-0.1-0.1-0.2-0.2-0.4-0.3
		c-0.1-0.1-0.3-0.1-0.5-0.1c-0.1,0-0.2,0-0.3,0c-0.1,0-0.2,0-0.3,0c-0.2,0.3-0.4,0.6-0.5,1c-0.1,0.4-0.2,0.8-0.2,1.4
		c0,0.4,0,0.8,0.1,1.1s0.1,0.6,0.3,0.7c0.1,0.2,0.2,0.3,0.4,0.4S490.6,220.9,490.8,220.9z"/>
	<path class="st2" d="M498,222.2v-4.8c0-0.3-0.1-0.6-0.2-0.8c-0.1-0.2-0.3-0.3-0.6-0.4c-0.1,0-0.2-0.1-0.3-0.1c-0.1,0-0.2,0-0.3,0
		c-0.2,0-0.4,0-0.6,0s-0.4,0-0.7,0c-0.2,0-0.5,0-0.7,0.1v-1.3c0.4,0,0.7-0.1,1-0.1c0.3,0,0.6,0,0.9,0c0.5,0,1,0,1.3,0.1
		s0.6,0.1,0.8,0.2c0.2,0.1,0.4,0.2,0.6,0.4c0.1,0.1,0.3,0.3,0.3,0.6c0.1,0.2,0.1,0.4,0.1,0.6c0,0.2,0,0.4,0,0.7v4.8H498z"/>
	<path class="st2" d="M504,222.3c-0.3,0-0.5,0-0.8,0c-0.3,0-0.5,0-0.7,0c-0.2,0-0.4,0-0.5-0.1l-0.3,0v-1.3c0.4,0,0.8,0.1,1.2,0.1
		c0.4,0,0.8,0,1.2,0c0.2,0,0.4,0,0.5-0.1s0.3-0.1,0.4-0.2c0.1-0.1,0.2-0.3,0.3-0.5c0.1-0.2,0.1-0.4,0.1-0.6c0-0.2,0-0.4,0-0.5
		c0-0.1,0-0.3,0-0.5c0-0.2,0-0.4,0-0.6c0-0.2,0-0.4-0.1-0.6c0-0.2-0.1-0.4-0.2-0.6c-0.1-0.2-0.2-0.3-0.3-0.4
		c-0.1-0.1-0.2-0.1-0.3-0.2c-0.1,0-0.2-0.1-0.3-0.1c-0.2,0-0.4,0-0.6,0.1c-0.2,0.1-0.3,0.1-0.4,0.2c-0.1,0.1-0.2,0.2-0.3,0.4
		c-0.1,0.2-0.1,0.3-0.1,0.5c0,0.2,0,0.4,0.1,0.5c0.1,0.2,0.2,0.3,0.3,0.4c0.1,0.1,0.2,0.1,0.3,0.2c0.1,0,0.2,0.1,0.3,0.1l0.3,0.1
		l-0.3,1.2l-0.4,0c-0.2,0-0.4,0-0.6-0.1c-0.2,0-0.4-0.1-0.5-0.2c-0.2-0.1-0.3-0.2-0.5-0.3c-0.1-0.1-0.3-0.2-0.3-0.4
		c-0.1-0.2-0.2-0.4-0.3-0.7c-0.1-0.2-0.1-0.5-0.1-0.8c0-0.4,0.1-0.8,0.2-1.1c0.1-0.3,0.3-0.6,0.5-0.8c0.3-0.3,0.6-0.5,1-0.6
		c0.4-0.1,0.8-0.2,1.2-0.2c0.3,0,0.7,0,1,0.1c0.3,0.1,0.6,0.2,0.8,0.3c0.2,0.1,0.3,0.3,0.5,0.4c0.2,0.2,0.3,0.4,0.4,0.6
		c0.1,0.3,0.2,0.6,0.3,1c0.1,0.4,0.1,0.8,0.1,1.2c0,0.6-0.1,1.1-0.2,1.5c-0.1,0.4-0.2,0.8-0.4,1.1c-0.2,0.3-0.4,0.5-0.6,0.6
		c-0.2,0.2-0.5,0.3-0.7,0.4c-0.2,0.1-0.3,0.1-0.5,0.1C504.4,222.3,504.2,222.3,504,222.3z"/>
	<path class="st2" d="M508.5,222.2v-7.3h1.7v7.3H508.5z"/>
</g>
<g>
	<path class="st2" d="M498,459.9V453c0-0.3,0-0.5,0-0.7c0-0.2-0.1-0.4-0.2-0.6c0-0.1-0.1-0.2-0.1-0.2s-0.1-0.1-0.2-0.2
		c-0.2-0.2-0.6-0.3-1.1-0.3c-0.2,0-0.3,0-0.5,0c-0.1,0-0.3,0-0.4,0c-0.1,0-0.2,0-0.4,0.1c-0.1,0-0.3,0-0.4,0.1v-1.4
		c0.1,0,0.3,0,0.4-0.1c0.2,0,0.3,0,0.5,0c0.2,0,0.4,0,0.6,0s0.4,0,0.6,0c0.4,0,0.8,0.1,1.2,0.2s0.6,0.3,0.9,0.5
		c0.1,0.1,0.2,0.2,0.3,0.3c0.1,0.1,0.2,0.3,0.2,0.4c0.1,0.3,0.2,0.5,0.3,0.9c0.1,0.3,0.1,0.6,0.1,1v6.8H498z"/>
	<path class="st2" d="M501.4,457.1v-7.3h1.7v7.3H501.4z"/>
	<path class="st2" d="M504.6,457.1v-1.3h2c0-0.1,0.1-0.3,0.1-0.4c0-0.1,0-0.3,0-0.4v-3c0-0.1,0-0.3,0-0.4c0-0.1-0.1-0.2-0.2-0.3
		c-0.1-0.1-0.1-0.1-0.2-0.1c-0.1,0-0.2,0-0.3,0c-0.1,0-0.3,0-0.4,0c-0.1,0-0.3,0-0.5,0.1v-1.4c0.1,0,0.3-0.1,0.5-0.1
		c0.2,0,0.4,0,0.6,0c0.4,0,0.7,0,0.9,0.1s0.4,0.2,0.6,0.3s0.3,0.3,0.4,0.4c0.1,0.2,0.2,0.3,0.2,0.5c0,0.1,0.1,0.3,0.1,0.4
		s0,0.3,0,0.5v3c0,0.2,0,0.4,0,0.7s0,0.5-0.1,0.7s-0.1,0.4-0.1,0.5l-0.1,0.3H504.6z"/>
	<path class="st2" d="M509.8,454.6v-4.8h1.7v3.5l-1,1.3H509.8z"/>
	<path class="st2" d="M513.2,457.1v-7.2c0.1,0,0.3,0,0.4,0c0.1,0,0.3,0,0.5,0c0.3,0,0.6-0.1,1-0.1c0.3,0,0.6,0,1,0
		c0.4,0,0.8,0,1.1,0.1s0.6,0.1,0.8,0.2c0.2,0.1,0.4,0.2,0.6,0.4c0.1,0.1,0.3,0.3,0.3,0.6c0.1,0.2,0.1,0.4,0.1,0.6s0,0.4,0,0.7v4.8
		h-1.7v-4.8c0-0.3-0.1-0.6-0.2-0.8c-0.1-0.2-0.4-0.3-0.6-0.4c-0.1,0-0.2,0-0.3,0c-0.1,0-0.2,0-0.3,0c-0.1,0-0.3,0-0.4,0
		c-0.2,0-0.3,0-0.5,0v6H513.2z"/>
	<path class="st2" d="M523.7,454.6v-4.8h1.7v3.5l-1,1.3H523.7z"/>
	<path class="st2" d="M530.1,457.2c-0.3,0-0.5,0-0.8-0.1c-0.3,0-0.5-0.1-0.7-0.2c-0.2-0.1-0.3-0.2-0.5-0.4c-0.2-0.1-0.3-0.3-0.5-0.6
		c-0.2-0.3-0.3-0.7-0.4-1.1s-0.1-0.9-0.1-1.5v-3.6h1.7v3.6c0,0.5,0,0.9,0.1,1.2c0.1,0.3,0.2,0.6,0.3,0.8c0.1,0.1,0.2,0.3,0.4,0.3
		s0.3,0.1,0.5,0.1c0.2,0,0.4,0,0.6-0.1s0.3-0.2,0.4-0.4c0.1-0.2,0.2-0.5,0.3-0.8c0.1-0.3,0.1-0.7,0.1-1.1c0-0.4,0-0.8-0.1-1.1
		c-0.1-0.3-0.1-0.6-0.3-0.8c-0.1-0.2-0.2-0.3-0.4-0.4c-0.2-0.1-0.4-0.1-0.6-0.1c-0.1,0-0.1,0-0.2,0s-0.1,0-0.2,0v-1.3
		c0.1,0,0.3,0,0.4,0c0.1,0,0.3,0,0.4,0c0.3,0,0.5,0,0.8,0.1c0.3,0.1,0.5,0.2,0.7,0.3c0.1,0.1,0.3,0.2,0.4,0.4
		c0.1,0.1,0.2,0.3,0.3,0.5c0.1,0.3,0.2,0.6,0.3,1c0.1,0.4,0.1,0.9,0.1,1.4c0,0.4,0,0.7-0.1,1c0,0.3-0.1,0.6-0.2,0.9
		c-0.1,0.3-0.3,0.7-0.5,0.9c-0.2,0.3-0.5,0.5-0.7,0.6c-0.2,0.1-0.5,0.2-0.7,0.3C530.7,457.2,530.4,457.2,530.1,457.2z"/>
	<path class="st2" d="M537.5,457.1c0,0,0-0.1,0-0.1s0-0.1,0-0.1c0-0.2,0-0.4,0.1-0.7s0.1-0.6,0.2-0.9c0-0.1,0.1-0.3,0.1-0.4
		s0.1-0.3,0.1-0.4c0-0.2,0.1-0.3,0.1-0.4l1-2.9h-4.5v-1.3h6.3v1l-1.1,3.2c0,0.1-0.1,0.3-0.1,0.4c0,0.2-0.1,0.3-0.1,0.5
		c0,0.2-0.1,0.3-0.1,0.4c0,0.1-0.1,0.2-0.1,0.4c0,0.1-0.1,0.3-0.1,0.4s0,0.3-0.1,0.4c0,0.1,0,0.2,0,0.3v0.3H537.5z M534.6,459.9
		v-7.1h1.7v7.1H534.6z"/>
	<path class="st2" d="M541.9,454.6v-4.8h1.7v3.5l-1,1.3H541.9z"/>
	<path class="st2" d="M545.3,457.1v-7.3h1.7v7.3H545.3z"/>
	<path class="st2" d="M551.5,457.1v-4.8c0-0.3-0.1-0.6-0.2-0.8c-0.1-0.2-0.3-0.3-0.6-0.4c-0.1,0-0.2-0.1-0.3-0.1c-0.1,0-0.2,0-0.3,0
		c-0.2,0-0.4,0-0.6,0s-0.4,0-0.7,0c-0.2,0-0.5,0-0.7,0.1v-1.3c0.4,0,0.7-0.1,1-0.1c0.3,0,0.6,0,0.9,0c0.5,0,1,0,1.3,0.1
		s0.6,0.1,0.8,0.2c0.2,0.1,0.4,0.2,0.6,0.4c0.1,0.1,0.3,0.3,0.3,0.6c0.1,0.2,0.1,0.4,0.1,0.6c0,0.2,0,0.4,0,0.7v4.8H551.5z"/>
	<path class="st2" d="M557.5,457.2c-0.3,0-0.5,0-0.8,0c-0.3,0-0.5,0-0.7,0c-0.2,0-0.4,0-0.5-0.1l-0.3,0v-1.3c0.4,0,0.8,0.1,1.2,0.1
		c0.4,0,0.8,0,1.2,0c0.2,0,0.4,0,0.5-0.1s0.3-0.1,0.4-0.2c0.1-0.1,0.2-0.3,0.3-0.5c0.1-0.2,0.1-0.4,0.1-0.6c0-0.2,0-0.4,0-0.5
		c0-0.1,0-0.3,0-0.5c0-0.2,0-0.4,0-0.6c0-0.2,0-0.4-0.1-0.6c0-0.2-0.1-0.4-0.2-0.6c-0.1-0.2-0.2-0.3-0.3-0.4
		c-0.1-0.1-0.2-0.1-0.3-0.2c-0.1,0-0.2-0.1-0.3-0.1c-0.2,0-0.4,0-0.6,0.1c-0.2,0.1-0.3,0.1-0.4,0.2c-0.1,0.1-0.2,0.2-0.3,0.4
		c-0.1,0.2-0.1,0.3-0.1,0.5c0,0.2,0,0.4,0.1,0.5c0.1,0.2,0.2,0.3,0.3,0.4c0.1,0.1,0.2,0.1,0.3,0.2c0.1,0,0.2,0.1,0.3,0.1l0.3,0.1
		l-0.3,1.2l-0.4,0c-0.2,0-0.4,0-0.6-0.1c-0.2,0-0.4-0.1-0.5-0.2c-0.2-0.1-0.3-0.2-0.5-0.3c-0.1-0.1-0.3-0.2-0.3-0.4
		c-0.1-0.2-0.2-0.4-0.3-0.7c-0.1-0.2-0.1-0.5-0.1-0.8c0-0.4,0.1-0.8,0.2-1.1c0.1-0.3,0.3-0.6,0.5-0.8c0.3-0.3,0.6-0.5,1-0.6
		c0.4-0.1,0.8-0.2,1.2-0.2c0.3,0,0.7,0,1,0.1c0.3,0.1,0.6,0.2,0.8,0.3c0.2,0.1,0.3,0.3,0.5,0.4c0.2,0.2,0.3,0.4,0.4,0.6
		c0.1,0.3,0.2,0.6,0.3,1c0.1,0.4,0.1,0.8,0.1,1.2c0,0.6-0.1,1.1-0.2,1.5c-0.1,0.4-0.2,0.8-0.4,1.1c-0.2,0.3-0.4,0.5-0.6,0.6
		c-0.2,0.2-0.5,0.3-0.7,0.4c-0.2,0.1-0.3,0.1-0.5,0.1C557.9,457.2,557.7,457.2,557.5,457.2z"/>
	<path class="st2" d="M508.9,470.9v-7.2c0.1,0,0.2,0,0.4,0c0.1,0,0.3,0,0.5,0c0.3,0,0.7-0.1,1-0.1c0.3,0,0.6,0,1,0
		c0.5,0,0.9,0,1.2,0.1c0.3,0.1,0.6,0.1,0.8,0.3c0.2,0.1,0.3,0.2,0.5,0.3c0.1,0.1,0.2,0.3,0.3,0.5c0.1,0.2,0.1,0.3,0.2,0.5
		s0.1,0.4,0.1,0.6v5.1H508.9z M510.6,469.6h2.4v-3.8c0-0.2,0-0.3-0.1-0.4c0-0.1-0.1-0.2-0.2-0.3c-0.1-0.1-0.1-0.1-0.2-0.1
		c-0.1,0-0.2-0.1-0.3-0.1c-0.1,0-0.2,0-0.3,0c-0.1,0-0.2,0-0.4,0c-0.1,0-0.3,0-0.4,0c-0.2,0-0.3,0-0.5,0V469.6z"/>
	<path class="st2" d="M516.4,468.5v-4.8h1.7v3.5l-1,1.3H516.4z"/>
	<path class="st2" d="M522.2,470.9v-4.7c0-0.2,0-0.3,0.1-0.4s0.1-0.3,0.1-0.4c0.1-0.1,0.1-0.2,0.2-0.3c0.1-0.1,0.1-0.1,0.2-0.2h-3.7
		v-1.3h5.8v1.2c-0.2,0.1-0.3,0.1-0.5,0.2c-0.1,0.1-0.2,0.2-0.3,0.3c-0.2,0.2-0.2,0.5-0.2,0.9v4.6H522.2z"/>
	<path class="st2" d="M526.1,470.9v-7.2c0.1,0,0.3,0,0.4,0c0.1,0,0.3,0,0.5,0c0.3,0,0.6-0.1,1-0.1c0.3,0,0.6,0,1,0
		c0.4,0,0.8,0,1.1,0.1s0.6,0.1,0.8,0.2c0.2,0.1,0.4,0.2,0.6,0.4c0.1,0.1,0.3,0.3,0.3,0.6c0.1,0.2,0.1,0.4,0.1,0.6s0,0.4,0,0.7v4.8
		h-1.7v-4.8c0-0.3-0.1-0.6-0.2-0.8c-0.1-0.2-0.4-0.3-0.6-0.4c-0.1,0-0.2,0-0.3,0c-0.1,0-0.2,0-0.3,0c-0.1,0-0.3,0-0.4,0
		c-0.2,0-0.3,0-0.5,0v6H526.1z"/>
	<path class="st2" d="M533.6,470.9v-7.3h1.7v7.3H533.6z"/>
	<path class="st2" d="M537.1,468.5v-4.8h1.7v3.5l-1,1.3H537.1z"/>
	<path class="st2" d="M540.2,470.9l0.5-4.9c0-0.1,0-0.2,0-0.3s0-0.2,0-0.3c0-0.1,0-0.3,0-0.4s0-0.3-0.1-0.4c0-0.1,0-0.1-0.1-0.2
		c0-0.1,0-0.2-0.1-0.2c0-0.1,0-0.2-0.1-0.2c0,0,0-0.1,0-0.1c0,0,0-0.1-0.1-0.1h1.5c0.1,0.1,0.1,0.2,0.2,0.4c0,0.1,0.1,0.3,0.1,0.4
		h0.1c0.1-0.1,0.2-0.2,0.3-0.3c0.2-0.1,0.3-0.2,0.4-0.3c0.1-0.1,0.3-0.1,0.6-0.2c0.2-0.1,0.5-0.1,0.8-0.1c0.3,0,0.6,0,0.8,0.1
		c0.2,0.1,0.5,0.2,0.6,0.4c0.1,0.1,0.2,0.2,0.3,0.3c0.1,0.1,0.1,0.2,0.2,0.4c0.1,0.2,0.2,0.5,0.2,0.8c0.1,0.3,0.1,0.6,0.1,1v4.4
		h-3.1v-1.3h1.4v-3c0-0.2,0-0.4,0-0.6c0-0.2-0.1-0.3-0.1-0.4c0-0.1-0.1-0.2-0.2-0.3c-0.1-0.1-0.2-0.2-0.3-0.2
		c-0.1-0.1-0.3-0.1-0.4-0.1c-0.2,0-0.4,0-0.5,0.1c-0.2,0.1-0.3,0.1-0.4,0.2c-0.1,0.1-0.2,0.2-0.3,0.3s-0.1,0.2-0.2,0.3l-0.5,5.2
		H540.2z"/>
</g>
<g>
	<path class="st2" d="M406.2,416c-0.1,0-0.3,0-0.4,0c-0.1,0-0.3-0.1-0.4-0.1v-1.2c0.2,0,0.4,0.1,0.6,0.1c0.2,0,0.4-0.1,0.5-0.2
		s0.1-0.3,0.1-0.6V410c-0.1,0-0.3,0-0.4,0c-0.1,0-0.3,0-0.4,0v-1.3c0.4,0,0.8-0.1,1.2-0.1s0.7,0,1.1-0.1c0.3,0,0.7,0,1,0
		c0.4,0,0.7,0,0.9,0c0.3,0,0.5,0.1,0.7,0.1c0.2,0.1,0.4,0.1,0.5,0.2c0.2,0.1,0.3,0.2,0.4,0.4c0.1,0.1,0.2,0.3,0.3,0.5
		c0.1,0.1,0.1,0.3,0.1,0.5s0,0.4,0,0.6v4.9h-1.7v-4.8c0-0.3-0.1-0.6-0.2-0.8s-0.3-0.3-0.6-0.4c-0.2,0-0.4-0.1-0.6-0.1
		c-0.1,0-0.2,0-0.3,0s-0.2,0-0.3,0v4c0,0.3,0,0.5-0.1,0.7c0,0.2-0.1,0.4-0.2,0.6c-0.1,0.2-0.2,0.4-0.4,0.5c-0.2,0.1-0.4,0.2-0.6,0.3
		C406.8,416,406.5,416,406.2,416z"/>
	<path class="st2" d="M413.9,415.9v-7.3h1.7v7.3H413.9z"/>
	<path class="st2" d="M417,415.9v-1.3h2c0-0.1,0.1-0.3,0.1-0.4c0-0.1,0-0.3,0-0.4v-3c0-0.1,0-0.3,0-0.4c0-0.1-0.1-0.2-0.2-0.3
		c-0.1-0.1-0.1-0.1-0.2-0.1c-0.1,0-0.2,0-0.3,0c-0.1,0-0.3,0-0.4,0c-0.1,0-0.3,0-0.5,0.1v-1.4c0.1,0,0.3-0.1,0.5-0.1
		c0.2,0,0.4,0,0.6,0c0.4,0,0.7,0,0.9,0.1s0.4,0.2,0.6,0.3s0.3,0.3,0.4,0.4c0.1,0.2,0.2,0.3,0.2,0.5c0,0.1,0.1,0.3,0.1,0.4
		s0,0.3,0,0.5v3c0,0.2,0,0.4,0,0.7s0,0.5-0.1,0.7s-0.1,0.4-0.1,0.5l-0.1,0.3H417z"/>
	<path class="st2" d="M422.3,413.5v-4.8h1.7v3.5l-1,1.3H422.3z"/>
	<path class="st2" d="M425.7,415.9v-7.2c0.1,0,0.3,0,0.4,0c0.1,0,0.3,0,0.5,0c0.3,0,0.6-0.1,1-0.1c0.3,0,0.6,0,1,0
		c0.4,0,0.8,0,1.1,0.1s0.6,0.1,0.8,0.2c0.2,0.1,0.4,0.2,0.6,0.4c0.1,0.1,0.3,0.3,0.3,0.6c0.1,0.2,0.1,0.4,0.1,0.6s0,0.4,0,0.7v4.8
		h-1.7v-4.8c0-0.3-0.1-0.6-0.2-0.8c-0.1-0.2-0.4-0.3-0.6-0.4c-0.1,0-0.2,0-0.3,0c-0.1,0-0.2,0-0.3,0c-0.1,0-0.3,0-0.4,0
		c-0.2,0-0.3,0-0.5,0v6H425.7z"/>
	<path class="st2" d="M435,415.9l0.6-2.8l0.9-3.2h-3.7v-2.8h1.7v1.5h3.7v1.1l-1,3.4l-0.6,2.8H435z"/>
	<path class="st2" d="M439.2,415.9l0.5-4.9c0-0.1,0-0.2,0-0.3s0-0.2,0-0.3c0-0.1,0-0.3,0-0.4s0-0.3-0.1-0.4c0-0.1,0-0.1-0.1-0.2
		c0-0.1,0-0.2-0.1-0.2c0-0.1,0-0.2-0.1-0.2c0,0,0-0.1,0-0.1c0,0,0-0.1-0.1-0.1h1.5c0.1,0.1,0.1,0.2,0.2,0.4c0,0.1,0.1,0.3,0.1,0.4
		h0.1c0.1-0.1,0.2-0.2,0.3-0.3c0.2-0.1,0.3-0.2,0.4-0.3c0.1-0.1,0.3-0.1,0.6-0.2c0.2-0.1,0.5-0.1,0.8-0.1c0.3,0,0.6,0,0.8,0.1
		c0.2,0.1,0.5,0.2,0.6,0.4c0.1,0.1,0.2,0.2,0.3,0.3c0.1,0.1,0.1,0.2,0.2,0.4c0.1,0.2,0.2,0.5,0.2,0.8c0.1,0.3,0.1,0.6,0.1,1v4.4
		h-3.1v-1.3h1.4v-3c0-0.2,0-0.4,0-0.6c0-0.2-0.1-0.3-0.1-0.4c0-0.1-0.1-0.2-0.2-0.3c-0.1-0.1-0.2-0.2-0.3-0.2
		c-0.1-0.1-0.3-0.1-0.4-0.1c-0.2,0-0.4,0-0.5,0.1c-0.2,0.1-0.3,0.1-0.4,0.2c-0.1,0.1-0.2,0.2-0.3,0.3s-0.1,0.2-0.2,0.3l-0.5,5.2
		H439.2z"/>
	<path class="st2" d="M404.4,429.8v-7.2c0.1,0,0.2,0,0.4,0c0.1,0,0.3,0,0.5,0c0.3,0,0.7-0.1,1-0.1c0.3,0,0.6,0,1,0
		c0.5,0,0.9,0,1.2,0.1c0.3,0.1,0.6,0.1,0.8,0.3c0.2,0.1,0.3,0.2,0.5,0.3c0.1,0.1,0.2,0.3,0.3,0.5c0.1,0.2,0.1,0.3,0.2,0.5
		s0.1,0.4,0.1,0.6v5.1H404.4z M406.1,428.4h2.4v-3.8c0-0.2,0-0.3-0.1-0.4c0-0.1-0.1-0.2-0.2-0.3c-0.1-0.1-0.1-0.1-0.2-0.1
		c-0.1,0-0.2-0.1-0.3-0.1c-0.1,0-0.2,0-0.3,0c-0.1,0-0.2,0-0.4,0c-0.1,0-0.3,0-0.4,0c-0.2,0-0.3,0-0.5,0V428.4z"/>
	<path class="st2" d="M411.9,427.3v-4.8h1.7v3.5l-1,1.3H411.9z"/>
	<path class="st2" d="M414.9,429.8v-1.3h2c0-0.1,0.1-0.3,0.1-0.4c0-0.1,0-0.3,0-0.4v-3c0-0.1,0-0.3,0-0.4c0-0.1-0.1-0.2-0.2-0.3
		c-0.1-0.1-0.1-0.1-0.2-0.1c-0.1,0-0.2,0-0.3,0c-0.1,0-0.3,0-0.4,0c-0.1,0-0.3,0-0.5,0.1v-1.4c0.1,0,0.3-0.1,0.5-0.1
		c0.2,0,0.4,0,0.6,0c0.4,0,0.7,0,0.9,0.1s0.4,0.2,0.6,0.3s0.3,0.3,0.4,0.4c0.1,0.2,0.2,0.3,0.2,0.5c0,0.1,0.1,0.3,0.1,0.4
		s0,0.3,0,0.5v3c0,0.2,0,0.4,0,0.7s0,0.5-0.1,0.7s-0.1,0.4-0.1,0.5l-0.1,0.3H414.9z"/>
	<path class="st2" d="M420.2,427.3v-4.8h1.7v3.5l-1,1.3H420.2z"/>
	<path class="st2" d="M423.6,429.8v-7.2c0.1,0,0.3,0,0.4,0c0.1,0,0.3,0,0.5,0c0.3,0,0.6-0.1,1-0.1c0.3,0,0.6,0,1,0
		c0.4,0,0.8,0,1.1,0.1s0.6,0.1,0.8,0.2c0.2,0.1,0.4,0.2,0.6,0.4c0.1,0.1,0.3,0.3,0.3,0.6c0.1,0.2,0.1,0.4,0.1,0.6s0,0.4,0,0.7v4.8
		h-1.7v-4.8c0-0.3-0.1-0.6-0.2-0.8c-0.1-0.2-0.4-0.3-0.6-0.4c-0.1,0-0.2,0-0.3,0c-0.1,0-0.2,0-0.3,0c-0.1,0-0.3,0-0.4,0
		c-0.2,0-0.3,0-0.5,0v6H423.6z"/>
	<path class="st2" d="M432.9,429.8l0.6-2.8l0.9-3.2h-3.7V421h1.7v1.5h3.7v1.1l-1,3.4l-0.6,2.8H432.9z"/>
	<path class="st2" d="M437.1,429.8l0.5-4.9c0-0.1,0-0.2,0-0.3s0-0.2,0-0.3c0-0.1,0-0.3,0-0.4s0-0.3-0.1-0.4c0-0.1,0-0.1-0.1-0.2
		c0-0.1,0-0.2-0.1-0.2c0-0.1,0-0.2-0.1-0.2c0,0,0-0.1,0-0.1c0,0,0-0.1-0.1-0.1h1.5c0.1,0.1,0.1,0.2,0.2,0.4c0,0.1,0.1,0.3,0.1,0.4
		h0.1c0.1-0.1,0.2-0.2,0.3-0.3c0.2-0.1,0.3-0.2,0.4-0.3c0.1-0.1,0.3-0.1,0.6-0.2c0.2-0.1,0.5-0.1,0.8-0.1c0.3,0,0.6,0,0.8,0.1
		c0.2,0.1,0.5,0.2,0.6,0.4c0.1,0.1,0.2,0.2,0.3,0.3c0.1,0.1,0.1,0.2,0.2,0.4c0.1,0.2,0.2,0.5,0.2,0.8c0.1,0.3,0.1,0.6,0.1,1v4.4
		h-3.1v-1.3h1.4v-3c0-0.2,0-0.4,0-0.6c0-0.2-0.1-0.3-0.1-0.4c0-0.1-0.1-0.2-0.2-0.3c-0.1-0.1-0.2-0.2-0.3-0.2
		c-0.1-0.1-0.3-0.1-0.4-0.1c-0.2,0-0.4,0-0.5,0.1c-0.2,0.1-0.3,0.1-0.4,0.2c-0.1,0.1-0.2,0.2-0.3,0.3s-0.1,0.2-0.2,0.3l-0.5,5.2
		H437.1z"/>
	<path class="st2" d="M445.4,429.8v-7.3h1.7v7.3H445.4z"/>
</g>
<g>
	<path class="st2" d="M369.6,337.2v-4.8c0-0.3-0.1-0.5-0.2-0.7c-0.1-0.2-0.3-0.3-0.5-0.4c-0.1,0-0.2-0.1-0.3-0.1c-0.1,0-0.3,0-0.4,0
		c-0.3,0-0.7,0-1.1,0c-0.4,0-0.9,0.1-1.5,0.1V330c0.2,0,0.4-0.1,0.6-0.1c0.2,0,0.4,0,0.6-0.1c0.3,0,0.6,0,0.8,0c0.3,0,0.5,0,0.8,0
		c0.4,0,0.8,0,1.1,0.1s0.6,0.1,0.8,0.2c0.2,0.1,0.4,0.2,0.6,0.4c0.1,0.2,0.3,0.3,0.3,0.6c0.1,0.2,0.1,0.4,0.1,0.6c0,0.2,0,0.4,0,0.7
		v4.8H369.6z M365.5,337.2v-4.3h1.7v4.3H365.5z"/>
	<path class="st2" d="M373,334.7v-4.8h1.7v3.5l-1,1.3H373z"/>
	<path class="st2" d="M376.1,337.2l0.5-4.9c0-0.1,0-0.2,0-0.3s0-0.2,0-0.3c0-0.1,0-0.3,0-0.4s0-0.3-0.1-0.4c0-0.1,0-0.1-0.1-0.2
		c0-0.1,0-0.2-0.1-0.2c0-0.1,0-0.2-0.1-0.2c0,0,0-0.1,0-0.1c0,0,0-0.1-0.1-0.1h1.5c0.1,0.1,0.1,0.2,0.2,0.4c0,0.1,0.1,0.3,0.1,0.4
		h0.1c0.1-0.1,0.2-0.2,0.3-0.3c0.2-0.1,0.3-0.2,0.4-0.3c0.1-0.1,0.3-0.1,0.6-0.2c0.2-0.1,0.5-0.1,0.8-0.1c0.3,0,0.6,0,0.8,0.1
		c0.2,0.1,0.5,0.2,0.6,0.4c0.1,0.1,0.2,0.2,0.3,0.3c0.1,0.1,0.1,0.2,0.2,0.4c0.1,0.2,0.2,0.5,0.2,0.8c0.1,0.3,0.1,0.6,0.1,1v4.4
		h-3.1v-1.3h1.4v-3c0-0.2,0-0.4,0-0.6c0-0.2-0.1-0.3-0.1-0.4c0-0.1-0.1-0.2-0.2-0.3c-0.1-0.1-0.2-0.2-0.3-0.2
		c-0.1-0.1-0.3-0.1-0.4-0.1c-0.2,0-0.4,0-0.5,0.1c-0.2,0.1-0.3,0.1-0.4,0.2c-0.1,0.1-0.2,0.2-0.3,0.3s-0.1,0.2-0.2,0.3l-0.5,5.2
		H376.1z"/>
	<path class="st2" d="M386.8,337.2v-4.7c0-0.2,0-0.3,0.1-0.4s0.1-0.3,0.1-0.4c0.1-0.1,0.1-0.2,0.2-0.3c0.1-0.1,0.1-0.1,0.2-0.2h-3.7
		v-1.3h5.8v1.2c-0.2,0.1-0.3,0.1-0.5,0.2c-0.1,0.1-0.2,0.2-0.3,0.3c-0.2,0.2-0.2,0.5-0.2,0.9v4.6H386.8z"/>
	<path class="st2" d="M393.5,337.2c0,0,0-0.1,0-0.1s0-0.1,0-0.1c0-0.2,0-0.4,0.1-0.7s0.1-0.6,0.2-0.9c0-0.1,0.1-0.3,0.1-0.4
		s0.1-0.3,0.1-0.4c0-0.2,0.1-0.3,0.1-0.4l1-2.9h-4.5v-1.3h6.3v1l-1.1,3.2c0,0.1-0.1,0.3-0.1,0.4c0,0.2-0.1,0.3-0.1,0.5
		c0,0.2-0.1,0.3-0.1,0.4c0,0.1-0.1,0.2-0.1,0.4c0,0.1-0.1,0.3-0.1,0.4s0,0.3-0.1,0.4c0,0.1,0,0.2,0,0.3v0.3H393.5z M390.7,340v-7.1
		h1.7v7.1H390.7z"/>
	<path class="st2" d="M397.8,337.2v-2.6c0-0.2,0-0.4,0-0.5c0-0.2,0-0.3,0.1-0.4s0.1-0.3,0.2-0.4c0.1-0.2,0.2-0.4,0.4-0.5
		c0.2-0.1,0.4-0.3,0.7-0.3l-1.5-2.5h1.9l2.2,3.6c0,0,0.1-0.1,0.1-0.1c0,0,0-0.1,0.1-0.1c0.1-0.1,0.1-0.2,0.2-0.3s0.1-0.3,0.1-0.5
		v-2.7h1.7v2.6c0,0.3,0,0.5-0.1,0.7c0,0.2-0.1,0.4-0.2,0.6c-0.1,0.2-0.2,0.4-0.4,0.5c-0.2,0.2-0.4,0.3-0.7,0.4l1.5,2.5h-1.9
		l-2.2-3.7c-0.1,0-0.1,0.1-0.2,0.1c-0.1,0.1-0.1,0.1-0.2,0.3c-0.1,0.2-0.1,0.4-0.1,0.6v2.6H397.8z"/>
</g>
<g>
	<path class="st2" d="M461.4,318.5v-6.4c0-0.5,0-0.8-0.1-1.1s-0.1-0.5-0.2-0.7c-0.1-0.2-0.3-0.4-0.5-0.4c-0.2-0.1-0.4-0.1-0.6-0.1
		c-0.2,0-0.4,0-0.6,0.1c-0.2,0.1-0.3,0.2-0.4,0.3c-0.1,0.1-0.2,0.2-0.2,0.4s-0.1,0.3-0.1,0.5c0,0.2,0,0.4,0.1,0.5
		c0.1,0.2,0.2,0.3,0.3,0.4c0.1,0.1,0.2,0.1,0.3,0.2s0.2,0.1,0.3,0.1l0.3,0.1l-0.3,1.2l-0.4,0c-0.4,0-0.7-0.1-1-0.2s-0.5-0.3-0.8-0.5
		c-0.2-0.2-0.3-0.5-0.4-0.8s-0.2-0.6-0.2-1c0-0.3,0.1-0.7,0.2-1c0.1-0.3,0.3-0.6,0.5-0.8c0.1-0.1,0.2-0.2,0.3-0.3s0.3-0.2,0.4-0.2
		c0.2-0.1,0.5-0.2,0.8-0.2c0.3-0.1,0.5-0.1,0.8-0.1c0.3,0,0.7,0,0.9,0.1c0.3,0.1,0.5,0.2,0.8,0.3c0.2,0.1,0.4,0.3,0.5,0.5
		s0.3,0.4,0.4,0.6c0.1,0.3,0.2,0.6,0.3,1c0.1,0.4,0.1,0.8,0.1,1.2v6.4H461.4z"/>
	<path class="st2" d="M467.6,315.8c-0.5,0-1-0.1-1.4-0.3c-0.3-0.1-0.6-0.3-0.8-0.6c-0.2-0.2-0.4-0.5-0.6-0.9
		c-0.1-0.3-0.2-0.6-0.2-0.9c-0.1-0.3-0.1-0.7-0.1-1.1c0-0.3,0-0.6,0.1-0.9s0.1-0.5,0.3-0.8c0.1-0.2,0.3-0.4,0.4-0.6l0,0l-0.7,0v-1.4
		c0.4,0,0.7,0,1-0.1c0.3,0,0.7,0,1,0c0.3,0,0.6,0,0.9,0c0.3,0,0.6,0,0.8,0.1c0.3,0.1,0.5,0.2,0.7,0.3c0.3,0.1,0.5,0.3,0.7,0.6
		s0.4,0.5,0.5,0.8c0.1,0.3,0.2,0.6,0.2,0.9s0.1,0.7,0.1,1.1c0,0.3,0,0.6-0.1,0.9c0,0.3-0.1,0.6-0.2,0.8c-0.1,0.4-0.3,0.7-0.5,1
		c-0.2,0.3-0.5,0.5-0.8,0.7C468.7,315.7,468.2,315.8,467.6,315.8z M467.6,314.5c0.2,0,0.4,0,0.6-0.1s0.3-0.2,0.4-0.4
		c0.1-0.1,0.2-0.3,0.2-0.5c0-0.2,0.1-0.4,0.1-0.6c0-0.2,0-0.5,0-0.7c0-0.5,0-0.9-0.1-1.3s-0.2-0.6-0.4-0.8c-0.1-0.1-0.2-0.2-0.4-0.3
		c-0.1-0.1-0.3-0.1-0.5-0.1c-0.1,0-0.2,0-0.3,0c-0.1,0-0.2,0-0.3,0c-0.2,0.3-0.4,0.6-0.5,1c-0.1,0.4-0.2,0.8-0.2,1.4
		c0,0.4,0,0.8,0.1,1.1s0.1,0.6,0.3,0.7c0.1,0.2,0.2,0.3,0.4,0.4S467.4,314.5,467.6,314.5z"/>
	<path class="st2" d="M472.1,315.7v-7.3h1.7v7.3H472.1z"/>
	<path class="st2" d="M475.2,315.7v-1.3h2c0-0.1,0.1-0.3,0.1-0.4c0-0.1,0-0.3,0-0.4v-3c0-0.1,0-0.3,0-0.4c0-0.1-0.1-0.2-0.2-0.3
		c-0.1-0.1-0.1-0.1-0.2-0.1c-0.1,0-0.2,0-0.3,0c-0.1,0-0.3,0-0.4,0c-0.1,0-0.3,0-0.5,0.1v-1.4c0.1,0,0.3-0.1,0.5-0.1
		c0.2,0,0.4,0,0.6,0c0.4,0,0.7,0,0.9,0.1s0.4,0.2,0.6,0.3s0.3,0.3,0.4,0.4c0.1,0.2,0.2,0.3,0.2,0.5c0,0.1,0.1,0.3,0.1,0.4
		s0,0.3,0,0.5v3c0,0.2,0,0.4,0,0.7s0,0.5-0.1,0.7s-0.1,0.4-0.1,0.5l-0.1,0.3H475.2z"/>
	<path class="st2" d="M483.3,315.7v-2.6c0-0.2,0-0.4,0-0.5c0-0.2,0-0.3,0.1-0.4s0.1-0.3,0.2-0.4c0.1-0.2,0.2-0.4,0.4-0.5
		c0.2-0.1,0.4-0.3,0.7-0.3l-1.5-2.5h1.9l2.2,3.6c0,0,0.1-0.1,0.1-0.1c0,0,0-0.1,0.1-0.1c0.1-0.1,0.1-0.2,0.2-0.3s0.1-0.3,0.1-0.5
		v-2.7h1.7v2.6c0,0.3,0,0.5-0.1,0.7c0,0.2-0.1,0.4-0.2,0.6c-0.1,0.2-0.2,0.4-0.4,0.5c-0.2,0.2-0.4,0.3-0.7,0.4l1.5,2.5h-1.9
		l-2.2-3.7c-0.1,0-0.1,0.1-0.2,0.1c-0.1,0.1-0.1,0.1-0.2,0.3c-0.1,0.2-0.1,0.4-0.1,0.6v2.6H483.3z"/>
	<path class="st2" d="M491.3,315.7l-0.6-7.3h1.6l0.3,3.7c0.1,0,0.2-0.1,0.4-0.1c0.1-0.1,0.2-0.1,0.3-0.2c0.1-0.1,0.2-0.3,0.2-0.4
		c0.1-0.2,0.1-0.4,0.1-0.6l0.2-2.3h1.6l-0.2,2.2c0,0.4-0.1,0.8-0.2,1.1c-0.1,0.3-0.3,0.6-0.6,0.9c-0.2,0.2-0.5,0.4-0.7,0.5
		c-0.3,0.1-0.6,0.2-1,0.2c0,0,0,0,0,0s0,0,0,0l0.1,1h1.5c0.4,0,0.7-0.1,1.1-0.3c0.3-0.2,0.6-0.5,0.8-0.9c0.2-0.4,0.3-0.9,0.4-1.5
		l0.3-3.2h1.6l-0.3,3.3c0,0.4-0.1,0.8-0.2,1.2c-0.1,0.4-0.2,0.7-0.4,1c-0.1,0.3-0.3,0.5-0.5,0.7s-0.4,0.4-0.7,0.6
		c-0.3,0.2-0.7,0.3-1,0.4c-0.4,0.1-0.8,0.1-1.2,0.1H491.3z"/>
	<path class="st2" d="M500,315.7v-7.3h1.7v7.3H500z"/>
	<path class="st2" d="M503.2,315.7v-1.3h2c0-0.1,0.1-0.3,0.1-0.4c0-0.1,0-0.3,0-0.4v-3c0-0.1,0-0.3,0-0.4c0-0.1-0.1-0.2-0.2-0.3
		c-0.1-0.1-0.1-0.1-0.2-0.1c-0.1,0-0.2,0-0.3,0c-0.1,0-0.3,0-0.4,0c-0.1,0-0.3,0-0.5,0.1v-1.4c0.1,0,0.3-0.1,0.5-0.1
		c0.2,0,0.4,0,0.6,0c0.4,0,0.7,0,0.9,0.1s0.4,0.2,0.6,0.3s0.3,0.3,0.4,0.4c0.1,0.2,0.2,0.3,0.2,0.5c0,0.1,0.1,0.3,0.1,0.4
		s0,0.3,0,0.5v3c0,0.2,0,0.4,0,0.7s0,0.5-0.1,0.7s-0.1,0.4-0.1,0.5l-0.1,0.3H503.2z"/>
</g>
<g>
	<path class="st2" d="M581.3,372.2v-6.4c0-0.5,0-0.8-0.1-1.1s-0.1-0.5-0.2-0.7c-0.1-0.2-0.3-0.4-0.5-0.4c-0.2-0.1-0.4-0.1-0.6-0.1
		c-0.2,0-0.4,0-0.6,0.1c-0.2,0.1-0.3,0.2-0.4,0.3c-0.1,0.1-0.2,0.2-0.2,0.4s-0.1,0.3-0.1,0.5c0,0.2,0,0.4,0.1,0.5
		c0.1,0.2,0.2,0.3,0.3,0.4c0.1,0.1,0.2,0.1,0.3,0.2s0.2,0.1,0.3,0.1l0.3,0.1l-0.3,1.2l-0.4,0c-0.4,0-0.7-0.1-1-0.2s-0.5-0.3-0.8-0.5
		c-0.2-0.2-0.3-0.5-0.4-0.8s-0.2-0.6-0.2-1c0-0.3,0.1-0.7,0.2-1c0.1-0.3,0.3-0.6,0.5-0.8c0.1-0.1,0.2-0.2,0.3-0.3s0.3-0.2,0.4-0.2
		c0.2-0.1,0.5-0.2,0.8-0.2c0.3-0.1,0.5-0.1,0.8-0.1c0.3,0,0.7,0,0.9,0.1c0.3,0.1,0.5,0.2,0.8,0.3c0.2,0.1,0.4,0.3,0.5,0.5
		s0.3,0.4,0.4,0.6c0.1,0.3,0.2,0.6,0.3,1c0.1,0.4,0.1,0.8,0.1,1.2v6.4H581.3z"/>
	<path class="st2" d="M587.5,369.5c-0.5,0-1-0.1-1.4-0.3c-0.3-0.1-0.6-0.3-0.8-0.6c-0.2-0.2-0.4-0.5-0.6-0.9
		c-0.1-0.3-0.2-0.6-0.2-0.9c-0.1-0.3-0.1-0.7-0.1-1.1c0-0.3,0-0.6,0.1-0.9s0.1-0.5,0.3-0.8c0.1-0.2,0.3-0.4,0.4-0.6l0,0l-0.7,0v-1.4
		c0.4,0,0.7,0,1-0.1c0.3,0,0.7,0,1,0c0.3,0,0.6,0,0.9,0c0.3,0,0.6,0,0.8,0.1c0.3,0.1,0.5,0.2,0.7,0.3c0.3,0.1,0.5,0.3,0.7,0.6
		s0.4,0.5,0.5,0.8c0.1,0.3,0.2,0.6,0.2,0.9s0.1,0.7,0.1,1.1c0,0.3,0,0.6-0.1,0.9c0,0.3-0.1,0.6-0.2,0.8c-0.1,0.4-0.3,0.7-0.5,1
		c-0.2,0.3-0.5,0.5-0.8,0.7C588.6,369.4,588.1,369.5,587.5,369.5z M587.5,368.2c0.2,0,0.4,0,0.6-0.1s0.3-0.2,0.4-0.4
		c0.1-0.1,0.2-0.3,0.2-0.5c0-0.2,0.1-0.4,0.1-0.6c0-0.2,0-0.5,0-0.7c0-0.5,0-0.9-0.1-1.3s-0.2-0.6-0.4-0.8c-0.1-0.1-0.2-0.2-0.4-0.3
		c-0.1-0.1-0.3-0.1-0.5-0.1c-0.1,0-0.2,0-0.3,0c-0.1,0-0.2,0-0.3,0c-0.2,0.3-0.4,0.6-0.5,1c-0.1,0.4-0.2,0.8-0.2,1.4
		c0,0.4,0,0.8,0.1,1.1s0.1,0.6,0.3,0.7c0.1,0.2,0.2,0.3,0.4,0.4S587.3,368.2,587.5,368.2z"/>
	<path class="st2" d="M592,369.4v-7.3h1.7v7.3H592z"/>
	<path class="st2" d="M595.1,369.4v-1.3h2c0-0.1,0.1-0.3,0.1-0.4c0-0.1,0-0.3,0-0.4v-3c0-0.1,0-0.3,0-0.4c0-0.1-0.1-0.2-0.2-0.3
		c-0.1-0.1-0.1-0.1-0.2-0.1c-0.1,0-0.2,0-0.3,0c-0.1,0-0.3,0-0.4,0c-0.1,0-0.3,0-0.5,0.1v-1.4c0.1,0,0.3-0.1,0.5-0.1
		c0.2,0,0.4,0,0.6,0c0.4,0,0.7,0,0.9,0.1s0.4,0.2,0.6,0.3s0.3,0.3,0.4,0.4c0.1,0.2,0.2,0.3,0.2,0.5c0,0.1,0.1,0.3,0.1,0.4
		s0,0.3,0,0.5v3c0,0.2,0,0.4,0,0.7s0,0.5-0.1,0.7s-0.1,0.4-0.1,0.5l-0.1,0.3H595.1z"/>
	<path class="st2" d="M603.2,369.4v-2.6c0-0.2,0-0.4,0-0.5c0-0.2,0-0.3,0.1-0.4s0.1-0.3,0.2-0.4c0.1-0.2,0.2-0.4,0.4-0.5
		c0.2-0.1,0.4-0.3,0.7-0.3l-1.5-2.5h1.9l2.2,3.6c0,0,0.1-0.1,0.1-0.1c0,0,0-0.1,0.1-0.1c0.1-0.1,0.1-0.2,0.2-0.3s0.1-0.3,0.1-0.5
		v-2.7h1.7v2.6c0,0.3,0,0.5-0.1,0.7c0,0.2-0.1,0.4-0.2,0.6c-0.1,0.2-0.2,0.4-0.4,0.5c-0.2,0.2-0.4,0.3-0.7,0.4l1.5,2.5h-1.9
		l-2.2-3.7c-0.1,0-0.1,0.1-0.2,0.1c-0.1,0.1-0.1,0.1-0.2,0.3c-0.1,0.2-0.1,0.4-0.1,0.6v2.6H603.2z"/>
	<path class="st2" d="M611.2,369.4l-0.6-7.3h1.6l0.3,3.7c0.1,0,0.2-0.1,0.4-0.1c0.1-0.1,0.2-0.1,0.3-0.2c0.1-0.1,0.2-0.3,0.2-0.4
		c0.1-0.2,0.1-0.4,0.1-0.6l0.2-2.3h1.6l-0.2,2.2c0,0.4-0.1,0.8-0.2,1.1c-0.1,0.3-0.3,0.6-0.6,0.9c-0.2,0.2-0.5,0.4-0.7,0.5
		c-0.3,0.1-0.6,0.2-1,0.2c0,0,0,0,0,0s0,0,0,0l0.1,1h1.5c0.4,0,0.7-0.1,1.1-0.3c0.3-0.2,0.6-0.5,0.8-0.9c0.2-0.4,0.3-0.9,0.4-1.5
		l0.3-3.2h1.6l-0.3,3.3c0,0.4-0.1,0.8-0.2,1.2c-0.1,0.4-0.2,0.7-0.4,1c-0.1,0.3-0.3,0.5-0.5,0.7s-0.4,0.4-0.7,0.6
		c-0.3,0.2-0.7,0.3-1,0.4c-0.4,0.1-0.8,0.1-1.2,0.1H611.2z"/>
	<path class="st2" d="M619.9,369.4v-7.3h1.7v7.3H619.9z"/>
	<path class="st2" d="M623.1,369.4v-1.3h2c0-0.1,0.1-0.3,0.1-0.4c0-0.1,0-0.3,0-0.4v-3c0-0.1,0-0.3,0-0.4c0-0.1-0.1-0.2-0.2-0.3
		c-0.1-0.1-0.1-0.1-0.2-0.1c-0.1,0-0.2,0-0.3,0c-0.1,0-0.3,0-0.4,0c-0.1,0-0.3,0-0.5,0.1v-1.4c0.1,0,0.3-0.1,0.5-0.1
		c0.2,0,0.4,0,0.6,0c0.4,0,0.7,0,0.9,0.1s0.4,0.2,0.6,0.3s0.3,0.3,0.4,0.4c0.1,0.2,0.2,0.3,0.2,0.5c0,0.1,0.1,0.3,0.1,0.4
		s0,0.3,0,0.5v3c0,0.2,0,0.4,0,0.7s0,0.5-0.1,0.7s-0.1,0.4-0.1,0.5l-0.1,0.3H623.1z"/>
</g>
<g>
	<path class="st2" d="M382.7,249.6v-6.4c0-0.5,0-0.8-0.1-1.1s-0.1-0.5-0.2-0.7c-0.1-0.2-0.3-0.4-0.5-0.4c-0.2-0.1-0.4-0.1-0.6-0.1
		c-0.2,0-0.4,0-0.6,0.1c-0.2,0.1-0.3,0.2-0.4,0.3c-0.1,0.1-0.2,0.2-0.2,0.4s-0.1,0.3-0.1,0.5c0,0.2,0,0.4,0.1,0.5
		c0.1,0.2,0.2,0.3,0.3,0.4c0.1,0.1,0.2,0.1,0.3,0.2s0.2,0.1,0.3,0.1l0.3,0.1l-0.3,1.2l-0.4,0c-0.4,0-0.7-0.1-1-0.2s-0.5-0.3-0.8-0.5
		c-0.2-0.2-0.3-0.5-0.4-0.8s-0.2-0.6-0.2-1c0-0.3,0.1-0.7,0.2-1c0.1-0.3,0.3-0.6,0.5-0.8c0.1-0.1,0.2-0.2,0.3-0.3s0.3-0.2,0.4-0.2
		c0.2-0.1,0.5-0.2,0.8-0.2c0.3-0.1,0.5-0.1,0.8-0.1c0.3,0,0.7,0,0.9,0.1c0.3,0.1,0.5,0.2,0.8,0.3c0.2,0.1,0.4,0.3,0.5,0.5
		s0.3,0.4,0.4,0.6c0.1,0.3,0.2,0.6,0.3,1c0.1,0.4,0.1,0.8,0.1,1.2v6.4H382.7z"/>
	<path class="st2" d="M388.9,246.9c-0.5,0-1-0.1-1.4-0.3c-0.3-0.1-0.6-0.3-0.8-0.6c-0.2-0.2-0.4-0.5-0.6-0.9
		c-0.1-0.3-0.2-0.6-0.2-0.9c-0.1-0.3-0.1-0.7-0.1-1.1c0-0.3,0-0.6,0.1-0.9s0.1-0.5,0.3-0.8c0.1-0.2,0.3-0.4,0.4-0.6l0,0l-0.7,0v-1.4
		c0.4,0,0.7,0,1-0.1c0.3,0,0.7,0,1,0c0.3,0,0.6,0,0.9,0c0.3,0,0.6,0,0.8,0.1c0.3,0.1,0.5,0.2,0.7,0.3c0.3,0.1,0.5,0.3,0.7,0.6
		s0.4,0.5,0.5,0.8c0.1,0.3,0.2,0.6,0.2,0.9s0.1,0.7,0.1,1.1c0,0.3,0,0.6-0.1,0.9c0,0.3-0.1,0.6-0.2,0.8c-0.1,0.4-0.3,0.7-0.5,1
		c-0.2,0.3-0.5,0.5-0.8,0.7C390,246.8,389.4,246.9,388.9,246.9z M388.9,245.6c0.2,0,0.4,0,0.6-0.1s0.3-0.2,0.4-0.4
		c0.1-0.1,0.2-0.3,0.2-0.5c0-0.2,0.1-0.4,0.1-0.6c0-0.2,0-0.5,0-0.7c0-0.5,0-0.9-0.1-1.3s-0.2-0.6-0.4-0.8c-0.1-0.1-0.2-0.2-0.4-0.3
		c-0.1-0.1-0.3-0.1-0.5-0.1c-0.1,0-0.2,0-0.3,0c-0.1,0-0.2,0-0.3,0c-0.2,0.3-0.4,0.6-0.5,1c-0.1,0.4-0.2,0.8-0.2,1.4
		c0,0.4,0,0.8,0.1,1.1s0.1,0.6,0.3,0.7c0.1,0.2,0.2,0.3,0.4,0.4S388.6,245.6,388.9,245.6z"/>
	<path class="st2" d="M393.3,246.8v-7.3h1.7v7.3H393.3z"/>
	<path class="st2" d="M396.5,246.8v-1.3h2c0-0.1,0.1-0.3,0.1-0.4c0-0.1,0-0.3,0-0.4v-3c0-0.1,0-0.3,0-0.4c0-0.1-0.1-0.2-0.2-0.3
		c-0.1-0.1-0.1-0.1-0.2-0.1c-0.1,0-0.2,0-0.3,0c-0.1,0-0.3,0-0.4,0c-0.1,0-0.3,0-0.5,0.1v-1.4c0.1,0,0.3-0.1,0.5-0.1
		c0.2,0,0.4,0,0.6,0c0.4,0,0.7,0,0.9,0.1s0.4,0.2,0.6,0.3s0.3,0.3,0.4,0.4c0.1,0.2,0.2,0.3,0.2,0.5c0,0.1,0.1,0.3,0.1,0.4
		s0,0.3,0,0.5v3c0,0.2,0,0.4,0,0.7s0,0.5-0.1,0.7s-0.1,0.4-0.1,0.5l-0.1,0.3H396.5z"/>
	<path class="st2" d="M404.5,246.8v-2.6c0-0.2,0-0.4,0-0.5c0-0.2,0-0.3,0.1-0.4s0.1-0.3,0.2-0.4c0.1-0.2,0.2-0.4,0.4-0.5
		c0.2-0.1,0.4-0.3,0.7-0.3l-1.5-2.5h1.9l2.2,3.6c0,0,0.1-0.1,0.1-0.1c0,0,0-0.1,0.1-0.1c0.1-0.1,0.1-0.2,0.2-0.3s0.1-0.3,0.1-0.5
		v-2.7h1.7v2.6c0,0.3,0,0.5-0.1,0.7c0,0.2-0.1,0.4-0.2,0.6c-0.1,0.2-0.2,0.4-0.4,0.5c-0.2,0.2-0.4,0.3-0.7,0.4l1.5,2.5h-1.9
		l-2.2-3.7c-0.1,0-0.1,0.1-0.2,0.1c-0.1,0.1-0.1,0.1-0.2,0.3c-0.1,0.2-0.1,0.4-0.1,0.6v2.6H404.5z"/>
	<path class="st2" d="M412.5,246.8l-0.6-7.3h1.6l0.3,3.7c0.1,0,0.2-0.1,0.4-0.1c0.1-0.1,0.2-0.1,0.3-0.2c0.1-0.1,0.2-0.3,0.2-0.4
		c0.1-0.2,0.1-0.4,0.1-0.6l0.2-2.3h1.6l-0.2,2.2c0,0.4-0.1,0.8-0.2,1.1c-0.1,0.3-0.3,0.6-0.6,0.9c-0.2,0.2-0.5,0.4-0.7,0.5
		c-0.3,0.1-0.6,0.2-1,0.2c0,0,0,0,0,0s0,0,0,0l0.1,1h1.5c0.4,0,0.7-0.1,1.1-0.3c0.3-0.2,0.6-0.5,0.8-0.9c0.2-0.4,0.3-0.9,0.4-1.5
		l0.3-3.2h1.6l-0.3,3.3c0,0.4-0.1,0.8-0.2,1.2c-0.1,0.4-0.2,0.7-0.4,1c-0.1,0.3-0.3,0.5-0.5,0.7s-0.4,0.4-0.7,0.6
		c-0.3,0.2-0.7,0.3-1,0.4c-0.4,0.1-0.8,0.1-1.2,0.1H412.5z"/>
	<path class="st2" d="M421.3,246.8v-7.3h1.7v7.3H421.3z"/>
	<path class="st2" d="M424.4,246.8v-1.3h2c0-0.1,0.1-0.3,0.1-0.4c0-0.1,0-0.3,0-0.4v-3c0-0.1,0-0.3,0-0.4c0-0.1-0.1-0.2-0.2-0.3
		c-0.1-0.1-0.1-0.1-0.2-0.1c-0.1,0-0.2,0-0.3,0c-0.1,0-0.3,0-0.4,0c-0.1,0-0.3,0-0.5,0.1v-1.4c0.1,0,0.3-0.1,0.5-0.1
		c0.2,0,0.4,0,0.6,0c0.4,0,0.7,0,0.9,0.1s0.4,0.2,0.6,0.3s0.3,0.3,0.4,0.4c0.1,0.2,0.2,0.3,0.2,0.5c0,0.1,0.1,0.3,0.1,0.4
		s0,0.3,0,0.5v3c0,0.2,0,0.4,0,0.7s0,0.5-0.1,0.7s-0.1,0.4-0.1,0.5l-0.1,0.3H424.4z"/>
</g>
<circle class="st0" cx="224.9" cy="178.7" r="79.6"/>
<g>
	<path class="st2" d="M177.8,179.6v-4.8h1.7v3.5l-1,1.3H177.8z"/>
	<path class="st2" d="M183.6,182.1v-4.7c0-0.2,0-0.3,0.1-0.4s0.1-0.3,0.1-0.4c0.1-0.1,0.1-0.2,0.2-0.3c0.1-0.1,0.1-0.1,0.2-0.2h-3.7
		v-1.3h5.8v1.2c-0.2,0.1-0.3,0.1-0.5,0.2c-0.1,0.1-0.2,0.2-0.3,0.3c-0.2,0.2-0.2,0.5-0.2,0.9v4.6H183.6z"/>
	<path class="st2" d="M187.5,182.1v-7.3h1.7v7.3H187.5z"/>
	<path class="st2" d="M195.1,182.1v-4.8c0-0.3-0.1-0.5-0.2-0.7c-0.1-0.2-0.3-0.3-0.5-0.4c-0.1,0-0.2-0.1-0.3-0.1c-0.1,0-0.3,0-0.4,0
		c-0.3,0-0.7,0-1.1,0c-0.4,0-0.9,0.1-1.5,0.1v-1.3c0.2,0,0.4-0.1,0.6-0.1c0.2,0,0.4,0,0.6-0.1c0.3,0,0.6,0,0.8,0c0.3,0,0.5,0,0.8,0
		c0.4,0,0.8,0,1.1,0.1s0.6,0.1,0.8,0.2c0.2,0.1,0.4,0.2,0.6,0.4c0.1,0.2,0.3,0.3,0.3,0.6c0.1,0.2,0.1,0.4,0.1,0.6c0,0.2,0,0.4,0,0.7
		v4.8H195.1z M191.1,182.1v-4.3h1.7v4.3H191.1z"/>
	<path class="st2" d="M198.5,179.6v-4.8h1.7v3.5l-1,1.3H198.5z"/>
	<path class="st2" d="M206,182.1v-4.8c0-0.3-0.1-0.5-0.2-0.7c-0.1-0.2-0.3-0.3-0.5-0.4c-0.1,0-0.2-0.1-0.3-0.1c-0.1,0-0.3,0-0.4,0
		c-0.3,0-0.7,0-1.1,0c-0.4,0-0.9,0.1-1.5,0.1v-1.3c0.2,0,0.4-0.1,0.6-0.1c0.2,0,0.4,0,0.6-0.1c0.3,0,0.6,0,0.8,0c0.3,0,0.5,0,0.8,0
		c0.4,0,0.8,0,1.1,0.1s0.6,0.1,0.8,0.2c0.2,0.1,0.4,0.2,0.6,0.4c0.1,0.2,0.3,0.3,0.3,0.6c0.1,0.2,0.1,0.4,0.1,0.6c0,0.2,0,0.4,0,0.7
		v4.8H206z M202,182.1v-4.3h1.7v4.3H202z"/>
	<path class="st2" d="M212.5,182.1v-7.2c0.1,0,0.2,0,0.4,0c0.1,0,0.3,0,0.5,0c0.3,0,0.7-0.1,1-0.1c0.3,0,0.6,0,1,0
		c0.5,0,0.9,0,1.2,0.1c0.3,0.1,0.6,0.1,0.8,0.3c0.2,0.1,0.3,0.2,0.5,0.3c0.1,0.1,0.2,0.3,0.3,0.5c0.1,0.2,0.1,0.3,0.2,0.5
		s0.1,0.4,0.1,0.6v5.1H212.5z M214.2,180.8h2.4V177c0-0.2,0-0.3-0.1-0.4c0-0.1-0.1-0.2-0.2-0.3c-0.1-0.1-0.1-0.1-0.2-0.1
		c-0.1,0-0.2-0.1-0.3-0.1c-0.1,0-0.2,0-0.3,0c-0.1,0-0.2,0-0.4,0c-0.1,0-0.3,0-0.4,0c-0.2,0-0.3,0-0.5,0V180.8z"/>
	<path class="st2" d="M219.6,182.5v-1.4l1.3-0.2c0.1,0,0.2,0,0.3-0.1c0.1,0,0.2,0,0.3-0.1l-1.6-6h1.7l0.9,3.2l0.5,2.2
		c0.2-0.1,0.4-0.3,0.5-0.5c0.1-0.2,0.3-0.5,0.4-0.7c0.1-0.3,0.2-0.6,0.2-0.9l0.3-3.3h1.7l-0.3,3.2c0,0.3-0.1,0.5-0.1,0.7
		s-0.1,0.4-0.2,0.6c-0.1,0.2-0.2,0.4-0.3,0.6c-0.3,0.6-0.7,1.1-1.3,1.4c-0.6,0.4-1.2,0.6-2.1,0.7c-0.4,0.1-0.8,0.1-1.1,0.2
		C220.3,182.4,219.9,182.4,219.6,182.5z"/>
	<path class="st2" d="M231.5,182.1v-4.8c0-0.3-0.1-0.5-0.2-0.7c-0.1-0.2-0.3-0.3-0.5-0.4c-0.1,0-0.2-0.1-0.3-0.1c-0.1,0-0.3,0-0.4,0
		c-0.3,0-0.7,0-1.1,0c-0.4,0-0.9,0.1-1.5,0.1v-1.3c0.2,0,0.4-0.1,0.6-0.1c0.2,0,0.4,0,0.6-0.1c0.3,0,0.6,0,0.8,0c0.3,0,0.5,0,0.8,0
		c0.4,0,0.8,0,1.1,0.1s0.6,0.1,0.8,0.2c0.2,0.1,0.4,0.2,0.6,0.4c0.1,0.2,0.3,0.3,0.3,0.6c0.1,0.2,0.1,0.4,0.1,0.6c0,0.2,0,0.4,0,0.7
		v4.8H231.5z M227.4,182.1v-4.3h1.7v4.3H227.4z"/>
	<path class="st2" d="M238.3,182.2c-0.1,0-0.3,0-0.4,0c-0.1,0-0.3-0.1-0.4-0.1v-1.2c0.2,0,0.4,0.1,0.6,0.1c0.2,0,0.4-0.1,0.5-0.2
		s0.1-0.3,0.1-0.6v-3.9c-0.1,0-0.3,0-0.4,0c-0.1,0-0.3,0-0.4,0v-1.3c0.4,0,0.8-0.1,1.2-0.1s0.7,0,1.1-0.1c0.3,0,0.7,0,1,0
		c0.4,0,0.7,0,0.9,0c0.3,0,0.5,0.1,0.7,0.1c0.2,0.1,0.4,0.1,0.5,0.2c0.2,0.1,0.3,0.2,0.4,0.4c0.1,0.1,0.2,0.3,0.3,0.5
		c0.1,0.1,0.1,0.3,0.1,0.5s0,0.4,0,0.6v4.9h-1.7v-4.8c0-0.3-0.1-0.6-0.2-0.8s-0.3-0.3-0.6-0.4c-0.2,0-0.4-0.1-0.6-0.1
		c-0.1,0-0.2,0-0.3,0s-0.2,0-0.3,0v4c0,0.3,0,0.5-0.1,0.7c0,0.2-0.1,0.4-0.2,0.6c-0.1,0.2-0.2,0.4-0.4,0.5c-0.2,0.1-0.4,0.2-0.6,0.3
		C238.8,182.1,238.6,182.2,238.3,182.2z"/>
	<path class="st2" d="M246,182.1v-7.3h1.7v7.3H246z"/>
	<path class="st2" d="M251.9,182.1v-4.7c0-0.2,0-0.3,0.1-0.4s0.1-0.3,0.1-0.4c0.1-0.1,0.1-0.2,0.2-0.3c0.1-0.1,0.1-0.1,0.2-0.2h-3.7
		v-1.3h5.8v1.2c-0.2,0.1-0.3,0.1-0.5,0.2c-0.1,0.1-0.2,0.2-0.3,0.3c-0.2,0.2-0.2,0.5-0.2,0.9v4.6H251.9z"/>
	<path class="st2" d="M257.5,182.1l0.6-2.8l0.9-3.2h-3.7v-2.8h1.7v1.5h3.7v1.1l-1,3.4l-0.6,2.8H257.5z"/>
	<path class="st2" d="M262.1,182.1v-7.3h1.7v7.3H262.1z"/>
	<path class="st2" d="M265.9,182.2c-0.1,0-0.3,0-0.4,0c-0.1,0-0.3-0.1-0.4-0.1v-1.2c0.2,0,0.4,0.1,0.6,0.1c0.2,0,0.4-0.1,0.5-0.2
		s0.1-0.3,0.1-0.6v-3.9c-0.1,0-0.3,0-0.4,0c-0.1,0-0.3,0-0.4,0v-1.3c0.4,0,0.8-0.1,1.2-0.1s0.7,0,1.1-0.1c0.3,0,0.7,0,1,0
		c0.4,0,0.7,0,0.9,0c0.3,0,0.5,0.1,0.7,0.1c0.2,0.1,0.4,0.1,0.5,0.2c0.2,0.1,0.3,0.2,0.4,0.4c0.1,0.1,0.2,0.3,0.3,0.5
		c0.1,0.1,0.1,0.3,0.1,0.5s0,0.4,0,0.6v4.9h-1.7v-4.8c0-0.3-0.1-0.6-0.2-0.8s-0.3-0.3-0.6-0.4c-0.2,0-0.4-0.1-0.6-0.1
		c-0.1,0-0.2,0-0.3,0s-0.2,0-0.3,0v4c0,0.3,0,0.5-0.1,0.7c0,0.2-0.1,0.4-0.2,0.6c-0.1,0.2-0.2,0.4-0.4,0.5c-0.2,0.1-0.4,0.2-0.6,0.3
		C266.5,182.1,266.3,182.2,265.9,182.2z"/>
</g>
<circle class="st0" cx="226.2" cy="483.4" r="79.6"/>
<g>
	<path class="st2" d="M213.1,486.8c-0.1,0-0.3,0-0.4,0c-0.1,0-0.3-0.1-0.4-0.1v-1.2c0.2,0,0.4,0.1,0.6,0.1c0.2,0,0.4-0.1,0.5-0.2
		s0.1-0.3,0.1-0.6v-3.9c-0.1,0-0.3,0-0.4,0c-0.1,0-0.3,0-0.4,0v-1.3c0.4,0,0.8-0.1,1.2-0.1s0.7,0,1.1-0.1c0.3,0,0.7,0,1,0
		c0.4,0,0.7,0,0.9,0c0.3,0,0.5,0.1,0.7,0.1c0.2,0.1,0.4,0.1,0.5,0.2c0.2,0.1,0.3,0.2,0.4,0.4c0.1,0.1,0.2,0.3,0.3,0.5
		c0.1,0.1,0.1,0.3,0.1,0.5s0,0.4,0,0.6v4.9h-1.7v-4.8c0-0.3-0.1-0.6-0.2-0.8s-0.3-0.3-0.6-0.4c-0.2,0-0.4-0.1-0.6-0.1
		c-0.1,0-0.2,0-0.3,0s-0.2,0-0.3,0v4c0,0.3,0,0.5-0.1,0.7c0,0.2-0.1,0.4-0.2,0.6c-0.1,0.2-0.2,0.4-0.4,0.5c-0.2,0.1-0.4,0.2-0.6,0.3
		C213.7,486.8,213.4,486.8,213.1,486.8z"/>
	<path class="st2" d="M220.8,486.8v-7.3h1.7v7.3H220.8z"/>
	<path class="st2" d="M226.7,486.8v-4.7c0-0.2,0-0.3,0.1-0.4s0.1-0.3,0.1-0.4c0.1-0.1,0.1-0.2,0.2-0.3c0.1-0.1,0.1-0.1,0.2-0.2h-3.7
		v-1.3h5.8v1.2c-0.2,0.1-0.3,0.1-0.5,0.2c-0.1,0.1-0.2,0.2-0.3,0.3c-0.2,0.2-0.2,0.5-0.2,0.9v4.6H226.7z"/>
	<path class="st2" d="M234.7,486.8v-4.8c0-0.3-0.1-0.5-0.2-0.7c-0.1-0.2-0.3-0.3-0.5-0.4c-0.1,0-0.2-0.1-0.3-0.1c-0.1,0-0.3,0-0.4,0
		c-0.3,0-0.7,0-1.1,0c-0.4,0-0.9,0.1-1.5,0.1v-1.3c0.2,0,0.4-0.1,0.6-0.1c0.2,0,0.4,0,0.6-0.1c0.3,0,0.6,0,0.8,0c0.3,0,0.5,0,0.8,0
		c0.4,0,0.8,0,1.1,0.1s0.6,0.1,0.8,0.2c0.2,0.1,0.4,0.2,0.6,0.4c0.1,0.2,0.3,0.3,0.3,0.6c0.1,0.2,0.1,0.4,0.1,0.6c0,0.2,0,0.4,0,0.7
		v4.8H234.7z M230.6,486.8v-4.3h1.7v4.3H230.6z"/>
	<path class="st2" d="M238.1,484.3v-4.8h1.7v3.5l-1,1.3H238.1z"/>
</g>
<circle class="st0" cx="732.7" cy="516.6" r="44.3"/>
<g>
	<path class="st2" d="M706.3,519.6v-7.2c0.1,0,0.2,0,0.4,0c0.1,0,0.3,0,0.5,0c0.3,0,0.7-0.1,1-0.1c0.3,0,0.6,0,1,0
		c0.5,0,0.9,0,1.2,0.1c0.3,0.1,0.6,0.1,0.8,0.3c0.2,0.1,0.3,0.2,0.5,0.3c0.1,0.1,0.2,0.3,0.3,0.5c0.1,0.2,0.1,0.3,0.2,0.5
		s0.1,0.4,0.1,0.6v5.1H706.3z M708,518.2h2.4v-3.8c0-0.2,0-0.3-0.1-0.4c0-0.1-0.1-0.2-0.2-0.3c-0.1-0.1-0.1-0.1-0.2-0.1
		c-0.1,0-0.2-0.1-0.3-0.1c-0.1,0-0.2,0-0.3,0c-0.1,0-0.2,0-0.4,0c-0.1,0-0.3,0-0.4,0c-0.2,0-0.3,0-0.5,0V518.2z"/>
	<path class="st2" d="M713.8,517.1v-4.8h1.7v3.5l-1,1.3H713.8z"/>
	<path class="st2" d="M720.2,519.7c-0.3,0-0.5,0-0.8-0.1c-0.3,0-0.5-0.1-0.7-0.2c-0.2-0.1-0.3-0.2-0.5-0.4c-0.2-0.1-0.3-0.3-0.5-0.6
		c-0.2-0.3-0.3-0.7-0.4-1.1s-0.1-0.9-0.1-1.5v-3.6h1.7v3.6c0,0.5,0,0.9,0.1,1.2c0.1,0.3,0.2,0.6,0.3,0.8c0.1,0.1,0.2,0.3,0.4,0.3
		s0.3,0.1,0.5,0.1c0.2,0,0.4,0,0.6-0.1s0.3-0.2,0.4-0.4c0.1-0.2,0.2-0.5,0.3-0.8c0.1-0.3,0.1-0.7,0.1-1.1c0-0.4,0-0.8-0.1-1.1
		c-0.1-0.3-0.1-0.6-0.3-0.8c-0.1-0.2-0.2-0.3-0.4-0.4c-0.2-0.1-0.4-0.1-0.6-0.1c-0.1,0-0.1,0-0.2,0s-0.1,0-0.2,0v-1.3
		c0.1,0,0.3,0,0.4,0c0.1,0,0.3,0,0.4,0c0.3,0,0.5,0,0.8,0.1c0.3,0.1,0.5,0.2,0.7,0.3c0.1,0.1,0.3,0.2,0.4,0.4
		c0.1,0.1,0.2,0.3,0.3,0.5c0.1,0.3,0.2,0.6,0.3,1c0.1,0.4,0.1,0.9,0.1,1.4c0,0.4,0,0.7-0.1,1c0,0.3-0.1,0.6-0.2,0.9
		c-0.1,0.3-0.3,0.7-0.5,0.9c-0.2,0.3-0.5,0.5-0.7,0.6c-0.2,0.1-0.5,0.2-0.7,0.3C720.8,519.6,720.5,519.7,720.2,519.7z"/>
	<path class="st2" d="M727.6,519.6c0,0,0-0.1,0-0.1s0-0.1,0-0.1c0-0.2,0-0.4,0.1-0.7s0.1-0.6,0.2-0.9c0-0.1,0.1-0.3,0.1-0.4
		s0.1-0.3,0.1-0.4c0-0.2,0.1-0.3,0.1-0.4l1-2.9h-4.5v-1.3h6.3v1l-1.1,3.2c0,0.1-0.1,0.3-0.1,0.4c0,0.2-0.1,0.3-0.1,0.5
		c0,0.2-0.1,0.3-0.1,0.4c0,0.1-0.1,0.2-0.1,0.4c0,0.1-0.1,0.3-0.1,0.4s0,0.3-0.1,0.4c0,0.1,0,0.2,0,0.3v0.3H727.6z M724.7,522.3
		v-7.1h1.7v7.1H724.7z"/>
	<path class="st2" d="M732,517.1v-4.8h1.7v3.5l-1,1.3H732z"/>
	<path class="st2" d="M737.1,519.6l0.6-2.8l0.9-3.2h-3.7v-2.8h1.7v1.5h3.7v1.1l-1,3.4l-0.6,2.8H737.1z"/>
	<path class="st2" d="M744.3,519.7c-0.3,0-0.5,0-0.8,0c-0.3,0-0.5,0-0.7,0c-0.2,0-0.4,0-0.5-0.1l-0.3,0v-1.3c0.4,0,0.8,0.1,1.2,0.1
		c0.4,0,0.8,0,1.2,0c0.2,0,0.4,0,0.5-0.1s0.3-0.1,0.4-0.2c0.1-0.1,0.2-0.3,0.3-0.5c0.1-0.2,0.1-0.4,0.1-0.6c0-0.2,0-0.4,0-0.5
		c0-0.1,0-0.3,0-0.5c0-0.2,0-0.4,0-0.6c0-0.2,0-0.4-0.1-0.6c0-0.2-0.1-0.4-0.2-0.6c-0.1-0.2-0.2-0.3-0.3-0.4
		c-0.1-0.1-0.2-0.1-0.3-0.2c-0.1,0-0.2-0.1-0.3-0.1c-0.2,0-0.4,0-0.6,0.1c-0.2,0.1-0.3,0.1-0.4,0.2c-0.1,0.1-0.2,0.2-0.3,0.4
		c-0.1,0.2-0.1,0.3-0.1,0.5c0,0.2,0,0.4,0.1,0.5c0.1,0.2,0.2,0.3,0.3,0.4c0.1,0.1,0.2,0.1,0.3,0.2c0.1,0,0.2,0.1,0.3,0.1l0.3,0.1
		l-0.3,1.2l-0.4,0c-0.2,0-0.4,0-0.6-0.1c-0.2,0-0.4-0.1-0.5-0.2c-0.2-0.1-0.3-0.2-0.5-0.3c-0.1-0.1-0.3-0.2-0.3-0.4
		c-0.1-0.2-0.2-0.4-0.3-0.7c-0.1-0.2-0.1-0.5-0.1-0.8c0-0.4,0.1-0.8,0.2-1.1c0.1-0.3,0.3-0.6,0.5-0.8c0.3-0.3,0.6-0.5,1-0.6
		c0.4-0.1,0.8-0.2,1.2-0.2c0.3,0,0.7,0,1,0.1c0.3,0.1,0.6,0.2,0.8,0.3c0.2,0.1,0.3,0.3,0.5,0.4c0.2,0.2,0.3,0.4,0.4,0.6
		c0.1,0.3,0.2,0.6,0.3,1c0.1,0.4,0.1,0.8,0.1,1.2c0,0.6-0.1,1.1-0.2,1.5c-0.1,0.4-0.2,0.8-0.4,1.1c-0.2,0.3-0.4,0.5-0.6,0.6
		c-0.2,0.2-0.5,0.3-0.7,0.4c-0.2,0.1-0.3,0.1-0.5,0.1C744.7,519.7,744.5,519.7,744.3,519.7z"/>
	<path class="st2" d="M748.5,519.6v-1.3h2c0-0.1,0.1-0.3,0.1-0.4c0-0.1,0-0.3,0-0.4v-3c0-0.1,0-0.3,0-0.4c0-0.1-0.1-0.2-0.2-0.3
		c-0.1-0.1-0.1-0.1-0.2-0.1c-0.1,0-0.2,0-0.3,0c-0.1,0-0.3,0-0.4,0c-0.1,0-0.3,0-0.5,0.1v-1.4c0.1,0,0.3-0.1,0.5-0.1
		c0.2,0,0.4,0,0.6,0c0.4,0,0.7,0,0.9,0.1s0.4,0.2,0.6,0.3s0.3,0.3,0.4,0.4c0.1,0.2,0.2,0.3,0.2,0.5c0,0.1,0.1,0.3,0.1,0.4
		s0,0.3,0,0.5v3c0,0.2,0,0.4,0,0.7s0,0.5-0.1,0.7s-0.1,0.4-0.1,0.5l-0.1,0.3H748.5z"/>
	<path class="st2" d="M753.8,519.6v-7.3h1.7v7.3H753.8z"/>
	<path class="st2" d="M760.2,519.6c0,0,0-0.1,0-0.1s0-0.1,0-0.1c0-0.2,0-0.4,0.1-0.7s0.1-0.6,0.2-0.9c0-0.1,0.1-0.3,0.1-0.4
		s0.1-0.3,0.1-0.4c0-0.2,0.1-0.3,0.1-0.4l1-2.9h-4.5v-1.3h6.3v1l-1.1,3.2c0,0.1-0.1,0.3-0.1,0.4c0,0.2-0.1,0.3-0.1,0.5
		c0,0.2-0.1,0.3-0.1,0.4c0,0.1-0.1,0.2-0.1,0.4c0,0.1-0.1,0.3-0.1,0.4s0,0.3-0.1,0.4c0,0.1,0,0.2,0,0.3v0.3H760.2z M757.3,522.3
		v-7.1h1.7v7.1H757.3z"/>
	<path class="st2" d="M711.9,533.5c-0.1,0-0.3,0-0.4,0c-0.1,0-0.3-0.1-0.4-0.1V532c0.2,0,0.4,0.1,0.6,0.1c0.2,0,0.4-0.1,0.5-0.2
		s0.1-0.3,0.1-0.6v-3.9c-0.1,0-0.3,0-0.4,0c-0.1,0-0.3,0-0.4,0v-1.3c0.4,0,0.8-0.1,1.2-0.1s0.7,0,1.1-0.1c0.3,0,0.7,0,1,0
		c0.4,0,0.7,0,0.9,0c0.3,0,0.5,0.1,0.7,0.1c0.2,0.1,0.4,0.1,0.5,0.2c0.2,0.1,0.3,0.2,0.4,0.4c0.1,0.1,0.2,0.3,0.3,0.5
		c0.1,0.1,0.1,0.3,0.1,0.5s0,0.4,0,0.6v4.9h-1.7v-4.8c0-0.3-0.1-0.6-0.2-0.8s-0.3-0.3-0.6-0.4c-0.2,0-0.4-0.1-0.6-0.1
		c-0.1,0-0.2,0-0.3,0s-0.2,0-0.3,0v4c0,0.3,0,0.5-0.1,0.7c0,0.2-0.1,0.4-0.2,0.6c-0.1,0.2-0.2,0.4-0.4,0.5c-0.2,0.1-0.4,0.2-0.6,0.3
		C712.5,533.4,712.2,533.5,711.9,533.5z"/>
	<path class="st2" d="M719.7,533.4v-7.3h1.7v7.3H719.7z"/>
	<path class="st2" d="M722.9,533.4l0.5-4.9c0-0.1,0-0.2,0-0.3s0-0.2,0-0.3c0-0.1,0-0.3,0-0.4s0-0.3-0.1-0.4c0-0.1,0-0.1-0.1-0.2
		c0-0.1,0-0.2-0.1-0.2c0-0.1,0-0.2-0.1-0.2c0,0,0-0.1,0-0.1c0,0,0-0.1-0.1-0.1h1.5c0.1,0.1,0.1,0.2,0.2,0.4c0,0.1,0.1,0.3,0.1,0.4
		h0.1c0.1-0.1,0.2-0.2,0.3-0.3c0.2-0.1,0.3-0.2,0.4-0.3c0.1-0.1,0.3-0.1,0.6-0.2c0.2-0.1,0.5-0.1,0.8-0.1c0.3,0,0.6,0,0.8,0.1
		c0.2,0.1,0.5,0.2,0.6,0.4c0.1,0.1,0.2,0.2,0.3,0.3c0.1,0.1,0.1,0.2,0.2,0.4c0.1,0.2,0.2,0.5,0.2,0.8c0.1,0.3,0.1,0.6,0.1,1v4.4
		h-3.1v-1.3h1.4v-3c0-0.2,0-0.4,0-0.6c0-0.2-0.1-0.3-0.1-0.4c0-0.1-0.1-0.2-0.2-0.3c-0.1-0.1-0.2-0.2-0.3-0.2
		c-0.1-0.1-0.3-0.1-0.4-0.1c-0.2,0-0.4,0-0.5,0.1c-0.2,0.1-0.3,0.1-0.4,0.2c-0.1,0.1-0.2,0.2-0.3,0.3s-0.1,0.2-0.2,0.3l-0.5,5.2
		H722.9z"/>
	<path class="st2" d="M731.1,533.4v-7.2c0.1,0,0.3,0,0.4,0c0.1,0,0.3,0,0.5,0c0.3,0,0.6-0.1,1-0.1c0.3,0,0.6,0,1,0
		c0.4,0,0.8,0,1.1,0.1s0.6,0.1,0.8,0.2c0.2,0.1,0.4,0.2,0.6,0.4c0.1,0.1,0.3,0.3,0.3,0.6c0.1,0.2,0.1,0.4,0.1,0.6s0,0.4,0,0.7v4.8
		h-1.7v-4.8c0-0.3-0.1-0.6-0.2-0.8c-0.1-0.2-0.4-0.3-0.6-0.4c-0.1,0-0.2,0-0.3,0c-0.1,0-0.2,0-0.3,0c-0.1,0-0.3,0-0.4,0
		c-0.2,0-0.3,0-0.5,0v6H731.1z"/>
	<path class="st2" d="M740.4,533.4l0.6-2.8l0.9-3.2h-3.7v-2.8h1.7v1.5h3.7v1.1l-1,3.4l-0.6,2.8H740.4z"/>
	<path class="st2" d="M744.6,533.4l0.5-4.9c0-0.1,0-0.2,0-0.3s0-0.2,0-0.3c0-0.1,0-0.3,0-0.4s0-0.3-0.1-0.4c0-0.1,0-0.1-0.1-0.2
		c0-0.1,0-0.2-0.1-0.2c0-0.1,0-0.2-0.1-0.2c0,0,0-0.1,0-0.1c0,0,0-0.1-0.1-0.1h1.5c0.1,0.1,0.1,0.2,0.2,0.4c0,0.1,0.1,0.3,0.1,0.4
		h0.1c0.1-0.1,0.2-0.2,0.3-0.3c0.2-0.1,0.3-0.2,0.4-0.3c0.1-0.1,0.3-0.1,0.6-0.2c0.2-0.1,0.5-0.1,0.8-0.1c0.3,0,0.6,0,0.8,0.1
		c0.2,0.1,0.5,0.2,0.6,0.4c0.1,0.1,0.2,0.2,0.3,0.3c0.1,0.1,0.1,0.2,0.2,0.4c0.1,0.2,0.2,0.5,0.2,0.8c0.1,0.3,0.1,0.6,0.1,1v4.4
		h-3.1v-1.3h1.4v-3c0-0.2,0-0.4,0-0.6c0-0.2-0.1-0.3-0.1-0.4c0-0.1-0.1-0.2-0.2-0.3c-0.1-0.1-0.2-0.2-0.3-0.2
		c-0.1-0.1-0.3-0.1-0.4-0.1c-0.2,0-0.4,0-0.5,0.1c-0.2,0.1-0.3,0.1-0.4,0.2c-0.1,0.1-0.2,0.2-0.3,0.3s-0.1,0.2-0.2,0.3l-0.5,5.2
		H744.6z"/>
	<path class="st2" d="M752.9,533.4v-7.3h1.7v7.3H752.9z"/>
</g>
<circle class="st0" cx="760.8" cy="202" r="55.2"/>
<g>
	<path class="st2" d="M723.6,204.9v-7.2c0.1,0,0.2,0,0.4,0c0.1,0,0.3,0,0.5,0c0.3,0,0.7-0.1,1-0.1c0.3,0,0.6,0,1,0
		c0.5,0,0.9,0,1.2,0.1c0.3,0.1,0.6,0.1,0.8,0.3c0.2,0.1,0.3,0.2,0.5,0.3c0.1,0.1,0.2,0.3,0.3,0.5c0.1,0.2,0.1,0.3,0.2,0.5
		s0.1,0.4,0.1,0.6v5.1H723.6z M725.3,203.6h2.4v-3.8c0-0.2,0-0.3-0.1-0.4c0-0.1-0.1-0.2-0.2-0.3c-0.1-0.1-0.1-0.1-0.2-0.1
		c-0.1,0-0.2-0.1-0.3-0.1c-0.1,0-0.2,0-0.3,0c-0.1,0-0.2,0-0.4,0c-0.1,0-0.3,0-0.4,0c-0.2,0-0.3,0-0.5,0V203.6z"/>
	<path class="st2" d="M731.1,202.5v-4.8h1.7v3.5l-1,1.3H731.1z"/>
	<path class="st2" d="M734.7,205c-0.1,0-0.2,0-0.3,0c-0.1,0-0.2,0-0.4-0.1l0.2-1.5c0.1,0,0.2,0,0.4,0.1c0.1,0,0.2,0,0.4,0
		c0.3,0,0.5,0,0.7-0.1c0.2-0.1,0.4-0.2,0.5-0.4c0.1-0.1,0.2-0.3,0.2-0.5s0.1-0.4,0.1-0.6v-2.2c0-0.3,0-0.5-0.1-0.6s-0.2-0.2-0.5-0.2
		c-0.2,0-0.3,0-0.5,0c-0.2,0-0.3,0.1-0.5,0.1v-1.3c0.4-0.1,0.8-0.1,1.2-0.1c0.4,0,0.7,0,0.9,0.1s0.4,0.2,0.6,0.3
		c0.2,0.2,0.4,0.4,0.5,0.7c0.1,0.3,0.1,0.6,0.1,1v5.3h-1.3l-0.3-1.1h-0.1c-0.1,0.1-0.1,0.2-0.3,0.4c-0.1,0.1-0.2,0.3-0.3,0.3
		c-0.1,0.1-0.3,0.2-0.5,0.3C735.1,205,734.9,205,734.7,205z"/>
	<path class="st2" d="M739.7,202.5v-4.8h1.7v3.5l-1,1.3H739.7z"/>
	<path class="st2" d="M747.2,204.9v-4.8c0-0.3-0.1-0.5-0.2-0.7c-0.1-0.2-0.3-0.3-0.5-0.4c-0.1,0-0.2-0.1-0.3-0.1c-0.1,0-0.3,0-0.4,0
		c-0.3,0-0.7,0-1.1,0c-0.4,0-0.9,0.1-1.5,0.1v-1.3c0.2,0,0.4-0.1,0.6-0.1c0.2,0,0.4,0,0.6-0.1c0.3,0,0.6,0,0.8,0c0.3,0,0.5,0,0.8,0
		c0.4,0,0.8,0,1.1,0.1s0.6,0.1,0.8,0.2c0.2,0.1,0.4,0.2,0.6,0.4c0.1,0.2,0.3,0.3,0.3,0.6c0.1,0.2,0.1,0.4,0.1,0.6c0,0.2,0,0.4,0,0.7
		v4.8H747.2z M743.1,204.9v-4.3h1.7v4.3H743.1z"/>
	<path class="st2" d="M750.3,204.9v-1.3h2c0-0.1,0.1-0.3,0.1-0.4c0-0.1,0-0.3,0-0.4v-3c0-0.1,0-0.3,0-0.4c0-0.1-0.1-0.2-0.2-0.3
		c-0.1-0.1-0.1-0.1-0.2-0.1c-0.1,0-0.2,0-0.3,0c-0.1,0-0.3,0-0.4,0c-0.1,0-0.3,0-0.5,0.1v-1.4c0.1,0,0.3-0.1,0.5-0.1
		c0.2,0,0.4,0,0.6,0c0.4,0,0.7,0,0.9,0.1s0.4,0.2,0.6,0.3s0.3,0.3,0.4,0.4c0.1,0.2,0.2,0.3,0.2,0.5c0,0.1,0.1,0.3,0.1,0.4
		s0,0.3,0,0.5v3c0,0.2,0,0.4,0,0.7s0,0.5-0.1,0.7s-0.1,0.4-0.1,0.5l-0.1,0.3H750.3z"/>
	<path class="st2" d="M755.3,204.9l0.5-4.9c0-0.1,0-0.2,0-0.3s0-0.2,0-0.3c0-0.1,0-0.3,0-0.4s0-0.3-0.1-0.4c0-0.1,0-0.1-0.1-0.2
		c0-0.1,0-0.2-0.1-0.2c0-0.1,0-0.2-0.1-0.2c0,0,0-0.1,0-0.1c0,0,0-0.1-0.1-0.1h1.5c0.1,0.1,0.1,0.2,0.2,0.4c0,0.1,0.1,0.3,0.1,0.4
		h0.1c0.1-0.1,0.2-0.2,0.3-0.3c0.2-0.1,0.3-0.2,0.4-0.3c0.1-0.1,0.3-0.1,0.6-0.2c0.2-0.1,0.5-0.1,0.8-0.1c0.3,0,0.6,0,0.8,0.1
		c0.2,0.1,0.5,0.2,0.6,0.4c0.1,0.1,0.2,0.2,0.3,0.3c0.1,0.1,0.1,0.2,0.2,0.4c0.1,0.2,0.2,0.5,0.2,0.8c0.1,0.3,0.1,0.6,0.1,1v4.4
		h-3.1v-1.3h1.4v-3c0-0.2,0-0.4,0-0.6c0-0.2-0.1-0.3-0.1-0.4c0-0.1-0.1-0.2-0.2-0.3c-0.1-0.1-0.2-0.2-0.3-0.2
		c-0.1-0.1-0.3-0.1-0.4-0.1c-0.2,0-0.4,0-0.5,0.1c-0.2,0.1-0.3,0.1-0.4,0.2c-0.1,0.1-0.2,0.2-0.3,0.3s-0.1,0.2-0.2,0.3l-0.5,5.2
		H755.3z"/>
	<path class="st2" d="M763.6,204.9v-7.3h1.7v7.3H763.6z"/>
	<path class="st2" d="M770.1,204.9v-7.2c0.1,0,0.2,0,0.4,0c0.1,0,0.3,0,0.5,0c0.3,0,0.7-0.1,1-0.1c0.3,0,0.6,0,1,0
		c0.5,0,0.9,0,1.2,0.1c0.3,0.1,0.6,0.1,0.8,0.3c0.2,0.1,0.3,0.2,0.5,0.3c0.1,0.1,0.2,0.3,0.3,0.5c0.1,0.2,0.1,0.3,0.2,0.5
		s0.1,0.4,0.1,0.6v5.1H770.1z M771.8,203.6h2.4v-3.8c0-0.2,0-0.3-0.1-0.4c0-0.1-0.1-0.2-0.2-0.3c-0.1-0.1-0.1-0.1-0.2-0.1
		c-0.1,0-0.2-0.1-0.3-0.1c-0.1,0-0.2,0-0.3,0c-0.1,0-0.2,0-0.4,0c-0.1,0-0.3,0-0.4,0c-0.2,0-0.3,0-0.5,0V203.6z"/>
	<path class="st2" d="M777.6,202.5v-4.8h1.7v3.5l-1,1.3H777.6z"/>
	<path class="st2" d="M781.3,204.9l-0.6-7.3h1.6l0.3,3.7c0.1,0,0.2-0.1,0.4-0.1c0.1-0.1,0.2-0.1,0.3-0.2c0.1-0.1,0.2-0.3,0.2-0.4
		c0.1-0.2,0.1-0.4,0.1-0.6l0.2-2.3h1.6l-0.2,2.2c0,0.4-0.1,0.8-0.2,1.1c-0.1,0.3-0.3,0.6-0.6,0.9c-0.2,0.2-0.5,0.4-0.7,0.5
		c-0.3,0.1-0.6,0.2-1,0.2c0,0,0,0,0,0s0,0,0,0l0.1,1h1.5c0.4,0,0.7-0.1,1.1-0.3c0.3-0.2,0.6-0.5,0.8-0.9c0.2-0.4,0.3-0.9,0.4-1.5
		l0.3-3.2h1.6l-0.3,3.3c0,0.4-0.1,0.8-0.2,1.2c-0.1,0.4-0.2,0.7-0.4,1c-0.1,0.3-0.3,0.5-0.5,0.7s-0.4,0.4-0.7,0.6
		c-0.3,0.2-0.7,0.3-1,0.4c-0.4,0.1-0.8,0.1-1.2,0.1H781.3z"/>
	<path class="st2" d="M790,202.5v-4.8h1.7v3.5l-1,1.3H790z"/>
	<path class="st2" d="M793.1,204.9v-2.6c0-0.2,0-0.4,0-0.5c0-0.2,0-0.3,0.1-0.4s0.1-0.3,0.2-0.4c0.1-0.2,0.2-0.4,0.4-0.5
		c0.2-0.1,0.4-0.3,0.7-0.3l-1.5-2.5h1.9l2.2,3.6c0,0,0.1-0.1,0.1-0.1c0,0,0-0.1,0.1-0.1c0.1-0.1,0.1-0.2,0.2-0.3s0.1-0.3,0.1-0.5
		v-2.7h1.7v2.6c0,0.3,0,0.5-0.1,0.7c0,0.2-0.1,0.4-0.2,0.6c-0.1,0.2-0.2,0.4-0.4,0.5c-0.2,0.2-0.4,0.3-0.7,0.4l1.5,2.5h-1.9
		l-2.2-3.7c-0.1,0-0.1,0.1-0.2,0.1c-0.1,0.1-0.1,0.1-0.2,0.3c-0.1,0.2-0.1,0.4-0.1,0.6v2.6H793.1z"/>
</g>
<circle class="st0" cx="208.4" cy="337.6" r="48.6"/>
<g>
	<path class="st2" d="M190.9,340.6c-0.1,0-0.3,0-0.4,0c-0.1,0-0.3-0.1-0.4-0.1v-1.2c0.2,0,0.4,0.1,0.6,0.1c0.2,0,0.4-0.1,0.5-0.2
		s0.1-0.3,0.1-0.6v-3.9c-0.1,0-0.3,0-0.4,0c-0.1,0-0.3,0-0.4,0v-1.3c0.4,0,0.8-0.1,1.2-0.1s0.7,0,1.1-0.1c0.3,0,0.7,0,1,0
		c0.4,0,0.7,0,0.9,0c0.3,0,0.5,0.1,0.7,0.1c0.2,0.1,0.4,0.1,0.5,0.2c0.2,0.1,0.3,0.2,0.4,0.4c0.1,0.1,0.2,0.3,0.3,0.5
		c0.1,0.1,0.1,0.3,0.1,0.5s0,0.4,0,0.6v4.9h-1.7v-4.8c0-0.3-0.1-0.6-0.2-0.8s-0.3-0.3-0.6-0.4c-0.2,0-0.4-0.1-0.6-0.1
		c-0.1,0-0.2,0-0.3,0s-0.2,0-0.3,0v4c0,0.3,0,0.5-0.1,0.7c0,0.2-0.1,0.4-0.2,0.6c-0.1,0.2-0.2,0.4-0.4,0.5c-0.2,0.1-0.4,0.2-0.6,0.3
		C191.5,340.6,191.2,340.6,190.9,340.6z"/>
	<path class="st2" d="M198.6,340.5v-7.3h1.7v7.3H198.6z"/>
	<path class="st2" d="M201.8,340.5l0.5-4.9c0-0.1,0-0.2,0-0.3s0-0.2,0-0.3c0-0.1,0-0.3,0-0.4s0-0.3-0.1-0.4c0-0.1,0-0.1-0.1-0.2
		c0-0.1,0-0.2-0.1-0.2c0-0.1,0-0.2-0.1-0.2c0,0,0-0.1,0-0.1c0,0,0-0.1-0.1-0.1h1.5c0.1,0.1,0.1,0.2,0.2,0.4c0,0.1,0.1,0.3,0.1,0.4
		h0.1c0.1-0.1,0.2-0.2,0.3-0.3c0.2-0.1,0.3-0.2,0.4-0.3c0.1-0.1,0.3-0.1,0.6-0.2c0.2-0.1,0.5-0.1,0.8-0.1c0.3,0,0.6,0,0.8,0.1
		c0.2,0.1,0.5,0.2,0.6,0.4c0.1,0.1,0.2,0.2,0.3,0.3c0.1,0.1,0.1,0.2,0.2,0.4c0.1,0.2,0.2,0.5,0.2,0.8c0.1,0.3,0.1,0.6,0.1,1v4.4H205
		v-1.3h1.4v-3c0-0.2,0-0.4,0-0.6c0-0.2-0.1-0.3-0.1-0.4c0-0.1-0.1-0.2-0.2-0.3c-0.1-0.1-0.2-0.2-0.3-0.2c-0.1-0.1-0.3-0.1-0.4-0.1
		c-0.2,0-0.4,0-0.5,0.1c-0.2,0.1-0.3,0.1-0.4,0.2c-0.1,0.1-0.2,0.2-0.3,0.3s-0.1,0.2-0.2,0.3l-0.5,5.2H201.8z"/>
	<path class="st2" d="M210.1,340.5v-7.3h1.7v7.3H210.1z"/>
	<path class="st2" d="M216.5,340.5c0,0,0-0.1,0-0.1s0-0.1,0-0.1c0-0.2,0-0.4,0.1-0.7s0.1-0.6,0.2-0.9c0-0.1,0.1-0.3,0.1-0.4
		s0.1-0.3,0.1-0.4c0-0.2,0.1-0.3,0.1-0.4l1-2.9h-4.5v-1.3h6.3v1l-1.1,3.2c0,0.1-0.1,0.3-0.1,0.4c0,0.2-0.1,0.3-0.1,0.5
		c0,0.2-0.1,0.3-0.1,0.4c0,0.1-0.1,0.2-0.1,0.4c0,0.1-0.1,0.3-0.1,0.4s0,0.3-0.1,0.4c0,0.1,0,0.2,0,0.3v0.3H216.5z M213.6,343.3
		v-7.1h1.7v7.1H213.6z"/>
	<path class="st2" d="M220.7,340.5l0.5-4.9c0-0.1,0-0.2,0-0.3s0-0.2,0-0.3c0-0.1,0-0.3,0-0.4s0-0.3-0.1-0.4c0-0.1,0-0.1-0.1-0.2
		c0-0.1,0-0.2-0.1-0.2c0-0.1,0-0.2-0.1-0.2c0,0,0-0.1,0-0.1c0,0,0-0.1-0.1-0.1h1.5c0.1,0.1,0.1,0.2,0.2,0.4c0,0.1,0.1,0.3,0.1,0.4
		h0.1c0.1-0.1,0.2-0.2,0.3-0.3c0.2-0.1,0.3-0.2,0.4-0.3c0.1-0.1,0.3-0.1,0.6-0.2c0.2-0.1,0.5-0.1,0.8-0.1c0.3,0,0.6,0,0.8,0.1
		c0.2,0.1,0.5,0.2,0.6,0.4c0.1,0.1,0.2,0.2,0.3,0.3c0.1,0.1,0.1,0.2,0.2,0.4c0.1,0.2,0.2,0.5,0.2,0.8c0.1,0.3,0.1,0.6,0.1,1v4.4
		h-3.1v-1.3h1.4v-3c0-0.2,0-0.4,0-0.6c0-0.2-0.1-0.3-0.1-0.4c0-0.1-0.1-0.2-0.2-0.3c-0.1-0.1-0.2-0.2-0.3-0.2
		c-0.1-0.1-0.3-0.1-0.4-0.1c-0.2,0-0.4,0-0.5,0.1c-0.2,0.1-0.3,0.1-0.4,0.2c-0.1,0.1-0.2,0.2-0.3,0.3s-0.1,0.2-0.2,0.3l-0.5,5.2
		H220.7z"/>
</g>
<circle class="st0" cx="759.1" cy="433.5" r="34.7"/>
<g>
	<path class="st2" d="M737.3,436.5c-0.1,0-0.3,0-0.4,0c-0.1,0-0.3-0.1-0.4-0.1v-1.2c0.2,0,0.4,0.1,0.6,0.1c0.2,0,0.4-0.1,0.5-0.2
		s0.1-0.3,0.1-0.6v-3.9c-0.1,0-0.3,0-0.4,0c-0.1,0-0.3,0-0.4,0v-1.3c0.4,0,0.8-0.1,1.2-0.1s0.7,0,1.1-0.1c0.3,0,0.7,0,1,0
		c0.4,0,0.7,0,0.9,0c0.3,0,0.5,0.1,0.7,0.1c0.2,0.1,0.4,0.1,0.5,0.2c0.2,0.1,0.3,0.2,0.4,0.4c0.1,0.1,0.2,0.3,0.3,0.5
		c0.1,0.1,0.1,0.3,0.1,0.5s0,0.4,0,0.6v4.9h-1.7v-4.8c0-0.3-0.1-0.6-0.2-0.8s-0.3-0.3-0.6-0.4c-0.2,0-0.4-0.1-0.6-0.1
		c-0.1,0-0.2,0-0.3,0s-0.2,0-0.3,0v4c0,0.3,0,0.5-0.1,0.7c0,0.2-0.1,0.4-0.2,0.6c-0.1,0.2-0.2,0.4-0.4,0.5c-0.2,0.1-0.4,0.2-0.6,0.3
		C737.9,436.4,737.6,436.5,737.3,436.5z"/>
	<path class="st2" d="M745,436.4v-7.3h1.7v7.3H745z"/>
	<path class="st2" d="M748.5,433.9v-4.8h1.7v3.5l-1,1.3H748.5z"/>
	<path class="st2" d="M754.6,436.4v-4.8c0-0.3-0.1-0.6-0.2-0.8c-0.1-0.2-0.3-0.3-0.6-0.4c-0.1,0-0.2-0.1-0.3-0.1c-0.1,0-0.2,0-0.3,0
		c-0.2,0-0.4,0-0.6,0s-0.4,0-0.7,0c-0.2,0-0.5,0-0.7,0.1v-1.3c0.4,0,0.7-0.1,1-0.1c0.3,0,0.6,0,0.9,0c0.5,0,1,0,1.3,0.1
		s0.6,0.1,0.8,0.2c0.2,0.1,0.4,0.2,0.6,0.4c0.1,0.1,0.3,0.3,0.3,0.6c0.1,0.2,0.1,0.4,0.1,0.6c0,0.2,0,0.4,0,0.7v4.8H754.6z"/>
	<path class="st2" d="M760.5,436.5c-0.3,0-0.5,0-0.8,0c-0.3,0-0.5,0-0.7,0c-0.2,0-0.4,0-0.5-0.1l-0.3,0v-1.3c0.4,0,0.8,0.1,1.2,0.1
		c0.4,0,0.8,0,1.2,0c0.2,0,0.4,0,0.5-0.1s0.3-0.1,0.4-0.2c0.1-0.1,0.2-0.3,0.3-0.5c0.1-0.2,0.1-0.4,0.1-0.6c0-0.2,0-0.4,0-0.5
		c0-0.1,0-0.3,0-0.5c0-0.2,0-0.4,0-0.6c0-0.2,0-0.4-0.1-0.6c0-0.2-0.1-0.4-0.2-0.6c-0.1-0.2-0.2-0.3-0.3-0.4
		c-0.1-0.1-0.2-0.1-0.3-0.2c-0.1,0-0.2-0.1-0.3-0.1c-0.2,0-0.4,0-0.6,0.1c-0.2,0.1-0.3,0.1-0.4,0.2c-0.1,0.1-0.2,0.2-0.3,0.4
		c-0.1,0.2-0.1,0.3-0.1,0.5c0,0.2,0,0.4,0.1,0.5c0.1,0.2,0.2,0.3,0.3,0.4c0.1,0.1,0.2,0.1,0.3,0.2c0.1,0,0.2,0.1,0.3,0.1l0.3,0.1
		l-0.3,1.2l-0.4,0c-0.2,0-0.4,0-0.6-0.1c-0.2,0-0.4-0.1-0.5-0.2c-0.2-0.1-0.3-0.2-0.5-0.3c-0.1-0.1-0.3-0.2-0.3-0.4
		c-0.1-0.2-0.2-0.4-0.3-0.7c-0.1-0.2-0.1-0.5-0.1-0.8c0-0.4,0.1-0.8,0.2-1.1c0.1-0.3,0.3-0.6,0.5-0.8c0.3-0.3,0.6-0.5,1-0.6
		c0.4-0.1,0.8-0.2,1.2-0.2c0.3,0,0.7,0,1,0.1c0.3,0.1,0.6,0.2,0.8,0.3c0.2,0.1,0.3,0.3,0.5,0.4c0.2,0.2,0.3,0.4,0.4,0.6
		c0.1,0.3,0.2,0.6,0.3,1c0.1,0.4,0.1,0.8,0.1,1.2c0,0.6-0.1,1.1-0.2,1.5c-0.1,0.4-0.2,0.8-0.4,1.1c-0.2,0.3-0.4,0.5-0.6,0.6
		c-0.2,0.2-0.5,0.3-0.7,0.4c-0.2,0.1-0.3,0.1-0.5,0.1C761,436.5,760.8,436.5,760.5,436.5z"/>
	<path class="st2" d="M764.8,436.4l0.5-4.9c0-0.1,0-0.2,0-0.3s0-0.2,0-0.3c0-0.1,0-0.3,0-0.4s0-0.3-0.1-0.4c0-0.1,0-0.1-0.1-0.2
		c0-0.1,0-0.2-0.1-0.2c0-0.1,0-0.2-0.1-0.2c0,0,0-0.1,0-0.1c0,0,0-0.1-0.1-0.1h1.5c0.1,0.1,0.1,0.2,0.2,0.4c0,0.1,0.1,0.3,0.1,0.4
		h0.1c0.1-0.1,0.2-0.2,0.3-0.3c0.2-0.1,0.3-0.2,0.4-0.3c0.1-0.1,0.3-0.1,0.6-0.2c0.2-0.1,0.5-0.1,0.8-0.1c0.3,0,0.6,0,0.8,0.1
		c0.2,0.1,0.5,0.2,0.6,0.4c0.1,0.1,0.2,0.2,0.3,0.3c0.1,0.1,0.1,0.2,0.2,0.4c0.1,0.2,0.2,0.5,0.2,0.8c0.1,0.3,0.1,0.6,0.1,1v4.4H768
		v-1.3h1.4v-3c0-0.2,0-0.4,0-0.6c0-0.2-0.1-0.3-0.1-0.4c0-0.1-0.1-0.2-0.2-0.3c-0.1-0.1-0.2-0.2-0.3-0.2c-0.1-0.1-0.3-0.1-0.4-0.1
		c-0.2,0-0.4,0-0.5,0.1c-0.2,0.1-0.3,0.1-0.4,0.2c-0.1,0.1-0.2,0.2-0.3,0.3s-0.1,0.2-0.2,0.3l-0.5,5.2H764.8z"/>
	<path class="st2" d="M773,433.9v-4.8h1.7v3.5l-1,1.3H773z"/>
	<path class="st2" d="M776.1,436.4v-2.6c0-0.2,0-0.4,0-0.5c0-0.2,0-0.3,0.1-0.4s0.1-0.3,0.2-0.4c0.1-0.2,0.2-0.4,0.4-0.5
		c0.2-0.1,0.4-0.3,0.7-0.3l-1.5-2.5h1.9l2.2,3.6c0,0,0.1-0.1,0.1-0.1c0,0,0-0.1,0.1-0.1c0.1-0.1,0.1-0.2,0.2-0.3s0.1-0.3,0.1-0.5
		v-2.7h1.7v2.6c0,0.3,0,0.5-0.1,0.7c0,0.2-0.1,0.4-0.2,0.6c-0.1,0.2-0.2,0.4-0.4,0.5c-0.2,0.2-0.4,0.3-0.7,0.4l1.5,2.5h-1.9
		l-2.2-3.7c-0.1,0-0.1,0.1-0.2,0.1c-0.1,0.1-0.1,0.1-0.2,0.3c-0.1,0.2-0.1,0.4-0.1,0.6v2.6H776.1z"/>
</g>
<circle class="st0" cx="713.4" cy="123.3" r="32.7"/>
<g>
	<path class="st2" d="M703.8,116.3v-7.2c0.1,0,0.2,0,0.4,0c0.1,0,0.3,0,0.5,0c0.3,0,0.7-0.1,1-0.1c0.3,0,0.6,0,1,0
		c0.5,0,0.9,0,1.2,0.1c0.3,0.1,0.6,0.1,0.8,0.3c0.2,0.1,0.3,0.2,0.5,0.3c0.1,0.1,0.2,0.3,0.3,0.5c0.1,0.2,0.1,0.3,0.2,0.5
		s0.1,0.4,0.1,0.6v5.1H703.8z M705.5,115h2.4v-3.8c0-0.2,0-0.3-0.1-0.4c0-0.1-0.1-0.2-0.2-0.3c-0.1-0.1-0.1-0.1-0.2-0.1
		c-0.1,0-0.2-0.1-0.3-0.1c-0.1,0-0.2,0-0.3,0c-0.1,0-0.2,0-0.4,0c-0.1,0-0.3,0-0.4,0c-0.2,0-0.3,0-0.5,0V115z"/>
	<path class="st2" d="M711.3,116.3v-7.3h1.7v7.3H711.3z"/>
	<path class="st2" d="M714.8,113.9v-4.8h1.7v3.5l-1,1.3H714.8z"/>
	<path class="st2" d="M722.3,116.3v-4.8c0-0.3-0.1-0.5-0.2-0.7c-0.1-0.2-0.3-0.3-0.5-0.4c-0.1,0-0.2-0.1-0.3-0.1c-0.1,0-0.3,0-0.4,0
		c-0.3,0-0.7,0-1.1,0c-0.4,0-0.9,0.1-1.5,0.1v-1.3c0.2,0,0.4-0.1,0.6-0.1c0.2,0,0.4,0,0.6-0.1c0.3,0,0.6,0,0.8,0c0.3,0,0.5,0,0.8,0
		c0.4,0,0.8,0,1.1,0.1s0.6,0.1,0.8,0.2c0.2,0.1,0.4,0.2,0.6,0.4c0.1,0.2,0.3,0.3,0.3,0.6c0.1,0.2,0.1,0.4,0.1,0.6c0,0.2,0,0.4,0,0.7
		v4.8H722.3z M718.2,116.3V112h1.7v4.3H718.2z"/>
	<path class="st2" d="M692.5,130.2v-4.8c0-0.3-0.1-0.5-0.2-0.7c-0.1-0.2-0.3-0.3-0.5-0.4c-0.1,0-0.2-0.1-0.3-0.1c-0.1,0-0.3,0-0.4,0
		c-0.3,0-0.7,0-1.1,0c-0.4,0-0.9,0.1-1.5,0.1V123c0.2,0,0.4-0.1,0.6-0.1c0.2,0,0.4,0,0.6-0.1c0.3,0,0.6,0,0.8,0c0.3,0,0.5,0,0.8,0
		c0.4,0,0.8,0,1.1,0.1s0.6,0.1,0.8,0.2c0.2,0.1,0.4,0.2,0.6,0.4c0.1,0.2,0.3,0.3,0.3,0.6c0.1,0.2,0.1,0.4,0.1,0.6c0,0.2,0,0.4,0,0.7
		v4.8H692.5z M688.5,130.2v-4.3h1.7v4.3H688.5z"/>
	<path class="st2" d="M695.9,127.7v-4.8h1.7v3.5l-1,1.3H695.9z"/>
	<path class="st2" d="M702,130.2v-4.8c0-0.3-0.1-0.6-0.2-0.8c-0.1-0.2-0.3-0.3-0.6-0.4c-0.1,0-0.2-0.1-0.3-0.1c-0.1,0-0.2,0-0.3,0
		c-0.2,0-0.4,0-0.6,0s-0.4,0-0.7,0c-0.2,0-0.5,0-0.7,0.1v-1.3c0.4,0,0.7-0.1,1-0.1c0.3,0,0.6,0,0.9,0c0.5,0,1,0,1.3,0.1
		s0.6,0.1,0.8,0.2c0.2,0.1,0.4,0.2,0.6,0.4c0.1,0.1,0.3,0.3,0.3,0.6c0.1,0.2,0.1,0.4,0.1,0.6c0,0.2,0,0.4,0,0.7v4.8H702z"/>
	<path class="st2" d="M705.4,130.2v-7.3h1.7v7.3H705.4z"/>
	<path class="st2" d="M711.9,130.3c-0.3,0-0.5,0-0.8-0.1c-0.3,0-0.5-0.1-0.7-0.2c-0.2-0.1-0.3-0.2-0.5-0.4c-0.2-0.1-0.3-0.3-0.5-0.6
		c-0.2-0.3-0.3-0.7-0.4-1.1s-0.1-0.9-0.1-1.5v-3.6h1.7v3.6c0,0.5,0,0.9,0.1,1.2c0.1,0.3,0.2,0.6,0.3,0.8c0.1,0.1,0.2,0.3,0.4,0.3
		s0.3,0.1,0.5,0.1c0.2,0,0.4,0,0.6-0.1s0.3-0.2,0.4-0.4c0.1-0.2,0.2-0.5,0.3-0.8c0.1-0.3,0.1-0.7,0.1-1.1c0-0.4,0-0.8-0.1-1.1
		c-0.1-0.3-0.1-0.6-0.3-0.8c-0.1-0.2-0.2-0.3-0.4-0.4c-0.2-0.1-0.4-0.1-0.6-0.1c-0.1,0-0.1,0-0.2,0s-0.1,0-0.2,0v-1.3
		c0.1,0,0.3,0,0.4,0c0.1,0,0.3,0,0.4,0c0.3,0,0.5,0,0.8,0.1c0.3,0.1,0.5,0.2,0.7,0.3c0.1,0.1,0.3,0.2,0.4,0.4
		c0.1,0.1,0.2,0.3,0.3,0.5c0.1,0.3,0.2,0.6,0.3,1c0.1,0.4,0.1,0.9,0.1,1.4c0,0.4,0,0.7-0.1,1c0,0.3-0.1,0.6-0.2,0.9
		c-0.1,0.3-0.3,0.7-0.5,0.9c-0.2,0.3-0.5,0.5-0.7,0.6c-0.2,0.1-0.5,0.2-0.7,0.3C712.5,130.2,712.2,130.3,711.9,130.3z"/>
	<path class="st2" d="M719.1,130.3c-0.5,0-1-0.1-1.4-0.3c-0.3-0.1-0.6-0.3-0.8-0.6c-0.2-0.2-0.4-0.5-0.6-0.9
		c-0.1-0.3-0.2-0.6-0.2-0.9c-0.1-0.3-0.1-0.7-0.1-1.1c0-0.3,0-0.6,0.1-0.9s0.1-0.5,0.3-0.8c0.1-0.2,0.3-0.4,0.4-0.6l0,0l-0.7,0v-1.4
		c0.4,0,0.7,0,1-0.1c0.3,0,0.7,0,1,0c0.3,0,0.6,0,0.9,0c0.3,0,0.6,0,0.8,0.1c0.3,0.1,0.5,0.2,0.7,0.3c0.3,0.1,0.5,0.3,0.7,0.6
		s0.4,0.5,0.5,0.8c0.1,0.3,0.2,0.6,0.2,0.9s0.1,0.7,0.1,1.1c0,0.3,0,0.6-0.1,0.9c0,0.3-0.1,0.6-0.2,0.8c-0.1,0.4-0.3,0.7-0.5,1
		c-0.2,0.3-0.5,0.5-0.8,0.7C720.2,130.2,719.7,130.3,719.1,130.3z M719.1,128.9c0.2,0,0.4,0,0.6-0.1s0.3-0.2,0.4-0.4
		c0.1-0.1,0.2-0.3,0.2-0.5c0-0.2,0.1-0.4,0.1-0.6c0-0.2,0-0.5,0-0.7c0-0.5,0-0.9-0.1-1.3s-0.2-0.6-0.4-0.8c-0.1-0.1-0.2-0.2-0.4-0.3
		c-0.1-0.1-0.3-0.1-0.5-0.1c-0.1,0-0.2,0-0.3,0c-0.1,0-0.2,0-0.3,0c-0.2,0.3-0.4,0.6-0.5,1c-0.1,0.4-0.2,0.8-0.2,1.4
		c0,0.4,0,0.8,0.1,1.1s0.1,0.6,0.3,0.7c0.1,0.2,0.2,0.3,0.4,0.4S718.9,128.9,719.1,128.9z"/>
	<path class="st2" d="M723.5,127.7v-4.8h1.7v3.5l-1,1.3H723.5z"/>
	<path class="st2" d="M731,130.2v-4.8c0-0.3-0.1-0.5-0.2-0.7c-0.1-0.2-0.3-0.3-0.5-0.4c-0.1,0-0.2-0.1-0.3-0.1c-0.1,0-0.3,0-0.4,0
		c-0.3,0-0.7,0-1.1,0c-0.4,0-0.9,0.1-1.5,0.1V123c0.2,0,0.4-0.1,0.6-0.1c0.2,0,0.4,0,0.6-0.1c0.3,0,0.6,0,0.8,0c0.3,0,0.5,0,0.8,0
		c0.4,0,0.8,0,1.1,0.1s0.6,0.1,0.8,0.2c0.2,0.1,0.4,0.2,0.6,0.4c0.1,0.2,0.3,0.3,0.3,0.6c0.1,0.2,0.1,0.4,0.1,0.6c0,0.2,0,0.4,0,0.7
		v4.8H731z M726.9,130.2v-4.3h1.7v4.3H726.9z"/>
	<path class="st2" d="M734.1,130.2v-1.3h3.3v-3.5c0-0.3-0.1-0.6-0.2-0.7c-0.1-0.2-0.3-0.3-0.6-0.4c-0.1,0-0.2-0.1-0.3-0.1
		c-0.1,0-0.2,0-0.4,0c-0.2,0-0.5,0-0.8,0c-0.3,0-0.7,0-1.1,0.1v-1.3c0.2,0,0.5-0.1,0.9-0.1c0.3,0,0.7,0,1.1,0c0.4,0,0.7,0,0.9,0
		c0.3,0,0.5,0.1,0.7,0.2c0.2,0.1,0.4,0.2,0.6,0.3c0.1,0.1,0.3,0.2,0.4,0.4c0.1,0.1,0.2,0.3,0.3,0.5c0.1,0.2,0.1,0.3,0.1,0.5
		c0,0.2,0,0.4,0,0.6v3.6h0.8v1.3H734.1z"/>
</g>
<circle class="st3" cx="481.9" cy="315" r="55.4"/>
<circle class="st3" cx="600.9" cy="369.6" r="63.6"/>
<circle class="st3" cx="579.5" cy="241.6" r="46.5"/>
<circle class="st3" cx="426" cy="418.3" r="41.7"/>
<circle class="st3" cx="401.8" cy="243.8" r="41.7"/>
<circle class="st3" cx="526.2" cy="456.8" r="35.3"/>
<circle class="st3" cx="383" cy="332.4" r="36.3"/>
</svg>
