<?xml version="1.0" encoding="utf-8"?>
<!-- Generator: Adobe Illustrator 26.5.0, SVG Export Plug-In . SVG Version: 6.00 Build 0)  -->
<svg version="1.1" id="Layer_2" xmlns="http://www.w3.org/2000/svg" xmlns:xlink="http://www.w3.org/1999/xlink" x="0px" y="0px"
	 viewBox="0 0 1000 600" style="enable-background:new 0 0 1000 600;" xml:space="preserve">
<style type="text/css">
	.st0{fill:#90C7D3;}
	.st1{fill:#00435B;}
	.st2{fill:#FFFFFF;}
	.st3{fill:none;stroke:#FFFFFF;stroke-width:0.64;stroke-miterlimit:10;}
</style>
<circle class="st1" cx="474.2" cy="320" r="100.9"/>
<g>
	<path class="st2" d="M447.1,327.5l0.6-2.8l0.9-3.2h-3.7v-2.8h1.7v1.5h3.7v1.1l-1,3.4l-0.6,2.8H447.1z"/>
	<path class="st2" d="M451.5,327.5v-2.6c0-0.2,0-0.4,0-0.5c0-0.2,0-0.3,0.1-0.4s0.1-0.3,0.2-0.4c0.1-0.2,0.2-0.4,0.4-0.5
		c0.2-0.1,0.4-0.3,0.7-0.3l-1.5-2.5h1.9l2.2,3.6c0,0,0.1-0.1,0.1-0.1c0,0,0-0.1,0.1-0.1c0.1-0.1,0.1-0.2,0.2-0.3
		c0-0.1,0.1-0.3,0.1-0.5v-2.7h1.7v2.6c0,0.3,0,0.5-0.1,0.7c0,0.2-0.1,0.4-0.2,0.6c-0.1,0.2-0.2,0.4-0.4,0.5
		c-0.2,0.1-0.4,0.3-0.7,0.4l1.5,2.5h-1.9l-2.2-3.7c-0.1,0-0.1,0.1-0.2,0.1c-0.1,0.1-0.1,0.2-0.2,0.3c-0.1,0.2-0.1,0.4-0.1,0.6v2.6
		H451.5z"/>
	<path class="st2" d="M461.9,327.5v-4.8c0-0.3-0.1-0.6-0.2-0.8c-0.1-0.2-0.3-0.3-0.6-0.4c-0.1,0-0.2-0.1-0.3-0.1s-0.2,0-0.3,0
		c-0.2,0-0.4,0-0.6,0s-0.4,0-0.7,0c-0.2,0-0.5,0-0.7,0.1v-1.3c0.4,0,0.7-0.1,1-0.1c0.3,0,0.6,0,0.9,0c0.5,0,1,0,1.3,0.1
		s0.6,0.1,0.8,0.2c0.2,0.1,0.4,0.2,0.6,0.4c0.1,0.1,0.3,0.3,0.3,0.6c0.1,0.2,0.1,0.4,0.1,0.6c0,0.2,0,0.4,0,0.7v4.8H461.9z"/>
	<path class="st2" d="M465.5,327.5l-0.6-7.3h1.6l0.3,3.7c0.1,0,0.2-0.1,0.4-0.1s0.2-0.1,0.3-0.2c0.1-0.1,0.2-0.3,0.2-0.4
		s0.1-0.4,0.1-0.6l0.2-2.3h1.6l-0.2,2.2c0,0.4-0.1,0.8-0.2,1.1c-0.1,0.3-0.3,0.6-0.6,0.9c-0.2,0.2-0.5,0.4-0.7,0.5
		c-0.3,0.1-0.6,0.2-1,0.2c0,0,0,0,0,0s0,0,0,0l0.1,1h1.5c0.4,0,0.7-0.1,1.1-0.3c0.3-0.2,0.6-0.5,0.8-0.9c0.2-0.4,0.3-0.9,0.4-1.5
		l0.3-3.2h1.6l-0.3,3.3c0,0.4-0.1,0.8-0.2,1.2c-0.1,0.4-0.2,0.7-0.4,1c-0.1,0.3-0.3,0.5-0.5,0.7c-0.2,0.2-0.4,0.4-0.7,0.6
		c-0.3,0.2-0.7,0.3-1,0.4c-0.4,0.1-0.8,0.1-1.2,0.1H465.5z"/>
	<path class="st2" d="M474.2,325v-4.8h1.7v3.5l-1,1.3H474.2z"/>
	<path class="st2" d="M481.3,330.3v-6l-1.6-4.1h1.8l1.3,3.6c0,0,0.1,0,0.1,0s0.1,0,0.1,0c0.2,0,0.4-0.1,0.5-0.3
		c0.1-0.2,0.2-0.4,0.2-0.8v-2.4h1.7v2.5c0,0.4-0.1,0.7-0.2,1c-0.1,0.3-0.3,0.5-0.5,0.7c-0.2,0.1-0.4,0.3-0.6,0.4
		c-0.3,0.1-0.6,0.2-0.9,0.2l-0.4,0.1v5.2H481.3z"/>
	<path class="st2" d="M489.9,327.5v-4.8c0-0.3-0.1-0.6-0.2-0.8c-0.1-0.2-0.3-0.3-0.6-0.4c-0.1,0-0.2-0.1-0.3-0.1s-0.2,0-0.3,0
		c-0.2,0-0.4,0-0.6,0s-0.4,0-0.7,0c-0.2,0-0.5,0-0.7,0.1v-1.3c0.4,0,0.7-0.1,1-0.1c0.3,0,0.6,0,0.9,0c0.5,0,1,0,1.3,0.1
		s0.6,0.1,0.8,0.2c0.2,0.1,0.4,0.2,0.6,0.4c0.1,0.1,0.3,0.3,0.3,0.6c0.1,0.2,0.1,0.4,0.1,0.6c0,0.2,0,0.4,0,0.7v4.8H489.9z"/>
	<path class="st2" d="M493,327.5v-2.6c0-0.2,0-0.4,0-0.5c0-0.2,0-0.3,0.1-0.4s0.1-0.3,0.2-0.4c0.1-0.2,0.2-0.4,0.4-0.5
		c0.2-0.1,0.4-0.3,0.7-0.3l-1.5-2.5h1.9l2.2,3.6c0,0,0.1-0.1,0.1-0.1c0,0,0-0.1,0.1-0.1c0.1-0.1,0.1-0.2,0.2-0.3
		c0-0.1,0.1-0.3,0.1-0.5v-2.7h1.7v2.6c0,0.3,0,0.5-0.1,0.7c0,0.2-0.1,0.4-0.2,0.6c-0.1,0.2-0.2,0.4-0.4,0.5
		c-0.2,0.1-0.4,0.3-0.7,0.4l1.5,2.5h-1.9l-2.2-3.7c-0.1,0-0.1,0.1-0.2,0.1c-0.1,0.1-0.1,0.2-0.2,0.3c-0.1,0.2-0.1,0.4-0.1,0.6v2.6
		H493z"/>
</g>
<circle class="st1" cx="673" cy="221.6" r="100.9"/>
<g>
	<path class="st2" d="M624.3,223.6v-4.8h1.7v3.5l-1,1.3H624.3z"/>
	<path class="st2" d="M630.1,226.1v-4.7c0-0.2,0-0.3,0.1-0.4s0.1-0.3,0.1-0.4c0.1-0.1,0.1-0.2,0.2-0.3c0.1-0.1,0.1-0.1,0.2-0.2H627
		v-1.3h5.8v1.2c-0.2,0.1-0.3,0.1-0.5,0.2c-0.1,0.1-0.2,0.2-0.3,0.3c-0.2,0.2-0.2,0.5-0.2,0.9v4.6H630.1z"/>
	<path class="st2" d="M634,226.1v-7.3h1.7v7.3H634z"/>
	<path class="st2" d="M641.6,226.1v-4.8c0-0.3-0.1-0.5-0.2-0.7s-0.3-0.3-0.5-0.4c-0.1,0-0.2-0.1-0.3-0.1c-0.1,0-0.3,0-0.4,0
		c-0.3,0-0.7,0-1.1,0c-0.4,0-0.9,0.1-1.5,0.1v-1.3c0.2,0,0.4-0.1,0.6-0.1c0.2,0,0.4,0,0.6-0.1c0.3,0,0.6,0,0.8,0c0.3,0,0.5,0,0.8,0
		c0.4,0,0.8,0,1.1,0.1s0.6,0.1,0.8,0.2c0.2,0.1,0.4,0.2,0.6,0.4s0.3,0.3,0.3,0.6c0.1,0.2,0.1,0.4,0.1,0.6c0,0.2,0,0.4,0,0.7v4.8
		H641.6z M637.5,226.1v-4.3h1.7v4.3H637.5z"/>
	<path class="st2" d="M645,223.6v-4.8h1.7v3.5l-1,1.3H645z"/>
	<path class="st2" d="M652.5,226.1v-4.8c0-0.3-0.1-0.5-0.2-0.7s-0.3-0.3-0.5-0.4c-0.1,0-0.2-0.1-0.3-0.1c-0.1,0-0.3,0-0.4,0
		c-0.3,0-0.7,0-1.1,0c-0.4,0-0.9,0.1-1.5,0.1v-1.3c0.2,0,0.4-0.1,0.6-0.1c0.2,0,0.4,0,0.6-0.1c0.3,0,0.6,0,0.8,0c0.3,0,0.5,0,0.8,0
		c0.4,0,0.8,0,1.1,0.1s0.6,0.1,0.8,0.2c0.2,0.1,0.4,0.2,0.6,0.4s0.3,0.3,0.3,0.6c0.1,0.2,0.1,0.4,0.1,0.6c0,0.2,0,0.4,0,0.7v4.8
		H652.5z M648.4,226.1v-4.3h1.7v4.3H648.4z"/>
	<path class="st2" d="M659,226.1v-7.2c0.1,0,0.2,0,0.4-0.1c0.1,0,0.3,0,0.5,0c0.3,0,0.7-0.1,1-0.1c0.3,0,0.6,0,1,0
		c0.5,0,0.9,0,1.2,0.1c0.3,0.1,0.6,0.1,0.8,0.3c0.2,0.1,0.3,0.2,0.5,0.3s0.2,0.3,0.3,0.5c0.1,0.2,0.1,0.3,0.2,0.5
		c0,0.2,0.1,0.4,0.1,0.6v5.1H659z M660.7,224.8h2.4V221c0-0.2,0-0.3-0.1-0.4c0-0.1-0.1-0.2-0.2-0.3c-0.1-0.1-0.1-0.1-0.2-0.1
		s-0.2-0.1-0.3-0.1c-0.1,0-0.2,0-0.3,0c-0.1,0-0.2,0-0.4,0c-0.1,0-0.3,0-0.4,0c-0.2,0-0.3,0-0.5,0V224.8z"/>
	<path class="st2" d="M666,226.4v-1.4l1.3-0.2c0.1,0,0.2,0,0.3-0.1c0.1,0,0.2,0,0.3-0.1l-1.6-6h1.7l0.9,3.2l0.5,2.2
		c0.2-0.1,0.4-0.3,0.5-0.5c0.1-0.2,0.3-0.5,0.4-0.7c0.1-0.3,0.2-0.6,0.2-0.9l0.3-3.3h1.7l-0.3,3.2c0,0.3-0.1,0.5-0.1,0.7
		c-0.1,0.2-0.1,0.4-0.2,0.6c-0.1,0.2-0.2,0.4-0.3,0.6c-0.3,0.6-0.7,1.1-1.3,1.4c-0.6,0.4-1.2,0.6-2.1,0.7c-0.4,0.1-0.8,0.1-1.1,0.2
		S666.4,226.4,666,226.4z"/>
	<path class="st2" d="M677.9,226.1v-4.8c0-0.3-0.1-0.5-0.2-0.7s-0.3-0.3-0.5-0.4c-0.1,0-0.2-0.1-0.3-0.1c-0.1,0-0.3,0-0.4,0
		c-0.3,0-0.7,0-1.1,0c-0.4,0-0.9,0.1-1.5,0.1v-1.3c0.2,0,0.4-0.1,0.6-0.1c0.2,0,0.4,0,0.6-0.1c0.3,0,0.6,0,0.8,0c0.3,0,0.5,0,0.8,0
		c0.4,0,0.8,0,1.1,0.1s0.6,0.1,0.8,0.2c0.2,0.1,0.4,0.2,0.6,0.4s0.3,0.3,0.3,0.6c0.1,0.2,0.1,0.4,0.1,0.6c0,0.2,0,0.4,0,0.7v4.8
		H677.9z M673.8,226.1v-4.3h1.7v4.3H673.8z"/>
	<path class="st2" d="M684.7,226.2c-0.1,0-0.3,0-0.4,0c-0.1,0-0.3-0.1-0.4-0.1v-1.2c0.2,0,0.4,0.1,0.6,0.1c0.2,0,0.4-0.1,0.5-0.2
		s0.1-0.3,0.1-0.6v-3.9c-0.1,0-0.3,0-0.4,0c-0.1,0-0.3,0-0.4,0v-1.3c0.4,0,0.8-0.1,1.2-0.1c0.4,0,0.7,0,1.1-0.1s0.7,0,1,0
		c0.4,0,0.7,0,0.9,0c0.3,0,0.5,0.1,0.7,0.1c0.2,0.1,0.4,0.1,0.5,0.2c0.2,0.1,0.3,0.2,0.4,0.4c0.1,0.1,0.2,0.3,0.3,0.5
		c0.1,0.1,0.1,0.3,0.1,0.5s0,0.4,0,0.6v4.9h-1.7v-4.8c0-0.3-0.1-0.6-0.2-0.8s-0.3-0.3-0.6-0.4c-0.2,0-0.4-0.1-0.6-0.1
		c-0.1,0-0.2,0-0.3,0s-0.2,0-0.3,0v4c0,0.3,0,0.5-0.1,0.7s-0.1,0.4-0.2,0.6c-0.1,0.2-0.2,0.4-0.4,0.5c-0.2,0.1-0.4,0.2-0.6,0.3
		C685.3,226.1,685,226.2,684.7,226.2z"/>
	<path class="st2" d="M692.5,226.1v-7.3h1.7v7.3H692.5z"/>
	<path class="st2" d="M698.4,226.1v-4.7c0-0.2,0-0.3,0.1-0.4s0.1-0.3,0.1-0.4c0.1-0.1,0.1-0.2,0.2-0.3c0.1-0.1,0.1-0.1,0.2-0.2h-3.7
		v-1.3h5.8v1.2c-0.2,0.1-0.3,0.1-0.5,0.2c-0.1,0.1-0.2,0.2-0.3,0.3c-0.2,0.2-0.2,0.5-0.2,0.9v4.6H698.4z"/>
	<path class="st2" d="M704,226.1l0.6-2.8l0.9-3.2h-3.7v-2.8h1.7v1.5h3.7v1.1l-1,3.4l-0.6,2.8H704z"/>
	<path class="st2" d="M708.5,226.1v-7.3h1.7v7.3H708.5z"/>
	<path class="st2" d="M712.4,226.2c-0.1,0-0.3,0-0.4,0c-0.1,0-0.3-0.1-0.4-0.1v-1.2c0.2,0,0.4,0.1,0.6,0.1c0.2,0,0.4-0.1,0.5-0.2
		s0.1-0.3,0.1-0.6v-3.9c-0.1,0-0.3,0-0.4,0c-0.1,0-0.3,0-0.4,0v-1.3c0.4,0,0.8-0.1,1.2-0.1c0.4,0,0.7,0,1.1-0.1s0.7,0,1,0
		c0.4,0,0.7,0,0.9,0c0.3,0,0.5,0.1,0.7,0.1c0.2,0.1,0.4,0.1,0.5,0.2c0.2,0.1,0.3,0.2,0.4,0.4c0.1,0.1,0.2,0.3,0.3,0.5
		c0.1,0.1,0.1,0.3,0.1,0.5s0,0.4,0,0.6v4.9h-1.7v-4.8c0-0.3-0.1-0.6-0.2-0.8s-0.3-0.3-0.6-0.4c-0.2,0-0.4-0.1-0.6-0.1
		c-0.1,0-0.2,0-0.3,0s-0.2,0-0.3,0v4c0,0.3,0,0.5-0.1,0.7s-0.1,0.4-0.2,0.6c-0.1,0.2-0.2,0.4-0.4,0.5c-0.2,0.1-0.4,0.2-0.6,0.3
		C713,226.1,712.7,226.2,712.4,226.2z"/>
</g>
<circle class="st1" cx="732.5" cy="390.8" r="69.6"/>
<g>
	<path class="st2" d="M706.1,389.7v-7.2c0.1,0,0.2,0,0.4-0.1c0.1,0,0.3,0,0.5,0c0.3,0,0.7-0.1,1-0.1c0.3,0,0.6,0,1,0
		c0.5,0,0.9,0,1.2,0.1c0.3,0.1,0.6,0.1,0.8,0.3c0.2,0.1,0.3,0.2,0.5,0.3s0.2,0.3,0.3,0.5c0.1,0.2,0.1,0.3,0.2,0.5
		c0,0.2,0.1,0.4,0.1,0.6v5.1H706.1z M707.8,388.3h2.4v-3.8c0-0.2,0-0.3-0.1-0.4c0-0.1-0.1-0.2-0.2-0.3c-0.1-0.1-0.1-0.1-0.2-0.1
		s-0.2-0.1-0.3-0.1c-0.1,0-0.2,0-0.3,0c-0.1,0-0.2,0-0.4,0c-0.1,0-0.3,0-0.4,0c-0.2,0-0.3,0-0.5,0V388.3z"/>
	<path class="st2" d="M713.6,387.2v-4.8h1.7v3.5l-1,1.3H713.6z"/>
	<path class="st2" d="M720,389.8c-0.3,0-0.5,0-0.8-0.1c-0.3,0-0.5-0.1-0.7-0.2c-0.2-0.1-0.3-0.2-0.5-0.4c-0.2-0.1-0.3-0.3-0.5-0.6
		c-0.2-0.3-0.3-0.7-0.4-1.1c-0.1-0.4-0.1-0.9-0.1-1.5v-3.6h1.7v3.6c0,0.5,0,0.9,0.1,1.2c0.1,0.3,0.2,0.6,0.3,0.8
		c0.1,0.1,0.2,0.3,0.4,0.3s0.3,0.1,0.5,0.1c0.2,0,0.4,0,0.6-0.1c0.2-0.1,0.3-0.2,0.4-0.4c0.1-0.2,0.2-0.5,0.3-0.8
		c0.1-0.3,0.1-0.7,0.1-1.1c0-0.4,0-0.8-0.1-1.1s-0.1-0.6-0.3-0.8c-0.1-0.2-0.2-0.3-0.4-0.4c-0.2-0.1-0.4-0.1-0.6-0.1
		c-0.1,0-0.1,0-0.2,0c-0.1,0-0.1,0-0.2,0v-1.3c0.1,0,0.3,0,0.4,0s0.3,0,0.4,0c0.3,0,0.5,0,0.8,0.1c0.3,0.1,0.5,0.2,0.7,0.3
		c0.1,0.1,0.3,0.2,0.4,0.4s0.2,0.3,0.3,0.5c0.1,0.3,0.2,0.6,0.3,1c0.1,0.4,0.1,0.9,0.1,1.4c0,0.4,0,0.7-0.1,1c0,0.3-0.1,0.6-0.2,0.9
		c-0.1,0.3-0.3,0.7-0.5,0.9c-0.2,0.3-0.5,0.5-0.7,0.6c-0.2,0.1-0.5,0.2-0.7,0.3S720.3,389.8,720,389.8z"/>
	<path class="st2" d="M727.4,389.7c0,0,0-0.1,0-0.1c0,0,0-0.1,0-0.1c0-0.2,0-0.4,0.1-0.7c0-0.3,0.1-0.6,0.2-0.9
		c0-0.1,0.1-0.3,0.1-0.4c0-0.1,0.1-0.3,0.1-0.4c0-0.1,0.1-0.3,0.1-0.4l1-2.9h-4.5v-1.3h6.3v1l-1.1,3.2c0,0.1-0.1,0.3-0.1,0.4
		c0,0.2-0.1,0.3-0.1,0.5c0,0.2-0.1,0.3-0.1,0.4c0,0.1-0.1,0.2-0.1,0.4c0,0.1-0.1,0.3-0.1,0.4s0,0.3-0.1,0.4c0,0.1,0,0.2,0,0.3v0.3
		H727.4z M724.5,392.4v-7.1h1.7v7.1H724.5z"/>
	<path class="st2" d="M731.8,387.2v-4.8h1.7v3.5l-1,1.3H731.8z"/>
	<path class="st2" d="M736.9,389.7l0.6-2.8l0.9-3.2h-3.7v-2.8h1.7v1.5h3.7v1.1l-1,3.4l-0.6,2.8H736.9z"/>
	<path class="st2" d="M744.1,389.8c-0.3,0-0.5,0-0.8,0c-0.3,0-0.5,0-0.7,0c-0.2,0-0.4,0-0.5-0.1l-0.3,0v-1.3c0.4,0,0.8,0.1,1.2,0.1
		c0.4,0,0.8,0,1.2,0c0.2,0,0.4,0,0.5-0.1s0.3-0.1,0.4-0.2c0.1-0.1,0.2-0.3,0.3-0.5c0.1-0.2,0.1-0.4,0.1-0.6c0-0.2,0-0.4,0-0.5
		c0-0.1,0-0.3,0-0.5c0-0.2,0-0.4,0-0.6c0-0.2,0-0.4-0.1-0.6c0-0.2-0.1-0.4-0.2-0.6c-0.1-0.2-0.2-0.3-0.3-0.4
		c-0.1-0.1-0.2-0.1-0.3-0.2s-0.2-0.1-0.3-0.1c-0.2,0-0.4,0-0.6,0.1c-0.2,0.1-0.3,0.1-0.4,0.2c-0.1,0.1-0.2,0.2-0.3,0.4
		c-0.1,0.2-0.1,0.3-0.1,0.5c0,0.2,0,0.4,0.1,0.5c0.1,0.2,0.2,0.3,0.3,0.4c0.1,0.1,0.2,0.1,0.3,0.2c0.1,0,0.2,0.1,0.3,0.1l0.3,0.1
		l-0.3,1.2l-0.4,0c-0.2,0-0.4,0-0.6-0.1c-0.2,0-0.4-0.1-0.5-0.2c-0.2-0.1-0.3-0.2-0.5-0.3c-0.1-0.1-0.3-0.2-0.3-0.4
		c-0.1-0.2-0.2-0.4-0.3-0.7s-0.1-0.5-0.1-0.8c0-0.4,0.1-0.8,0.2-1.1s0.3-0.6,0.5-0.8c0.3-0.3,0.6-0.5,1-0.6c0.4-0.1,0.8-0.2,1.2-0.2
		c0.3,0,0.7,0,1,0.1c0.3,0.1,0.6,0.2,0.8,0.3c0.2,0.1,0.3,0.3,0.5,0.4c0.2,0.2,0.3,0.4,0.4,0.6c0.1,0.3,0.2,0.6,0.3,1
		c0.1,0.4,0.1,0.8,0.1,1.2c0,0.6-0.1,1.1-0.2,1.5c-0.1,0.4-0.2,0.8-0.4,1.1c-0.2,0.3-0.4,0.5-0.6,0.6c-0.2,0.2-0.5,0.3-0.7,0.4
		c-0.2,0.1-0.3,0.1-0.5,0.1C744.5,389.8,744.3,389.8,744.1,389.8z"/>
	<path class="st2" d="M748.2,389.7v-1.3h2c0-0.1,0.1-0.3,0.1-0.4c0-0.1,0-0.3,0-0.4v-3c0-0.1,0-0.3,0-0.4c0-0.1-0.1-0.2-0.2-0.3
		c-0.1-0.1-0.1-0.1-0.2-0.1c-0.1,0-0.2,0-0.3,0c-0.1,0-0.3,0-0.4,0s-0.3,0-0.5,0.1v-1.4c0.1,0,0.3-0.1,0.5-0.1c0.2,0,0.4,0,0.6,0
		c0.4,0,0.7,0,0.9,0.1c0.2,0.1,0.4,0.2,0.6,0.3s0.3,0.3,0.4,0.4c0.1,0.2,0.2,0.4,0.2,0.5c0,0.1,0.1,0.3,0.1,0.4s0,0.3,0,0.5v3
		c0,0.2,0,0.4,0,0.7s0,0.5-0.1,0.7s-0.1,0.4-0.1,0.5l-0.1,0.3H748.2z"/>
	<path class="st2" d="M753.6,389.7v-7.3h1.7v7.3H753.6z"/>
	<path class="st2" d="M760,389.7c0,0,0-0.1,0-0.1c0,0,0-0.1,0-0.1c0-0.2,0-0.4,0.1-0.7c0-0.3,0.1-0.6,0.2-0.9c0-0.1,0.1-0.3,0.1-0.4
		c0-0.1,0.1-0.3,0.1-0.4c0-0.1,0.1-0.3,0.1-0.4l1-2.9h-4.5v-1.3h6.3v1l-1.1,3.2c0,0.1-0.1,0.3-0.1,0.4c0,0.2-0.1,0.3-0.1,0.5
		c0,0.2-0.1,0.3-0.1,0.4c0,0.1-0.1,0.2-0.1,0.4c0,0.1-0.1,0.3-0.1,0.4s0,0.3-0.1,0.4c0,0.1,0,0.2,0,0.3v0.3H760z M757.1,392.4v-7.1
		h1.7v7.1H757.1z"/>
	<path class="st2" d="M711.7,403.6c-0.1,0-0.3,0-0.4,0c-0.1,0-0.3-0.1-0.4-0.1v-1.2c0.2,0,0.4,0.1,0.6,0.1c0.2,0,0.4-0.1,0.5-0.2
		s0.1-0.3,0.1-0.6v-3.9c-0.1,0-0.3,0-0.4,0c-0.1,0-0.3,0-0.4,0v-1.3c0.4,0,0.8-0.1,1.2-0.1c0.4,0,0.7,0,1.1-0.1s0.7,0,1,0
		c0.4,0,0.7,0,0.9,0c0.3,0,0.5,0.1,0.7,0.1c0.2,0.1,0.4,0.1,0.5,0.2c0.2,0.1,0.3,0.2,0.4,0.4c0.1,0.1,0.2,0.3,0.3,0.5
		c0.1,0.1,0.1,0.3,0.1,0.5s0,0.4,0,0.6v4.9h-1.7v-4.8c0-0.3-0.1-0.6-0.2-0.8s-0.3-0.3-0.6-0.4c-0.2,0-0.4-0.1-0.6-0.1
		c-0.1,0-0.2,0-0.3,0s-0.2,0-0.3,0v4c0,0.3,0,0.5-0.1,0.7s-0.1,0.4-0.2,0.6c-0.1,0.2-0.2,0.4-0.4,0.5c-0.2,0.1-0.4,0.2-0.6,0.3
		C712.3,403.5,712,403.6,711.7,403.6z"/>
	<path class="st2" d="M719.4,403.5v-7.3h1.7v7.3H719.4z"/>
	<path class="st2" d="M722.6,403.5l0.5-4.9c0-0.1,0-0.2,0-0.3s0-0.2,0-0.3c0-0.1,0-0.3,0-0.4c0-0.1,0-0.3-0.1-0.4
		c0-0.1,0-0.1-0.1-0.2s0-0.2-0.1-0.3c0-0.1,0-0.2-0.1-0.2c0,0,0-0.1,0-0.1c0,0,0-0.1-0.1-0.1h1.5c0.1,0.1,0.1,0.2,0.2,0.4
		c0,0.1,0.1,0.3,0.1,0.4h0.1c0.1-0.1,0.2-0.2,0.3-0.3s0.3-0.2,0.4-0.3c0.1-0.1,0.3-0.1,0.6-0.2c0.2-0.1,0.5-0.1,0.8-0.1
		c0.3,0,0.6,0,0.8,0.1c0.2,0.1,0.5,0.2,0.6,0.4c0.1,0.1,0.2,0.2,0.3,0.3c0.1,0.1,0.1,0.2,0.2,0.4c0.1,0.2,0.2,0.5,0.2,0.8
		c0.1,0.3,0.1,0.6,0.1,1v4.4h-3.1v-1.3h1.4v-3c0-0.2,0-0.4,0-0.6c0-0.2-0.1-0.3-0.1-0.4c0-0.1-0.1-0.2-0.2-0.3
		c-0.1-0.1-0.2-0.2-0.3-0.2c-0.1-0.1-0.3-0.1-0.4-0.1c-0.2,0-0.4,0-0.5,0.1s-0.3,0.1-0.4,0.2c-0.1,0.1-0.2,0.2-0.3,0.3
		s-0.1,0.2-0.2,0.3l-0.5,5.2H722.6z"/>
	<path class="st2" d="M730.9,403.5v-7.2c0.1,0,0.3,0,0.4-0.1c0.1,0,0.3,0,0.5,0c0.3,0,0.6-0.1,1-0.1c0.3,0,0.6,0,1,0
		c0.4,0,0.8,0,1.1,0.1s0.6,0.1,0.8,0.2c0.2,0.1,0.4,0.2,0.6,0.4c0.1,0.1,0.3,0.3,0.3,0.6c0.1,0.2,0.1,0.4,0.1,0.6c0,0.2,0,0.4,0,0.7
		v4.8H735v-4.8c0-0.3-0.1-0.6-0.2-0.8c-0.1-0.2-0.4-0.3-0.6-0.4c-0.1,0-0.2,0-0.3,0c-0.1,0-0.2,0-0.3,0c-0.1,0-0.3,0-0.4,0
		c-0.2,0-0.3,0-0.5,0v6H730.9z"/>
	<path class="st2" d="M740.2,403.5l0.6-2.8l0.9-3.2H738v-2.8h1.7v1.5h3.7v1.1l-1,3.4l-0.6,2.8H740.2z"/>
	<path class="st2" d="M744.4,403.5l0.5-4.9c0-0.1,0-0.2,0-0.3s0-0.2,0-0.3c0-0.1,0-0.3,0-0.4c0-0.1,0-0.3-0.1-0.4
		c0-0.1,0-0.1-0.1-0.2s0-0.2-0.1-0.3c0-0.1,0-0.2-0.1-0.2c0,0,0-0.1,0-0.1c0,0,0-0.1-0.1-0.1h1.5c0.1,0.1,0.1,0.2,0.2,0.4
		c0,0.1,0.1,0.3,0.1,0.4h0.1c0.1-0.1,0.2-0.2,0.3-0.3s0.3-0.2,0.4-0.3c0.1-0.1,0.3-0.1,0.6-0.2c0.2-0.1,0.5-0.1,0.8-0.1
		c0.3,0,0.6,0,0.8,0.1c0.2,0.1,0.5,0.2,0.6,0.4c0.1,0.1,0.2,0.2,0.3,0.3c0.1,0.1,0.1,0.2,0.2,0.4c0.1,0.2,0.2,0.5,0.2,0.8
		c0.1,0.3,0.1,0.6,0.1,1v4.4h-3.1v-1.3h1.4v-3c0-0.2,0-0.4,0-0.6c0-0.2-0.1-0.3-0.1-0.4c0-0.1-0.1-0.2-0.2-0.3
		c-0.1-0.1-0.2-0.2-0.3-0.2c-0.1-0.1-0.3-0.1-0.4-0.1c-0.2,0-0.4,0-0.5,0.1s-0.3,0.1-0.4,0.2c-0.1,0.1-0.2,0.2-0.3,0.3
		s-0.1,0.2-0.2,0.3l-0.5,5.2H744.4z"/>
	<path class="st2" d="M752.7,403.5v-7.3h1.7v7.3H752.7z"/>
</g>
<circle class="st1" cx="305" cy="385.9" r="67.4"/>
<g>
	<path class="st2" d="M265.4,394.5v-7.2c0.1,0,0.2,0,0.4-0.1c0.1,0,0.3,0,0.5,0c0.3,0,0.7-0.1,1-0.1c0.3,0,0.6,0,1,0
		c0.5,0,0.9,0,1.2,0.1c0.3,0.1,0.6,0.1,0.8,0.3c0.2,0.1,0.3,0.2,0.5,0.3s0.2,0.3,0.3,0.5c0.1,0.2,0.1,0.3,0.2,0.5
		c0,0.2,0.1,0.4,0.1,0.6v5.1H265.4z M267.1,393.2h2.4v-3.8c0-0.2,0-0.3-0.1-0.4c0-0.1-0.1-0.2-0.2-0.3c-0.1-0.1-0.1-0.1-0.2-0.1
		s-0.2-0.1-0.3-0.1c-0.1,0-0.2,0-0.3,0c-0.1,0-0.2,0-0.4,0c-0.1,0-0.3,0-0.4,0c-0.2,0-0.3,0-0.5,0V393.2z"/>
	<path class="st2" d="M272.9,392.1v-4.8h1.7v3.5l-1,1.3H272.9z"/>
	<path class="st2" d="M276.5,394.6c-0.1,0-0.2,0-0.3,0s-0.2,0-0.4-0.1l0.2-1.5c0.1,0,0.2,0,0.4,0.1c0.1,0,0.2,0,0.4,0
		c0.3,0,0.5,0,0.7-0.1c0.2-0.1,0.4-0.2,0.5-0.4c0.1-0.1,0.2-0.3,0.2-0.5s0.1-0.4,0.1-0.6v-2.2c0-0.3,0-0.5-0.1-0.6
		c-0.1-0.1-0.2-0.2-0.5-0.2c-0.2,0-0.3,0-0.5,0c-0.2,0-0.3,0.1-0.5,0.1v-1.4c0.4-0.1,0.8-0.1,1.2-0.1c0.4,0,0.7,0,0.9,0.1
		s0.4,0.2,0.6,0.3c0.2,0.2,0.4,0.4,0.5,0.7c0.1,0.3,0.1,0.6,0.1,1v5.3h-1.3l-0.3-1.1h-0.1c-0.1,0.1-0.1,0.2-0.3,0.4
		c-0.1,0.1-0.2,0.3-0.3,0.3c-0.1,0.1-0.3,0.2-0.5,0.3C277,394.6,276.7,394.6,276.5,394.6z"/>
	<path class="st2" d="M281.6,392.1v-4.8h1.7v3.5l-1,1.3H281.6z"/>
	<path class="st2" d="M289.1,394.5v-4.8c0-0.3-0.1-0.5-0.2-0.7s-0.3-0.3-0.5-0.4c-0.1,0-0.2-0.1-0.3-0.1c-0.1,0-0.3,0-0.4,0
		c-0.3,0-0.7,0-1.1,0c-0.4,0-0.9,0.1-1.5,0.1v-1.3c0.2,0,0.4-0.1,0.6-0.1c0.2,0,0.4,0,0.6-0.1c0.3,0,0.6,0,0.8,0c0.3,0,0.5,0,0.8,0
		c0.4,0,0.8,0,1.1,0.1s0.6,0.1,0.8,0.2c0.2,0.1,0.4,0.2,0.6,0.4s0.3,0.3,0.3,0.6c0.1,0.2,0.1,0.4,0.1,0.6c0,0.2,0,0.4,0,0.7v4.8
		H289.1z M285,394.5v-4.3h1.7v4.3H285z"/>
	<path class="st2" d="M292.2,394.5v-1.3h2c0-0.1,0.1-0.3,0.1-0.4c0-0.1,0-0.3,0-0.4v-3c0-0.1,0-0.3,0-0.4c0-0.1-0.1-0.2-0.2-0.3
		c-0.1-0.1-0.1-0.1-0.2-0.1c-0.1,0-0.2,0-0.3,0c-0.1,0-0.3,0-0.4,0s-0.3,0-0.5,0.1v-1.4c0.1,0,0.3-0.1,0.5-0.1c0.2,0,0.4,0,0.6,0
		c0.4,0,0.7,0,0.9,0.1c0.2,0.1,0.4,0.2,0.6,0.3s0.3,0.3,0.4,0.4c0.1,0.2,0.2,0.4,0.2,0.5c0,0.1,0.1,0.3,0.1,0.4s0,0.3,0,0.5v3
		c0,0.2,0,0.4,0,0.7s0,0.5-0.1,0.7s-0.1,0.4-0.1,0.5l-0.1,0.3H292.2z"/>
	<path class="st2" d="M297.2,394.5l0.5-4.9c0-0.1,0-0.2,0-0.3s0-0.2,0-0.3c0-0.1,0-0.3,0-0.4c0-0.1,0-0.3-0.1-0.4
		c0-0.1,0-0.1-0.1-0.2s0-0.2-0.1-0.3c0-0.1,0-0.2-0.1-0.2c0,0,0-0.1,0-0.1c0,0,0-0.1-0.1-0.1h1.5c0.1,0.1,0.1,0.2,0.2,0.4
		c0,0.1,0.1,0.3,0.1,0.4h0.1c0.1-0.1,0.2-0.2,0.3-0.3s0.3-0.2,0.4-0.3c0.1-0.1,0.3-0.1,0.6-0.2c0.2-0.1,0.5-0.1,0.8-0.1
		c0.3,0,0.6,0,0.8,0.1c0.2,0.1,0.5,0.2,0.6,0.4c0.1,0.1,0.2,0.2,0.3,0.3c0.1,0.1,0.1,0.2,0.2,0.4c0.1,0.2,0.2,0.5,0.2,0.8
		c0.1,0.3,0.1,0.6,0.1,1v4.4h-3.1v-1.3h1.4v-3c0-0.2,0-0.4,0-0.6c0-0.2-0.1-0.3-0.1-0.4c0-0.1-0.1-0.2-0.2-0.3
		c-0.1-0.1-0.2-0.2-0.3-0.2c-0.1-0.1-0.3-0.1-0.4-0.1c-0.2,0-0.4,0-0.5,0.1s-0.3,0.1-0.4,0.2c-0.1,0.1-0.2,0.2-0.3,0.3
		s-0.1,0.2-0.2,0.3l-0.5,5.2H297.2z"/>
	<path class="st2" d="M305.4,394.5v-7.3h1.7v7.3H305.4z"/>
	<path class="st2" d="M311.9,394.5v-7.2c0.1,0,0.2,0,0.4-0.1c0.1,0,0.3,0,0.5,0c0.3,0,0.7-0.1,1-0.1c0.3,0,0.6,0,1,0
		c0.5,0,0.9,0,1.2,0.1c0.3,0.1,0.6,0.1,0.8,0.3c0.2,0.1,0.3,0.2,0.5,0.3s0.2,0.3,0.3,0.5c0.1,0.2,0.1,0.3,0.2,0.5
		c0,0.2,0.1,0.4,0.1,0.6v5.1H311.9z M313.6,393.2h2.4v-3.8c0-0.2,0-0.3-0.1-0.4c0-0.1-0.1-0.2-0.2-0.3c-0.1-0.1-0.1-0.1-0.2-0.1
		s-0.2-0.1-0.3-0.1c-0.1,0-0.2,0-0.3,0c-0.1,0-0.2,0-0.4,0c-0.1,0-0.3,0-0.4,0c-0.2,0-0.3,0-0.5,0V393.2z"/>
	<path class="st2" d="M319.4,392.1v-4.8h1.7v3.5l-1,1.3H319.4z"/>
	<path class="st2" d="M323.1,394.5l-0.6-7.3h1.6l0.3,3.7c0.1,0,0.2-0.1,0.4-0.1s0.2-0.1,0.3-0.2c0.1-0.1,0.2-0.3,0.2-0.4
		s0.1-0.4,0.1-0.6l0.2-2.3h1.6l-0.2,2.2c0,0.4-0.1,0.8-0.2,1.1c-0.1,0.3-0.3,0.6-0.6,0.9c-0.2,0.2-0.5,0.4-0.7,0.5
		c-0.3,0.1-0.6,0.2-1,0.2c0,0,0,0,0,0s0,0,0,0l0.1,1h1.5c0.4,0,0.7-0.1,1.1-0.3c0.3-0.2,0.6-0.5,0.8-0.9c0.2-0.4,0.3-0.9,0.4-1.5
		l0.3-3.2h1.6l-0.3,3.3c0,0.4-0.1,0.8-0.2,1.2c-0.1,0.4-0.2,0.7-0.4,1c-0.1,0.3-0.3,0.5-0.5,0.7c-0.2,0.2-0.4,0.4-0.7,0.6
		c-0.3,0.2-0.7,0.3-1,0.4c-0.4,0.1-0.8,0.1-1.2,0.1H323.1z"/>
	<path class="st2" d="M331.8,392.1v-4.8h1.7v3.5l-1,1.3H331.8z"/>
	<path class="st2" d="M335,394.5v-2.6c0-0.2,0-0.4,0-0.5c0-0.2,0-0.3,0.1-0.4s0.1-0.3,0.2-0.4c0.1-0.2,0.2-0.4,0.4-0.5
		c0.2-0.1,0.4-0.3,0.7-0.3l-1.5-2.5h1.9l2.2,3.6c0,0,0.1-0.1,0.1-0.1c0,0,0-0.1,0.1-0.1c0.1-0.1,0.1-0.2,0.2-0.3
		c0-0.1,0.1-0.3,0.1-0.5v-2.7h1.7v2.6c0,0.3,0,0.5-0.1,0.7c0,0.2-0.1,0.4-0.2,0.6c-0.1,0.2-0.2,0.4-0.4,0.5
		c-0.2,0.1-0.4,0.3-0.7,0.4l1.5,2.5h-1.9l-2.2-3.7c-0.1,0-0.1,0.1-0.2,0.1c-0.1,0.1-0.1,0.2-0.2,0.3c-0.1,0.2-0.1,0.4-0.1,0.6v2.6
		H335z"/>
</g>
<circle class="st1" cx="345.9" cy="207.4" r="59.3"/>
<g>
	<path class="st2" d="M328.3,213.4c-0.1,0-0.3,0-0.4,0c-0.1,0-0.3-0.1-0.4-0.1V212c0.2,0,0.4,0.1,0.6,0.1c0.2,0,0.4-0.1,0.5-0.2
		s0.1-0.3,0.1-0.6v-3.9c-0.1,0-0.3,0-0.4,0c-0.1,0-0.3,0-0.4,0v-1.3c0.4,0,0.8-0.1,1.2-0.1c0.4,0,0.7,0,1.1-0.1s0.7,0,1,0
		c0.4,0,0.7,0,0.9,0c0.3,0,0.5,0.1,0.7,0.1c0.2,0.1,0.4,0.1,0.5,0.2c0.2,0.1,0.3,0.2,0.4,0.4c0.1,0.1,0.2,0.3,0.3,0.5
		c0.1,0.1,0.1,0.3,0.1,0.5s0,0.4,0,0.6v4.9h-1.7v-4.8c0-0.3-0.1-0.6-0.2-0.8s-0.3-0.3-0.6-0.4c-0.2,0-0.4-0.1-0.6-0.1
		c-0.1,0-0.2,0-0.3,0s-0.2,0-0.3,0v4c0,0.3,0,0.5-0.1,0.7s-0.1,0.4-0.2,0.6c-0.1,0.2-0.2,0.4-0.4,0.5c-0.2,0.1-0.4,0.2-0.6,0.3
		C328.9,213.4,328.6,213.4,328.3,213.4z"/>
	<path class="st2" d="M336.1,213.3V206h1.7v7.3H336.1z"/>
	<path class="st2" d="M339.3,213.3l0.5-4.9c0-0.1,0-0.2,0-0.3s0-0.2,0-0.3c0-0.1,0-0.3,0-0.4c0-0.1,0-0.3-0.1-0.4
		c0-0.1,0-0.1-0.1-0.2s0-0.2-0.1-0.3c0-0.1,0-0.2-0.1-0.2c0,0,0-0.1,0-0.1c0,0,0-0.1-0.1-0.1h1.5c0.1,0.1,0.1,0.2,0.2,0.4
		c0,0.1,0.1,0.3,0.1,0.4h0.1c0.1-0.1,0.2-0.2,0.3-0.3s0.3-0.2,0.4-0.3c0.1-0.1,0.3-0.1,0.6-0.2c0.2-0.1,0.5-0.1,0.8-0.1
		c0.3,0,0.6,0,0.8,0.1c0.2,0.1,0.5,0.2,0.6,0.4c0.1,0.1,0.2,0.2,0.3,0.3c0.1,0.1,0.1,0.2,0.2,0.4c0.1,0.2,0.2,0.5,0.2,0.8
		c0.1,0.3,0.1,0.6,0.1,1v4.4h-3.1V212h1.4v-3c0-0.2,0-0.4,0-0.6c0-0.2-0.1-0.3-0.1-0.4c0-0.1-0.1-0.2-0.2-0.3
		c-0.1-0.1-0.2-0.2-0.3-0.2c-0.1-0.1-0.3-0.1-0.4-0.1c-0.2,0-0.4,0-0.5,0.1s-0.3,0.1-0.4,0.2c-0.1,0.1-0.2,0.2-0.3,0.3
		s-0.1,0.2-0.2,0.3l-0.5,5.2H339.3z"/>
	<path class="st2" d="M347.5,213.3V206h1.7v7.3H347.5z"/>
	<path class="st2" d="M353.9,213.3c0,0,0-0.1,0-0.1c0,0,0-0.1,0-0.1c0-0.2,0-0.4,0.1-0.7c0-0.3,0.1-0.6,0.2-0.9
		c0-0.1,0.1-0.3,0.1-0.4c0-0.1,0.1-0.3,0.1-0.4c0-0.1,0.1-0.3,0.1-0.4l1-2.9H351V206h6.3v1l-1.1,3.2c0,0.1-0.1,0.3-0.1,0.4
		c0,0.2-0.1,0.3-0.1,0.5c0,0.2-0.1,0.3-0.1,0.4c0,0.1-0.1,0.2-0.1,0.4c0,0.1-0.1,0.3-0.1,0.4s0,0.3-0.1,0.4c0,0.1,0,0.2,0,0.3v0.3
		H353.9z M351,216.1V209h1.7v7.1H351z"/>
	<path class="st2" d="M358.1,213.3l0.5-4.9c0-0.1,0-0.2,0-0.3s0-0.2,0-0.3c0-0.1,0-0.3,0-0.4c0-0.1,0-0.3-0.1-0.4
		c0-0.1,0-0.1-0.1-0.2s0-0.2-0.1-0.3c0-0.1,0-0.2-0.1-0.2c0,0,0-0.1,0-0.1c0,0,0-0.1-0.1-0.1h1.5c0.1,0.1,0.1,0.2,0.2,0.4
		c0,0.1,0.1,0.3,0.1,0.4h0.1c0.1-0.1,0.2-0.2,0.3-0.3s0.3-0.2,0.4-0.3c0.1-0.1,0.3-0.1,0.6-0.2c0.2-0.1,0.5-0.1,0.8-0.1
		c0.3,0,0.6,0,0.8,0.1c0.2,0.1,0.5,0.2,0.6,0.4c0.1,0.1,0.2,0.2,0.3,0.3c0.1,0.1,0.1,0.2,0.2,0.4c0.1,0.2,0.2,0.5,0.2,0.8
		c0.1,0.3,0.1,0.6,0.1,1v4.4h-3.1V212h1.4v-3c0-0.2,0-0.4,0-0.6c0-0.2-0.1-0.3-0.1-0.4c0-0.1-0.1-0.2-0.2-0.3
		c-0.1-0.1-0.2-0.2-0.3-0.2c-0.1-0.1-0.3-0.1-0.4-0.1c-0.2,0-0.4,0-0.5,0.1s-0.3,0.1-0.4,0.2c-0.1,0.1-0.2,0.2-0.3,0.3
		s-0.1,0.2-0.2,0.3l-0.5,5.2H358.1z"/>
</g>
<circle class="st1" cx="600.9" cy="415.9" r="49"/>
<g>
	<path class="st2" d="M578.2,423.3c-0.1,0-0.3,0-0.4,0c-0.1,0-0.3-0.1-0.4-0.1v-1.2c0.2,0,0.4,0.1,0.6,0.1c0.2,0,0.4-0.1,0.5-0.2
		s0.1-0.3,0.1-0.6v-3.9c-0.1,0-0.3,0-0.4,0c-0.1,0-0.3,0-0.4,0v-1.3c0.4,0,0.8-0.1,1.2-0.1c0.4,0,0.7,0,1.1-0.1s0.7,0,1,0
		c0.4,0,0.7,0,0.9,0c0.3,0,0.5,0.1,0.7,0.1c0.2,0.1,0.4,0.1,0.5,0.2c0.2,0.1,0.3,0.2,0.4,0.4c0.1,0.1,0.2,0.3,0.3,0.5
		c0.1,0.1,0.1,0.3,0.1,0.5s0,0.4,0,0.6v4.9h-1.7v-4.8c0-0.3-0.1-0.6-0.2-0.8s-0.3-0.3-0.6-0.4c-0.2,0-0.4-0.1-0.6-0.1
		c-0.1,0-0.2,0-0.3,0s-0.2,0-0.3,0v4c0,0.3,0,0.5-0.1,0.7s-0.1,0.4-0.2,0.6c-0.1,0.2-0.2,0.4-0.4,0.5c-0.2,0.1-0.4,0.2-0.6,0.3
		C578.8,423.3,578.5,423.3,578.2,423.3z"/>
	<path class="st2" d="M585.9,423.3V416h1.7v7.3H585.9z"/>
	<path class="st2" d="M589.4,420.8V416h1.7v3.5l-1,1.3H589.4z"/>
	<path class="st2" d="M595.5,423.3v-4.8c0-0.3-0.1-0.6-0.2-0.8c-0.1-0.2-0.3-0.3-0.6-0.4c-0.1,0-0.2-0.1-0.3-0.1s-0.2,0-0.3,0
		c-0.2,0-0.4,0-0.6,0s-0.4,0-0.7,0c-0.2,0-0.5,0-0.7,0.1V416c0.4,0,0.7-0.1,1-0.1c0.3,0,0.6,0,0.9,0c0.5,0,1,0,1.3,0.1
		s0.6,0.1,0.8,0.2c0.2,0.1,0.4,0.2,0.6,0.4c0.1,0.1,0.3,0.3,0.3,0.6c0.1,0.2,0.1,0.4,0.1,0.6c0,0.2,0,0.4,0,0.7v4.8H595.5z"/>
	<path class="st2" d="M601.5,423.4c-0.3,0-0.5,0-0.8,0c-0.3,0-0.5,0-0.7,0c-0.2,0-0.4,0-0.5-0.1l-0.3,0v-1.3c0.4,0,0.8,0.1,1.2,0.1
		c0.4,0,0.8,0,1.2,0c0.2,0,0.4,0,0.5-0.1s0.3-0.1,0.4-0.2c0.1-0.1,0.2-0.3,0.3-0.5c0.1-0.2,0.1-0.4,0.1-0.6c0-0.2,0-0.4,0-0.5
		c0-0.1,0-0.3,0-0.5c0-0.2,0-0.4,0-0.6c0-0.2,0-0.4-0.1-0.6c0-0.2-0.1-0.4-0.2-0.6c-0.1-0.2-0.2-0.3-0.3-0.4
		c-0.1-0.1-0.2-0.1-0.3-0.2s-0.2-0.1-0.3-0.1c-0.2,0-0.4,0-0.6,0.1c-0.2,0.1-0.3,0.1-0.4,0.2c-0.1,0.1-0.2,0.2-0.3,0.4
		c-0.1,0.2-0.1,0.3-0.1,0.5c0,0.2,0,0.4,0.1,0.5c0.1,0.2,0.2,0.3,0.3,0.4c0.1,0.1,0.2,0.1,0.3,0.2c0.1,0,0.2,0.1,0.3,0.1l0.3,0.1
		l-0.3,1.2l-0.4,0c-0.2,0-0.4,0-0.6-0.1c-0.2,0-0.4-0.1-0.5-0.2c-0.2-0.1-0.3-0.2-0.5-0.3c-0.1-0.1-0.3-0.2-0.3-0.4
		c-0.1-0.2-0.2-0.4-0.3-0.7s-0.1-0.5-0.1-0.8c0-0.4,0.1-0.8,0.2-1.1s0.3-0.6,0.5-0.8c0.3-0.3,0.6-0.5,1-0.6c0.4-0.1,0.8-0.2,1.2-0.2
		c0.3,0,0.7,0,1,0.1c0.3,0.1,0.6,0.2,0.8,0.3c0.2,0.1,0.3,0.3,0.5,0.4c0.2,0.2,0.3,0.4,0.4,0.6c0.1,0.3,0.2,0.6,0.3,1
		c0.1,0.4,0.1,0.8,0.1,1.2c0,0.6-0.1,1.1-0.2,1.5c-0.1,0.4-0.2,0.8-0.4,1.1c-0.2,0.3-0.4,0.5-0.6,0.6c-0.2,0.2-0.5,0.3-0.7,0.4
		c-0.2,0.1-0.3,0.1-0.5,0.1C601.9,423.4,601.7,423.4,601.5,423.4z"/>
	<path class="st2" d="M605.7,423.3l0.5-4.9c0-0.1,0-0.2,0-0.3s0-0.2,0-0.3c0-0.1,0-0.3,0-0.4c0-0.1,0-0.3-0.1-0.4
		c0-0.1,0-0.1-0.1-0.2s0-0.2-0.1-0.3c0-0.1,0-0.2-0.1-0.2c0,0,0-0.1,0-0.1c0,0,0-0.1-0.1-0.1h1.5c0.1,0.1,0.1,0.2,0.2,0.4
		c0,0.1,0.1,0.3,0.1,0.4h0.1c0.1-0.1,0.2-0.2,0.3-0.3s0.3-0.2,0.4-0.3c0.1-0.1,0.3-0.1,0.6-0.2c0.2-0.1,0.5-0.1,0.8-0.1
		c0.3,0,0.6,0,0.8,0.1c0.2,0.1,0.5,0.2,0.6,0.4c0.1,0.1,0.2,0.2,0.3,0.3c0.1,0.1,0.1,0.2,0.2,0.4c0.1,0.2,0.2,0.5,0.2,0.8
		c0.1,0.3,0.1,0.6,0.1,1v4.4h-3.1v-1.3h1.4v-3c0-0.2,0-0.4,0-0.6c0-0.2-0.1-0.3-0.1-0.4c0-0.1-0.1-0.2-0.2-0.3
		c-0.1-0.1-0.2-0.2-0.3-0.2c-0.1-0.1-0.3-0.1-0.4-0.1c-0.2,0-0.4,0-0.5,0.1s-0.3,0.1-0.4,0.2c-0.1,0.1-0.2,0.2-0.3,0.3
		s-0.1,0.2-0.2,0.3l-0.5,5.2H605.7z"/>
	<path class="st2" d="M613.9,420.8V416h1.7v3.5l-1,1.3H613.9z"/>
	<path class="st2" d="M617,423.3v-2.6c0-0.2,0-0.4,0-0.5c0-0.2,0-0.3,0.1-0.4s0.1-0.3,0.2-0.4c0.1-0.2,0.2-0.4,0.4-0.5
		c0.2-0.1,0.4-0.3,0.7-0.3l-1.5-2.5h1.9l2.2,3.6c0,0,0.1-0.1,0.1-0.1c0,0,0-0.1,0.1-0.1c0.1-0.1,0.1-0.2,0.2-0.3
		c0-0.1,0.1-0.3,0.1-0.5V416h1.7v2.6c0,0.3,0,0.5-0.1,0.7c0,0.2-0.1,0.4-0.2,0.6c-0.1,0.2-0.2,0.4-0.4,0.5c-0.2,0.1-0.4,0.3-0.7,0.4
		l1.5,2.5h-1.9l-2.2-3.7c-0.1,0-0.1,0.1-0.2,0.1c-0.1,0.1-0.1,0.2-0.2,0.3c-0.1,0.2-0.1,0.4-0.1,0.6v2.6H617z"/>
</g>
<circle class="st1" cx="630.4" cy="76.9" r="39.9"/>
<g>
	<path class="st2" d="M620,71.2V64c0.1,0,0.2,0,0.4-0.1c0.1,0,0.3,0,0.5,0c0.3,0,0.7-0.1,1-0.1c0.3,0,0.6,0,1,0c0.5,0,0.9,0,1.2,0.1
		c0.3,0.1,0.6,0.1,0.8,0.3c0.2,0.1,0.3,0.2,0.5,0.3s0.2,0.3,0.3,0.5c0.1,0.2,0.1,0.3,0.2,0.5c0,0.2,0.1,0.4,0.1,0.6v5.1H620z
		 M621.7,69.9h2.4v-3.8c0-0.2,0-0.3-0.1-0.4c0-0.1-0.1-0.2-0.2-0.3c-0.1-0.1-0.1-0.1-0.2-0.1s-0.2-0.1-0.3-0.1c-0.1,0-0.2,0-0.3,0
		c-0.1,0-0.2,0-0.4,0c-0.1,0-0.3,0-0.4,0c-0.2,0-0.3,0-0.5,0V69.9z"/>
	<path class="st2" d="M627.5,71.2v-7.3h1.7v7.3H627.5z"/>
	<path class="st2" d="M631,68.8v-4.8h1.7v3.5l-1,1.3H631z"/>
	<path class="st2" d="M638.5,71.2v-4.8c0-0.3-0.1-0.5-0.2-0.7s-0.3-0.3-0.5-0.4c-0.1,0-0.2-0.1-0.3-0.1c-0.1,0-0.3,0-0.4,0
		c-0.3,0-0.7,0-1.1,0c-0.4,0-0.9,0.1-1.5,0.1V64c0.2,0,0.4-0.1,0.6-0.1c0.2,0,0.4,0,0.6-0.1c0.3,0,0.6,0,0.8,0c0.3,0,0.5,0,0.8,0
		c0.4,0,0.8,0,1.1,0.1s0.6,0.1,0.8,0.2c0.2,0.1,0.4,0.2,0.6,0.4s0.3,0.3,0.3,0.6c0.1,0.2,0.1,0.4,0.1,0.6c0,0.2,0,0.4,0,0.7v4.8
		H638.5z M634.4,71.2v-4.3h1.7v4.3H634.4z"/>
	<path class="st2" d="M608.7,85v-4.8c0-0.3-0.1-0.5-0.2-0.7s-0.3-0.3-0.5-0.4c-0.1,0-0.2-0.1-0.3-0.1c-0.1,0-0.3,0-0.4,0
		c-0.3,0-0.7,0-1.1,0c-0.4,0-0.9,0.1-1.5,0.1v-1.3c0.2,0,0.4-0.1,0.6-0.1c0.2,0,0.4,0,0.6-0.1c0.3,0,0.6,0,0.8,0c0.3,0,0.5,0,0.8,0
		c0.4,0,0.8,0,1.1,0.1s0.6,0.1,0.8,0.2c0.2,0.1,0.4,0.2,0.6,0.4s0.3,0.3,0.3,0.6c0.1,0.2,0.1,0.4,0.1,0.6c0,0.2,0,0.4,0,0.7V85
		H608.7z M604.6,85v-4.3h1.7V85H604.6z"/>
	<path class="st2" d="M612.1,82.6v-4.8h1.7v3.5l-1,1.3H612.1z"/>
	<path class="st2" d="M618.2,85v-4.8c0-0.3-0.1-0.6-0.2-0.8c-0.1-0.2-0.3-0.3-0.6-0.4c-0.1,0-0.2-0.1-0.3-0.1s-0.2,0-0.3,0
		c-0.2,0-0.4,0-0.6,0s-0.4,0-0.7,0c-0.2,0-0.5,0-0.7,0.1v-1.3c0.4,0,0.7-0.1,1-0.1c0.3,0,0.6,0,0.9,0c0.5,0,1,0,1.3,0.1
		s0.6,0.1,0.8,0.2c0.2,0.1,0.4,0.2,0.6,0.4c0.1,0.1,0.3,0.3,0.3,0.6c0.1,0.2,0.1,0.4,0.1,0.6c0,0.2,0,0.4,0,0.7V85H618.2z"/>
	<path class="st2" d="M621.6,85v-7.3h1.7V85H621.6z"/>
	<path class="st2" d="M628.1,85.1c-0.3,0-0.5,0-0.8-0.1c-0.3,0-0.5-0.1-0.7-0.2c-0.2-0.1-0.3-0.2-0.5-0.4c-0.2-0.1-0.3-0.3-0.5-0.6
		c-0.2-0.3-0.3-0.7-0.4-1.1c-0.1-0.4-0.1-0.9-0.1-1.5v-3.6h1.7v3.6c0,0.5,0,0.9,0.1,1.2c0.1,0.3,0.2,0.6,0.3,0.8
		c0.1,0.1,0.2,0.3,0.4,0.3s0.3,0.1,0.5,0.1c0.2,0,0.4,0,0.6-0.1c0.2-0.1,0.3-0.2,0.4-0.4c0.1-0.2,0.2-0.5,0.3-0.8
		c0.1-0.3,0.1-0.7,0.1-1.1c0-0.4,0-0.8-0.1-1.1s-0.1-0.6-0.3-0.8c-0.1-0.2-0.2-0.3-0.4-0.4c-0.2-0.1-0.4-0.1-0.6-0.1
		c-0.1,0-0.1,0-0.2,0c-0.1,0-0.1,0-0.2,0v-1.3c0.1,0,0.3,0,0.4,0s0.3,0,0.4,0c0.3,0,0.5,0,0.8,0.1c0.3,0.1,0.5,0.2,0.7,0.3
		c0.1,0.1,0.3,0.2,0.4,0.4s0.2,0.3,0.3,0.5c0.1,0.3,0.2,0.6,0.3,1c0.1,0.4,0.1,0.9,0.1,1.4c0,0.4,0,0.7-0.1,1c0,0.3-0.1,0.6-0.2,0.9
		c-0.1,0.3-0.3,0.7-0.5,0.9c-0.2,0.3-0.5,0.5-0.7,0.6c-0.2,0.1-0.5,0.2-0.7,0.3S628.4,85.1,628.1,85.1z"/>
	<path class="st2" d="M635.3,85.1c-0.5,0-1-0.1-1.4-0.3c-0.3-0.1-0.6-0.3-0.8-0.6c-0.2-0.2-0.4-0.5-0.6-0.9
		c-0.1-0.3-0.2-0.6-0.2-0.9c-0.1-0.3-0.1-0.7-0.1-1.1c0-0.3,0-0.6,0.1-0.9s0.1-0.5,0.3-0.8c0.1-0.2,0.3-0.4,0.4-0.6l0,0l-0.7,0v-1.4
		c0.4,0,0.7,0,1-0.1c0.3,0,0.7,0,1,0c0.3,0,0.6,0,0.9,0c0.3,0,0.6,0,0.8,0.1c0.3,0.1,0.5,0.2,0.7,0.3c0.3,0.1,0.5,0.3,0.7,0.6
		s0.4,0.5,0.5,0.8c0.1,0.3,0.2,0.6,0.2,0.9c0.1,0.3,0.1,0.7,0.1,1.1c0,0.3,0,0.6-0.1,0.9c0,0.3-0.1,0.6-0.2,0.8
		c-0.1,0.4-0.3,0.7-0.5,1c-0.2,0.3-0.5,0.5-0.8,0.7C636.4,85,635.9,85.1,635.3,85.1z M635.3,83.8c0.2,0,0.4,0,0.6-0.1
		s0.3-0.2,0.4-0.4c0.1-0.1,0.2-0.3,0.2-0.5s0.1-0.4,0.1-0.6c0-0.2,0-0.5,0-0.7c0-0.5,0-0.9-0.1-1.3c-0.1-0.3-0.2-0.6-0.4-0.8
		c-0.1-0.1-0.2-0.2-0.4-0.3c-0.1-0.1-0.3-0.1-0.5-0.1c-0.1,0-0.2,0-0.3,0c-0.1,0-0.2,0-0.3,0c-0.2,0.3-0.4,0.6-0.5,1
		c-0.1,0.4-0.2,0.8-0.2,1.4c0,0.4,0,0.8,0.1,1.1s0.1,0.6,0.3,0.7c0.1,0.2,0.2,0.3,0.4,0.4S635,83.8,635.3,83.8z"/>
	<path class="st2" d="M639.7,82.6v-4.8h1.7v3.5l-1,1.3H639.7z"/>
	<path class="st2" d="M647.2,85v-4.8c0-0.3-0.1-0.5-0.2-0.7s-0.3-0.3-0.5-0.4c-0.1,0-0.2-0.1-0.3-0.1c-0.1,0-0.3,0-0.4,0
		c-0.3,0-0.7,0-1.1,0c-0.4,0-0.9,0.1-1.5,0.1v-1.3c0.2,0,0.4-0.1,0.6-0.1c0.2,0,0.4,0,0.6-0.1c0.3,0,0.6,0,0.8,0c0.3,0,0.5,0,0.8,0
		c0.4,0,0.8,0,1.1,0.1s0.6,0.1,0.8,0.2c0.2,0.1,0.4,0.2,0.6,0.4s0.3,0.3,0.3,0.6c0.1,0.2,0.1,0.4,0.1,0.6c0,0.2,0,0.4,0,0.7V85
		H647.2z M643.1,85v-4.3h1.7V85H643.1z"/>
	<path class="st2" d="M650.3,85v-1.3h3.3v-3.5c0-0.3-0.1-0.6-0.2-0.7c-0.1-0.2-0.3-0.3-0.6-0.4c-0.1,0-0.2-0.1-0.3-0.1
		c-0.1,0-0.2,0-0.4,0c-0.2,0-0.5,0-0.8,0c-0.3,0-0.7,0-1.1,0.1v-1.3c0.2,0,0.5-0.1,0.9-0.1c0.3,0,0.7,0,1.1,0c0.4,0,0.7,0,0.9,0
		c0.3,0,0.5,0.1,0.7,0.2c0.2,0.1,0.4,0.2,0.6,0.3s0.3,0.2,0.4,0.4c0.1,0.1,0.2,0.3,0.3,0.5c0.1,0.2,0.1,0.3,0.1,0.5
		c0,0.2,0,0.4,0,0.6v3.6h0.8V85H650.3z"/>
</g>
<circle class="st1" cx="489.5" cy="114.5" r="100.9"/>
<g>
	<path class="st2" d="M477.7,121.3c-0.1,0-0.3,0-0.4,0c-0.1,0-0.3-0.1-0.4-0.1v-1.2c0.2,0,0.4,0.1,0.6,0.1c0.2,0,0.4-0.1,0.5-0.2
		s0.1-0.3,0.1-0.6v-3.9c-0.1,0-0.3,0-0.4,0c-0.1,0-0.3,0-0.4,0v-1.3c0.4,0,0.8-0.1,1.2-0.1c0.4,0,0.7,0,1.1-0.1s0.7,0,1,0
		c0.4,0,0.7,0,0.9,0c0.3,0,0.5,0.1,0.7,0.1c0.2,0.1,0.4,0.1,0.5,0.2c0.2,0.1,0.3,0.2,0.4,0.4c0.1,0.1,0.2,0.3,0.3,0.5
		c0.1,0.1,0.1,0.3,0.1,0.5s0,0.4,0,0.6v4.9h-1.7v-4.8c0-0.3-0.1-0.6-0.2-0.8s-0.3-0.3-0.6-0.4c-0.2,0-0.4-0.1-0.6-0.1
		c-0.1,0-0.2,0-0.3,0s-0.2,0-0.3,0v4c0,0.3,0,0.5-0.1,0.7s-0.1,0.4-0.2,0.6c-0.1,0.2-0.2,0.4-0.4,0.5c-0.2,0.1-0.4,0.2-0.6,0.3
		C478.3,121.3,478,121.3,477.7,121.3z"/>
	<path class="st2" d="M485.5,121.3V114h1.7v7.3H485.5z"/>
	<path class="st2" d="M491.4,121.3v-4.7c0-0.2,0-0.3,0.1-0.4s0.1-0.3,0.1-0.4c0.1-0.1,0.1-0.2,0.2-0.3c0.1-0.1,0.1-0.1,0.2-0.2h-3.7
		V114h5.8v1.2c-0.2,0.1-0.3,0.1-0.5,0.2c-0.1,0.1-0.2,0.2-0.3,0.3c-0.2,0.2-0.2,0.5-0.2,0.9v4.6H491.4z"/>
	<path class="st2" d="M499.4,121.3v-4.8c0-0.3-0.1-0.5-0.2-0.7s-0.3-0.3-0.5-0.4c-0.1,0-0.2-0.1-0.3-0.1c-0.1,0-0.3,0-0.4,0
		c-0.3,0-0.7,0-1.1,0c-0.4,0-0.9,0.1-1.5,0.1v-1.3c0.2,0,0.4-0.1,0.6-0.1c0.2,0,0.4,0,0.6-0.1c0.3,0,0.6,0,0.8,0c0.3,0,0.5,0,0.8,0
		c0.4,0,0.8,0,1.1,0.1s0.6,0.1,0.8,0.2c0.2,0.1,0.4,0.2,0.6,0.4s0.3,0.3,0.3,0.6c0.1,0.2,0.1,0.4,0.1,0.6c0,0.2,0,0.4,0,0.7v4.8
		H499.4z M495.3,121.3v-4.3h1.7v4.3H495.3z"/>
	<path class="st2" d="M502.8,118.8V114h1.7v3.5l-1,1.3H502.8z"/>
</g>
</svg>
