<?xml version="1.0" encoding="utf-8"?>
<!-- Generator: Adobe Illustrator 26.5.0, SVG Export Plug-In . SVG Version: 6.00 Build 0)  -->
<svg version="1.1" id="Layer_1" xmlns="http://www.w3.org/2000/svg" xmlns:xlink="http://www.w3.org/1999/xlink" x="0px" y="0px"
	 viewBox="0 0 300 200" style="enable-background:new 0 0 300 200;" xml:space="preserve">
<style type="text/css">
	.st0{fill:#18627C;}
</style>
<path class="st0" d="M272.6,35.3h-33.4c-0.8-2.1-2.8-3.6-5.2-3.6s-4.4,1.5-5.2,3.6h-21.3c-0.8-2.1-2.8-3.6-5.2-3.6s-4.4,1.5-5.2,3.6
	h-46.9c-0.8-2.1-2.8-3.6-5.2-3.6s-4.4,1.5-5.2,3.6H86.4c-0.8-2.1-2.8-3.6-5.2-3.6s-4.4,1.5-5.2,3.6h-2.6c-0.8-2.1-2.8-3.6-5.2-3.6
	s-4.4,1.5-5.2,3.6H28c-1.1,0-2,0.9-2,2s0.9,2,2,2h35c0.5,1.4,1.7,2.6,3.1,3.2v23.2H45.2c-1.3,0-2.4,1.1-2.4,2.4v56.9
	c0,1.3,1.1,2.4,2.4,2.4h10.6V144c0,1.3,1.1,2.4,2.4,2.4h45.9c1.3,0,2.4-1.1,2.4-2.4V87.2c0-1.3-1.1-2.4-2.4-2.4H93.5V68.1
	c0-1.3-1.1-2.4-2.4-2.4H83V42.6c1.6-0.5,2.8-1.7,3.4-3.3h53.4c0.5,1.4,1.7,2.6,3.1,3.2v23.2h-20.8c-1.3,0-2.4,1.1-2.4,2.4v56.9
	c0,1.3,1.1,2.4,2.4,2.4H168c1.3,0,2.4-1.1,2.4-2.4V68.1c0-1.3-1.1-2.4-2.4-2.4h-21.1V42.6c1.6-0.5,2.8-1.7,3.4-3.3h46.9
	c0.5,1.4,1.7,2.6,3.1,3.2v56.3h-20.8c-1.3,0-2.4,1.1-2.4,2.4V158c0,1.3,1.1,2.4,2.4,2.4h45.9c1.3,0,2.4-1.1,2.4-2.4v-30.7H257
	c1.3,0,2.4-1.1,2.4-2.4V68.1c0-1.3-1.1-2.4-2.4-2.4h-21.1V42.6c1.6-0.5,2.8-1.7,3.4-3.3h33.4c1.1,0,2-0.9,2-2S273.7,35.3,272.6,35.3
	z M165.6,122.5h-41.1V70.5h41.1V122.5z M55.8,87.2v35.4h-8.2V70.5H79v14.3H58.2C56.9,84.7,55.8,85.8,55.8,87.2z M101.7,141.6H60.6
	V89.6h41.1V141.6z M88.7,70.5v14.3H83V70.5H88.7z M70,65.6V42.6c1.6-0.5,2.8-1.7,3.4-3.3H76c0.5,1.4,1.7,2.6,3.1,3.2v23.2H70z
	 M222.9,155.6h-41.1v-52.1h41.1V155.6z M254.6,122.5h-26.9v-21.4c0-1.3-1.1-2.4-2.4-2.4h-11.8V70.5h41.1V122.5z M211.1,65.6
	c-1.3,0-2.4,1.1-2.4,2.4v30.7h-4.5V42.6c1.6-0.5,2.8-1.7,3.4-3.3h21.3c0.5,1.4,1.7,2.6,3.1,3.2v23.2H211.1z"/>
</svg>
