<?xml version="1.0" encoding="utf-8"?>
<!-- Generator: Adobe Illustrator 26.5.0, SVG Export Plug-In . SVG Version: 6.00 Build 0)  -->
<svg version="1.1" id="Layer_1" xmlns="http://www.w3.org/2000/svg" xmlns:xlink="http://www.w3.org/1999/xlink" x="0px" y="0px"
	 viewBox="0 0 300 200" style="enable-background:new 0 0 300 200;" xml:space="preserve">
<style type="text/css">
	.st0{fill:#18627C;}
</style>
<path class="st0" d="M214.6,165.7c-0.3,0-0.5,0-0.6,0l-44.1-14.4l-44.1,14.4c-0.1,0-0.4,0-0.9,0c-0.3,0-0.5,0-0.6,0l-44.6-14.6
	c-1.5-0.6-2.1-1.4-2.1-3V45.5c0-0.7,0.2-1.5,1.5-2.5c0.3-0.3,0.9-0.3,1.4-0.3c0.8,0,1.1,0.1,1.1,0.1l43.9,14.3l44.1-14.4
	c0.1,0,0.3,0,0.6,0c0.8,0,1.1,0.1,1.1,0.1l44.5,14.5c1.3,0.4,2,1,2,3v102.5c0,0.7-0.2,1.5-1.5,2.5
	C216.2,165.4,215.8,165.7,214.6,165.7z M83.2,146.2l40.3,12.9V62.7L83.2,49.8V146.2z M175.9,147.1l35.9,11.8V62.5l-35.9-11.8V147.1z
	 M129.4,61.9v96.4L170,145V48.6L129.4,61.9z"/>
<path class="st0" d="M99,92.4c1.6,1.6,2.5,3.6,2.5,5.9c0,2.8-0.9,5.9-2.6,9.5s-3.3,6.2-4.8,7.9c-0.3,0.3-0.6,0.4-0.9,0.4
	s-0.7-0.1-0.9-0.4c-1.3-1.5-2.8-3.9-4.5-7.3c-1.7-3.4-2.6-6.4-2.9-9c-0.2-2.5,0.5-4.6,2.2-6.5s3.6-2.8,6.1-2.8
	C95.4,90,97.4,90.8,99,92.4z M98.6,98.3c0-1.5-0.5-2.8-1.6-3.8c-1.1-1.1-2.3-1.6-3.8-1.6s-2.7,0.5-3.8,1.6c-1.1,1.1-1.6,2.3-1.6,3.8
	c0,1.5,0.5,2.7,1.6,3.8c1.1,1.1,2.3,1.6,3.8,1.6s2.7-0.5,3.8-1.6S98.6,99.8,98.6,98.3z"/>
<path class="st0" d="M115.8,109.5c1.6,1.6,2.5,3.6,2.5,5.9c0,2.8-0.9,5.9-2.6,9.5c-1.7,3.6-3.3,6.2-4.8,7.9
	c-0.3,0.3-0.6,0.4-0.9,0.4s-0.7-0.1-0.9-0.4c-1.3-1.5-2.8-3.9-4.5-7.3s-2.6-6.4-2.9-9c-0.2-2.5,0.5-4.6,2.2-6.5s3.6-2.8,6.1-2.8
	C112.2,107.1,114.2,107.9,115.8,109.5z M115.4,115.4c0-1.5-0.5-2.8-1.6-3.8s-2.3-1.6-3.8-1.6c-1.5,0-2.7,0.5-3.8,1.6
	c-1.1,1.1-1.6,2.3-1.6,3.8c0,1.5,0.5,2.7,1.6,3.8c1.1,1.1,2.3,1.6,3.8,1.6c1.5,0,2.7-0.5,3.8-1.6S115.4,116.9,115.4,115.4z"/>
<path class="st0" d="M165.5,70.3c1.6,1.6,2.5,3.6,2.5,5.9c0,2.8-0.9,5.9-2.6,9.5c-1.7,3.6-3.3,6.2-4.8,7.9c-0.3,0.3-0.6,0.4-0.9,0.4
	c-0.4,0-0.7-0.1-0.9-0.4c-1.3-1.5-2.8-3.9-4.5-7.3c-1.7-3.4-2.6-6.4-2.9-9c-0.2-2.5,0.5-4.6,2.2-6.5c1.6-1.8,3.6-2.8,6.1-2.8
	C161.9,67.9,163.9,68.7,165.5,70.3z M165.1,76.2c0-1.5-0.5-2.8-1.6-3.8c-1.1-1.1-2.3-1.6-3.8-1.6c-1.5,0-2.7,0.5-3.8,1.6
	c-1.1,1.1-1.6,2.3-1.6,3.8c0,1.5,0.5,2.7,1.6,3.8c1.1,1.1,2.3,1.6,3.8,1.6c1.5,0,2.7-0.5,3.8-1.6C164.6,78.9,165.1,77.7,165.1,76.2z
	"/>
<path class="st0" d="M200.5,94.8c1.6,1.6,2.5,3.6,2.5,5.9c0,2.8-0.9,5.9-2.6,9.5c-1.7,3.6-3.3,6.2-4.8,7.9c-0.3,0.3-0.6,0.4-0.9,0.4
	c-0.4,0-0.7-0.1-0.9-0.4c-1.3-1.5-2.8-3.9-4.5-7.3s-2.6-6.4-2.9-9c-0.2-2.5,0.5-4.6,2.2-6.5c1.6-1.8,3.6-2.8,6.1-2.8
	C196.9,92.4,198.9,93.2,200.5,94.8z M200.1,100.7c0-1.5-0.5-2.8-1.6-3.8c-1.1-1.1-2.3-1.6-3.8-1.6c-1.5,0-2.7,0.5-3.8,1.6
	c-1.1,1.1-1.6,2.3-1.6,3.8c0,1.5,0.5,2.7,1.6,3.8s2.3,1.6,3.8,1.6c1.5,0,2.7-0.5,3.8-1.6S200.1,102.2,200.1,100.7z"/>
</svg>
